<?xml version="1.0" encoding="utf-8"?>
<!-- Generator: Adobe Illustrator 16.0.0, SVG Export Plug-In . SVG Version: 6.00 Build 0)  -->
<!DOCTYPE svg PUBLIC "-//W3C//DTD SVG 1.1//EN" "http://www.w3.org/Graphics/SVG/1.1/DTD/svg11.dtd">
<svg version="1.1" id="Layer_1" xmlns="http://www.w3.org/2000/svg" xmlns:xlink="http://www.w3.org/1999/xlink" x="0px" y="0px"
	 width="412.96px" height="62.094px" viewBox="0 0 412.96 62.094" enable-background="new 0 0 412.96 62.094" xml:space="preserve">
<path fill="#F49848" d="M305.688,20.092c0-2.097-0.875-3.32-3.146-3.32c-2.621,0-3.494,1.922-3.494,5.416
	c0,3.495,0.523,5.417,3.145,5.417c0.874,0,1.572-0.35,2.098-1.049v0.875h1.572V21.84h-3.32v1.573h1.397v1.048
	c0,1.048-0.873,1.572-1.397,1.572c-1.223,0-1.396-1.572-1.396-4.02c0-2.621,0.35-3.668,1.396-3.668c0.873,0,1.224,1.048,1.224,1.748
	"/>
<path fill="#F49848" d="M310.578,18.869L310.578,18.869l1.051,4.716h-2.099 M306.561,27.43h2.097l0.523-2.097h2.795l0.352,2.097
	h2.271l-2.795-10.308h-2.622L306.561,27.43z"/>
<polyline fill="#F49848" points="321.062,27.43 321.062,25.682 317.393,25.682 317.393,17.122 315.296,17.122 315.296,27.43 "/>
<polyline fill="#F49848" points="327.875,27.43 327.875,25.682 324.207,25.682 324.207,17.122 322.109,17.122 322.109,27.43 "/>
<polyline fill="#F49848" points="326.828,17.122 329.447,23.412 329.447,27.43 331.544,27.43 331.544,23.412 334.339,17.122 
	332.069,17.122 330.496,21.14 329.099,17.122 "/>
<path fill="#F49848" d="M334.339,24.285v0.35c0,1.921,0.873,2.97,3.32,2.97c2.271,0,3.668-0.875,3.668-3.145
	c0-1.224-0.522-2.098-2.096-2.795l-1.572-0.699c-0.875-0.35-1.05-0.698-1.05-1.398c0-0.522,0.175-1.223,1.224-1.223
	c0.698,0,1.049,0.7,1.049,1.572h2.097v-0.351c0-1.922-1.397-2.795-3.319-2.795s-3.145,1.048-3.145,3.146
	c0,1.748,0.873,2.445,2.795,3.145c1.223,0.523,1.748,0.873,1.748,1.748c0,0.873-0.525,1.224-1.225,1.224
	c-1.049,0-1.396-0.524-1.396-1.572v-0.175"/>
<path fill="#F49848" d="M351.46,19.742c0-1.923-0.873-2.796-2.969-2.796c-1.746,0-2.797,1.049-2.797,2.621
	c0,3.846,5.067,2.098,5.067,5.242c0,1.398-0.874,2.096-2.271,2.096c-1.397,0-2.097-0.872-2.097-2.271v-0.35h-0.875v0.175
	c0,2.096,1.05,3.145,2.972,3.145s3.145-1.049,3.145-2.97c0-3.669-5.065-1.922-5.065-5.067c0-1.048,0.698-1.922,2.097-1.922
	c1.223,0,1.746,0.875,1.746,2.098"/>
<path fill="#F49848" d="M352.858,27.43h1.05v-4.543h1.397c2.444,0,3.317-1.223,3.317-2.97s-0.873-2.795-2.97-2.795h-2.796
	 M353.908,17.819h1.572c1.396,0,2.096,0.7,2.096,2.098c0,1.748-0.873,2.271-2.096,2.271h-1.572V17.819z"/>
<path fill="#F49848" d="M360.896,17.819h1.572c1.746,0,2.271,0.875,2.271,2.098c0,1.397-0.872,1.922-2.271,1.922h-1.572
	 M359.849,27.43h1.048v-4.718h1.747c1.572,0,1.921,0.524,1.921,2.446l0.175,0.873c0,0.523,0,1.049,0.176,1.398h1.047
	c-0.35-0.35-0.35-0.875-0.35-1.573v-1.048c0-1.572-0.523-2.447-1.746-2.447c1.397-0.35,1.746-1.396,1.746-2.62
	c0-1.747-0.873-2.62-2.619-2.62h-3.145V27.43L359.849,27.43z"/>
<polyline fill="#F49848" points="367.185,27.43 372.427,27.43 372.427,26.73 368.06,26.73 368.06,17.122 367.185,17.122 "/>
<polyline fill="#496978" points="178.146,40.883 178.146,33.545 184.437,37.213 "/>
<polyline fill="#F49848" points="190.552,41.406 191.25,41.406 191.25,33.718 193.347,33.718 193.347,33.195 188.455,33.195 
	188.455,33.718 190.552,33.718 "/>
<polyline fill="#496978" points="289.264,40.883 289.264,33.545 295.554,37.213 "/>
<path fill="#F49848" d="M306.21,35.641L306.21,35.641c-0.349-0.698-0.697-0.873-1.397-0.873c-1.571,0-2.795,1.747-2.795,3.318
	c0,1.05,0.698,1.747,1.571,1.747c0.701,0,1.049-0.175,1.574-0.697h0.174c-0.174,0.522,0.351,0.697,0.697,0.697
	c1.225,0,2.797-1.572,2.797-3.318c0-2.097-1.746-3.495-4.02-3.495c-2.62,0-4.542,1.922-4.542,4.193c0,2.445,1.922,4.368,4.542,4.368
	c1.572,0,2.971-0.873,3.845-2.099h-0.698c-0.699,0.875-1.924,1.573-3.146,1.573c-2.271,0-4.018-1.746-4.018-3.844
	c0-1.922,1.571-3.668,4.018-3.668c1.748,0,3.495,1.223,3.495,2.97c0,1.223-1.048,2.796-2.097,2.796c-0.177,0-0.35-0.175-0.35-0.35
	c0-0.176,0-0.351,0.173-0.525l1.226-3.493h-0.699 M302.716,38.086c0-1.048,0.873-2.795,2.097-2.795c0.7,0,1.05,0.35,1.05,1.224
	c0,1.048-0.874,2.796-2.098,2.796C303.066,39.311,302.716,38.785,302.716,38.086z"/>
<path fill="#496978" d="M312.675,34.243h0.699v-1.049h-0.699 M312.675,41.406h0.699V35.29h-0.699V41.406z"/>
<path fill="#496978" d="M314.771,41.406h0.699v-4.192c0-0.873,0.523-1.572,1.396-1.572c0.698,0,1.049,0.524,1.049,1.397v4.367h0.699
	v-4.718c0-1.048-0.699-1.573-1.572-1.573c-0.699,0-1.224,0.351-1.572,1.05v-0.875h-0.699"/>
<path fill="#496978" d="M320.188,41.406h0.698v-5.591h1.048V35.29h-1.048v-0.698c0-0.875,0.35-1.048,0.699-1.048
	c0.174,0,0.349,0,0.349,0.173V33.02c0,0-0.175,0-0.349,0c-1.224,0-1.397,0.698-1.397,1.573v0.698h-0.875v0.524h0.875"/>
<path fill="#496978" d="M323.158,38.261c0-1.921,0.698-2.62,1.398-2.62c0.872,0,1.396,0.699,1.396,2.62
	c0,2.098-0.524,2.796-1.396,2.796C323.856,41.057,323.158,40.358,323.158,38.261 M322.458,38.261c0,2.272,0.699,3.32,2.099,3.32
	c1.397,0,2.096-1.048,2.096-3.32c0-2.096-0.698-3.145-2.096-3.145C323.158,35.116,322.458,36.165,322.458,38.261z"/>
<path fill="#496978" d="M333.466,35.641L333.466,35.641c-0.35-0.698-0.875-0.873-1.396-0.873c-1.572,0-2.796,1.747-2.796,3.318
	c0,1.05,0.522,1.747,1.571,1.747c0.523,0,1.05-0.175,1.572-0.697c0,0.522,0.351,0.697,0.875,0.697c1.223,0,2.795-1.572,2.795-3.318
	c0-2.097-1.922-3.495-4.192-3.495c-2.446,0-4.543,1.922-4.543,4.193c0,2.445,2.097,4.368,4.543,4.368
	c1.572,0,3.144-0.873,4.019-2.099h-0.699c-0.698,0.875-2.096,1.573-3.318,1.573c-2.098,0-3.845-1.746-3.845-3.844
	c0-1.922,1.571-3.668,3.845-3.668c1.92,0,3.493,1.223,3.493,2.97c0,1.223-1.048,2.796-2.097,2.796c-0.174,0-0.174-0.175-0.174-0.35
	c0-0.176,0-0.351,0-0.525l1.223-3.493h-0.698 M329.796,38.086c0-1.048,1.049-2.795,2.272-2.795c0.698,0,1.048,0.35,1.048,1.224
	c0,1.048-1.048,2.796-2.271,2.796C330.146,39.311,329.796,38.785,329.796,38.086z"/>
<path fill="#496978" d="M337.484,38.261c0-1.921,0.525-2.62,1.396-2.62c0.873,0,1.225,0.699,1.225,2.62
	c0,1.923-0.352,2.622-1.225,2.622C338.01,40.883,337.484,40.184,337.484,38.261 M340.28,36.165L340.28,36.165
	c-0.351-0.699-0.875-1.049-1.573-1.049c-1.223,0-1.922,1.049-1.922,3.145c0,2.622,0.875,3.146,1.922,3.146
	c0.698,0,1.224-0.35,1.398-1.048v0.873c0,1.224-0.352,1.747-1.225,1.747c-0.698,0-1.223-0.35-1.223-0.873h-0.699
	c0,0.873,0.699,1.397,1.922,1.397c1.398,0,1.924-0.874,1.924-2.446v-5.766h-0.524V36.165L340.28,36.165z"/>
<path fill="#496978" d="M344.998,39.311c0,1.048-0.524,1.746-1.397,1.746c-0.524,0-1.05-0.522-1.05-1.224
	c0-0.872,0.525-1.223,1.224-1.397l0.524-0.175c0.175,0,0.699-0.175,0.699-0.348 M342.726,37.038c0-0.873,0.35-1.397,1.223-1.397
	c0.699,0,1.049,0.35,1.049,1.048c0,0.875,0,0.875-0.523,1.049l-1.396,0.349c-0.873,0.35-1.224,0.875-1.224,1.747
	c0,1.05,0.524,1.748,1.572,1.748c0.698,0,1.397-0.176,1.571-1.048v0.175c0,0.697,0.35,0.873,1.049,0.873l0.176-0.176v-0.522h-0.176
	c-0.176,0-0.351-0.175-0.351-0.524v-3.67c0-0.873-0.35-1.572-1.747-1.572c-1.223,0-1.921,0.699-1.921,1.922H342.726z"/>
<rect x="347.269" y="33.195" fill="#496978" width="0.699" height="8.211"/>
<rect x="349.365" y="33.195" fill="#496978" width="0.698" height="8.211"/>
<path fill="#496978" d="M352.684,41.406l-0.175,0.699c-0.174,0.698-0.523,0.873-0.873,0.873c-0.176,0-0.35-0.175-0.523-0.175v0.699
	c0.174,0,0.35,0,0.523,0c0.873,0,1.223-0.351,1.572-1.572l1.748-6.64h-0.701l-1.223,5.243l-1.396-5.243h-0.698"/>
<path fill="#496978" d="M357.751,38.785c0.523,0.176,0.873,0.524,0.873,1.048c0,0.7-0.523,1.224-1.224,1.224
	c-0.873,0-1.223-0.522-1.223-1.397v-0.176h-0.698v0.176c0,1.397,0.523,1.923,1.921,1.923c1.224,0,1.922-0.873,1.922-1.923
	c0-0.522-0.35-1.224-1.223-1.572l-1.05-0.349c-0.697-0.175-0.872-0.524-0.872-1.049c0-0.522,0.35-1.048,1.223-1.048
	c0.699,0,1.048,0.351,1.048,1.223v0.176h0.699v-0.176c0-1.223-0.523-1.747-1.747-1.747c-1.048,0-1.921,0.524-1.921,1.747
	c0,0.7,0.35,1.224,1.223,1.572"/>
<rect x="360.546" y="40.184" fill="#496978" width="0.873" height="1.223"/>
<path fill="#496978" d="M363.691,38.261c0-2.271,0.698-2.62,1.396-2.62c0.699,0,1.397,0.351,1.397,2.62
	c0,2.447-0.698,2.796-1.397,2.796C364.39,41.057,363.691,40.708,363.691,38.261 M362.992,41.406h0.699v-1.048
	c0.176,0.698,0.698,1.224,1.572,1.224c1.223,0,1.921-1.048,1.921-3.32c0-2.096-0.698-3.146-1.921-3.146
	c-0.874,0-1.396,0.351-1.572,1.05v-2.971h-0.699V41.406z"/>
<path fill="#496978" d="M368.757,37.738c0-1.572,0.524-2.097,1.397-2.097c0.699,0,1.224,0.524,1.224,2.097 M371.378,39.311
	c-0.174,1.224-0.523,1.746-1.224,1.746c-0.698,0-1.397-0.698-1.397-2.446v-0.175h3.32v-0.35c0-2.097-0.524-2.97-1.923-2.97
	c-1.397,0-2.096,1.049-2.096,3.145c0,2.447,0.698,3.32,2.096,3.32c1.05,0,1.747-0.873,1.923-2.271L371.378,39.311L371.378,39.311z"
	/>
<polyline fill="#F49848" points="46.765,55.384 47.637,55.384 47.637,47.696 49.734,47.696 49.734,47.172 44.667,47.172 
	44.667,47.696 46.765,47.696 "/>
<polyline fill="#F49848" points="52.005,55.384 52.878,55.384 55.15,47.172 54.276,47.172 52.53,54.685 50.607,47.172 
	49.908,47.172 "/>
<path fill="#F49848" d="M54.8,55.384h0.7l0.698-2.447h2.97l0.699,2.447h0.698l-2.445-8.212h-0.875 M56.373,52.414l1.223-4.719
	l1.397,4.719H56.373z"/>
<path fill="#496978" d="M63.886,51.364c0,2.447,0.35,4.193,2.271,4.193c1.922,0,2.272-1.746,2.272-4.193
	c0-2.444-0.35-4.191-2.272-4.191C64.235,47.172,63.886,48.919,63.886,51.364 M64.584,51.364c0-2.619,0.524-3.668,1.572-3.668
	c1.049,0,1.573,1.049,1.573,3.668c0,2.622-0.523,3.671-1.573,3.671C65.108,55.034,64.584,53.986,64.584,51.364z"/>
<path fill="#496978" d="M70.35,49.269c0-0.874,0.524-1.572,1.397-1.572c0.875,0,1.397,0.698,1.397,1.572
	c0,0.873-0.523,1.397-1.397,1.397C70.874,50.666,70.35,50.142,70.35,49.269 M69.477,53.111c0,1.573,0.873,2.446,2.271,2.446
	s2.272-0.873,2.272-2.446c0-1.048-0.35-1.922-1.397-2.096c0.698-0.175,1.223-1.049,1.223-1.747c0-1.396-0.873-2.097-2.097-2.097
	c-1.223,0-2.096,0.699-2.096,2.097c0,0.698,0.523,1.572,1.223,1.747C69.826,51.189,69.477,52.063,69.477,53.111z M70.174,53.111
	c0-1.048,0.525-1.747,1.573-1.747c1.049,0,1.572,0.699,1.572,1.747c0,1.049-0.523,1.924-1.572,1.924
	C70.699,55.034,70.174,54.159,70.174,53.111z"/>
<path fill="#496978" d="M75.067,51.364c0,2.447,0.35,4.193,2.272,4.193c1.921,0,2.271-1.746,2.271-4.193
	c0-2.444-0.35-4.191-2.271-4.191C75.417,47.172,75.067,48.919,75.067,51.364 M75.767,51.364c0-2.619,0.523-3.668,1.572-3.668
	c1.048,0,1.571,1.049,1.571,3.668c0,2.622-0.523,3.671-1.571,3.671C76.29,55.034,75.767,53.986,75.767,51.364z"/>
<path fill="#496978" d="M80.658,47.871h3.844c-1.572,2.096-2.795,5.239-2.97,7.513h0.698c0.175-2.272,1.223-5.242,2.97-7.513v-0.524
	h-4.542"/>
<rect x="86.772" y="54.159" fill="#496978" width="0.7" height="1.225"/>
<path fill="#496978" d="M89.568,47.347l-0.35,4.192h0.7c0.175-0.698,0.698-1.048,1.397-1.048c1.048,0,1.572,1.048,1.572,2.096
	c0,1.572-0.699,2.447-1.572,2.447c-1.048,0-1.573-0.875-1.573-1.748h-0.698c0,1.397,0.873,2.271,2.096,2.271
	c1.747,0,2.445-1.224,2.445-2.796c0-1.921-0.873-2.795-2.096-2.795c-0.7,0-1.397,0.175-1.572,0.874l0.35-2.97h2.97v-0.524"/>
<path fill="#496978" d="M95.333,49.792c0-1.048,0.35-2.097,1.572-2.097c1.048,0,1.398,1.049,1.398,2.097
	c0,1.049-0.35,2.097-1.398,2.097C95.683,51.889,95.333,50.841,95.333,49.792 M94.81,53.637c0,1.048,0.698,1.921,1.921,1.921
	c1.922,0,2.447-1.746,2.447-4.368c0-2.62-0.525-4.018-2.272-4.018c-1.572,0-2.271,1.223-2.271,2.795s0.698,2.62,2.096,2.62
	c0.875,0,1.398-0.523,1.748-1.397c0,2.797-0.525,3.846-1.748,3.846c-0.698,0-1.223-0.7-1.223-1.397L94.81,53.637L94.81,53.637z"/>
<path fill="#496978" d="M101.099,52.762c0-1.048,0.35-2.096,1.398-2.096c1.223,0,1.572,1.048,1.572,2.096
	c0,1.225-0.35,2.272-1.572,2.272C101.449,55.034,101.099,53.986,101.099,52.762 M104.594,49.094c0-1.048-0.7-1.922-1.922-1.922
	c-1.922,0-2.621,1.747-2.621,4.367s0.698,4.019,2.446,4.019c1.572,0,2.272-1.224,2.272-2.796s-0.7-2.62-2.097-2.62
	c-0.873,0-1.573,0.524-1.748,1.397c0-2.795,0.525-3.844,1.748-3.844c0.7,0,1.223,0.522,1.223,1.397L104.594,49.094L104.594,49.094z"
	/>
<rect x="106.341" y="54.159" fill="#496978" width="0.698" height="1.225"/>
<path fill="#496978" d="M109.485,49.269c0-0.874,0.524-1.572,1.399-1.572c0.873,0,1.397,0.698,1.397,1.572
	c0,0.873-0.524,1.397-1.397,1.397C110.009,50.666,109.485,50.142,109.485,49.269 M108.612,53.111c0,1.573,0.873,2.446,2.272,2.446
	c1.397,0,2.271-0.873,2.271-2.446c0-1.048-0.524-1.922-1.397-2.096c0.698-0.175,1.223-1.049,1.223-1.747
	c0-1.396-0.873-2.097-2.096-2.097c-1.224,0-2.097,0.699-2.097,2.097c0,0.698,0.524,1.572,1.223,1.747
	C108.961,51.189,108.612,52.063,108.612,53.111z M109.311,53.111c0-1.048,0.523-1.747,1.573-1.747c1.048,0,1.571,0.699,1.571,1.747
	c0,1.049-0.523,1.924-1.571,1.924C109.834,55.034,109.311,54.159,109.311,53.111z"/>
<path fill="#496978" d="M114.727,47.347l-0.35,4.192h0.7c0.175-0.698,0.698-1.048,1.397-1.048c1.048,0,1.573,1.048,1.573,2.096
	c0,1.572-0.7,2.447-1.573,2.447c-1.049,0-1.572-0.875-1.572-1.748h-0.7c0,1.397,0.875,2.271,2.097,2.271
	c1.573,0,2.446-1.224,2.446-2.796c0-1.921-0.873-2.795-2.096-2.795c-0.7,0-1.398,0.175-1.573,0.874h-0.175l0.523-2.97h2.97v-0.524"
	/>
<path fill="#496978" d="M120.667,49.269c0-0.874,0.523-1.572,1.398-1.572c0.873,0,1.397,0.698,1.397,1.572
	c0,0.873-0.524,1.397-1.397,1.397C121.19,50.666,120.667,50.142,120.667,49.269 M119.793,53.111c0,1.573,0.874,2.446,2.272,2.446
	c1.397,0,2.271-0.873,2.271-2.446c0-1.048-0.523-1.922-1.397-2.096c0.699-0.175,1.223-1.049,1.223-1.747
	c0-1.396-0.873-2.097-2.096-2.097s-2.097,0.699-2.097,2.097c0,0.698,0.524,1.572,1.223,1.747
	C120.143,51.189,119.793,52.063,119.793,53.111z M120.492,53.111c0-1.048,0.525-1.747,1.573-1.747s1.572,0.699,1.572,1.747
	c0,1.049-0.524,1.924-1.572,1.924S120.492,54.159,120.492,53.111z"/>
<polyline fill="#496978" points="130.101,54.859 130.101,47.521 136.391,51.189 "/>
<path fill="#496978" d="M141.458,55.384h2.271c1.572,0,2.621-0.874,2.621-2.272c0-1.048-0.523-1.922-1.573-2.096
	c0.7-0.175,1.223-1.049,1.223-1.922c0-1.223-0.698-1.922-2.271-1.922h-2.271 M142.156,51.364h1.398c1.397,0,1.922,0.524,1.922,1.747
	c0,1.049-0.525,1.573-1.922,1.573h-1.398V51.364z M142.156,47.696h1.398c1.048,0,1.747,0.351,1.747,1.572
	c0,0.873-0.699,1.397-1.922,1.397h-1.223V47.696L142.156,47.696z"/>
<path fill="#496978" d="M150.194,53.286c0,1.048-0.699,1.748-1.399,1.748c-0.698,0-1.048-0.524-1.048-1.224
	c0-0.875,0.35-1.225,1.048-1.396l0.524-0.177c0.35,0,0.7-0.175,0.875-0.35 M147.922,51.016c0-0.874,0.35-1.396,1.223-1.396
	c0.525,0,1.049,0.349,1.049,1.048c0,0.873-0.175,0.873-0.699,1.048l-1.223,0.35c-0.874,0.175-1.223,0.873-1.223,1.748
	c0,1.048,0.349,1.746,1.573,1.746c0.698,0,1.223-0.174,1.572-1.048v0.175c0,0.699,0.349,0.699,0.873,0.699c0.175,0,0.175,0,0.35,0
	v-0.524h-0.175c-0.35,0-0.35-0.175-0.35-0.524v-3.668c0-0.874-0.525-1.572-1.748-1.572c-1.397,0-1.921,0.698-1.921,1.922h0.699
	V51.016z"/>
<path fill="#496978" d="M152.29,55.384h0.7V51.19c0-0.873,0.523-1.57,1.397-1.57c0.698,0,1.048,0.522,1.048,1.396v4.368h0.698
	v-4.718c0-1.048-0.698-1.572-1.571-1.572c-0.699,0-1.224,0.35-1.572,1.048v-0.873h-0.7"/>
<path fill="#496978" d="M157.88,52.238c0-2.097,0.699-2.619,1.397-2.619c0.35,0,0.7,0.174,1.049,0.522
	c0.173,0.524,0.349,1.048,0.349,2.097c0,2.271-0.698,2.797-1.398,2.797C158.58,55.034,157.88,54.51,157.88,52.238 M160.676,57.479
	h0.699v-8.211h-0.699v0.873c-0.175-0.522-0.698-1.048-1.573-1.048c-1.397,0-1.921,1.048-1.921,3.145
	c0,2.271,0.698,3.319,1.921,3.319c0.875,0,1.397-0.522,1.573-1.048V57.479z"/>
<path fill="#496978" d="M162.598,53.812c0,1.224,0.7,1.746,1.573,1.746c0.698,0,1.223-0.349,1.572-1.048v0.874h0.698v-6.115h-0.698
	v4.019c0,1.048-0.524,1.748-1.397,1.748c-0.7,0-1.048-0.524-1.048-1.397V49.27h-0.7"/>
<path fill="#496978" d="M168.363,51.714c0-1.572,0.35-2.096,1.223-2.096c0.875,0,1.223,0.522,1.397,2.096 M170.983,53.286
	c-0.175,1.224-0.698,1.748-1.397,1.748c-0.698,0-1.223-0.7-1.223-2.447v-0.173h3.32v-0.352c0-2.097-0.7-2.97-2.097-2.97
	c-1.223,0-2.096,1.048-2.096,3.145c0,2.446,0.873,3.319,2.096,3.319s1.922-0.873,2.097-2.271H170.983z"/>
<rect x="175.526" y="47.172" fill="#496978" width="0.875" height="8.212"/>
<polyline fill="#496978" points="177.624,55.384 178.497,55.384 178.497,48.219 181.642,55.384 182.689,55.384 182.689,47.172 
	181.816,47.172 181.816,54.334 178.671,47.172 177.624,47.172 "/>
<path fill="#496978" d="M188.28,51.714v0.175c0,2.098-0.698,2.971-1.746,2.971c-1.225,0-1.922-0.873-1.922-3.67
	c0-2.62,0.698-3.668,1.922-3.668c1.048,0,1.571,0.873,1.571,1.922h0.875c-0.175-1.396-0.875-2.446-2.445-2.446
	c-1.748,0-2.622,1.223-2.622,4.192c0,2.971,0.875,4.368,2.622,4.368c0.873,0,1.571-0.698,1.746-1.571v1.397h0.7V51.19h-2.621v0.524"
	/>
<path fill="#496978" d="M193.347,55.384h0.698v-1.225h-0.698 M193.347,50.841h0.698v-1.223h-0.698V50.841z"/>
<path fill="#496978" d="M198.065,55.384h2.271c1.573,0,2.621-0.874,2.621-2.272c0-1.048-0.523-1.922-1.573-2.096
	c0.875-0.175,1.224-1.049,1.224-1.922c0-1.223-0.524-1.922-2.272-1.922h-2.271 M198.938,51.364h1.397
	c1.223,0,1.922,0.524,1.922,1.747c0,1.049-0.7,1.573-1.922,1.573h-1.397V51.364z M198.938,47.696h1.223
	c1.223,0,1.748,0.351,1.748,1.572c0,0.873-0.525,1.397-1.922,1.397h-1.048L198.938,47.696L198.938,47.696z"/>
<polyline fill="#496978" points="204.005,55.384 208.198,55.384 208.198,54.685 204.703,54.685 204.703,51.364 207.848,51.364 
	207.848,50.666 204.703,50.666 204.703,47.696 208.023,47.696 208.023,47.172 204.005,47.172 "/>
<path fill="#496978" d="M209.596,47.347l-0.524,4.192h0.699c0.35-0.698,0.873-1.048,1.398-1.048c1.223,0,1.746,1.048,1.746,2.096
	c0,1.572-0.699,2.447-1.746,2.447c-0.875,0-1.398-0.875-1.398-1.748h-0.875c0,1.397,0.875,2.271,2.271,2.271
	c1.572,0,2.445-1.224,2.445-2.796c0-1.921-0.873-2.795-2.271-2.795c-0.524,0-1.223,0.175-1.572,0.874l0.35-2.97h3.145v-0.524"/>
<path fill="#496978" d="M216.234,51.364h0.523c1.049,0,1.748,0.699,1.748,1.747c0,1.398-0.875,1.924-1.748,1.924
	c-1.047,0-1.571-0.875-1.571-1.924h-0.7c0,1.573,0.875,2.446,2.271,2.446c1.574,0,2.445-1.048,2.445-2.446
	c0-1.048-0.697-1.922-1.572-2.096c0.875-0.175,1.224-0.874,1.224-1.747c0-1.396-0.698-2.097-2.097-2.097
	c-1.397,0-2.096,0.874-2.096,2.271h0.699c0-1.225,0.698-1.747,1.396-1.747c0.873,0,1.397,0.698,1.397,1.572
	c0,1.048-0.524,1.572-1.571,1.572h-0.351"/>
<path fill="#496978" d="M224.621,51.364h0.523c1.048,0,1.748,0.699,1.748,1.747c0,1.398-0.875,1.924-1.748,1.924
	c-1.048,0-1.572-0.875-1.572-1.924h-0.697c0,1.573,0.873,2.446,2.271,2.446c1.573,0,2.446-1.048,2.446-2.446
	c0-1.048-0.698-1.922-1.573-2.096c0.875-0.175,1.224-0.874,1.224-1.747c0-1.396-0.699-2.097-2.097-2.097s-2.097,0.874-2.097,2.271
	h0.699c0-1.225,0.699-1.747,1.397-1.747c0.873,0,1.397,0.698,1.397,1.572c0,1.048-0.524,1.572-1.572,1.572h-0.35"/>
<path fill="#496978" d="M229.337,52.762c0-1.048,0.35-2.096,1.572-2.096c1.049,0,1.572,1.048,1.572,2.096
	c0,1.225-0.523,2.272-1.572,2.272C229.688,55.034,229.337,53.986,229.337,52.762 M233.007,49.094c0-1.048-0.7-1.922-2.098-1.922
	c-1.922,0-2.445,1.747-2.445,4.367s0.522,4.019,2.445,4.019c1.572,0,2.272-1.224,2.272-2.796s-0.7-2.62-2.097-2.62
	c-0.873,0-1.573,0.524-1.922,1.397c0.174-2.795,0.699-3.844,1.748-3.844c0.873,0,1.396,0.522,1.396,1.397L233.007,49.094
	L233.007,49.094z"/>
<path fill="#496978" d="M235.803,51.364h0.522c1.049,0,1.748,0.699,1.748,1.747c0,1.398-0.873,1.924-1.748,1.924
	c-1.048,0-1.572-0.875-1.572-1.924h-0.697c0,1.573,0.873,2.446,2.271,2.446c1.572,0,2.446-1.048,2.446-2.446
	c0-1.048-0.698-1.922-1.571-2.096c0.873-0.175,1.223-0.874,1.223-1.747c0-1.396-0.699-2.097-2.098-2.097
	c-1.396,0-2.096,0.874-2.096,2.271h0.698c0-1.225,0.698-1.747,1.397-1.747c0.875,0,1.397,0.698,1.397,1.572
	c0,1.048-0.522,1.572-1.573,1.572h-0.348"/>
<path fill="#496978" d="M239.646,51.364c0,2.447,0.525,4.193,2.445,4.193c1.748,0,2.272-1.746,2.272-4.193
	c0-2.444-0.524-4.191-2.272-4.191C240.169,47.172,239.646,48.919,239.646,51.364 M240.519,51.364c0-2.619,0.35-3.668,1.572-3.668
	c1.05,0,1.572,1.049,1.572,3.668c0,2.622-0.522,3.671-1.572,3.671C240.869,55.034,240.519,53.986,240.519,51.364z"/>
<path fill="#496978" d="M248.556,52.587l2.621-4.192v4.192 M251.177,55.384h0.699v-2.098h0.873v-0.699h-0.873v-5.415h-0.699
	l-3.146,5.415v0.699h3.146V55.384z"/>
<path fill="#496978" d="M255.371,51.364h0.523c1.048,0,1.748,0.699,1.748,1.747c0,1.398-0.875,1.924-1.748,1.924
	c-1.048,0-1.572-0.875-1.572-1.924h-0.699c0,1.573,0.875,2.446,2.271,2.446c1.572,0,2.445-1.048,2.445-2.446
	c0-1.048-0.697-1.922-1.572-2.096c0.875-0.175,1.223-0.874,1.223-1.747c0-1.396-0.697-2.097-2.096-2.097
	c-1.396,0-2.098,0.874-2.098,2.271h0.701c0-1.225,0.697-1.747,1.396-1.747c0.873,0,1.398,0.698,1.398,1.572
	c0,1.048-0.525,1.572-1.573,1.572h-0.351"/>
<path fill="#496978" d="M260.96,51.364h0.524c1.048,0,1.747,0.699,1.747,1.747c0,1.398-0.875,1.924-1.747,1.924
	c-1.048,0-1.573-0.875-1.573-1.924h-0.697c0,1.573,0.873,2.446,2.271,2.446c1.572,0,2.445-1.048,2.445-2.446
	c0-1.048-0.698-1.922-1.573-2.096c0.875-0.175,1.225-0.874,1.225-1.747c0-1.396-0.699-2.097-2.097-2.097s-2.096,0.874-2.096,2.271
	h0.698c0-1.225,0.699-1.747,1.397-1.747c0.873,0,1.397,0.698,1.397,1.572c0,1.048-0.525,1.572-1.573,1.572h-0.351"/>
<path fill="#496978" d="M265.853,49.269c0-0.874,0.35-1.572,1.396-1.572c0.875,0,1.224,0.698,1.224,1.572
	c0,0.873-0.349,1.397-1.224,1.397C266.203,50.666,265.853,50.142,265.853,49.269 M264.805,53.111c0,1.573,1.048,2.446,2.444,2.446
	c1.224,0,2.272-0.873,2.272-2.446c0-1.048-0.524-1.922-1.571-2.096c0.872-0.175,1.223-1.049,1.223-1.747
	c0-1.396-0.875-2.097-1.922-2.097c-1.224,0-2.097,0.699-2.097,2.097c0,0.698,0.349,1.572,1.224,1.747
	C265.328,51.189,264.805,52.063,264.805,53.111z M265.678,53.111c0-1.048,0.524-1.747,1.571-1.747c1.049,0,1.573,0.699,1.573,1.747
	c0,1.049-0.524,1.924-1.573,1.924C266.203,55.034,265.678,54.159,265.678,53.111z"/>
<path fill="#496978" d="M273.89,49.792c0-1.048,0.523-2.097,1.57-2.097c1.225,0,1.574,1.049,1.574,2.097
	c0,1.049-0.35,2.097-1.574,2.097C274.414,51.889,273.89,50.841,273.89,49.792 M273.365,53.637c0,1.048,0.698,1.921,2.096,1.921
	c1.922,0,2.447-1.746,2.447-4.368c0-2.62-0.525-4.018-2.447-4.018c-1.57,0-2.271,1.223-2.271,2.795s0.7,2.62,2.097,2.62
	c0.873,0,1.573-0.523,1.922-1.397c0,2.797-0.699,3.846-1.748,3.846c-0.873,0-1.224-0.7-1.397-1.397L273.365,53.637L273.365,53.637z"
	/>
<path fill="#496978" d="M279.306,52.587l2.619-4.192v4.192 M281.925,55.384h0.701v-2.098h0.871v-0.699h-0.871v-5.415h-0.701
	l-3.145,5.415v0.699h3.145V55.384z"/>
<path fill="#496978" d="M285.071,47.347l-0.524,4.192h0.699c0.351-0.698,0.873-1.048,1.397-1.048c1.224,0,1.747,1.048,1.747,2.096
	c0,1.572-0.699,2.447-1.747,2.447c-0.874,0-1.397-0.875-1.397-1.748h-0.875c0,1.397,0.875,2.271,2.272,2.271
	c1.571,0,2.444-1.224,2.444-2.796c0-1.921-0.873-2.795-2.271-2.795c-0.524,0-1.223,0.175-1.571,0.874l0.35-2.97h3.145v-0.524"/>
<path fill="#496978" d="M291.71,51.364h0.523c1.048,0,1.572,0.699,1.572,1.747c0,1.398-0.699,1.924-1.572,1.924
	c-1.048,0-1.572-0.875-1.572-1.924h-0.697c0,1.573,0.873,2.446,2.271,2.446c1.572,0,2.445-1.048,2.445-2.446
	c0-1.048-0.698-1.922-1.572-2.096c0.874-0.175,1.224-0.874,1.224-1.747c0-1.396-0.699-2.097-2.097-2.097s-2.098,0.874-2.098,2.271
	h0.7c0-1.225,0.697-1.747,1.396-1.747c0.873,0,1.396,0.698,1.396,1.572c0,1.048-0.523,1.572-1.571,1.572h-0.351"/>
<rect x="298.524" y="51.714" fill="#496978" width="2.62" height="0.7"/>
<path fill="#496978" d="M305.164,55.384h2.271c1.571,0,2.62-0.874,2.62-2.272c0-1.048-0.524-1.922-1.572-2.096
	c0.873-0.175,1.223-1.049,1.223-1.922c0-1.223-0.523-1.922-2.097-1.922h-2.444 M306.035,51.364h1.399
	c1.223,0,1.921,0.524,1.921,1.747c0,1.049-0.698,1.573-1.921,1.573h-1.399V51.364z M306.035,47.696h1.226
	c1.223,0,1.745,0.351,1.745,1.572c0,0.873-0.522,1.397-1.92,1.397h-1.051V47.696L306.035,47.696z"/>
<rect x="311.103" y="47.172" fill="#496978" width="0.7" height="8.212"/>
<path fill="#496978" d="M317.566,52.587c-0.174,1.398-0.697,2.271-1.746,2.271c-1.223,0-1.922-0.873-1.922-3.67
	c0-2.62,0.699-3.668,1.922-3.668c1.049,0,1.572,0.873,1.572,1.922h0.697c0-1.225-0.697-2.446-2.271-2.446
	c-1.747,0-2.621,1.223-2.621,4.192c0,2.971,0.874,4.368,2.621,4.368c1.397,0,2.271-1.048,2.445-2.971"/>
<path fill="#496978" d="M322.458,55.384h0.699v-1.225h-0.699 M322.458,50.841h0.699v-1.223h-0.699V50.841z"/>
<path fill="#496978" d="M327.177,55.384h2.271c1.572,0,2.622-0.874,2.622-2.272c0-1.048-0.525-1.922-1.572-2.096
	c0.873-0.175,1.223-1.049,1.223-1.922c0-1.223-0.699-1.922-2.271-1.922h-2.271 M327.875,51.364h1.398
	c1.396,0,1.921,0.524,1.921,1.747c0,1.049-0.524,1.573-1.921,1.573h-1.398V51.364z M327.875,47.696h1.398
	c1.223,0,1.746,0.351,1.746,1.572c0,0.873-0.698,1.397-1.921,1.397h-1.224V47.696L327.875,47.696z"/>
<path fill="#496978" d="M332.942,55.384h2.445c1.571,0,2.446-0.874,2.446-2.272c0-1.048-0.524-1.922-1.572-2.096
	c0.873-0.175,1.223-1.049,1.223-1.922c0-1.223-0.523-1.922-2.097-1.922h-2.445 M333.814,51.364h1.398
	c1.224,0,1.922,0.524,1.922,1.747c0,1.049-0.698,1.573-1.922,1.573h-1.398V51.364z M333.814,47.696h1.225
	c1.224,0,1.746,0.351,1.746,1.572c0,0.873-0.522,1.397-1.921,1.397h-1.05V47.696L333.814,47.696z"/>
<path fill="#496978" d="M339.58,47.696h1.398c1.398,0,1.747,0.698,1.747,1.572c0,1.223-0.698,1.747-1.921,1.747h-1.225
	 M338.882,55.384h0.697v-3.845h1.398c1.398,0,1.572,0.523,1.747,1.923v0.697c0,0.524,0,0.875,0.175,1.225h0.873
	c-0.35-0.35-0.35-0.699-0.35-1.225v-0.873c0-1.224-0.35-1.923-1.396-1.923c1.049-0.349,1.396-1.223,1.396-2.271
	c0-1.223-0.698-1.922-2.096-1.922h-2.447v8.213H338.882z"/>
<path fill="#496978" d="M344.647,53.111c0,1.748,0.873,2.446,2.271,2.446c1.574,0,2.447-0.698,2.447-2.446v-5.938h-0.699v5.938
	c0,1.224-0.524,1.748-1.748,1.748c-1.047,0-1.571-0.524-1.571-1.748v-5.938h-0.698"/>
<path fill="#496978" d="M350.587,55.384h2.271c1.573,0,2.447-0.874,2.447-2.272c0-1.048-0.523-1.922-1.572-2.096
	c0.873-0.175,1.396-1.049,1.396-1.922c0-1.223-0.698-1.922-2.271-1.922h-2.271 M351.287,51.364h1.396
	c1.225,0,1.923,0.524,1.923,1.747c0,1.049-0.698,1.573-1.923,1.573h-1.396V51.364z M351.287,47.696h1.396
	c1.05,0,1.748,0.351,1.748,1.572c0,0.873-0.698,1.397-1.924,1.397h-1.223v-2.97H351.287z"/>
<polyline fill="#496978" points="356.354,55.384 360.546,55.384 360.546,54.685 357.052,54.685 357.052,51.364 360.371,51.364 
	360.371,50.666 357.052,50.666 357.052,47.696 360.546,47.696 360.546,47.172 356.354,47.172 "/>
<path fill="#496978" d="M361.595,55.384h2.271c1.571,0,2.444-0.874,2.444-2.272c0-1.048-0.524-1.922-1.572-2.096
	c0.873-0.175,1.397-1.049,1.397-1.922c0-1.223-0.698-1.922-2.271-1.922h-2.271 M362.294,51.364h1.396
	c1.223,0,1.921,0.524,1.921,1.747c0,1.049-0.698,1.573-1.921,1.573h-1.396V51.364z M362.294,47.696h1.396
	c1.048,0,1.572,0.351,1.572,1.572c0,0.873-0.524,1.397-1.747,1.397h-1.224v-2.97H362.294z"/>
<path fill="#496978" d="M367.359,55.384h2.271c1.572,0,2.621-0.874,2.621-2.272c0-1.048-0.524-1.922-1.572-2.096
	c0.873-0.175,1.223-1.049,1.223-1.922c0-1.223-0.697-1.922-2.271-1.922h-2.271 M368.06,51.364h1.396
	c1.397,0,1.922,0.524,1.922,1.747c0,1.049-0.523,1.573-1.922,1.573h-1.396V51.364z M368.06,47.696h1.396
	c1.224,0,1.748,0.351,1.748,1.572c0,0.873-0.699,1.397-1.922,1.397h-1.224L368.06,47.696L368.06,47.696z"/>
<polyline fill="#F49848" points="409.99,15.898 409.99,25.333 400.729,20.615 "/>
<g>
	<g>
		<defs>
			<rect id="SVGID_1_" x="383.958" y="0" width="29.002" height="41.581"/>
		</defs>
		<clipPath id="SVGID_2_">
			<use xlink:href="#SVGID_1_"  overflow="visible"/>
		</clipPath>
		<polyline clip-path="url(#SVGID_2_)" fill="#496978" points="383.958,20.615 424.666,41.231 424.666,36.165 393.916,20.615 
			424.666,5.066 424.666,0 		"/>
	</g>
</g>
<g>
	<g>
		<path fill="#496978" d="M40.211,41.581v-8.877h2.687c0.839,0,1.468,0.363,1.886,1.09c0.229,0.395,0.342,0.809,0.342,1.242
			c0,0.523-0.112,1.002-0.337,1.436c-0.246,0.477-0.646,0.781-1.201,0.914l1.507,4.195h-0.854l-1.454-4.055h-1.796v4.055H40.211z
			 M40.991,36.8h1.98c0.369,0,0.683-0.129,0.943-0.387c0.288-0.285,0.432-0.73,0.432-1.336c0-0.805-0.39-1.32-1.169-1.547
			c-0.232-0.066-0.485-0.1-0.759-0.1h-1.427V36.8z"/>
		<path fill="#496978" d="M45.938,40.005V35.4h0.695v4.605c0,0.293,0.094,0.53,0.282,0.712c0.188,0.182,0.391,0.272,0.608,0.272
			c0.52,0,1.059-0.338,1.617-1.014V35.4h0.695v6.182H49.14v-1.02c-0.499,0.543-0.925,0.875-1.28,0.996
			c-0.172,0.059-0.351,0.088-0.537,0.088c-0.404,0-0.736-0.137-0.996-0.41S45.938,40.552,45.938,40.005z"/>
		<path fill="#496978" d="M51.336,40.714c-0.172-0.285-0.303-0.604-0.393-0.955c-0.089-0.352-0.134-0.721-0.134-1.107
			s0.024-0.739,0.074-1.058s0.114-0.589,0.195-0.812c0.081-0.223,0.179-0.421,0.295-0.595c0.116-0.174,0.235-0.313,0.358-0.419
			s0.256-0.191,0.4-0.258c0.249-0.117,0.486-0.176,0.711-0.176s0.416,0.022,0.574,0.067s0.328,0.137,0.508,0.275
			s0.336,0.321,0.466,0.548c0.302,0.531,0.453,1.314,0.453,2.35h-3.34c0,1.043,0.237,1.754,0.711,2.133
			c0.235,0.188,0.497,0.281,0.785,0.281c0.541,0,1.001-0.373,1.38-1.119l0.479,0.369c-0.137,0.281-0.316,0.535-0.537,0.762
			c-0.421,0.43-0.838,0.645-1.249,0.645c-0.411,0-0.76-0.084-1.048-0.252S51.508,40.999,51.336,40.714z M51.537,37.919h2.613
			c0-0.582-0.122-1.064-0.364-1.447c-0.204-0.32-0.493-0.48-0.869-0.48c-0.614,0-1.025,0.316-1.232,0.949
			C51.585,37.238,51.537,37.564,51.537,37.919z"/>
		<path fill="#496978" d="M58.595,38.977c-0.066-0.303-0.115-0.606-0.145-0.911s-0.045-0.647-0.045-1.028s0.031-0.781,0.092-1.201
			s0.164-0.828,0.308-1.225s0.323-0.741,0.537-1.034c0.214-0.293,0.484-0.528,0.809-0.706s0.656-0.267,0.993-0.267
			c0.337,0,0.624,0.048,0.861,0.144c0.237,0.096,0.436,0.22,0.598,0.372s0.309,0.321,0.442,0.507s0.239,0.372,0.316,0.56
			c0.162,0.387,0.262,0.68,0.3,0.879l0.032,0.141v0.006l-0.801,0.24c-0.056-0.445-0.127-0.771-0.213-0.976
			c-0.086-0.205-0.172-0.373-0.258-0.504c-0.086-0.131-0.182-0.241-0.287-0.331c-0.25-0.207-0.548-0.311-0.896-0.311
			c-1.37,0-2.054,1.268-2.054,3.803c0,1.086,0.144,1.973,0.432,2.66c0.327,0.77,0.868,1.154,1.623,1.154
			c0.618,0,1.099-0.27,1.443-0.809c0.239-0.379,0.358-0.803,0.358-1.271l0.769,0.135c-0.014,0.043-0.046,0.148-0.097,0.316
			c-0.051,0.168-0.094,0.305-0.129,0.41c-0.035,0.105-0.092,0.249-0.171,0.431s-0.158,0.333-0.237,0.454
			c-0.079,0.121-0.184,0.255-0.316,0.401s-0.271,0.263-0.418,0.349c-0.355,0.207-0.718,0.311-1.091,0.311
			c-0.372,0-0.686-0.047-0.94-0.141c-0.255-0.094-0.477-0.222-0.667-0.384c-0.189-0.162-0.361-0.357-0.514-0.586
			s-0.28-0.475-0.382-0.738C58.747,39.563,58.662,39.28,58.595,38.977z"/>
		<path fill="#496978" d="M64.548,40.073c0-0.279,0.031-0.523,0.095-0.732c0.063-0.209,0.162-0.395,0.297-0.557
			s0.289-0.306,0.461-0.431c0.172-0.125,0.386-0.238,0.643-0.34c0.467-0.184,1.038-0.35,1.712-0.498
			c0-0.617-0.107-1.029-0.322-1.236c-0.189-0.184-0.465-0.275-0.827-0.275c-0.442,0-0.824,0.188-1.143,0.562
			c-0.137,0.152-0.232,0.289-0.285,0.41l-0.5-0.369c0.394-0.84,1.062-1.26,2.007-1.26c0.846,0,1.387,0.361,1.622,1.084
			c0.095,0.293,0.143,0.648,0.143,1.066v3.217c0,0.113,0.019,0.268,0.058,0.463s0.074,0.33,0.105,0.404h-0.701
			c-0.105-0.059-0.158-0.387-0.158-0.984c-0.496,0.707-1.042,1.061-1.638,1.061c-0.661,0-1.119-0.258-1.375-0.773
			C64.613,40.622,64.548,40.352,64.548,40.073z M65.375,39.402c-0.087,0.18-0.131,0.414-0.131,0.703s0.091,0.511,0.274,0.665
			s0.385,0.231,0.608,0.231c0.223,0,0.419-0.037,0.59-0.111s0.326-0.17,0.466-0.287c0.256-0.215,0.448-0.406,0.574-0.574v-1.857
			c-0.667,0.191-1.062,0.309-1.186,0.352C65.952,38.745,65.554,39.038,65.375,39.402z"/>
		<path fill="#496978" d="M69.736,41.581v-8.877h0.695v3.709c0.52-0.551,0.946-0.883,1.28-0.996
			c0.172-0.055,0.351-0.082,0.537-0.082c0.404,0,0.736,0.137,0.996,0.41c0.26,0.273,0.39,0.684,0.39,1.23v4.605h-0.695v-4.605
			c0-0.293-0.094-0.53-0.282-0.712c-0.188-0.182-0.391-0.272-0.608-0.272c-0.52,0-1.059,0.338-1.617,1.014v4.576H69.736z"/>
		<path fill="#496978" d="M74.608,38.449c0-0.943,0.19-1.698,0.572-2.265c0.381-0.566,0.914-0.85,1.599-0.85
			c0.685,0,1.216,0.285,1.593,0.855s0.566,1.332,0.566,2.285s-0.19,1.721-0.572,2.303c-0.381,0.582-0.91,0.873-1.588,0.873
			c-0.692,0-1.229-0.301-1.612-0.902C74.794,40.159,74.608,39.393,74.608,38.449z M75.304,38.488c0,1.238,0.29,2.023,0.869,2.355
			c0.176,0.102,0.377,0.152,0.606,0.152c0.228,0,0.431-0.051,0.608-0.152c0.177-0.102,0.318-0.232,0.424-0.393
			s0.191-0.354,0.258-0.58c0.116-0.395,0.174-0.854,0.174-1.377c0-1.668-0.49-2.502-1.47-2.502
			C75.793,35.991,75.304,36.823,75.304,38.488z"/>
		<path fill="#496978" d="M79.966,41.581V35.4h0.695v1.664c0.165-0.406,0.291-0.686,0.379-0.838c0.344-0.594,0.79-0.891,1.338-0.891
			c0.042,0,0.105,0.004,0.19,0.012v0.656c-0.239,0.035-0.438,0.085-0.595,0.149c-0.158,0.064-0.312,0.167-0.464,0.308
			c-0.263,0.242-0.546,0.725-0.848,1.447v3.674H79.966z"/>
		<path fill="#496978" d="M86.608,40.609c-0.358,0.691-0.857,1.037-1.496,1.037c-0.32,0-0.611-0.089-0.875-0.267
			s-0.476-0.413-0.637-0.706c-0.337-0.613-0.506-1.307-0.506-2.08c0-0.574,0.083-1.107,0.25-1.6
			c0.167-0.492,0.412-0.892,0.734-1.198c0.323-0.307,0.668-0.46,1.035-0.46c0.367,0,0.691,0.105,0.972,0.316
			c0.281,0.211,0.455,0.396,0.521,0.557v-3.504h0.695v8.021c0,0.117,0.015,0.271,0.044,0.46s0.061,0.321,0.092,0.396h-0.701
			C86.651,41.534,86.608,41.21,86.608,40.609z M83.79,38.593c0,0.691,0.111,1.258,0.332,1.699c0.231,0.465,0.599,0.697,1.101,0.697
			c0.334,0,0.608-0.105,0.822-0.316c0.172-0.168,0.36-0.408,0.564-0.721v-3.076c-0.373-0.59-0.789-0.885-1.249-0.885
			C84.313,35.991,83.79,36.859,83.79,38.593z"/>
		<path fill="#496978" d="M88.262,40.073c0-0.279,0.031-0.523,0.095-0.732c0.063-0.209,0.162-0.395,0.297-0.557
			s0.289-0.306,0.461-0.431c0.172-0.125,0.386-0.238,0.643-0.34c0.467-0.184,1.038-0.35,1.712-0.498
			c0-0.617-0.107-1.029-0.322-1.236c-0.189-0.184-0.465-0.275-0.827-0.275c-0.442,0-0.824,0.188-1.143,0.562
			c-0.137,0.152-0.232,0.289-0.285,0.41l-0.5-0.369c0.394-0.84,1.062-1.26,2.007-1.26c0.846,0,1.387,0.361,1.622,1.084
			c0.095,0.293,0.143,0.648,0.143,1.066v3.217c0,0.113,0.019,0.268,0.058,0.463s0.074,0.33,0.105,0.404h-0.701
			c-0.105-0.059-0.158-0.387-0.158-0.984c-0.496,0.707-1.042,1.061-1.638,1.061c-0.661,0-1.119-0.258-1.375-0.773
			C88.327,40.622,88.262,40.352,88.262,40.073z M89.088,39.402c-0.087,0.18-0.131,0.414-0.131,0.703s0.091,0.511,0.274,0.665
			s0.385,0.231,0.608,0.231c0.223,0,0.419-0.037,0.59-0.111s0.326-0.17,0.466-0.287c0.256-0.215,0.448-0.406,0.574-0.574v-1.857
			c-0.667,0.191-1.062,0.309-1.186,0.352C89.666,38.745,89.268,39.038,89.088,39.402z"/>
		<path fill="#496978" d="M94.214,43.793c-0.214,0.061-0.432,0.091-0.653,0.091s-0.437-0.016-0.648-0.047l0.053-0.709
			c0.126,0.066,0.295,0.1,0.506,0.1c0.21,0,0.384-0.03,0.521-0.091c0.137-0.061,0.249-0.139,0.337-0.234s0.168-0.201,0.24-0.316
			s0.129-0.231,0.171-0.349c0.074-0.219,0.126-0.432,0.158-0.639L92.903,35.4h0.748l1.575,5.033l1.475-5.033h0.706l-1.938,6.557
			c-0.2,0.668-0.4,1.121-0.6,1.359C94.646,43.573,94.428,43.733,94.214,43.793z"/>
		<path fill="#496978" d="M97.907,43.046l0.458-1.465h-0.343v-0.879h0.791v0.879c-0.095,0.223-0.229,0.52-0.4,0.891
			c-0.172,0.371-0.264,0.562-0.274,0.574H97.907z"/>
		<path fill="#496978" d="M102.553,33.378l1.722-0.674h0.559v8.045h1.159v0.832h-3.224v-0.832h1.285v-7.09l-1.249,0.404
			L102.553,33.378z"/>
		<path fill="#496978" d="M109.363,38.517v-0.656h2.697v0.656H109.363z"/>
		<path fill="#496978" d="M115.468,41.581v-8.877h2.492c0.643,0,1.173,0.204,1.591,0.612s0.627,0.913,0.627,1.515
			c0,0.996-0.312,1.633-0.938,1.91c-0.109,0.051-0.244,0.102-0.405,0.152c0.576,0.164,1.008,0.549,1.296,1.154
			c0.154,0.332,0.231,0.709,0.231,1.131c0,0.73-0.205,1.313-0.616,1.749c-0.411,0.436-1.006,0.653-1.786,0.653H115.468z
			 M116.248,36.583h1.712c0.492,0,0.864-0.139,1.117-0.416c0.105-0.113,0.198-0.285,0.276-0.516c0.079-0.23,0.119-0.504,0.119-0.82
			c0-0.457-0.129-0.805-0.387-1.043c-0.258-0.238-0.633-0.357-1.125-0.357h-1.712V36.583z M116.248,40.855h1.712
			c0.572,0,0.99-0.133,1.254-0.398c0.112-0.113,0.208-0.279,0.29-0.498c0.081-0.219,0.121-0.479,0.121-0.779
			c0-0.555-0.153-1.002-0.458-1.342c-0.305-0.34-0.708-0.51-1.206-0.51h-1.712V40.855z"/>
		<path fill="#496978" d="M120.72,38.517v-0.656h2.697v0.656H120.72z"/>
		<path fill="#496978" d="M124.091,39.296v-0.703l3.456-5.889h0.938v5.865h1.217v0.727h-1.217v2.285h-0.78v-2.285H124.091z
			 M124.887,38.57h2.818v-4.84L124.887,38.57z"/>
		<path fill="#496978" d="M135.638,38.781c0,0.555-0.128,1.076-0.385,1.564c-0.284,0.535-0.674,0.91-1.169,1.125
			c-0.267,0.117-0.558,0.176-0.874,0.176c-0.787,0-1.406-0.354-1.857-1.063s-0.677-1.7-0.677-2.974c0-1.555,0.277-2.76,0.832-3.615
			s1.32-1.283,2.297-1.283c0.246,0,0.513,0.062,0.8,0.188c0.288,0.125,0.485,0.26,0.59,0.404l-0.306,0.627
			c-0.415-0.328-0.81-0.492-1.185-0.492c-0.643,0-1.178,0.33-1.607,0.99c-0.428,0.66-0.666,1.592-0.711,2.795
			c0.003-0.004,0.025-0.039,0.066-0.105s0.076-0.121,0.105-0.164s0.077-0.104,0.142-0.182s0.129-0.146,0.192-0.202
			c0.063-0.057,0.143-0.118,0.24-0.185c0.096-0.066,0.195-0.121,0.297-0.164c0.246-0.098,0.507-0.146,0.785-0.146
			c0.713,0,1.295,0.247,1.747,0.741C135.412,37.309,135.638,37.964,135.638,38.781z M134.858,38.775
			c0-0.609-0.149-1.091-0.448-1.444c-0.298-0.354-0.697-0.53-1.196-0.53c-0.544,0-0.979,0.225-1.306,0.674
			c-0.193,0.266-0.337,0.629-0.432,1.09c0.078,1.195,0.464,1.941,1.159,2.238c0.183,0.078,0.361,0.117,0.537,0.117
			s0.337-0.023,0.485-0.07s0.294-0.125,0.439-0.234c0.146-0.109,0.275-0.242,0.387-0.398
			C134.733,39.865,134.858,39.384,134.858,38.775z"/>
		<path fill="#496978" d="M136.691,33.519v-0.814h4.599v0.826l-3.124,8.051h-0.864l3.197-8.062H136.691z"/>
		<path fill="#496978" d="M141.98,33.378l1.722-0.674h0.559v8.045h1.159v0.832h-3.224v-0.832h1.285v-7.09l-1.249,0.404
			L141.98,33.378z"/>
		<path fill="#496978" d="M149.001,39.425l0.721-0.281c0.004,0,0.012,0.033,0.024,0.1s0.035,0.152,0.068,0.258
			c0.034,0.105,0.078,0.223,0.134,0.352s0.136,0.258,0.24,0.387s0.224,0.246,0.361,0.352c0.302,0.238,0.701,0.357,1.196,0.357
			s0.864-0.15,1.106-0.451c0.243-0.301,0.364-0.671,0.364-1.11s-0.077-0.785-0.229-1.037c-0.153-0.252-0.421-0.466-0.804-0.642
			c-0.112-0.051-0.26-0.111-0.442-0.182l-0.5-0.193c-0.867-0.32-1.45-0.73-1.749-1.23c-0.208-0.348-0.311-0.754-0.311-1.219
			c0-0.551,0.197-1.064,0.59-1.541c0.186-0.219,0.423-0.396,0.711-0.533s0.591-0.205,0.909-0.205s0.599,0.048,0.843,0.144
			s0.44,0.214,0.59,0.354s0.284,0.303,0.403,0.486c0.12,0.184,0.206,0.348,0.258,0.492l0.153,0.434
			c0.045,0.137,0.074,0.217,0.084,0.24l-0.685,0.293c-0.007-0.02-0.024-0.081-0.05-0.185c-0.026-0.104-0.049-0.188-0.069-0.255
			c-0.019-0.066-0.053-0.158-0.1-0.275s-0.097-0.216-0.147-0.296s-0.118-0.168-0.2-0.264s-0.171-0.173-0.266-0.231
			c-0.232-0.141-0.494-0.211-0.785-0.211c-0.432,0-0.783,0.142-1.053,0.425c-0.271,0.283-0.406,0.659-0.406,1.128
			c0,0.512,0.119,0.871,0.358,1.078c0.13,0.113,0.24,0.195,0.33,0.246c0.089,0.051,0.195,0.101,0.316,0.149s0.21,0.086,0.266,0.111
			s0.167,0.065,0.332,0.12l0.443,0.152c0.814,0.277,1.375,0.689,1.68,1.236c0.207,0.371,0.311,0.82,0.311,1.348
			c0,0.383-0.109,0.783-0.326,1.201c-0.271,0.531-0.682,0.883-1.233,1.055c-0.207,0.062-0.449,0.094-0.724,0.094
			c-0.276,0-0.547-0.041-0.814-0.123c-0.267-0.082-0.491-0.189-0.671-0.322c-0.181-0.133-0.344-0.279-0.49-0.439
			c-0.146-0.16-0.262-0.32-0.35-0.48c-0.162-0.293-0.276-0.547-0.342-0.762L149.001,39.425z"/>
		<path fill="#496978" d="M154.611,40.073c0-0.279,0.031-0.523,0.095-0.732c0.063-0.209,0.162-0.395,0.297-0.557
			s0.289-0.306,0.461-0.431c0.172-0.125,0.386-0.238,0.643-0.34c0.467-0.184,1.038-0.35,1.712-0.498
			c0-0.617-0.107-1.029-0.322-1.236c-0.189-0.184-0.465-0.275-0.827-0.275c-0.442,0-0.824,0.188-1.143,0.562
			c-0.137,0.152-0.232,0.289-0.285,0.41l-0.5-0.369c0.394-0.84,1.062-1.26,2.007-1.26c0.846,0,1.387,0.361,1.622,1.084
			c0.095,0.293,0.143,0.648,0.143,1.066v3.217c0,0.113,0.019,0.268,0.058,0.463s0.074,0.33,0.105,0.404h-0.701
			c-0.105-0.059-0.158-0.387-0.158-0.984c-0.496,0.707-1.042,1.061-1.638,1.061c-0.661,0-1.119-0.258-1.375-0.773
			C154.676,40.622,154.611,40.352,154.611,40.073z M155.438,39.402c-0.087,0.18-0.131,0.414-0.131,0.703s0.091,0.511,0.274,0.665
			s0.385,0.231,0.608,0.231c0.223,0,0.419-0.037,0.59-0.111s0.326-0.17,0.466-0.287c0.256-0.215,0.448-0.406,0.574-0.574v-1.857
			c-0.667,0.191-1.062,0.309-1.186,0.352C156.016,38.745,155.617,39.038,155.438,39.402z"/>
		<path fill="#496978" d="M159.752,34.62v-0.879h0.79v0.879H159.752z M159.8,41.581V35.4h0.695v6.182H159.8z"/>
		<path fill="#496978" d="M161.449,35.4h0.727l1.464,5.326h0.1l1.464-5.326h0.727l-1.707,6.182h-1.069L161.449,35.4z"/>
		<path fill="#496978" d="M166.985,40.714c-0.172-0.285-0.303-0.604-0.393-0.955c-0.089-0.352-0.134-0.721-0.134-1.107
			s0.024-0.739,0.074-1.058s0.114-0.589,0.195-0.812c0.081-0.223,0.179-0.421,0.295-0.595c0.116-0.174,0.235-0.313,0.358-0.419
			s0.256-0.191,0.4-0.258c0.249-0.117,0.486-0.176,0.711-0.176s0.416,0.022,0.574,0.067s0.328,0.137,0.508,0.275
			s0.336,0.321,0.466,0.548c0.302,0.531,0.453,1.314,0.453,2.35h-3.34c0,1.043,0.237,1.754,0.711,2.133
			c0.235,0.188,0.497,0.281,0.785,0.281c0.541,0,1.001-0.373,1.38-1.119l0.479,0.369c-0.137,0.281-0.316,0.535-0.537,0.762
			c-0.421,0.43-0.838,0.645-1.249,0.645c-0.411,0-0.76-0.084-1.048-0.252S167.157,40.999,166.985,40.714z M167.185,37.919h2.613
			c0-0.582-0.122-1.064-0.364-1.447c-0.204-0.32-0.493-0.48-0.869-0.48c-0.614,0-1.025,0.316-1.232,0.949
			C167.234,37.238,167.185,37.564,167.185,37.919z"/>
	</g>
</g>
<g>
	<g>
		<path fill="#496978" d="M197.026,37.632v-0.773h1.581v-1.84h0.665v1.84h1.576v0.773h-1.576v1.84h-0.665v-1.84H197.026z"/>
		<path fill="#496978" d="M201.577,40.193l0.508-0.51c0.168,0.293,0.441,0.578,0.821,0.855c0.355,0.254,0.746,0.381,1.17,0.381
			c0.424,0,0.805-0.155,1.14-0.466s0.503-0.74,0.503-1.289s-0.145-0.995-0.433-1.339s-0.671-0.516-1.147-0.516h-1.072v-0.732h1.072
			c0.439,0,0.771-0.159,0.997-0.478c0.225-0.318,0.337-0.716,0.337-1.192s-0.139-0.854-0.416-1.131s-0.63-0.416-1.06-0.416
			c-0.537,0-1.039,0.244-1.505,0.732c-0.094,0.094-0.169,0.182-0.227,0.264l-0.483-0.545c0.245-0.328,0.561-0.606,0.947-0.835
			c0.386-0.229,0.799-0.343,1.241-0.343s0.827,0.1,1.155,0.299c0.329,0.199,0.593,0.47,0.793,0.812s0.3,0.71,0.3,1.104
			c0,0.621-0.167,1.16-0.499,1.617c-0.148,0.203-0.297,0.361-0.448,0.475c0.413,0.289,0.715,0.613,0.906,0.973
			c0.191,0.355,0.287,0.764,0.287,1.225c0,0.812-0.225,1.434-0.675,1.863s-1.047,0.645-1.792,0.645
			C203.039,41.646,202.231,41.161,201.577,40.193z"/>
		<path fill="#496978" d="M207.573,41.581c0-0.527,0.021-0.865,0.065-1.014s0.092-0.301,0.146-0.457s0.12-0.298,0.199-0.425
			s0.178-0.277,0.297-0.451s0.258-0.345,0.416-0.513c0.386-0.418,0.713-0.742,0.981-0.973l0.926-0.785
			c0.242-0.199,0.409-0.355,0.501-0.469c0.093-0.113,0.176-0.225,0.249-0.334c0.074-0.109,0.13-0.217,0.167-0.322
			c0.094-0.258,0.141-0.523,0.141-0.797c0-0.504-0.123-0.91-0.367-1.219c-0.245-0.309-0.62-0.463-1.123-0.463
			c-0.628,0-1.094,0.295-1.399,0.885c-0.158,0.312-0.236,0.633-0.236,0.961h-0.745c0-0.488,0.116-0.932,0.35-1.33
			s0.538-0.705,0.914-0.92c0.375-0.215,0.767-0.322,1.173-0.322c0.405,0,0.773,0.105,1.103,0.316
			c0.328,0.211,0.59,0.502,0.785,0.873c0.194,0.371,0.292,0.777,0.292,1.219s-0.084,0.82-0.252,1.137
			c-0.185,0.352-0.369,0.621-0.554,0.809s-0.329,0.33-0.433,0.428l-0.418,0.369c-1.574,1.363-2.361,2.352-2.361,2.965h3.912v0.832
			H207.573z"/>
		<path fill="#496978" d="M216.1,37.497c0-0.414,0.03-0.84,0.091-1.277s0.14-0.835,0.236-1.192c0.098-0.357,0.205-0.703,0.322-1.037
			c0.118-0.334,0.233-0.624,0.348-0.87c0.238-0.504,0.425-0.863,0.559-1.078l0.091-0.146l0.584,0.457
			c-0.147,0.246-0.315,0.579-0.504,0.999c-0.188,0.42-0.346,0.82-0.473,1.201c-0.128,0.381-0.244,0.845-0.35,1.392
			c-0.106,0.547-0.159,1.074-0.159,1.582s0.051,1.037,0.151,1.588s0.222,1.037,0.362,1.459c0.299,0.883,0.563,1.535,0.796,1.957
			l0.15,0.281l-0.584,0.457c-0.329-0.547-0.656-1.297-0.981-2.25C216.313,39.773,216.1,38.599,216.1,37.497z"/>
		<path fill="#496978" d="M219.119,39.683c-0.122-0.391-0.208-0.785-0.257-1.184s-0.073-0.819-0.073-1.263s0.023-0.871,0.071-1.283
			c0.047-0.412,0.131-0.822,0.251-1.23c0.121-0.408,0.273-0.761,0.456-1.058s0.423-0.538,0.72-0.724s0.63-0.278,0.999-0.278
			s0.695,0.092,0.977,0.275c0.282,0.184,0.512,0.424,0.688,0.721c0.177,0.297,0.323,0.648,0.44,1.055
			c0.205,0.73,0.308,1.576,0.308,2.537c0,2.176-0.476,3.553-1.425,4.131c-0.285,0.176-0.612,0.264-0.979,0.264
			s-0.698-0.088-0.991-0.264c-0.294-0.176-0.534-0.405-0.721-0.688C219.396,40.41,219.241,40.073,219.119,39.683z M219.534,37.251
			c0,1.371,0.178,2.354,0.534,2.947c0.281,0.48,0.692,0.721,1.233,0.721c0.594,0,1.015-0.266,1.264-0.797
			c0.157-0.336,0.257-0.693,0.297-1.072c0.061-0.566,0.091-1.096,0.091-1.588s-0.009-0.885-0.025-1.178s-0.046-0.592-0.088-0.896
			s-0.104-0.572-0.187-0.803s-0.183-0.438-0.3-0.621c-0.241-0.383-0.592-0.574-1.052-0.574
			C220.124,33.39,219.534,34.677,219.534,37.251z"/>
		<path fill="#496978" d="M224.563,32.353l0.584-0.457c0.346,0.516,0.678,1.213,0.997,2.092c0.433,1.184,0.649,2.361,0.649,3.533
			c0,0.547-0.056,1.119-0.166,1.717c-0.111,0.598-0.245,1.125-0.403,1.582c-0.328,0.941-0.624,1.656-0.886,2.145l-0.166,0.305
			l-0.584-0.457c0.134-0.234,0.295-0.569,0.48-1.005c0.187-0.436,0.344-0.851,0.471-1.245c0.128-0.395,0.244-0.872,0.351-1.433
			c0.105-0.561,0.158-1.095,0.158-1.603s-0.053-1.035-0.158-1.582c-0.106-0.547-0.223-1.011-0.351-1.392
			c-0.127-0.381-0.274-0.761-0.442-1.14C224.889,32.952,224.71,32.599,224.563,32.353z"/>
		<path fill="#496978" d="M230.071,39.296v-0.703l3.303-5.889h0.896v5.865h1.163v0.727h-1.163v2.285h-0.745v-2.285H230.071z
			 M230.831,38.57h2.693v-4.84L230.831,38.57z"/>
		<path fill="#496978" d="M238.765,40.193l0.509-0.51c0.167,0.293,0.44,0.578,0.82,0.855c0.355,0.254,0.746,0.381,1.17,0.381
			c0.425,0,0.805-0.155,1.141-0.466s0.503-0.74,0.503-1.289s-0.144-0.995-0.433-1.339c-0.288-0.344-0.671-0.516-1.147-0.516h-1.072
			v-0.732h1.072c0.439,0,0.771-0.159,0.997-0.478c0.225-0.318,0.337-0.716,0.337-1.192s-0.139-0.854-0.415-1.131
			c-0.277-0.277-0.631-0.416-1.061-0.416c-0.536,0-1.038,0.244-1.505,0.732c-0.094,0.094-0.169,0.182-0.227,0.264l-0.483-0.545
			c0.245-0.328,0.561-0.606,0.946-0.835c0.387-0.229,0.8-0.343,1.241-0.343s0.826,0.1,1.155,0.299s0.594,0.47,0.793,0.812
			c0.2,0.342,0.3,0.71,0.3,1.104c0,0.621-0.166,1.16-0.499,1.617c-0.147,0.203-0.297,0.361-0.447,0.475
			c0.412,0.289,0.715,0.613,0.906,0.973c0.191,0.355,0.286,0.764,0.286,1.225c0,0.812-0.225,1.434-0.674,1.863
			c-0.45,0.43-1.048,0.645-1.793,0.645C240.227,41.646,239.419,41.161,238.765,40.193z"/>
		<path fill="#496978" d="M244.822,39.238c0-0.695,0.275-1.295,0.825-1.799c0.269-0.246,0.558-0.438,0.866-0.574
			c-0.406-0.164-0.738-0.418-0.997-0.762c-0.258-0.344-0.388-0.743-0.388-1.198s0.105-0.854,0.314-1.198
			c0.21-0.344,0.485-0.606,0.826-0.788s0.711-0.272,1.11-0.272c0.607,0,1.126,0.209,1.556,0.627
			c0.429,0.418,0.644,0.934,0.644,1.547c0,0.672-0.32,1.254-0.961,1.746c-0.172,0.129-0.354,0.244-0.549,0.346l0.342,0.182
			c0.611,0.328,1.019,0.711,1.224,1.148c0.147,0.305,0.222,0.636,0.222,0.993s-0.068,0.688-0.204,0.99s-0.316,0.556-0.541,0.759
			c-0.483,0.441-1.04,0.662-1.672,0.662c-0.449,0-0.871-0.094-1.266-0.281s-0.719-0.468-0.972-0.841S244.822,39.722,244.822,39.238z
			 M246.078,37.995c-0.341,0.375-0.511,0.765-0.511,1.169s0.091,0.737,0.271,0.999c0.35,0.504,0.878,0.756,1.586,0.756
			c0.278,0,0.527-0.061,0.748-0.182c0.22-0.121,0.392-0.244,0.516-0.369c0.282-0.289,0.423-0.672,0.423-1.148
			c0-0.461-0.149-0.842-0.448-1.143c-0.252-0.25-0.586-0.475-1.002-0.674l-0.382-0.182C246.819,37.363,246.418,37.62,246.078,37.995
			z M246.462,36.021c0.182,0.145,0.357,0.264,0.529,0.357c0.171,0.094,0.263,0.145,0.276,0.152c0.517-0.246,0.862-0.438,1.037-0.574
			c0.353-0.277,0.528-0.643,0.528-1.096s-0.149-0.814-0.447-1.084c-0.299-0.27-0.646-0.404-1.042-0.404
			c-0.396,0-0.74,0.143-1.032,0.428s-0.438,0.649-0.438,1.093S246.07,35.712,246.462,36.021z"/>
		<path fill="#496978" d="M250.792,33.519v-0.814h4.395v0.826l-2.985,8.051h-0.825l3.056-8.062H250.792z"/>
		<path fill="#496978" d="M258.328,39.964l0.494-0.439c0.061,0.219,0.189,0.449,0.388,0.691c0.382,0.469,0.783,0.703,1.203,0.703
			c0.208,0,0.405-0.057,0.594-0.17c0.188-0.113,0.341-0.232,0.458-0.357s0.222-0.27,0.312-0.434
			c0.201-0.375,0.302-0.873,0.302-1.494c0-0.945-0.253-1.582-0.76-1.91c-0.245-0.16-0.516-0.24-0.811-0.24
			c-0.296,0-0.572,0.125-0.831,0.375s-0.399,0.471-0.423,0.662h-0.685v-4.646h3.836v0.727h-3.091v2.695
			c0.204-0.227,0.472-0.387,0.801-0.48c0.141-0.039,0.283-0.059,0.428-0.059c0.661,0,1.206,0.266,1.636,0.797
			s0.645,1.245,0.645,2.142s-0.222,1.641-0.664,2.232c-0.443,0.592-1.018,0.888-1.723,0.888c-0.631,0-1.183-0.287-1.656-0.861
			C258.54,40.495,258.388,40.222,258.328,39.964z"/>
		<path fill="#496978" d="M263.589,33.519v-0.814h4.395v0.826l-2.985,8.051h-0.825l3.056-8.062H263.589z"/>
		<path fill="#496978" d="M271.215,35.575c0-0.555,0.123-1.076,0.368-1.564c0.271-0.535,0.644-0.91,1.117-1.125
			c0.255-0.117,0.533-0.176,0.836-0.176c0.752,0,1.343,0.354,1.774,1.063s0.646,1.7,0.646,2.974c0,1.555-0.265,2.76-0.795,3.615
			s-1.262,1.283-2.195,1.283c-0.234,0-0.49-0.062-0.765-0.188c-0.275-0.125-0.464-0.26-0.564-0.404l0.292-0.627
			c0.396,0.328,0.773,0.492,1.133,0.492c0.614,0,1.126-0.33,1.536-0.99c0.409-0.66,0.636-1.592,0.679-2.795
			c-0.003,0.004-0.024,0.039-0.062,0.105c-0.039,0.066-0.072,0.121-0.101,0.164s-0.074,0.104-0.136,0.182
			c-0.062,0.078-0.124,0.146-0.184,0.202c-0.061,0.057-0.138,0.118-0.229,0.185c-0.093,0.066-0.188,0.121-0.284,0.164
			c-0.235,0.098-0.485,0.146-0.75,0.146c-0.682,0-1.238-0.247-1.669-0.741C271.431,37.047,271.215,36.392,271.215,35.575z
			 M271.96,35.581c0,0.609,0.143,1.091,0.428,1.444s0.667,0.53,1.144,0.53c0.52,0,0.936-0.225,1.248-0.674
			c0.185-0.266,0.322-0.629,0.413-1.09c-0.074-1.195-0.443-1.941-1.107-2.238c-0.175-0.078-0.346-0.117-0.514-0.117
			s-0.322,0.023-0.463,0.07c-0.142,0.047-0.281,0.125-0.421,0.234s-0.263,0.242-0.37,0.398
			C272.08,34.491,271.96,34.972,271.96,35.581z"/>
		<path fill="#496978" d="M277.056,39.238c0-0.695,0.275-1.295,0.825-1.799c0.269-0.246,0.558-0.438,0.866-0.574
			c-0.406-0.164-0.738-0.418-0.997-0.762c-0.258-0.344-0.388-0.743-0.388-1.198s0.105-0.854,0.314-1.198
			c0.21-0.344,0.485-0.606,0.826-0.788s0.711-0.272,1.11-0.272c0.607,0,1.126,0.209,1.556,0.627
			c0.429,0.418,0.644,0.934,0.644,1.547c0,0.672-0.32,1.254-0.961,1.746c-0.172,0.129-0.354,0.244-0.549,0.346l0.342,0.182
			c0.611,0.328,1.019,0.711,1.224,1.148c0.147,0.305,0.222,0.636,0.222,0.993s-0.068,0.688-0.204,0.99s-0.316,0.556-0.541,0.759
			c-0.483,0.441-1.04,0.662-1.672,0.662c-0.449,0-0.871-0.094-1.266-0.281s-0.719-0.468-0.972-0.841S277.056,39.722,277.056,39.238z
			 M278.312,37.995c-0.341,0.375-0.511,0.765-0.511,1.169s0.091,0.737,0.271,0.999c0.35,0.504,0.878,0.756,1.586,0.756
			c0.278,0,0.527-0.061,0.748-0.182c0.22-0.121,0.392-0.244,0.516-0.369c0.282-0.289,0.423-0.672,0.423-1.148
			c0-0.461-0.149-0.842-0.448-1.143c-0.252-0.25-0.586-0.475-1.002-0.674l-0.382-0.182C279.053,37.363,278.653,37.62,278.312,37.995
			z M278.697,36.021c0.182,0.145,0.357,0.264,0.529,0.357c0.171,0.094,0.263,0.145,0.276,0.152c0.517-0.246,0.862-0.438,1.037-0.574
			c0.353-0.277,0.528-0.643,0.528-1.096s-0.149-0.814-0.447-1.084c-0.299-0.27-0.646-0.404-1.042-0.404
			c-0.396,0-0.74,0.143-1.032,0.428s-0.438,0.649-0.438,1.093S278.304,35.712,278.697,36.021z"/>
	</g>
</g>
</svg>
