<?xml version="1.0" encoding="utf-8"?>
<!-- Generator: Adobe Illustrator 16.0.0, SVG Export Plug-In . SVG Version: 6.00 Build 0)  -->
<!DOCTYPE svg PUBLIC "-//W3C//DTD SVG 1.1//EN" "http://www.w3.org/Graphics/SVG/1.1/DTD/svg11.dtd">
<svg version="1.1" id="Layer_1" xmlns="http://www.w3.org/2000/svg" xmlns:xlink="http://www.w3.org/1999/xlink" x="0px" y="0px"
	 width="412.96px" height="62.094px" viewBox="0 0 412.96 62.094" enable-background="new 0 0 412.96 62.094" xml:space="preserve">
<path fill="#F49848" d="M305.688,20.092c0-2.097-0.875-3.32-3.146-3.32c-2.62,0-3.494,1.922-3.494,5.416
	c0,3.495,0.524,5.417,3.145,5.417c0.874,0,1.572-0.35,2.098-1.049v0.875h1.572v-5.591h-3.32v1.573h1.397v1.048
	c0,1.048-0.873,1.572-1.397,1.572c-1.223,0-1.397-1.572-1.397-4.019c0-2.621,0.35-3.668,1.397-3.668
	c0.873,0,1.223,1.048,1.223,1.748"/>
<path fill="#F49848" d="M310.578,18.869L310.578,18.869l1.05,4.716h-2.098 M306.561,27.43h2.097l0.523-2.097h2.795l0.351,2.097
	h2.271l-2.795-10.308h-2.622L306.561,27.43z"/>
<polyline fill="#F49848" points="321.062,27.43 321.062,25.682 317.393,25.682 317.393,17.122 315.296,17.122 315.296,27.43 "/>
<polyline fill="#F49848" points="327.875,27.43 327.875,25.682 324.206,25.682 324.206,17.122 322.109,17.122 322.109,27.43 "/>
<polyline fill="#F49848" points="326.827,17.122 329.447,23.412 329.447,27.43 331.544,27.43 331.544,23.412 334.34,17.122 
	332.069,17.122 330.496,21.14 329.099,17.122 "/>
<path fill="#F49848" d="M334.34,24.285v0.35c0,1.921,0.873,2.97,3.319,2.97c2.271,0,3.669-0.875,3.669-3.145
	c0-1.223-0.523-2.097-2.096-2.795l-1.573-0.699c-0.874-0.35-1.049-0.698-1.049-1.398c0-0.523,0.175-1.223,1.224-1.223
	c0.698,0,1.048,0.7,1.048,1.572h2.097v-0.35c0-1.922-1.398-2.795-3.319-2.795c-1.922,0-3.145,1.048-3.145,3.145
	c0,1.748,0.873,2.446,2.795,3.145c1.223,0.523,1.748,0.873,1.748,1.748c0,0.873-0.525,1.223-1.224,1.223
	c-1.049,0-1.397-0.524-1.397-1.572v-0.175"/>
<path fill="#F49848" d="M351.461,19.742c0-1.922-0.873-2.795-2.97-2.795c-1.746,0-2.796,1.048-2.796,2.621
	c0,3.845,5.067,2.097,5.067,5.242c0,1.398-0.874,2.096-2.271,2.096s-2.096-0.873-2.096-2.271v-0.35h-0.875v0.175
	c0,2.096,1.05,3.145,2.971,3.145c1.922,0,3.145-1.049,3.145-2.97c0-3.669-5.065-1.922-5.065-5.067c0-1.048,0.698-1.922,2.096-1.922
	c1.223,0,1.747,0.875,1.747,2.097"/>
<path fill="#F49848" d="M352.858,27.43h1.05v-4.543h1.397c2.445,0,3.318-1.223,3.318-2.97c0-1.747-0.873-2.795-2.97-2.795h-2.796
	 M353.908,17.819h1.572c1.396,0,2.096,0.7,2.096,2.097c0,1.748-0.873,2.271-2.096,2.271h-1.572V17.819z"/>
<path fill="#F49848" d="M360.896,17.819h1.572c1.747,0,2.271,0.875,2.271,2.097c0,1.398-0.873,1.922-2.271,1.922h-1.572
	 M359.849,27.43h1.048v-4.718h1.747c1.572,0,1.921,0.525,1.921,2.446l0.175,0.874c0,0.523,0,1.048,0.175,1.398h1.048
	c-0.35-0.35-0.35-0.875-0.35-1.573v-1.048c0-1.572-0.523-2.447-1.746-2.447c1.397-0.35,1.746-1.397,1.746-2.621
	c0-1.747-0.873-2.62-2.62-2.62h-3.144V27.43z"/>
<polyline fill="#F49848" points="367.185,27.43 372.427,27.43 372.427,26.73 368.06,26.73 368.06,17.122 367.185,17.122 "/>
<path fill="#496978" d="M13.568,38.611c0,1.397-0.698,2.272-1.746,2.272c-1.225,0-1.922-0.875-1.922-3.67
	c0-2.62,0.698-3.668,1.922-3.668c1.048,0,1.746,0.873,1.746,1.921h0.7c0-1.223-0.7-2.446-2.445-2.446
	c-1.748,0-2.622,1.223-2.622,4.193c0,2.971,0.875,4.368,2.622,4.368c1.571,0,2.445-1.048,2.445-2.97"/>
<path fill="#496978" d="M15.315,41.406h0.7v-4.193c0-0.873,0.523-1.572,1.397-1.572c0.698,0,1.048,0.524,1.048,1.397v4.368h0.7
	v-4.718c0-1.048-0.7-1.573-1.573-1.573c-0.7,0-1.397,0.35-1.572,1.049v-2.97h-0.7"/>
<path fill="#496978" d="M20.906,37.738c0.175-1.573,0.525-2.097,1.398-2.097c0.875,0,1.224,0.524,1.397,2.097 M23.528,39.311
	c0,1.223-0.525,1.746-1.224,1.746c-0.698,0-1.398-0.698-1.398-2.446v-0.175h3.495v-0.35c0-2.096-0.7-2.97-2.097-2.97
	c-1.223,0-2.096,1.049-2.096,3.145c0,2.447,0.873,3.32,2.096,3.32c1.224,0,1.922-0.873,1.922-2.271H23.528z"/>
<path fill="#496978" d="M25.449,41.406h0.699v-4.193c0-0.873,0.698-1.572,1.398-1.572c0.523,0,0.873,0.35,0.873,1.223v4.543h0.699
	v-4.193c0-0.873,0.523-1.572,1.223-1.572c0.698,0,1.048,0.35,1.048,1.223v4.543h0.699v-4.718c0-1.048-0.524-1.573-1.397-1.573
	c-0.875,0-1.398,0.35-1.573,1.049h-0.175c0-0.524-0.524-1.049-1.223-1.049c-0.7,0-1.224,0.35-1.573,1.049v-0.875h-0.699"/>
<path fill="#496978" d="M33.486,34.243h0.698v-1.048h-0.698 M33.486,41.406h0.698v-6.116h-0.698V41.406z"/>
<path fill="#496978" d="M35.582,41.406h0.699v-4.193c0-0.873,0.523-1.572,1.398-1.572c0.698,0,1.048,0.524,1.048,1.397v4.368h0.699
	v-4.718c0-1.048-0.699-1.573-1.572-1.573c-0.7,0-1.223,0.35-1.573,1.049v-0.875h-0.699"/>
<polyline fill="#496978" points="43.619,41.406 44.317,41.406 44.317,33.893 46.589,41.406 47.288,41.406 49.385,33.893 
	49.385,41.406 50.083,41.406 50.083,33.195 48.86,33.195 46.938,40.533 44.842,33.195 43.619,33.195 "/>
<path fill="#496978" d="M52.005,37.738c0-1.573,0.524-2.097,1.397-2.097s1.223,0.524,1.223,2.097 M54.625,39.311
	c0,1.223-0.523,1.746-1.223,1.746s-1.397-0.698-1.397-2.446v-0.175H55.5v-0.35c0-2.096-0.7-2.97-2.097-2.97
	s-2.097,1.049-2.097,3.145c0,2.447,0.7,3.32,2.097,3.32c1.048,0,1.922-0.873,1.922-2.271H54.625z"/>
<path fill="#496978" d="M56.548,41.406h0.698v-4.193c0-0.873,0.524-1.572,1.397-1.572c0.7,0,1.049,0.524,1.049,1.397v4.368h0.698
	v-4.718c0-1.048-0.698-1.573-1.573-1.573c-0.698,0-1.223,0.35-1.572,1.049h-0.175v-0.875h-0.523"/>
<path fill="#496978" d="M62.139,38.261c0-1.921,0.524-2.62,1.397-2.62c0.699,0,1.397,0.699,1.397,2.62
	c0,2.098-0.698,2.796-1.397,2.796C62.663,41.057,62.139,40.358,62.139,38.261 M61.439,38.261c0,2.272,0.7,3.32,2.097,3.32
	s2.097-1.048,2.097-3.32c0-2.096-0.7-3.145-2.097-3.145S61.439,36.165,61.439,38.261z"/>
<path fill="#496978" d="M66.856,40.358c0,0.873,0.35,1.223,1.397,1.223c0.175,0,0.35-0.175,0.523-0.175v-0.523
	c-0.173,0-0.348,0-0.523,0c-0.524,0-0.699-0.175-0.699-0.699v-4.368h1.223v-0.525h-1.223v-1.746h-0.698v1.746h-0.875v0.525h0.875"/>
<path fill="#496978" d="M69.651,40.358c0,0.873,0.35,1.223,1.397,1.223c0.175,0,0.35-0.175,0.525-0.175v-0.523
	c-0.175,0-0.35,0-0.525,0c-0.35,0-0.699-0.175-0.699-0.699v-4.368h1.224v-0.525H70.35v-1.746h-0.698v1.746h-0.875v0.525h0.875"/>
<path fill="#496978" d="M72.796,37.738c0-1.573,0.348-2.097,1.223-2.097c0.873,0,1.397,0.524,1.397,2.097 M75.417,39.311
	c-0.175,1.223-0.699,1.746-1.397,1.746c-0.7,0-1.223-0.698-1.223-2.446v-0.175h3.318v-0.35c0-2.096-0.523-2.97-1.921-2.97
	c-1.397,0-2.272,1.049-2.272,3.145c0,2.447,0.875,3.32,2.097,3.32s1.922-0.873,2.096-2.271H75.417z"/>
<path fill="#496978" d="M80.309,38.611l2.621-4.193v4.193 M82.93,41.406h0.698v-2.096h0.875v-0.7h-0.875v-5.416H82.93l-3.145,5.416
	v0.7h3.145V41.406z"/>
<path fill="#496978" d="M86.423,35.291c0-0.873,0.35-1.572,1.223-1.572c1.049,0,1.399,0.7,1.399,1.572
	c0,0.875-0.35,1.398-1.399,1.398C86.772,36.688,86.423,36.165,86.423,35.291 M85.375,39.136c0,1.572,1.048,2.445,2.271,2.445
	c1.399,0,2.447-0.873,2.447-2.445c0-1.05-0.525-1.923-1.573-2.098c0.873-0.175,1.223-1.048,1.223-1.748
	c0-1.397-0.873-2.096-2.097-2.096c-1.048,0-1.921,0.698-1.921,2.096c0,0.7,0.35,1.573,1.223,1.748
	C85.9,37.213,85.375,38.086,85.375,39.136z M86.075,39.136c0-1.05,0.523-1.748,1.571-1.748c1.049,0,1.573,0.698,1.573,1.748
	c0,1.048-0.523,1.921-1.573,1.921C86.598,41.057,86.075,40.184,86.075,39.136z"/>
<rect x="96.731" y="37.738" fill="#496978" width="2.621" height="0.698"/>
<path fill="#496978" d="M106.166,41.406h2.271c1.572,0,2.62-0.873,2.62-2.271c0-1.05-0.523-1.923-1.572-2.098
	c0.874-0.175,1.224-1.048,1.224-1.922c0-1.223-0.525-1.921-2.272-1.921h-2.271 M107.039,37.388h1.398
	c1.223,0,1.922,0.525,1.922,1.748c0,1.048-0.699,1.747-1.922,1.747h-1.398V37.388z M107.039,33.718h1.223
	c1.223,0,1.748,0.35,1.748,1.572c0,0.875-0.524,1.398-1.922,1.398h-1.048V33.718z"/>
<rect x="112.106" y="37.738" fill="#496978" width="2.446" height="0.698"/>
<path fill="#496978" d="M116.299,38.611l2.446-4.193v4.193 M118.745,41.406h0.699v-2.096h1.048v-0.7h-1.048v-5.416h-0.699
	l-3.145,5.416v0.7h3.145V41.406z"/>
<path fill="#496978" d="M122.415,35.291c0-0.873,0.349-1.572,1.223-1.572c0.873,0,1.398,0.7,1.398,1.572
	c0,0.875-0.525,1.398-1.398,1.398C122.763,36.688,122.415,36.165,122.415,35.291 M121.365,39.136c0,1.572,0.875,2.445,2.272,2.445
	c1.398,0,2.271-0.873,2.271-2.445c0-1.05-0.35-1.923-1.398-2.098c0.875-0.175,1.223-1.048,1.223-1.748
	c0-1.397-0.873-2.096-2.096-2.096c-1.223,0-2.097,0.698-2.097,2.096c0,0.7,0.525,1.573,1.223,1.748
	C121.89,37.213,121.365,38.086,121.365,39.136z M122.065,39.136c0-1.05,0.523-1.748,1.572-1.748c1.048,0,1.573,0.698,1.573,1.748
	c0,1.048-0.525,1.921-1.573,1.921C122.588,41.057,122.065,40.184,122.065,39.136z"/>
<path fill="#496978" d="M126.956,37.388c0,2.445,0.35,4.193,2.272,4.193s2.271-1.748,2.271-4.193s-0.348-4.193-2.271-4.193
	S126.956,34.942,126.956,37.388 M127.655,37.388c0-2.62,0.525-3.669,1.573-3.669c1.223,0,1.572,1.049,1.572,3.669
	s-0.35,3.669-1.572,3.669C128.18,41.057,127.655,40.008,127.655,37.388z"/>
<path fill="#496978" d="M134.644,41.406h0.7v-8.211h-0.525c0,0.873-0.524,1.398-1.922,1.398v0.523h1.748"/>
<polyline fill="#496978" points="142.156,41.406 143.204,41.406 145.301,33.195 144.602,33.195 142.681,40.708 140.759,33.195 
	140.059,33.195 "/>
<path fill="#496978" d="M146.35,37.738c0-1.573,0.524-2.097,1.223-2.097c0.874,0,1.397,0.524,1.397,2.097 M148.97,39.311
	c-0.175,1.223-0.523,1.746-1.397,1.746c-0.523,0-1.223-0.698-1.223-2.446v-0.175h3.32v-0.35c0-2.096-0.525-2.97-1.922-2.97
	s-2.096,1.049-2.096,3.145c0,2.447,0.698,3.32,2.096,3.32c1.048,0,1.748-0.873,1.922-2.271H148.97z"/>
<path fill="#496978" d="M150.892,41.406h0.7v-3.843c0-1.223,0.698-1.748,1.397-1.748c0.173,0,0.173,0,0.348,0v-0.7h-0.175
	c-0.873,0-1.397,0.35-1.571,1.049v-0.875h-0.7"/>
<polyline fill="#496978" points="155.435,41.406 156.133,41.406 157.88,35.291 157.007,35.291 155.785,40.708 154.387,35.291 
	153.688,35.291 "/>
<path fill="#496978" d="M158.58,34.243h0.698v-1.048h-0.698 M158.58,41.406h0.698v-6.116h-0.698V41.406z"/>
<path fill="#496978" d="M161.2,37.738c0-1.573,0.524-2.097,1.397-2.097c0.7,0,1.223,0.524,1.223,2.097 M163.82,39.311
	c-0.175,1.223-0.523,1.746-1.223,1.746c-0.699,0-1.397-0.698-1.397-2.446v-0.175h3.32v-0.35c0-2.096-0.524-2.97-1.922-2.97
	c-1.397,0-2.097,1.049-2.097,3.145c0,2.447,0.7,3.32,2.097,3.32c1.048,0,1.748-0.873,1.922-2.271H163.82z"/>
<path fill="#496978" d="M165.743,41.406h0.698v-3.843c0-1.223,0.7-1.748,1.397-1.748c0.175,0,0.175,0,0.35,0v-0.7h-0.175
	c-0.698,0-1.398,0.35-1.573,1.049v-0.875h-0.698"/>
<path fill="#496978" d="M170.809,38.785c0.7,0.176,0.875,0.525,0.875,1.048c0,0.7-0.524,1.224-1.223,1.224
	c-0.7,0-1.224-0.523-1.224-1.398v-0.175h-0.698v0.175c0,1.398,0.698,1.923,1.922,1.923c1.397,0,1.921-0.873,1.921-1.923
	c0-0.522-0.349-1.223-1.048-1.572l-1.048-0.348c-0.7-0.175-0.875-0.525-0.875-1.049c0-0.523,0.35-1.048,1.049-1.048
	c0.698,0,1.048,0.35,1.048,1.223v0.175h0.698v-0.175c0-1.223-0.523-1.748-1.746-1.748c-1.049,0-1.748,0.525-1.748,1.748
	c0,0.7,0.35,1.223,1.223,1.572"/>
<polyline fill="#496978" points="178.146,40.883 178.146,33.545 184.437,37.213 "/>
<polyline fill="#F49848" points="190.552,41.406 191.25,41.406 191.25,33.718 193.347,33.718 193.347,33.195 188.455,33.195 
	188.455,33.718 190.552,33.718 "/>
<polyline fill="#496978" points="199.462,41.406 199.986,41.406 199.986,38.785 202.781,38.785 202.781,38.261 199.986,38.261 
	199.986,35.466 199.462,35.466 199.462,38.261 196.841,38.261 196.841,38.785 199.462,38.785 "/>
<path fill="#496978" d="M205.403,37.388h0.523c1.05,0,1.748,0.698,1.748,1.748c0,1.397-0.873,1.921-1.748,1.921
	c-1.048,0-1.572-0.873-1.572-1.746h-0.698c0.175,1.397,0.873,2.271,2.271,2.271c1.573,0,2.447-1.048,2.447-2.445
	c0-1.05-0.525-1.923-1.573-2.098c0.873-0.175,1.398-0.873,1.398-1.748c0-1.397-0.875-2.096-2.272-2.096
	c-1.397,0-2.096,0.873-2.096,2.271h0.698c0-1.223,0.7-1.748,1.397-1.748c1.05,0,1.398,0.7,1.398,1.572
	c0,1.049-0.523,1.573-1.573,1.573h-0.348"/>
<path fill="#496978" d="M210.119,35.815c0-1.397,0.524-2.097,1.572-2.097c0.875,0,1.397,0.7,1.397,1.748
	c0,0.699-0.348,1.397-1.048,2.097l-1.048,0.698c-1.049,0.875-1.572,1.747-1.572,3.146h4.542v-0.523h-3.844
	c0.175-0.875,0.524-1.399,1.397-2.272l1.049-0.698c1.048-0.875,1.223-1.573,1.223-2.447c0-1.573-0.875-2.271-2.097-2.271
	c-1.572,0-2.271,1.048-2.271,2.621"/>
<path fill="#496978" d="M219.379,33.195c-1.048,1.748-1.573,3.494-1.573,5.066c0,1.747,0.525,3.495,1.573,5.242h0.524
	c-0.875-1.572-1.397-3.319-1.397-5.242c0-1.746,0.523-3.493,1.397-5.066"/>
<path fill="#496978" d="M220.252,37.388c0,2.445,0.525,4.193,2.272,4.193c1.922,0,2.445-1.748,2.445-4.193s-0.523-4.193-2.445-4.193
	C220.777,33.195,220.252,34.942,220.252,37.388 M220.952,37.388c0-2.62,0.525-3.669,1.573-3.669c1.223,0,1.572,1.049,1.572,3.669
	s-0.35,3.669-1.572,3.669C221.477,41.057,220.952,40.008,220.952,37.388z"/>
<path fill="#496978" d="M225.844,43.503c1.048-1.747,1.571-3.495,1.571-5.242c0-1.572-0.523-3.318-1.571-5.066h-0.525
	c0.873,1.573,1.398,3.32,1.398,5.066c0,1.923-0.525,3.67-1.398,5.242"/>
<path fill="#496978" d="M232.308,35.291c0-0.873,0.35-1.572,1.223-1.572c0.875,0,1.398,0.7,1.398,1.572
	c0,0.875-0.523,1.398-1.398,1.398C232.657,36.688,232.308,36.165,232.308,35.291 M231.26,39.136c0,1.572,0.873,2.445,2.271,2.445
	c1.398,0,2.447-0.873,2.447-2.445c0-1.05-0.525-1.923-1.573-2.098c0.873-0.175,1.223-1.048,1.223-1.748
	c0-1.397-0.874-2.096-2.097-2.096c-1.223,0-2.096,0.698-2.096,2.096c0,0.7,0.523,1.573,1.398,1.748
	C231.783,37.213,231.26,38.086,231.26,39.136z M231.958,39.136c0-1.05,0.524-1.748,1.572-1.748c1.049,0,1.573,0.698,1.573,1.748
	c0,1.048-0.523,1.921-1.573,1.921C232.482,41.057,231.958,40.184,231.958,39.136z"/>
<path fill="#496978" d="M236.851,33.893h4.018c-1.748,2.097-2.97,5.243-3.145,7.513h0.874c0.175-2.271,1.048-5.241,2.97-7.513V33.37
	h-4.717"/>
<path fill="#496978" d="M246.983,37.388h0.525c1.048,0,1.573,0.698,1.573,1.748c0,1.397-0.7,1.921-1.573,1.921
	c-1.049,0-1.573-0.873-1.573-1.746h-0.699c0,1.397,0.875,2.271,2.272,2.271c1.573,0,2.445-1.048,2.445-2.445
	c0-1.05-0.699-1.923-1.572-2.098c0.873-0.175,1.223-0.873,1.223-1.748c0-1.397-0.873-2.096-2.096-2.096
	c-1.397,0-2.272,0.873-2.272,2.271h0.875c0-1.223,0.523-1.748,1.397-1.748c0.873,0,1.397,0.7,1.397,1.572
	c0,1.049-0.524,1.573-1.572,1.573h-0.35"/>
<path fill="#496978" d="M252.574,37.388h0.524c1.048,0,1.573,0.698,1.573,1.748c0,1.397-0.7,1.921-1.573,1.921
	c-1.048,0-1.572-0.873-1.572-1.746h-0.7c0,1.397,0.875,2.271,2.272,2.271c1.573,0,2.446-1.048,2.446-2.445
	c0-1.05-0.698-1.923-1.573-2.098c0.875-0.175,1.223-0.873,1.223-1.748c0-1.397-0.873-2.096-2.096-2.096
	c-1.397,0-2.272,0.873-2.272,2.271h0.875c0-1.223,0.523-1.748,1.397-1.748c0.873,0,1.398,0.7,1.398,1.572
	c0,1.049-0.525,1.573-1.573,1.573h-0.35"/>
<path fill="#496978" d="M260.262,35.291c0-0.873,0.35-1.572,1.223-1.572c0.873,0,1.397,0.7,1.397,1.572
	c0,0.875-0.525,1.398-1.397,1.398C260.612,36.688,260.262,36.165,260.262,35.291 M259.214,39.136c0,1.572,0.873,2.445,2.271,2.445
	c1.397,0,2.445-0.873,2.445-2.445c0-1.05-0.523-1.923-1.573-2.098c0.875-0.175,1.225-1.048,1.225-1.748
	c0-1.397-0.875-2.096-2.097-2.096c-1.223,0-2.096,0.698-2.096,2.096c0,0.7,0.523,1.573,1.398,1.748
	C259.737,37.213,259.214,38.086,259.214,39.136z M259.912,39.136c0-1.05,0.525-1.748,1.573-1.748s1.572,0.698,1.572,1.748
	c0,1.048-0.524,1.921-1.572,1.921S259.912,40.184,259.912,39.136z"/>
<path fill="#496978" d="M265.328,38.611l2.447-4.193h0.175v4.193 M267.95,41.406h0.698v-2.096h0.874v-0.7h-0.874v-5.416h-0.698
	l-3.32,5.416v0.7h3.32V41.406z"/>
<path fill="#496978" d="M274.938,37.388h0.523c1.049,0,1.573,0.698,1.573,1.748c0,1.397-0.698,1.921-1.573,1.921
	c-1.048,0-1.571-0.873-1.571-1.746h-0.7c0,1.397,0.873,2.271,2.271,2.271c1.573,0,2.447-1.048,2.447-2.445
	c0-1.05-0.7-1.923-1.573-2.098c0.873-0.175,1.223-0.873,1.223-1.748c0-1.397-0.873-2.096-2.097-2.096
	c-1.397,0-2.271,0.873-2.271,2.271h0.873c0-1.223,0.524-1.748,1.397-1.748c0.875,0,1.399,0.7,1.399,1.572
	c0,1.049-0.525,1.573-1.573,1.573h-0.35"/>
<path fill="#496978" d="M278.781,37.388c0,2.445,0.525,4.193,2.272,4.193c1.921,0,2.445-1.748,2.445-4.193s-0.524-4.193-2.445-4.193
	C279.306,33.195,278.781,34.942,278.781,37.388 M279.48,37.388c0-2.62,0.523-3.669,1.572-3.669c1.223,0,1.573,1.049,1.573,3.669
	s-0.351,3.669-1.573,3.669C280.004,41.057,279.48,40.008,279.48,37.388z"/>
<polyline fill="#496978" points="289.264,40.883 289.264,33.545 295.554,37.213 "/>
<path fill="#F49848" d="M306.211,35.641L306.211,35.641c-0.349-0.698-0.698-0.873-1.398-0.873c-1.572,0-2.795,1.747-2.795,3.318
	c0,1.05,0.699,1.747,1.572,1.747c0.7,0,1.048-0.175,1.573-0.697h0.175c-0.175,0.522,0.35,0.697,0.697,0.697
	c1.225,0,2.796-1.572,2.796-3.318c0-2.097-1.746-3.495-4.019-3.495c-2.62,0-4.542,1.922-4.542,4.193
	c0,2.445,1.922,4.368,4.542,4.368c1.573,0,2.971-0.873,3.845-2.098h-0.699c-0.698,0.875-1.923,1.573-3.146,1.573
	c-2.271,0-4.018-1.746-4.018-3.844c0-1.922,1.572-3.668,4.018-3.668c1.748,0,3.495,1.223,3.495,2.97
	c0,1.223-1.048,2.796-2.097,2.796c-0.176,0-0.349-0.175-0.349-0.35c0-0.176,0-0.35,0.173-0.525l1.225-3.493h-0.699 M302.717,38.086
	c0-1.048,0.873-2.795,2.096-2.795c0.7,0,1.05,0.35,1.05,1.224c0,1.048-0.874,2.796-2.098,2.796
	C303.066,39.311,302.717,38.785,302.717,38.086z"/>
<path fill="#496978" d="M312.676,34.243h0.698v-1.048h-0.698 M312.676,41.406h0.698v-6.116h-0.698V41.406z"/>
<path fill="#496978" d="M314.771,41.406h0.699v-4.193c0-0.873,0.524-1.572,1.397-1.572c0.698,0,1.048,0.524,1.048,1.397v4.368h0.7
	v-4.718c0-1.048-0.7-1.573-1.573-1.573c-0.699,0-1.223,0.35-1.572,1.049v-0.875h-0.699"/>
<path fill="#496978" d="M320.188,41.406h0.698v-5.591h1.048v-0.525h-1.048v-0.698c0-0.875,0.35-1.048,0.699-1.048
	c0.175,0,0.349,0,0.349,0.173V33.02c0,0-0.174,0-0.349,0c-1.223,0-1.397,0.698-1.397,1.573v0.698h-0.875v0.525h0.875"/>
<path fill="#496978" d="M323.158,38.261c0-1.921,0.698-2.62,1.398-2.62c0.872,0,1.397,0.699,1.397,2.62
	c0,2.098-0.525,2.796-1.397,2.796C323.856,41.057,323.158,40.358,323.158,38.261 M322.459,38.261c0,2.272,0.699,3.32,2.098,3.32
	c1.397,0,2.096-1.048,2.096-3.32c0-2.096-0.698-3.145-2.096-3.145C323.158,35.116,322.459,36.165,322.459,38.261z"/>
<path fill="#496978" d="M333.467,35.641L333.467,35.641c-0.35-0.698-0.875-0.873-1.397-0.873c-1.573,0-2.796,1.747-2.796,3.318
	c0,1.05,0.523,1.747,1.571,1.747c0.524,0,1.05-0.175,1.572-0.697c0,0.522,0.351,0.697,0.875,0.697c1.223,0,2.795-1.572,2.795-3.318
	c0-2.097-1.922-3.495-4.192-3.495c-2.447,0-4.543,1.922-4.543,4.193c0,2.445,2.096,4.368,4.543,4.368
	c1.572,0,3.144-0.873,4.018-2.098h-0.699c-0.698,0.875-2.096,1.573-3.318,1.573c-2.098,0-3.845-1.746-3.845-3.844
	c0-1.922,1.572-3.668,3.845-3.668c1.92,0,3.493,1.223,3.493,2.97c0,1.223-1.048,2.796-2.096,2.796c-0.175,0-0.175-0.175-0.175-0.35
	c0-0.176,0-0.35,0-0.525l1.223-3.493h-0.698 M329.797,38.086c0-1.048,1.048-2.795,2.272-2.795c0.698,0,1.048,0.35,1.048,1.224
	c0,1.048-1.048,2.796-2.272,2.796C330.146,39.311,329.797,38.785,329.797,38.086z"/>
<path fill="#496978" d="M337.484,38.261c0-1.921,0.525-2.62,1.397-2.62c0.873,0,1.224,0.699,1.224,2.62
	c0,1.923-0.351,2.622-1.224,2.622C338.01,40.883,337.484,40.184,337.484,38.261 M340.28,36.165L340.28,36.165
	c-0.351-0.699-0.875-1.049-1.573-1.049c-1.223,0-1.922,1.049-1.922,3.145c0,2.622,0.874,3.146,1.922,3.146
	c0.698,0,1.223-0.35,1.398-1.048v0.873c0,1.223-0.351,1.747-1.224,1.747c-0.699,0-1.223-0.35-1.223-0.873h-0.699
	c0,0.873,0.699,1.397,1.922,1.397c1.398,0,1.923-0.874,1.923-2.446v-5.766h-0.524V36.165z"/>
<path fill="#496978" d="M344.997,39.311c0,1.048-0.524,1.746-1.397,1.746c-0.524,0-1.049-0.523-1.049-1.224
	c0-0.872,0.524-1.222,1.223-1.397l0.524-0.175c0.175,0,0.699-0.175,0.699-0.348 M342.726,37.038c0-0.873,0.35-1.397,1.223-1.397
	c0.699,0,1.049,0.35,1.049,1.048c0,0.875,0,0.875-0.524,1.049l-1.397,0.348c-0.873,0.35-1.223,0.875-1.223,1.747
	c0,1.05,0.524,1.748,1.572,1.748c0.698,0,1.397-0.175,1.572-1.048v0.175c0,0.698,0.349,0.873,1.048,0.873l0.176-0.175v-0.523h-0.176
	c-0.175,0-0.35-0.175-0.35-0.524v-3.67c0-0.873-0.35-1.573-1.747-1.573c-1.223,0-1.921,0.7-1.921,1.922H342.726z"/>
<rect x="347.269" y="33.195" fill="#496978" width="0.699" height="8.211"/>
<rect x="349.365" y="33.195" fill="#496978" width="0.698" height="8.211"/>
<path fill="#496978" d="M352.684,41.406l-0.175,0.699c-0.173,0.698-0.523,0.873-0.873,0.873c-0.175,0-0.35-0.175-0.523-0.175v0.699
	c0.174,0,0.349,0,0.523,0c0.873,0,1.223-0.35,1.572-1.572l1.748-6.64h-0.7l-1.223,5.243l-1.397-5.243h-0.698"/>
<path fill="#496978" d="M357.751,38.785c0.524,0.176,0.873,0.525,0.873,1.048c0,0.7-0.523,1.224-1.223,1.224
	c-0.873,0-1.223-0.523-1.223-1.398v-0.175h-0.698v0.175c0,1.398,0.523,1.923,1.921,1.923c1.223,0,1.922-0.873,1.922-1.923
	c0-0.522-0.35-1.223-1.223-1.572l-1.049-0.348c-0.698-0.175-0.873-0.525-0.873-1.049c0-0.523,0.35-1.048,1.223-1.048
	c0.699,0,1.048,0.35,1.048,1.223v0.175h0.699v-0.175c0-1.223-0.524-1.748-1.747-1.748c-1.048,0-1.921,0.525-1.921,1.748
	c0,0.7,0.349,1.223,1.223,1.572"/>
<rect x="360.547" y="40.184" fill="#496978" width="0.872" height="1.223"/>
<path fill="#496978" d="M363.691,38.261c0-2.271,0.698-2.62,1.397-2.62c0.698,0,1.397,0.35,1.397,2.62
	c0,2.447-0.699,2.796-1.397,2.796C364.39,41.057,363.691,40.708,363.691,38.261 M362.992,41.406h0.699v-1.048
	c0.175,0.698,0.698,1.223,1.572,1.223c1.223,0,1.921-1.048,1.921-3.32c0-2.096-0.698-3.145-1.921-3.145
	c-0.874,0-1.397,0.35-1.572,1.049v-2.97h-0.699V41.406z"/>
<path fill="#496978" d="M368.758,37.738c0-1.573,0.524-2.097,1.397-2.097c0.699,0,1.224,0.524,1.224,2.097 M371.379,39.311
	c-0.175,1.223-0.524,1.746-1.224,1.746c-0.698,0-1.397-0.698-1.397-2.446v-0.175h3.319v-0.35c0-2.096-0.524-2.97-1.922-2.97
	s-2.096,1.049-2.096,3.145c0,2.447,0.698,3.32,2.096,3.32c1.049,0,1.747-0.873,1.922-2.271H371.379z"/>
<polyline fill="#F49848" points="46.765,55.384 47.637,55.384 47.637,47.696 49.734,47.696 49.734,47.172 44.667,47.172 
	44.667,47.696 46.765,47.696 "/>
<polyline fill="#F49848" points="52.005,55.384 52.878,55.384 55.15,47.172 54.276,47.172 52.53,54.685 50.607,47.172 
	49.908,47.172 "/>
<path fill="#F49848" d="M54.8,55.384h0.7l0.698-2.447h2.97l0.699,2.447h0.698l-2.445-8.212h-0.875 M56.373,52.414l1.223-4.718
	l1.397,4.718H56.373z"/>
<path fill="#496978" d="M63.886,51.364c0,2.447,0.35,4.193,2.271,4.193c1.922,0,2.272-1.746,2.272-4.193
	c0-2.445-0.35-4.192-2.272-4.192C64.235,47.172,63.886,48.919,63.886,51.364 M64.584,51.364c0-2.62,0.524-3.668,1.572-3.668
	c1.049,0,1.573,1.048,1.573,3.668c0,2.622-0.523,3.67-1.573,3.67C65.108,55.034,64.584,53.986,64.584,51.364z"/>
<path fill="#496978" d="M70.35,49.269c0-0.874,0.524-1.572,1.397-1.572c0.875,0,1.397,0.698,1.397,1.572
	c0,0.873-0.523,1.397-1.397,1.397C70.874,50.666,70.35,50.142,70.35,49.269 M69.477,53.111c0,1.573,0.873,2.446,2.271,2.446
	s2.272-0.873,2.272-2.446c0-1.048-0.35-1.922-1.397-2.096c0.698-0.175,1.223-1.049,1.223-1.747c0-1.397-0.873-2.097-2.097-2.097
	c-1.223,0-2.096,0.699-2.096,2.097c0,0.698,0.523,1.572,1.223,1.747C69.826,51.189,69.477,52.063,69.477,53.111z M70.174,53.111
	c0-1.048,0.525-1.747,1.573-1.747c1.049,0,1.572,0.699,1.572,1.747s-0.523,1.923-1.572,1.923
	C70.699,55.034,70.174,54.159,70.174,53.111z"/>
<path fill="#496978" d="M75.067,51.364c0,2.447,0.35,4.193,2.272,4.193c1.921,0,2.271-1.746,2.271-4.193
	c0-2.445-0.35-4.192-2.271-4.192C75.417,47.172,75.067,48.919,75.067,51.364 M75.767,51.364c0-2.62,0.523-3.668,1.572-3.668
	c1.048,0,1.571,1.048,1.571,3.668c0,2.622-0.523,3.67-1.571,3.67C76.29,55.034,75.767,53.986,75.767,51.364z"/>
<path fill="#496978" d="M80.658,47.871h3.844c-1.572,2.096-2.795,5.24-2.97,7.513h0.698c0.175-2.272,1.223-5.242,2.97-7.513v-0.524
	h-4.542"/>
<rect x="86.772" y="54.159" fill="#496978" width="0.7" height="1.225"/>
<path fill="#496978" d="M89.568,47.347l-0.35,4.192h0.7c0.175-0.698,0.698-1.048,1.397-1.048c1.048,0,1.572,1.048,1.572,2.096
	c0,1.572-0.699,2.447-1.572,2.447c-1.048,0-1.573-0.875-1.573-1.748h-0.698c0,1.398,0.873,2.271,2.096,2.271
	c1.747,0,2.445-1.224,2.445-2.796c0-1.921-0.873-2.795-2.096-2.795c-0.7,0-1.397,0.175-1.572,0.874l0.35-2.97h2.97v-0.524"/>
<path fill="#496978" d="M95.333,49.792c0-1.048,0.35-2.096,1.572-2.096c1.048,0,1.398,1.048,1.398,2.096
	c0,1.049-0.35,2.097-1.398,2.097C95.683,51.889,95.333,50.841,95.333,49.792 M94.81,53.637c0,1.048,0.698,1.921,1.921,1.921
	c1.922,0,2.447-1.746,2.447-4.368c0-2.62-0.525-4.018-2.272-4.018c-1.572,0-2.271,1.223-2.271,2.795s0.698,2.62,2.096,2.62
	c0.875,0,1.398-0.523,1.748-1.397c0,2.797-0.525,3.845-1.748,3.845c-0.698,0-1.223-0.7-1.223-1.397H94.81z"/>
<path fill="#496978" d="M101.099,52.762c0-1.048,0.35-2.096,1.398-2.096c1.223,0,1.572,1.048,1.572,2.096
	c0,1.225-0.35,2.272-1.572,2.272C101.449,55.034,101.099,53.986,101.099,52.762 M104.594,49.094c0-1.048-0.7-1.922-1.922-1.922
	c-1.922,0-2.621,1.747-2.621,4.367s0.698,4.019,2.446,4.019c1.572,0,2.272-1.224,2.272-2.796s-0.7-2.62-2.097-2.62
	c-0.873,0-1.573,0.524-1.748,1.397c0-2.795,0.525-3.843,1.748-3.843c0.7,0,1.223,0.522,1.223,1.397H104.594z"/>
<rect x="106.341" y="54.159" fill="#496978" width="0.698" height="1.225"/>
<path fill="#496978" d="M109.485,49.269c0-0.874,0.524-1.572,1.399-1.572c0.873,0,1.397,0.698,1.397,1.572
	c0,0.873-0.524,1.397-1.397,1.397C110.009,50.666,109.485,50.142,109.485,49.269 M108.612,53.111c0,1.573,0.873,2.446,2.272,2.446
	c1.397,0,2.271-0.873,2.271-2.446c0-1.048-0.524-1.922-1.397-2.096c0.698-0.175,1.223-1.049,1.223-1.747
	c0-1.397-0.873-2.097-2.096-2.097c-1.224,0-2.097,0.699-2.097,2.097c0,0.698,0.524,1.572,1.223,1.747
	C108.961,51.189,108.612,52.063,108.612,53.111z M109.311,53.111c0-1.048,0.523-1.747,1.573-1.747c1.048,0,1.571,0.699,1.571,1.747
	s-0.523,1.923-1.571,1.923C109.834,55.034,109.311,54.159,109.311,53.111z"/>
<path fill="#496978" d="M114.727,47.347l-0.35,4.192h0.7c0.175-0.698,0.698-1.048,1.397-1.048c1.048,0,1.573,1.048,1.573,2.096
	c0,1.572-0.7,2.447-1.573,2.447c-1.049,0-1.572-0.875-1.572-1.748h-0.7c0,1.398,0.875,2.271,2.097,2.271
	c1.573,0,2.446-1.224,2.446-2.796c0-1.921-0.873-2.795-2.096-2.795c-0.7,0-1.398,0.175-1.573,0.874h-0.175l0.523-2.97h2.97v-0.524"
	/>
<path fill="#496978" d="M120.667,49.269c0-0.874,0.523-1.572,1.398-1.572c0.873,0,1.397,0.698,1.397,1.572
	c0,0.873-0.524,1.397-1.397,1.397C121.19,50.666,120.667,50.142,120.667,49.269 M119.793,53.111c0,1.573,0.874,2.446,2.272,2.446
	c1.397,0,2.271-0.873,2.271-2.446c0-1.048-0.523-1.922-1.397-2.096c0.699-0.175,1.223-1.049,1.223-1.747
	c0-1.397-0.873-2.097-2.096-2.097s-2.097,0.699-2.097,2.097c0,0.698,0.524,1.572,1.223,1.747
	C120.143,51.189,119.793,52.063,119.793,53.111z M120.492,53.111c0-1.048,0.525-1.747,1.573-1.747s1.572,0.699,1.572,1.747
	s-0.524,1.923-1.572,1.923S120.492,54.159,120.492,53.111z"/>
<polyline fill="#496978" points="130.101,54.859 130.101,47.521 136.391,51.189 "/>
<path fill="#496978" d="M141.458,55.384h2.271c1.572,0,2.621-0.874,2.621-2.272c0-1.048-0.523-1.922-1.573-2.096
	c0.7-0.175,1.223-1.049,1.223-1.922c0-1.223-0.698-1.922-2.271-1.922h-2.271 M142.156,51.364h1.398c1.397,0,1.922,0.524,1.922,1.747
	c0,1.048-0.525,1.573-1.922,1.573h-1.398V51.364z M142.156,47.696h1.398c1.048,0,1.747,0.35,1.747,1.572
	c0,0.873-0.699,1.397-1.922,1.397h-1.223V47.696z"/>
<path fill="#496978" d="M150.194,53.286c0,1.048-0.699,1.748-1.399,1.748c-0.698,0-1.048-0.524-1.048-1.223
	c0-0.875,0.35-1.225,1.048-1.397l0.524-0.176c0.35,0,0.7-0.175,0.875-0.35 M147.922,51.016c0-0.874,0.35-1.397,1.223-1.397
	c0.525,0,1.049,0.349,1.049,1.048c0,0.873-0.175,0.873-0.699,1.048l-1.223,0.35c-0.874,0.175-1.223,0.873-1.223,1.748
	c0,1.048,0.349,1.746,1.573,1.746c0.698,0,1.223-0.174,1.572-1.048v0.175c0,0.699,0.349,0.699,0.873,0.699c0.175,0,0.175,0,0.35,0
	v-0.524h-0.175c-0.35,0-0.35-0.175-0.35-0.525v-3.668c0-0.874-0.525-1.572-1.748-1.572c-1.397,0-1.921,0.698-1.921,1.922H147.922z"
	/>
<path fill="#496978" d="M152.29,55.384h0.7v-4.194c0-0.873,0.523-1.571,1.397-1.571c0.698,0,1.048,0.523,1.048,1.397v4.368h0.698
	v-4.718c0-1.048-0.698-1.572-1.571-1.572c-0.699,0-1.224,0.35-1.572,1.048v-0.873h-0.7"/>
<path fill="#496978" d="M157.88,52.238c0-2.097,0.699-2.62,1.397-2.62c0.35,0,0.7,0.174,1.049,0.523
	c0.173,0.524,0.349,1.048,0.349,2.097c0,2.271-0.698,2.796-1.398,2.796C158.58,55.034,157.88,54.51,157.88,52.238 M160.676,57.479
	h0.699v-8.211h-0.699v0.873c-0.175-0.523-0.698-1.048-1.573-1.048c-1.397,0-1.921,1.048-1.921,3.145
	c0,2.271,0.698,3.319,1.921,3.319c0.875,0,1.397-0.523,1.573-1.048V57.479z"/>
<path fill="#496978" d="M162.598,53.812c0,1.223,0.7,1.746,1.573,1.746c0.698,0,1.223-0.349,1.572-1.048v0.874h0.698v-6.115h-0.698
	v4.018c0,1.048-0.524,1.748-1.397,1.748c-0.7,0-1.048-0.524-1.048-1.397v-4.368h-0.7"/>
<path fill="#496978" d="M168.363,51.714c0-1.572,0.35-2.096,1.223-2.096c0.875,0,1.223,0.523,1.397,2.096 M170.983,53.286
	c-0.175,1.224-0.698,1.748-1.397,1.748c-0.698,0-1.223-0.7-1.223-2.447v-0.173h3.32v-0.351c0-2.097-0.7-2.97-2.097-2.97
	c-1.223,0-2.096,1.048-2.096,3.145c0,2.446,0.873,3.319,2.096,3.319s1.922-0.873,2.097-2.271H170.983z"/>
<rect x="175.526" y="47.172" fill="#496978" width="0.875" height="8.212"/>
<polyline fill="#496978" points="177.624,55.384 178.497,55.384 178.497,48.219 181.642,55.384 182.689,55.384 182.689,47.172 
	181.816,47.172 181.816,54.334 178.671,47.172 177.624,47.172 "/>
<path fill="#496978" d="M188.28,51.714v0.175c0,2.098-0.698,2.971-1.746,2.971c-1.225,0-1.922-0.873-1.922-3.67
	c0-2.62,0.698-3.668,1.922-3.668c1.048,0,1.571,0.873,1.571,1.922h0.875c-0.175-1.397-0.875-2.447-2.445-2.447
	c-1.748,0-2.622,1.223-2.622,4.193c0,2.97,0.875,4.368,2.622,4.368c0.873,0,1.571-0.698,1.746-1.571v1.397h0.7v-4.194h-2.621v0.524"
	/>
<path fill="#496978" d="M193.347,55.384h0.698v-1.225h-0.698 M193.347,50.841h0.698v-1.223h-0.698V50.841z"/>
<path fill="#496978" d="M198.065,55.384h2.271c1.573,0,2.621-0.874,2.621-2.272c0-1.048-0.523-1.922-1.573-2.096
	c0.875-0.175,1.224-1.049,1.224-1.922c0-1.223-0.524-1.922-2.272-1.922h-2.271 M198.938,51.364h1.397
	c1.223,0,1.922,0.524,1.922,1.747c0,1.048-0.7,1.573-1.922,1.573h-1.397V51.364z M198.938,47.696h1.223
	c1.223,0,1.748,0.35,1.748,1.572c0,0.873-0.525,1.397-1.922,1.397h-1.048V47.696z"/>
<polyline fill="#496978" points="204.005,55.384 208.198,55.384 208.198,54.685 204.703,54.685 204.703,51.364 207.848,51.364 
	207.848,50.666 204.703,50.666 204.703,47.696 208.023,47.696 208.023,47.172 204.005,47.172 "/>
<path fill="#496978" d="M209.596,47.347l-0.524,4.192h0.699c0.349-0.698,0.873-1.048,1.398-1.048c1.223,0,1.746,1.048,1.746,2.096
	c0,1.572-0.698,2.447-1.746,2.447c-0.875,0-1.398-0.875-1.398-1.748h-0.875c0,1.398,0.875,2.271,2.272,2.271
	c1.572,0,2.445-1.224,2.445-2.796c0-1.921-0.873-2.795-2.271-2.795c-0.525,0-1.224,0.175-1.573,0.874l0.349-2.97h3.145v-0.524"/>
<path fill="#496978" d="M216.234,51.364h0.524c1.048,0,1.748,0.699,1.748,1.747c0,1.398-0.875,1.923-1.748,1.923
	c-1.048,0-1.572-0.875-1.572-1.923h-0.7c0,1.573,0.875,2.446,2.272,2.446c1.573,0,2.445-1.048,2.445-2.446
	c0-1.048-0.698-1.922-1.572-2.096c0.875-0.175,1.223-0.874,1.223-1.747c0-1.397-0.698-2.097-2.096-2.097s-2.097,0.874-2.097,2.271
	h0.7c0-1.225,0.698-1.747,1.397-1.747c0.873,0,1.397,0.698,1.397,1.572c0,1.048-0.524,1.572-1.572,1.572h-0.35"/>
<path fill="#496978" d="M224.62,51.364h0.524c1.048,0,1.748,0.699,1.748,1.747c0,1.398-0.875,1.923-1.748,1.923
	c-1.048,0-1.572-0.875-1.572-1.923h-0.698c0,1.573,0.873,2.446,2.271,2.446c1.573,0,2.446-1.048,2.446-2.446
	c0-1.048-0.698-1.922-1.573-2.096c0.875-0.175,1.224-0.874,1.224-1.747c0-1.397-0.699-2.097-2.097-2.097
	c-1.397,0-2.097,0.874-2.097,2.271h0.7c0-1.225,0.699-1.747,1.397-1.747c0.873,0,1.398,0.698,1.398,1.572
	c0,1.048-0.525,1.572-1.573,1.572h-0.35"/>
<path fill="#496978" d="M229.337,52.762c0-1.048,0.35-2.096,1.573-2.096c1.048,0,1.572,1.048,1.572,2.096
	c0,1.225-0.524,2.272-1.572,2.272C229.688,55.034,229.337,53.986,229.337,52.762 M233.007,49.094c0-1.048-0.7-1.922-2.097-1.922
	c-1.922,0-2.446,1.747-2.446,4.367s0.523,4.019,2.446,4.019c1.572,0,2.272-1.224,2.272-2.796s-0.7-2.62-2.097-2.62
	c-0.873,0-1.573,0.524-1.922,1.397c0.175-2.795,0.7-3.843,1.748-3.843c0.873,0,1.397,0.522,1.397,1.397H233.007z"/>
<path fill="#496978" d="M235.803,51.364h0.523c1.049,0,1.748,0.699,1.748,1.747c0,1.398-0.873,1.923-1.748,1.923
	c-1.048,0-1.572-0.875-1.572-1.923h-0.698c0,1.573,0.873,2.446,2.271,2.446c1.573,0,2.447-1.048,2.447-2.446
	c0-1.048-0.699-1.922-1.572-2.096c0.873-0.175,1.223-0.874,1.223-1.747c0-1.397-0.699-2.097-2.097-2.097
	c-1.397,0-2.096,0.874-2.096,2.271h0.698c0-1.225,0.699-1.747,1.397-1.747c0.875,0,1.398,0.698,1.398,1.572
	c0,1.048-0.523,1.572-1.573,1.572h-0.348"/>
<path fill="#496978" d="M239.646,51.364c0,2.447,0.525,4.193,2.446,4.193c1.747,0,2.272-1.746,2.272-4.193
	c0-2.445-0.525-4.192-2.272-4.192C240.17,47.172,239.646,48.919,239.646,51.364 M240.519,51.364c0-2.62,0.35-3.668,1.573-3.668
	c1.049,0,1.572,1.048,1.572,3.668c0,2.622-0.523,3.67-1.572,3.67C240.869,55.034,240.519,53.986,240.519,51.364z"/>
<path fill="#496978" d="M248.556,52.587l2.621-4.192v4.192 M251.177,55.384h0.699v-2.098h0.873v-0.699h-0.873v-5.415h-0.699
	l-3.146,5.415v0.699h3.146V55.384z"/>
<path fill="#496978" d="M255.37,51.364h0.524c1.048,0,1.748,0.699,1.748,1.747c0,1.398-0.875,1.923-1.748,1.923
	c-1.048,0-1.572-0.875-1.572-1.923h-0.7c0,1.573,0.875,2.446,2.272,2.446c1.573,0,2.446-1.048,2.446-2.446
	c0-1.048-0.698-1.922-1.573-2.096c0.875-0.175,1.223-0.874,1.223-1.747c0-1.397-0.698-2.097-2.096-2.097
	c-1.397,0-2.097,0.874-2.097,2.271h0.7c0-1.225,0.698-1.747,1.397-1.747c0.873,0,1.398,0.698,1.398,1.572
	c0,1.048-0.525,1.572-1.573,1.572h-0.35"/>
<path fill="#496978" d="M260.96,51.364h0.525c1.048,0,1.747,0.699,1.747,1.747c0,1.398-0.875,1.923-1.747,1.923
	c-1.048,0-1.573-0.875-1.573-1.923h-0.698c0,1.573,0.873,2.446,2.271,2.446c1.572,0,2.445-1.048,2.445-2.446
	c0-1.048-0.698-1.922-1.573-2.096c0.875-0.175,1.225-0.874,1.225-1.747c0-1.397-0.7-2.097-2.097-2.097
	c-1.398,0-2.096,0.874-2.096,2.271h0.698c0-1.225,0.7-1.747,1.398-1.747c0.873,0,1.397,0.698,1.397,1.572
	c0,1.048-0.525,1.572-1.573,1.572h-0.35"/>
<path fill="#496978" d="M265.853,49.269c0-0.874,0.35-1.572,1.397-1.572c0.875,0,1.223,0.698,1.223,1.572
	c0,0.873-0.348,1.397-1.223,1.397C266.202,50.666,265.853,50.142,265.853,49.269 M264.805,53.111c0,1.573,1.048,2.446,2.445,2.446
	c1.223,0,2.272-0.873,2.272-2.446c0-1.048-0.524-1.922-1.572-2.096c0.873-0.175,1.223-1.049,1.223-1.747
	c0-1.397-0.875-2.097-1.922-2.097c-1.223,0-2.096,0.699-2.096,2.097c0,0.698,0.349,1.572,1.223,1.747
	C265.328,51.189,264.805,52.063,264.805,53.111z M265.678,53.111c0-1.048,0.524-1.747,1.572-1.747s1.573,0.699,1.573,1.747
	s-0.525,1.923-1.573,1.923S265.678,54.159,265.678,53.111z"/>
<path fill="#496978" d="M273.89,49.792c0-1.048,0.523-2.096,1.571-2.096c1.224,0,1.573,1.048,1.573,2.096
	c0,1.049-0.349,2.097-1.573,2.097C274.413,51.889,273.89,50.841,273.89,49.792 M273.365,53.637c0,1.048,0.698,1.921,2.096,1.921
	c1.922,0,2.447-1.746,2.447-4.368c0-2.62-0.525-4.018-2.447-4.018c-1.571,0-2.271,1.223-2.271,2.795s0.7,2.62,2.097,2.62
	c0.873,0,1.573-0.523,1.921-1.397c0,2.797-0.698,3.845-1.748,3.845c-0.873,0-1.223-0.7-1.397-1.397H273.365z"/>
<path fill="#496978" d="M279.306,52.587l2.62-4.192v4.192 M281.926,55.384h0.7v-2.098h0.872v-0.699h-0.872v-5.415h-0.7l-3.145,5.415
	v0.699h3.145V55.384z"/>
<path fill="#496978" d="M285.071,47.347l-0.524,4.192h0.699c0.35-0.698,0.873-1.048,1.397-1.048c1.223,0,1.747,1.048,1.747,2.096
	c0,1.572-0.699,2.447-1.747,2.447c-0.874,0-1.397-0.875-1.397-1.748h-0.875c0,1.398,0.875,2.271,2.272,2.271
	c1.572,0,2.445-1.224,2.445-2.796c0-1.921-0.873-2.795-2.271-2.795c-0.524,0-1.223,0.175-1.572,0.874l0.35-2.97h3.144v-0.524"/>
<path fill="#496978" d="M291.71,51.364h0.524c1.048,0,1.572,0.699,1.572,1.747c0,1.398-0.699,1.923-1.572,1.923
	c-1.048,0-1.572-0.875-1.572-1.923h-0.698c0,1.573,0.873,2.446,2.271,2.446c1.572,0,2.445-1.048,2.445-2.446
	c0-1.048-0.698-1.922-1.572-2.096c0.874-0.175,1.224-0.874,1.224-1.747c0-1.397-0.699-2.097-2.097-2.097s-2.098,0.874-2.098,2.271
	h0.7c0-1.225,0.697-1.747,1.397-1.747c0.873,0,1.397,0.698,1.397,1.572c0,1.048-0.524,1.572-1.572,1.572h-0.35"/>
<rect x="298.524" y="51.714" fill="#496978" width="2.62" height="0.7"/>
<path fill="#496978" d="M305.163,55.384h2.271c1.571,0,2.62-0.874,2.62-2.272c0-1.048-0.524-1.922-1.572-2.096
	c0.873-0.175,1.223-1.049,1.223-1.922c0-1.223-0.524-1.922-2.097-1.922h-2.445 M306.035,51.364h1.399
	c1.223,0,1.921,0.524,1.921,1.747c0,1.048-0.698,1.573-1.921,1.573h-1.399V51.364z M306.035,47.696h1.225
	c1.223,0,1.746,0.35,1.746,1.572c0,0.873-0.523,1.397-1.921,1.397h-1.05V47.696z"/>
<rect x="311.103" y="47.172" fill="#496978" width="0.7" height="8.212"/>
<path fill="#496978" d="M317.566,52.587c-0.174,1.399-0.698,2.272-1.746,2.272c-1.223,0-1.922-0.873-1.922-3.67
	c0-2.62,0.699-3.668,1.922-3.668c1.048,0,1.572,0.873,1.572,1.922h0.698c0-1.225-0.698-2.447-2.271-2.447
	c-1.747,0-2.621,1.223-2.621,4.193c0,2.97,0.874,4.368,2.621,4.368c1.397,0,2.271-1.048,2.445-2.971"/>
<path fill="#496978" d="M322.459,55.384h0.699v-1.225h-0.699 M322.459,50.841h0.699v-1.223h-0.699V50.841z"/>
<path fill="#496978" d="M327.177,55.384h2.271c1.572,0,2.622-0.874,2.622-2.272c0-1.048-0.525-1.922-1.573-2.096
	c0.873-0.175,1.223-1.049,1.223-1.922c0-1.223-0.699-1.922-2.271-1.922h-2.271 M327.875,51.364h1.398
	c1.396,0,1.921,0.524,1.921,1.747c0,1.048-0.524,1.573-1.921,1.573h-1.398V51.364z M327.875,47.696h1.398
	c1.223,0,1.746,0.35,1.746,1.572c0,0.873-0.698,1.397-1.921,1.397h-1.224V47.696z"/>
<path fill="#496978" d="M332.942,55.384h2.445c1.572,0,2.446-0.874,2.446-2.272c0-1.048-0.524-1.922-1.572-2.096
	c0.873-0.175,1.223-1.049,1.223-1.922c0-1.223-0.524-1.922-2.097-1.922h-2.445 M333.814,51.364h1.398
	c1.224,0,1.922,0.524,1.922,1.747c0,1.048-0.698,1.573-1.922,1.573h-1.398V51.364z M333.814,47.696h1.224
	c1.224,0,1.747,0.35,1.747,1.572c0,0.873-0.523,1.397-1.921,1.397h-1.05V47.696z"/>
<path fill="#496978" d="M339.58,47.696h1.398c1.398,0,1.747,0.698,1.747,1.572c0,1.223-0.698,1.747-1.921,1.747h-1.225
	 M338.882,55.384h0.698v-3.845h1.398c1.398,0,1.572,0.524,1.747,1.923v0.697c0,0.525,0,0.875,0.175,1.225h0.873
	c-0.349-0.35-0.349-0.699-0.349-1.225v-0.873c0-1.223-0.35-1.922-1.397-1.922c1.048-0.349,1.397-1.223,1.397-2.271
	c0-1.223-0.699-1.922-2.097-1.922h-2.446V55.384z"/>
<path fill="#496978" d="M344.647,53.111c0,1.748,0.873,2.446,2.271,2.446c1.573,0,2.447-0.698,2.447-2.446v-5.939h-0.699v5.939
	c0,1.223-0.525,1.748-1.748,1.748c-1.048,0-1.572-0.525-1.572-1.748v-5.939h-0.698"/>
<path fill="#496978" d="M350.588,55.384h2.271c1.573,0,2.447-0.874,2.447-2.272c0-1.048-0.524-1.922-1.572-2.096
	c0.873-0.175,1.397-1.049,1.397-1.922c0-1.223-0.699-1.922-2.272-1.922h-2.271 M351.286,51.364h1.397
	c1.225,0,1.923,0.524,1.923,1.747c0,1.048-0.698,1.573-1.923,1.573h-1.397V51.364z M351.286,47.696h1.397
	c1.05,0,1.748,0.35,1.748,1.572c0,0.873-0.698,1.397-1.923,1.397h-1.223V47.696z"/>
<polyline fill="#496978" points="356.354,55.384 360.547,55.384 360.547,54.685 357.052,54.685 357.052,51.364 360.371,51.364 
	360.371,50.666 357.052,50.666 357.052,47.696 360.547,47.696 360.547,47.172 356.354,47.172 "/>
<path fill="#496978" d="M361.595,55.384h2.271c1.572,0,2.445-0.874,2.445-2.272c0-1.048-0.524-1.922-1.572-2.096
	c0.873-0.175,1.397-1.049,1.397-1.922c0-1.223-0.698-1.922-2.271-1.922h-2.271 M362.294,51.364h1.397
	c1.223,0,1.921,0.524,1.921,1.747c0,1.048-0.698,1.573-1.921,1.573h-1.397V51.364z M362.294,47.696h1.397
	c1.048,0,1.572,0.35,1.572,1.572c0,0.873-0.524,1.397-1.747,1.397h-1.223V47.696z"/>
<path fill="#496978" d="M367.359,55.384h2.272c1.572,0,2.62-0.874,2.62-2.272c0-1.048-0.524-1.922-1.572-2.096
	c0.873-0.175,1.223-1.049,1.223-1.922c0-1.223-0.698-1.922-2.271-1.922h-2.272 M368.06,51.364h1.397
	c1.397,0,1.922,0.524,1.922,1.747c0,1.048-0.524,1.573-1.922,1.573h-1.397V51.364z M368.06,47.696h1.397
	c1.223,0,1.747,0.35,1.747,1.572c0,0.873-0.699,1.397-1.922,1.397h-1.223V47.696z"/>
<polyline fill="#F49848" points="409.99,15.898 409.99,25.333 400.729,20.615 "/>
<g>
	<defs>
		<rect id="SVGID_1_" x="383.958" width="29.002" height="41.581"/>
	</defs>
	<clipPath id="SVGID_2_">
		<use xlink:href="#SVGID_1_"  overflow="visible"/>
	</clipPath>
	<polyline clip-path="url(#SVGID_2_)" fill="#496978" points="383.958,20.615 424.666,41.231 424.666,36.165 393.916,20.615 
		424.666,5.066 424.666,0 	"/>
</g>
</svg>
