<?xml version="1.0" encoding="utf-8"?>
<!-- Generator: Adobe Illustrator 16.0.0, SVG Export Plug-In . SVG Version: 6.00 Build 0)  -->
<!DOCTYPE svg PUBLIC "-//W3C//DTD SVG 1.1//EN" "http://www.w3.org/Graphics/SVG/1.1/DTD/svg11.dtd">
<svg version="1.1" id="Layer_1" xmlns="http://www.w3.org/2000/svg" xmlns:xlink="http://www.w3.org/1999/xlink" x="0px" y="0px"
	 width="412.96px" height="62.094px" viewBox="0 0 412.96 62.094" enable-background="new 0 0 412.96 62.094" xml:space="preserve">
<path fill="#F49848" d="M305.688,20.092c0-2.097-0.875-3.32-3.146-3.32c-2.621,0-3.494,1.922-3.494,5.416
	c0,3.495,0.523,5.417,3.145,5.417c0.874,0,1.572-0.35,2.098-1.049v0.875h1.572V21.84h-3.32v1.573h1.397v1.048
	c0,1.048-0.873,1.572-1.397,1.572c-1.223,0-1.396-1.572-1.396-4.02c0-2.621,0.35-3.668,1.396-3.668c0.873,0,1.224,1.048,1.224,1.748
	"/>
<path fill="#F49848" d="M310.578,18.869L310.578,18.869l1.051,4.716h-2.099 M306.561,27.43h2.097l0.523-2.097h2.795l0.352,2.097
	h2.271l-2.795-10.308h-2.622L306.561,27.43z"/>
<polyline fill="#F49848" points="321.062,27.43 321.062,25.682 317.393,25.682 317.393,17.122 315.296,17.122 315.296,27.43 "/>
<polyline fill="#F49848" points="327.875,27.43 327.875,25.682 324.207,25.682 324.207,17.122 322.109,17.122 322.109,27.43 "/>
<polyline fill="#F49848" points="326.828,17.122 329.447,23.412 329.447,27.43 331.544,27.43 331.544,23.412 334.339,17.122 
	332.069,17.122 330.496,21.14 329.099,17.122 "/>
<path fill="#F49848" d="M334.339,24.285v0.35c0,1.921,0.873,2.97,3.32,2.97c2.271,0,3.668-0.875,3.668-3.145
	c0-1.224-0.522-2.098-2.096-2.795l-1.572-0.699c-0.875-0.35-1.05-0.698-1.05-1.398c0-0.522,0.175-1.223,1.224-1.223
	c0.698,0,1.049,0.7,1.049,1.572h2.097v-0.351c0-1.922-1.397-2.795-3.319-2.795s-3.145,1.048-3.145,3.146
	c0,1.748,0.873,2.445,2.795,3.145c1.223,0.523,1.748,0.873,1.748,1.748c0,0.873-0.525,1.224-1.225,1.224
	c-1.049,0-1.396-0.524-1.396-1.572v-0.175"/>
<path fill="#F49848" d="M351.46,19.742c0-1.923-0.873-2.796-2.969-2.796c-1.746,0-2.797,1.049-2.797,2.621
	c0,3.846,5.067,2.098,5.067,5.242c0,1.398-0.874,2.096-2.271,2.096c-1.397,0-2.097-0.872-2.097-2.271v-0.35h-0.875v0.175
	c0,2.096,1.05,3.145,2.972,3.145s3.145-1.049,3.145-2.97c0-3.669-5.065-1.922-5.065-5.067c0-1.048,0.698-1.922,2.097-1.922
	c1.223,0,1.746,0.875,1.746,2.098"/>
<path fill="#F49848" d="M352.858,27.43h1.05v-4.543h1.397c2.444,0,3.317-1.223,3.317-2.97s-0.873-2.795-2.97-2.795h-2.796
	 M353.908,17.819h1.572c1.396,0,2.096,0.7,2.096,2.098c0,1.748-0.873,2.271-2.096,2.271h-1.572V17.819z"/>
<path fill="#F49848" d="M360.896,17.819h1.572c1.746,0,2.271,0.875,2.271,2.098c0,1.397-0.872,1.922-2.271,1.922h-1.572
	 M359.849,27.43h1.048v-4.718h1.747c1.572,0,1.921,0.524,1.921,2.446l0.175,0.873c0,0.523,0,1.049,0.176,1.398h1.047
	c-0.35-0.35-0.35-0.875-0.35-1.573v-1.048c0-1.572-0.523-2.447-1.746-2.447c1.397-0.35,1.746-1.396,1.746-2.62
	c0-1.747-0.873-2.62-2.619-2.62h-3.145V27.43L359.849,27.43z"/>
<polyline fill="#F49848" points="367.185,27.43 372.427,27.43 372.427,26.73 368.06,26.73 368.06,17.122 367.185,17.122 "/>
<polyline fill="#496978" points="178.146,40.883 178.146,33.545 184.437,37.213 "/>
<polyline fill="#F49848" points="190.552,41.406 191.25,41.406 191.25,33.718 193.347,33.718 193.347,33.195 188.455,33.195 
	188.455,33.718 190.552,33.718 "/>
<polyline fill="#496978" points="289.264,40.883 289.264,33.545 295.554,37.213 "/>
<path fill="#F49848" d="M306.21,35.641L306.21,35.641c-0.349-0.698-0.697-0.873-1.397-0.873c-1.571,0-2.795,1.747-2.795,3.318
	c0,1.05,0.698,1.747,1.571,1.747c0.701,0,1.049-0.175,1.574-0.697h0.174c-0.174,0.522,0.351,0.697,0.697,0.697
	c1.225,0,2.797-1.572,2.797-3.318c0-2.097-1.746-3.495-4.02-3.495c-2.62,0-4.542,1.922-4.542,4.193c0,2.445,1.922,4.368,4.542,4.368
	c1.572,0,2.971-0.873,3.845-2.099h-0.698c-0.699,0.875-1.924,1.573-3.146,1.573c-2.271,0-4.018-1.746-4.018-3.844
	c0-1.922,1.571-3.668,4.018-3.668c1.748,0,3.495,1.223,3.495,2.97c0,1.223-1.048,2.796-2.097,2.796c-0.177,0-0.35-0.175-0.35-0.35
	c0-0.176,0-0.351,0.173-0.525l1.226-3.493h-0.699 M302.716,38.086c0-1.048,0.873-2.795,2.097-2.795c0.7,0,1.05,0.35,1.05,1.224
	c0,1.048-0.874,2.796-2.098,2.796C303.066,39.311,302.716,38.785,302.716,38.086z"/>
<path fill="#496978" d="M312.675,34.243h0.699v-1.049h-0.699 M312.675,41.406h0.699V35.29h-0.699V41.406z"/>
<path fill="#496978" d="M314.771,41.406h0.699v-4.192c0-0.873,0.523-1.572,1.396-1.572c0.698,0,1.049,0.524,1.049,1.397v4.367h0.699
	v-4.718c0-1.048-0.699-1.573-1.572-1.573c-0.699,0-1.224,0.351-1.572,1.05v-0.875h-0.699"/>
<path fill="#496978" d="M320.188,41.406h0.698v-5.591h1.048V35.29h-1.048v-0.698c0-0.875,0.35-1.048,0.699-1.048
	c0.174,0,0.349,0,0.349,0.173V33.02c0,0-0.175,0-0.349,0c-1.224,0-1.397,0.698-1.397,1.573v0.698h-0.875v0.524h0.875"/>
<path fill="#496978" d="M323.158,38.261c0-1.921,0.698-2.62,1.398-2.62c0.872,0,1.396,0.699,1.396,2.62
	c0,2.098-0.524,2.796-1.396,2.796C323.856,41.057,323.158,40.358,323.158,38.261 M322.458,38.261c0,2.272,0.699,3.32,2.099,3.32
	c1.397,0,2.096-1.048,2.096-3.32c0-2.096-0.698-3.145-2.096-3.145C323.158,35.116,322.458,36.165,322.458,38.261z"/>
<path fill="#496978" d="M333.466,35.641L333.466,35.641c-0.35-0.698-0.875-0.873-1.396-0.873c-1.572,0-2.796,1.747-2.796,3.318
	c0,1.05,0.522,1.747,1.571,1.747c0.523,0,1.05-0.175,1.572-0.697c0,0.522,0.351,0.697,0.875,0.697c1.223,0,2.795-1.572,2.795-3.318
	c0-2.097-1.922-3.495-4.192-3.495c-2.446,0-4.543,1.922-4.543,4.193c0,2.445,2.097,4.368,4.543,4.368
	c1.572,0,3.144-0.873,4.019-2.099h-0.699c-0.698,0.875-2.096,1.573-3.318,1.573c-2.098,0-3.845-1.746-3.845-3.844
	c0-1.922,1.571-3.668,3.845-3.668c1.92,0,3.493,1.223,3.493,2.97c0,1.223-1.048,2.796-2.097,2.796c-0.174,0-0.174-0.175-0.174-0.35
	c0-0.176,0-0.351,0-0.525l1.223-3.493h-0.698 M329.796,38.086c0-1.048,1.049-2.795,2.272-2.795c0.698,0,1.048,0.35,1.048,1.224
	c0,1.048-1.048,2.796-2.271,2.796C330.146,39.311,329.796,38.785,329.796,38.086z"/>
<path fill="#496978" d="M337.484,38.261c0-1.921,0.525-2.62,1.396-2.62c0.873,0,1.225,0.699,1.225,2.62
	c0,1.923-0.352,2.622-1.225,2.622C338.01,40.883,337.484,40.184,337.484,38.261 M340.28,36.165L340.28,36.165
	c-0.351-0.699-0.875-1.049-1.573-1.049c-1.223,0-1.922,1.049-1.922,3.145c0,2.622,0.875,3.146,1.922,3.146
	c0.698,0,1.224-0.35,1.398-1.048v0.873c0,1.224-0.352,1.747-1.225,1.747c-0.698,0-1.223-0.35-1.223-0.873h-0.699
	c0,0.873,0.699,1.397,1.922,1.397c1.398,0,1.924-0.874,1.924-2.446v-5.766h-0.524V36.165L340.28,36.165z"/>
<path fill="#496978" d="M344.998,39.311c0,1.048-0.524,1.746-1.397,1.746c-0.524,0-1.05-0.522-1.05-1.224
	c0-0.872,0.525-1.223,1.224-1.397l0.524-0.175c0.175,0,0.699-0.175,0.699-0.348 M342.726,37.038c0-0.873,0.35-1.397,1.223-1.397
	c0.699,0,1.049,0.35,1.049,1.048c0,0.875,0,0.875-0.523,1.049l-1.396,0.349c-0.873,0.35-1.224,0.875-1.224,1.747
	c0,1.05,0.524,1.748,1.572,1.748c0.698,0,1.397-0.176,1.571-1.048v0.175c0,0.697,0.35,0.873,1.049,0.873l0.176-0.176v-0.522h-0.176
	c-0.176,0-0.351-0.175-0.351-0.524v-3.67c0-0.873-0.35-1.572-1.747-1.572c-1.223,0-1.921,0.699-1.921,1.922H342.726z"/>
<rect x="347.269" y="33.195" fill="#496978" width="0.699" height="8.211"/>
<rect x="349.365" y="33.195" fill="#496978" width="0.698" height="8.211"/>
<path fill="#496978" d="M352.684,41.406l-0.175,0.699c-0.174,0.698-0.523,0.873-0.873,0.873c-0.176,0-0.35-0.175-0.523-0.175v0.699
	c0.174,0,0.35,0,0.523,0c0.873,0,1.223-0.351,1.572-1.572l1.748-6.64h-0.701l-1.223,5.243l-1.396-5.243h-0.698"/>
<path fill="#496978" d="M357.751,38.785c0.523,0.176,0.873,0.524,0.873,1.048c0,0.7-0.523,1.224-1.224,1.224
	c-0.873,0-1.223-0.522-1.223-1.397v-0.176h-0.698v0.176c0,1.397,0.523,1.923,1.921,1.923c1.224,0,1.922-0.873,1.922-1.923
	c0-0.522-0.35-1.224-1.223-1.572l-1.05-0.349c-0.697-0.175-0.872-0.524-0.872-1.049c0-0.522,0.35-1.048,1.223-1.048
	c0.699,0,1.048,0.351,1.048,1.223v0.176h0.699v-0.176c0-1.223-0.523-1.747-1.747-1.747c-1.048,0-1.921,0.524-1.921,1.747
	c0,0.7,0.35,1.224,1.223,1.572"/>
<rect x="360.546" y="40.184" fill="#496978" width="0.873" height="1.223"/>
<path fill="#496978" d="M363.691,38.261c0-2.271,0.698-2.62,1.396-2.62c0.699,0,1.397,0.351,1.397,2.62
	c0,2.447-0.698,2.796-1.397,2.796C364.39,41.057,363.691,40.708,363.691,38.261 M362.992,41.406h0.699v-1.048
	c0.176,0.698,0.698,1.224,1.572,1.224c1.223,0,1.921-1.048,1.921-3.32c0-2.096-0.698-3.146-1.921-3.146
	c-0.874,0-1.396,0.351-1.572,1.05v-2.971h-0.699V41.406z"/>
<path fill="#496978" d="M368.757,37.738c0-1.572,0.524-2.097,1.397-2.097c0.699,0,1.224,0.524,1.224,2.097 M371.378,39.311
	c-0.174,1.224-0.523,1.746-1.224,1.746c-0.698,0-1.397-0.698-1.397-2.446v-0.175h3.32v-0.35c0-2.097-0.524-2.97-1.923-2.97
	c-1.397,0-2.096,1.049-2.096,3.145c0,2.447,0.698,3.32,2.096,3.32c1.05,0,1.747-0.873,1.923-2.271L371.378,39.311L371.378,39.311z"
	/>
<polyline fill="#F49848" points="46.765,55.384 47.637,55.384 47.637,47.696 49.734,47.696 49.734,47.172 44.667,47.172 
	44.667,47.696 46.765,47.696 "/>
<polyline fill="#F49848" points="52.005,55.384 52.878,55.384 55.15,47.172 54.276,47.172 52.53,54.685 50.607,47.172 
	49.908,47.172 "/>
<path fill="#F49848" d="M54.8,55.384h0.7l0.698-2.447h2.97l0.699,2.447h0.698l-2.445-8.212h-0.875 M56.373,52.414l1.223-4.719
	l1.397,4.719H56.373z"/>
<path fill="#496978" d="M63.886,51.364c0,2.447,0.35,4.193,2.271,4.193c1.922,0,2.272-1.746,2.272-4.193
	c0-2.444-0.35-4.191-2.272-4.191C64.235,47.172,63.886,48.919,63.886,51.364 M64.584,51.364c0-2.619,0.524-3.668,1.572-3.668
	c1.049,0,1.573,1.049,1.573,3.668c0,2.622-0.523,3.671-1.573,3.671C65.108,55.034,64.584,53.986,64.584,51.364z"/>
<path fill="#496978" d="M70.35,49.269c0-0.874,0.524-1.572,1.397-1.572c0.875,0,1.397,0.698,1.397,1.572
	c0,0.873-0.523,1.397-1.397,1.397C70.874,50.666,70.35,50.142,70.35,49.269 M69.477,53.111c0,1.573,0.873,2.446,2.271,2.446
	s2.272-0.873,2.272-2.446c0-1.048-0.35-1.922-1.397-2.096c0.698-0.175,1.223-1.049,1.223-1.747c0-1.396-0.873-2.097-2.097-2.097
	c-1.223,0-2.096,0.699-2.096,2.097c0,0.698,0.523,1.572,1.223,1.747C69.826,51.189,69.477,52.063,69.477,53.111z M70.174,53.111
	c0-1.048,0.525-1.747,1.573-1.747c1.049,0,1.572,0.699,1.572,1.747c0,1.049-0.523,1.924-1.572,1.924
	C70.699,55.034,70.174,54.159,70.174,53.111z"/>
<path fill="#496978" d="M75.067,51.364c0,2.447,0.35,4.193,2.272,4.193c1.921,0,2.271-1.746,2.271-4.193
	c0-2.444-0.35-4.191-2.271-4.191C75.417,47.172,75.067,48.919,75.067,51.364 M75.767,51.364c0-2.619,0.523-3.668,1.572-3.668
	c1.048,0,1.571,1.049,1.571,3.668c0,2.622-0.523,3.671-1.571,3.671C76.29,55.034,75.767,53.986,75.767,51.364z"/>
<path fill="#496978" d="M80.658,47.871h3.844c-1.572,2.096-2.795,5.239-2.97,7.513h0.698c0.175-2.272,1.223-5.242,2.97-7.513v-0.524
	h-4.542"/>
<rect x="86.772" y="54.159" fill="#496978" width="0.7" height="1.225"/>
<path fill="#496978" d="M89.568,47.347l-0.35,4.192h0.7c0.175-0.698,0.698-1.048,1.397-1.048c1.048,0,1.572,1.048,1.572,2.096
	c0,1.572-0.699,2.447-1.572,2.447c-1.048,0-1.573-0.875-1.573-1.748h-0.698c0,1.397,0.873,2.271,2.096,2.271
	c1.747,0,2.445-1.224,2.445-2.796c0-1.921-0.873-2.795-2.096-2.795c-0.7,0-1.397,0.175-1.572,0.874l0.35-2.97h2.97v-0.524"/>
<path fill="#496978" d="M95.333,49.792c0-1.048,0.35-2.097,1.572-2.097c1.048,0,1.398,1.049,1.398,2.097
	c0,1.049-0.35,2.097-1.398,2.097C95.683,51.889,95.333,50.841,95.333,49.792 M94.81,53.637c0,1.048,0.698,1.921,1.921,1.921
	c1.922,0,2.447-1.746,2.447-4.368c0-2.62-0.525-4.018-2.272-4.018c-1.572,0-2.271,1.223-2.271,2.795s0.698,2.62,2.096,2.62
	c0.875,0,1.398-0.523,1.748-1.397c0,2.797-0.525,3.846-1.748,3.846c-0.698,0-1.223-0.7-1.223-1.397L94.81,53.637L94.81,53.637z"/>
<path fill="#496978" d="M101.099,52.762c0-1.048,0.35-2.096,1.398-2.096c1.223,0,1.572,1.048,1.572,2.096
	c0,1.225-0.35,2.272-1.572,2.272C101.449,55.034,101.099,53.986,101.099,52.762 M104.594,49.094c0-1.048-0.7-1.922-1.922-1.922
	c-1.922,0-2.621,1.747-2.621,4.367s0.698,4.019,2.446,4.019c1.572,0,2.272-1.224,2.272-2.796s-0.7-2.62-2.097-2.62
	c-0.873,0-1.573,0.524-1.748,1.397c0-2.795,0.525-3.844,1.748-3.844c0.7,0,1.223,0.522,1.223,1.397L104.594,49.094L104.594,49.094z"
	/>
<rect x="106.341" y="54.159" fill="#496978" width="0.698" height="1.225"/>
<path fill="#496978" d="M109.485,49.269c0-0.874,0.524-1.572,1.399-1.572c0.873,0,1.397,0.698,1.397,1.572
	c0,0.873-0.524,1.397-1.397,1.397C110.009,50.666,109.485,50.142,109.485,49.269 M108.612,53.111c0,1.573,0.873,2.446,2.272,2.446
	c1.397,0,2.271-0.873,2.271-2.446c0-1.048-0.524-1.922-1.397-2.096c0.698-0.175,1.223-1.049,1.223-1.747
	c0-1.396-0.873-2.097-2.096-2.097c-1.224,0-2.097,0.699-2.097,2.097c0,0.698,0.524,1.572,1.223,1.747
	C108.961,51.189,108.612,52.063,108.612,53.111z M109.311,53.111c0-1.048,0.523-1.747,1.573-1.747c1.048,0,1.571,0.699,1.571,1.747
	c0,1.049-0.523,1.924-1.571,1.924C109.834,55.034,109.311,54.159,109.311,53.111z"/>
<path fill="#496978" d="M114.727,47.347l-0.35,4.192h0.7c0.175-0.698,0.698-1.048,1.397-1.048c1.048,0,1.573,1.048,1.573,2.096
	c0,1.572-0.7,2.447-1.573,2.447c-1.049,0-1.572-0.875-1.572-1.748h-0.7c0,1.397,0.875,2.271,2.097,2.271
	c1.573,0,2.446-1.224,2.446-2.796c0-1.921-0.873-2.795-2.096-2.795c-0.7,0-1.398,0.175-1.573,0.874h-0.175l0.523-2.97h2.97v-0.524"
	/>
<path fill="#496978" d="M120.667,49.269c0-0.874,0.523-1.572,1.398-1.572c0.873,0,1.397,0.698,1.397,1.572
	c0,0.873-0.524,1.397-1.397,1.397C121.19,50.666,120.667,50.142,120.667,49.269 M119.793,53.111c0,1.573,0.874,2.446,2.272,2.446
	c1.397,0,2.271-0.873,2.271-2.446c0-1.048-0.523-1.922-1.397-2.096c0.699-0.175,1.223-1.049,1.223-1.747
	c0-1.396-0.873-2.097-2.096-2.097s-2.097,0.699-2.097,2.097c0,0.698,0.524,1.572,1.223,1.747
	C120.143,51.189,119.793,52.063,119.793,53.111z M120.492,53.111c0-1.048,0.525-1.747,1.573-1.747s1.572,0.699,1.572,1.747
	c0,1.049-0.524,1.924-1.572,1.924S120.492,54.159,120.492,53.111z"/>
<polyline fill="#496978" points="130.101,54.859 130.101,47.521 136.391,51.189 "/>
<path fill="#496978" d="M141.458,55.384h2.271c1.572,0,2.621-0.874,2.621-2.272c0-1.048-0.523-1.922-1.573-2.096
	c0.7-0.175,1.223-1.049,1.223-1.922c0-1.223-0.698-1.922-2.271-1.922h-2.271 M142.156,51.364h1.398c1.397,0,1.922,0.524,1.922,1.747
	c0,1.049-0.525,1.573-1.922,1.573h-1.398V51.364z M142.156,47.696h1.398c1.048,0,1.747,0.351,1.747,1.572
	c0,0.873-0.699,1.397-1.922,1.397h-1.223V47.696L142.156,47.696z"/>
<path fill="#496978" d="M150.194,53.286c0,1.048-0.699,1.748-1.399,1.748c-0.698,0-1.048-0.524-1.048-1.224
	c0-0.875,0.35-1.225,1.048-1.396l0.524-0.177c0.35,0,0.7-0.175,0.875-0.35 M147.922,51.016c0-0.874,0.35-1.396,1.223-1.396
	c0.525,0,1.049,0.349,1.049,1.048c0,0.873-0.175,0.873-0.699,1.048l-1.223,0.35c-0.874,0.175-1.223,0.873-1.223,1.748
	c0,1.048,0.349,1.746,1.573,1.746c0.698,0,1.223-0.174,1.572-1.048v0.175c0,0.699,0.349,0.699,0.873,0.699c0.175,0,0.175,0,0.35,0
	v-0.524h-0.175c-0.35,0-0.35-0.175-0.35-0.524v-3.668c0-0.874-0.525-1.572-1.748-1.572c-1.397,0-1.921,0.698-1.921,1.922h0.699
	V51.016z"/>
<path fill="#496978" d="M152.29,55.384h0.7V51.19c0-0.873,0.523-1.57,1.397-1.57c0.698,0,1.048,0.522,1.048,1.396v4.368h0.698
	v-4.718c0-1.048-0.698-1.572-1.571-1.572c-0.699,0-1.224,0.35-1.572,1.048v-0.873h-0.7"/>
<path fill="#496978" d="M157.88,52.238c0-2.097,0.699-2.619,1.397-2.619c0.35,0,0.7,0.174,1.049,0.522
	c0.173,0.524,0.349,1.048,0.349,2.097c0,2.271-0.698,2.797-1.398,2.797C158.58,55.034,157.88,54.51,157.88,52.238 M160.676,57.479
	h0.699v-8.211h-0.699v0.873c-0.175-0.522-0.698-1.048-1.573-1.048c-1.397,0-1.921,1.048-1.921,3.145
	c0,2.271,0.698,3.319,1.921,3.319c0.875,0,1.397-0.522,1.573-1.048V57.479z"/>
<path fill="#496978" d="M162.598,53.812c0,1.224,0.7,1.746,1.573,1.746c0.698,0,1.223-0.349,1.572-1.048v0.874h0.698v-6.115h-0.698
	v4.019c0,1.048-0.524,1.748-1.397,1.748c-0.7,0-1.048-0.524-1.048-1.397V49.27h-0.7"/>
<path fill="#496978" d="M168.363,51.714c0-1.572,0.35-2.096,1.223-2.096c0.875,0,1.223,0.522,1.397,2.096 M170.983,53.286
	c-0.175,1.224-0.698,1.748-1.397,1.748c-0.698,0-1.223-0.7-1.223-2.447v-0.173h3.32v-0.352c0-2.097-0.7-2.97-2.097-2.97
	c-1.223,0-2.096,1.048-2.096,3.145c0,2.446,0.873,3.319,2.096,3.319s1.922-0.873,2.097-2.271H170.983z"/>
<rect x="175.526" y="47.172" fill="#496978" width="0.875" height="8.212"/>
<polyline fill="#496978" points="177.624,55.384 178.497,55.384 178.497,48.219 181.642,55.384 182.689,55.384 182.689,47.172 
	181.816,47.172 181.816,54.334 178.671,47.172 177.624,47.172 "/>
<path fill="#496978" d="M188.28,51.714v0.175c0,2.098-0.698,2.971-1.746,2.971c-1.225,0-1.922-0.873-1.922-3.67
	c0-2.62,0.698-3.668,1.922-3.668c1.048,0,1.571,0.873,1.571,1.922h0.875c-0.175-1.396-0.875-2.446-2.445-2.446
	c-1.748,0-2.622,1.223-2.622,4.192c0,2.971,0.875,4.368,2.622,4.368c0.873,0,1.571-0.698,1.746-1.571v1.397h0.7V51.19h-2.621v0.524"
	/>
<path fill="#496978" d="M193.347,55.384h0.698v-1.225h-0.698 M193.347,50.841h0.698v-1.223h-0.698V50.841z"/>
<path fill="#496978" d="M198.065,55.384h2.271c1.573,0,2.621-0.874,2.621-2.272c0-1.048-0.523-1.922-1.573-2.096
	c0.875-0.175,1.224-1.049,1.224-1.922c0-1.223-0.524-1.922-2.272-1.922h-2.271 M198.938,51.364h1.397
	c1.223,0,1.922,0.524,1.922,1.747c0,1.049-0.7,1.573-1.922,1.573h-1.397V51.364z M198.938,47.696h1.223
	c1.223,0,1.748,0.351,1.748,1.572c0,0.873-0.525,1.397-1.922,1.397h-1.048L198.938,47.696L198.938,47.696z"/>
<polyline fill="#496978" points="204.005,55.384 208.198,55.384 208.198,54.685 204.703,54.685 204.703,51.364 207.848,51.364 
	207.848,50.666 204.703,50.666 204.703,47.696 208.023,47.696 208.023,47.172 204.005,47.172 "/>
<path fill="#496978" d="M209.596,47.347l-0.524,4.192h0.699c0.35-0.698,0.873-1.048,1.398-1.048c1.223,0,1.746,1.048,1.746,2.096
	c0,1.572-0.699,2.447-1.746,2.447c-0.875,0-1.398-0.875-1.398-1.748h-0.875c0,1.397,0.875,2.271,2.271,2.271
	c1.572,0,2.445-1.224,2.445-2.796c0-1.921-0.873-2.795-2.271-2.795c-0.524,0-1.223,0.175-1.572,0.874l0.35-2.97h3.145v-0.524"/>
<path fill="#496978" d="M216.234,51.364h0.523c1.049,0,1.748,0.699,1.748,1.747c0,1.398-0.875,1.924-1.748,1.924
	c-1.047,0-1.571-0.875-1.571-1.924h-0.7c0,1.573,0.875,2.446,2.271,2.446c1.574,0,2.445-1.048,2.445-2.446
	c0-1.048-0.697-1.922-1.572-2.096c0.875-0.175,1.224-0.874,1.224-1.747c0-1.396-0.698-2.097-2.097-2.097
	c-1.397,0-2.096,0.874-2.096,2.271h0.699c0-1.225,0.698-1.747,1.396-1.747c0.873,0,1.397,0.698,1.397,1.572
	c0,1.048-0.524,1.572-1.571,1.572h-0.351"/>
<path fill="#496978" d="M224.621,51.364h0.523c1.048,0,1.748,0.699,1.748,1.747c0,1.398-0.875,1.924-1.748,1.924
	c-1.048,0-1.572-0.875-1.572-1.924h-0.697c0,1.573,0.873,2.446,2.271,2.446c1.573,0,2.446-1.048,2.446-2.446
	c0-1.048-0.698-1.922-1.573-2.096c0.875-0.175,1.224-0.874,1.224-1.747c0-1.396-0.699-2.097-2.097-2.097s-2.097,0.874-2.097,2.271
	h0.699c0-1.225,0.699-1.747,1.397-1.747c0.873,0,1.397,0.698,1.397,1.572c0,1.048-0.524,1.572-1.572,1.572h-0.35"/>
<path fill="#496978" d="M229.337,52.762c0-1.048,0.35-2.096,1.572-2.096c1.049,0,1.572,1.048,1.572,2.096
	c0,1.225-0.523,2.272-1.572,2.272C229.688,55.034,229.337,53.986,229.337,52.762 M233.007,49.094c0-1.048-0.7-1.922-2.098-1.922
	c-1.922,0-2.445,1.747-2.445,4.367s0.522,4.019,2.445,4.019c1.572,0,2.272-1.224,2.272-2.796s-0.7-2.62-2.097-2.62
	c-0.873,0-1.573,0.524-1.922,1.397c0.174-2.795,0.699-3.844,1.748-3.844c0.873,0,1.396,0.522,1.396,1.397L233.007,49.094
	L233.007,49.094z"/>
<path fill="#496978" d="M235.803,51.364h0.522c1.049,0,1.748,0.699,1.748,1.747c0,1.398-0.873,1.924-1.748,1.924
	c-1.048,0-1.572-0.875-1.572-1.924h-0.697c0,1.573,0.873,2.446,2.271,2.446c1.572,0,2.446-1.048,2.446-2.446
	c0-1.048-0.698-1.922-1.571-2.096c0.873-0.175,1.223-0.874,1.223-1.747c0-1.396-0.699-2.097-2.098-2.097
	c-1.396,0-2.096,0.874-2.096,2.271h0.698c0-1.225,0.698-1.747,1.397-1.747c0.875,0,1.397,0.698,1.397,1.572
	c0,1.048-0.522,1.572-1.573,1.572h-0.348"/>
<path fill="#496978" d="M239.646,51.364c0,2.447,0.525,4.193,2.445,4.193c1.748,0,2.272-1.746,2.272-4.193
	c0-2.444-0.524-4.191-2.272-4.191C240.169,47.172,239.646,48.919,239.646,51.364 M240.519,51.364c0-2.619,0.35-3.668,1.572-3.668
	c1.05,0,1.572,1.049,1.572,3.668c0,2.622-0.522,3.671-1.572,3.671C240.869,55.034,240.519,53.986,240.519,51.364z"/>
<path fill="#496978" d="M248.556,52.587l2.621-4.192v4.192 M251.177,55.384h0.699v-2.098h0.873v-0.699h-0.873v-5.415h-0.699
	l-3.146,5.415v0.699h3.146V55.384z"/>
<path fill="#496978" d="M255.371,51.364h0.523c1.048,0,1.748,0.699,1.748,1.747c0,1.398-0.875,1.924-1.748,1.924
	c-1.048,0-1.572-0.875-1.572-1.924h-0.699c0,1.573,0.875,2.446,2.271,2.446c1.572,0,2.445-1.048,2.445-2.446
	c0-1.048-0.697-1.922-1.572-2.096c0.875-0.175,1.223-0.874,1.223-1.747c0-1.396-0.697-2.097-2.096-2.097
	c-1.396,0-2.098,0.874-2.098,2.271h0.701c0-1.225,0.697-1.747,1.396-1.747c0.873,0,1.398,0.698,1.398,1.572
	c0,1.048-0.525,1.572-1.573,1.572h-0.351"/>
<path fill="#496978" d="M260.96,51.364h0.524c1.048,0,1.747,0.699,1.747,1.747c0,1.398-0.875,1.924-1.747,1.924
	c-1.048,0-1.573-0.875-1.573-1.924h-0.697c0,1.573,0.873,2.446,2.271,2.446c1.572,0,2.445-1.048,2.445-2.446
	c0-1.048-0.698-1.922-1.573-2.096c0.875-0.175,1.225-0.874,1.225-1.747c0-1.396-0.699-2.097-2.097-2.097s-2.096,0.874-2.096,2.271
	h0.698c0-1.225,0.699-1.747,1.397-1.747c0.873,0,1.397,0.698,1.397,1.572c0,1.048-0.525,1.572-1.573,1.572h-0.351"/>
<path fill="#496978" d="M265.853,49.269c0-0.874,0.35-1.572,1.396-1.572c0.875,0,1.224,0.698,1.224,1.572
	c0,0.873-0.349,1.397-1.224,1.397C266.203,50.666,265.853,50.142,265.853,49.269 M264.805,53.111c0,1.573,1.048,2.446,2.444,2.446
	c1.224,0,2.272-0.873,2.272-2.446c0-1.048-0.524-1.922-1.571-2.096c0.872-0.175,1.223-1.049,1.223-1.747
	c0-1.396-0.875-2.097-1.922-2.097c-1.224,0-2.097,0.699-2.097,2.097c0,0.698,0.349,1.572,1.224,1.747
	C265.328,51.189,264.805,52.063,264.805,53.111z M265.678,53.111c0-1.048,0.524-1.747,1.571-1.747c1.049,0,1.573,0.699,1.573,1.747
	c0,1.049-0.524,1.924-1.573,1.924C266.203,55.034,265.678,54.159,265.678,53.111z"/>
<path fill="#496978" d="M273.89,49.792c0-1.048,0.523-2.097,1.57-2.097c1.225,0,1.574,1.049,1.574,2.097
	c0,1.049-0.35,2.097-1.574,2.097C274.414,51.889,273.89,50.841,273.89,49.792 M273.365,53.637c0,1.048,0.698,1.921,2.096,1.921
	c1.922,0,2.447-1.746,2.447-4.368c0-2.62-0.525-4.018-2.447-4.018c-1.57,0-2.271,1.223-2.271,2.795s0.7,2.62,2.097,2.62
	c0.873,0,1.573-0.523,1.922-1.397c0,2.797-0.699,3.846-1.748,3.846c-0.873,0-1.224-0.7-1.397-1.397L273.365,53.637L273.365,53.637z"
	/>
<path fill="#496978" d="M279.306,52.587l2.619-4.192v4.192 M281.925,55.384h0.701v-2.098h0.871v-0.699h-0.871v-5.415h-0.701
	l-3.145,5.415v0.699h3.145V55.384z"/>
<path fill="#496978" d="M285.071,47.347l-0.524,4.192h0.699c0.351-0.698,0.873-1.048,1.397-1.048c1.224,0,1.747,1.048,1.747,2.096
	c0,1.572-0.699,2.447-1.747,2.447c-0.874,0-1.397-0.875-1.397-1.748h-0.875c0,1.397,0.875,2.271,2.272,2.271
	c1.571,0,2.444-1.224,2.444-2.796c0-1.921-0.873-2.795-2.271-2.795c-0.524,0-1.223,0.175-1.571,0.874l0.35-2.97h3.145v-0.524"/>
<path fill="#496978" d="M291.71,51.364h0.523c1.048,0,1.572,0.699,1.572,1.747c0,1.398-0.699,1.924-1.572,1.924
	c-1.048,0-1.572-0.875-1.572-1.924h-0.697c0,1.573,0.873,2.446,2.271,2.446c1.572,0,2.445-1.048,2.445-2.446
	c0-1.048-0.698-1.922-1.572-2.096c0.874-0.175,1.224-0.874,1.224-1.747c0-1.396-0.699-2.097-2.097-2.097s-2.098,0.874-2.098,2.271
	h0.7c0-1.225,0.697-1.747,1.396-1.747c0.873,0,1.396,0.698,1.396,1.572c0,1.048-0.523,1.572-1.571,1.572h-0.351"/>
<rect x="298.524" y="51.714" fill="#496978" width="2.62" height="0.7"/>
<path fill="#496978" d="M305.164,55.384h2.271c1.571,0,2.62-0.874,2.62-2.272c0-1.048-0.524-1.922-1.572-2.096
	c0.873-0.175,1.223-1.049,1.223-1.922c0-1.223-0.523-1.922-2.097-1.922h-2.444 M306.035,51.364h1.399
	c1.223,0,1.921,0.524,1.921,1.747c0,1.049-0.698,1.573-1.921,1.573h-1.399V51.364z M306.035,47.696h1.226
	c1.223,0,1.745,0.351,1.745,1.572c0,0.873-0.522,1.397-1.92,1.397h-1.051V47.696L306.035,47.696z"/>
<rect x="311.103" y="47.172" fill="#496978" width="0.7" height="8.212"/>
<path fill="#496978" d="M317.566,52.587c-0.174,1.398-0.697,2.271-1.746,2.271c-1.223,0-1.922-0.873-1.922-3.67
	c0-2.62,0.699-3.668,1.922-3.668c1.049,0,1.572,0.873,1.572,1.922h0.697c0-1.225-0.697-2.446-2.271-2.446
	c-1.747,0-2.621,1.223-2.621,4.192c0,2.971,0.874,4.368,2.621,4.368c1.397,0,2.271-1.048,2.445-2.971"/>
<path fill="#496978" d="M322.458,55.384h0.699v-1.225h-0.699 M322.458,50.841h0.699v-1.223h-0.699V50.841z"/>
<path fill="#496978" d="M327.177,55.384h2.271c1.572,0,2.622-0.874,2.622-2.272c0-1.048-0.525-1.922-1.572-2.096
	c0.873-0.175,1.223-1.049,1.223-1.922c0-1.223-0.699-1.922-2.271-1.922h-2.271 M327.875,51.364h1.398
	c1.396,0,1.921,0.524,1.921,1.747c0,1.049-0.524,1.573-1.921,1.573h-1.398V51.364z M327.875,47.696h1.398
	c1.223,0,1.746,0.351,1.746,1.572c0,0.873-0.698,1.397-1.921,1.397h-1.224V47.696L327.875,47.696z"/>
<path fill="#496978" d="M332.942,55.384h2.445c1.571,0,2.446-0.874,2.446-2.272c0-1.048-0.524-1.922-1.572-2.096
	c0.873-0.175,1.223-1.049,1.223-1.922c0-1.223-0.523-1.922-2.097-1.922h-2.445 M333.814,51.364h1.398
	c1.224,0,1.922,0.524,1.922,1.747c0,1.049-0.698,1.573-1.922,1.573h-1.398V51.364z M333.814,47.696h1.225
	c1.224,0,1.746,0.351,1.746,1.572c0,0.873-0.522,1.397-1.921,1.397h-1.05V47.696L333.814,47.696z"/>
<path fill="#496978" d="M339.58,47.696h1.398c1.398,0,1.747,0.698,1.747,1.572c0,1.223-0.698,1.747-1.921,1.747h-1.225
	 M338.882,55.384h0.697v-3.845h1.398c1.398,0,1.572,0.523,1.747,1.923v0.697c0,0.524,0,0.875,0.175,1.225h0.873
	c-0.35-0.35-0.35-0.699-0.35-1.225v-0.873c0-1.224-0.35-1.923-1.396-1.923c1.049-0.349,1.396-1.223,1.396-2.271
	c0-1.223-0.698-1.922-2.096-1.922h-2.447v8.213H338.882z"/>
<path fill="#496978" d="M344.647,53.111c0,1.748,0.873,2.446,2.271,2.446c1.574,0,2.447-0.698,2.447-2.446v-5.938h-0.699v5.938
	c0,1.224-0.524,1.748-1.748,1.748c-1.047,0-1.571-0.524-1.571-1.748v-5.938h-0.698"/>
<path fill="#496978" d="M350.587,55.384h2.271c1.573,0,2.447-0.874,2.447-2.272c0-1.048-0.523-1.922-1.572-2.096
	c0.873-0.175,1.396-1.049,1.396-1.922c0-1.223-0.698-1.922-2.271-1.922h-2.271 M351.287,51.364h1.396
	c1.225,0,1.923,0.524,1.923,1.747c0,1.049-0.698,1.573-1.923,1.573h-1.396V51.364z M351.287,47.696h1.396
	c1.05,0,1.748,0.351,1.748,1.572c0,0.873-0.698,1.397-1.924,1.397h-1.223v-2.97H351.287z"/>
<polyline fill="#496978" points="356.354,55.384 360.546,55.384 360.546,54.685 357.052,54.685 357.052,51.364 360.371,51.364 
	360.371,50.666 357.052,50.666 357.052,47.696 360.546,47.696 360.546,47.172 356.354,47.172 "/>
<path fill="#496978" d="M361.595,55.384h2.271c1.571,0,2.444-0.874,2.444-2.272c0-1.048-0.524-1.922-1.572-2.096
	c0.873-0.175,1.397-1.049,1.397-1.922c0-1.223-0.698-1.922-2.271-1.922h-2.271 M362.294,51.364h1.396
	c1.223,0,1.921,0.524,1.921,1.747c0,1.049-0.698,1.573-1.921,1.573h-1.396V51.364z M362.294,47.696h1.396
	c1.048,0,1.572,0.351,1.572,1.572c0,0.873-0.524,1.397-1.747,1.397h-1.224v-2.97H362.294z"/>
<path fill="#496978" d="M367.359,55.384h2.271c1.572,0,2.621-0.874,2.621-2.272c0-1.048-0.524-1.922-1.572-2.096
	c0.873-0.175,1.223-1.049,1.223-1.922c0-1.223-0.697-1.922-2.271-1.922h-2.271 M368.06,51.364h1.396
	c1.397,0,1.922,0.524,1.922,1.747c0,1.049-0.523,1.573-1.922,1.573h-1.396V51.364z M368.06,47.696h1.396
	c1.224,0,1.748,0.351,1.748,1.572c0,0.873-0.699,1.397-1.922,1.397h-1.224L368.06,47.696L368.06,47.696z"/>
<polyline fill="#F49848" points="409.99,15.898 409.99,25.333 400.729,20.615 "/>
<g>
	<g>
		<defs>
			<rect id="SVGID_1_" x="383.958" y="0" width="29.002" height="41.581"/>
		</defs>
		<clipPath id="SVGID_2_">
			<use xlink:href="#SVGID_1_"  overflow="visible"/>
		</clipPath>
		<polyline clip-path="url(#SVGID_2_)" fill="#496978" points="383.958,20.615 424.666,41.231 424.666,36.165 393.916,20.615 
			424.666,5.066 424.666,0 		"/>
	</g>
</g>
<g>
	<text transform="matrix(0.899 0 0 1 39.5005 41.5813)" fill="#496978" font-family="'NewsCycle'" font-size="12">Rue Cahorday, 1 - B-4671 Saive </text>
</g>
<g>
	<text transform="matrix(0.8592 0 0 1 196.6484 41.5813)" fill="#496978" font-family="'NewsCycle'" font-size="12">+32 (0) 4 387 57 98</text>
</g>
</svg>
