<?xml version="1.0" encoding="utf-8"?>
<!-- Generator: Adobe Illustrator 16.0.0, SVG Export Plug-In . SVG Version: 6.00 Build 0)  -->
<!DOCTYPE svg PUBLIC "-//W3C//DTD SVG 1.1//EN" "http://www.w3.org/Graphics/SVG/1.1/DTD/svg11.dtd">
<svg version="1.1" id="Calque_1" xmlns="http://www.w3.org/2000/svg" xmlns:xlink="http://www.w3.org/1999/xlink" x="0px" y="0px"
	 width="1229.023px" height="190.491px" viewBox="0 0 1229.023 190.491" enable-background="new 0 0 1229.023 190.491"
	 xml:space="preserve">
<polygon fill="#496978" points="1165.215,63.919 1229.023,32.338 1229.023,17.801 1135.841,63.919 1229.021,110.041 1229.021,95.5 
	"/>
<polygon fill="#F49848" points="1219.892,49.478 1190.708,63.919 1219.89,78.363 "/>
<g>
	<path fill="#F49848" d="M889.538,65.144h-10.104v-2.99c0-1.885-0.097-3.064-0.288-3.539c-0.192-0.475-0.648-0.712-1.368-0.712
		c-0.624,0-1.049,0.203-1.272,0.61c-0.224,0.407-0.336,1.451-0.336,3.133V77.45c0,1.478,0.112,2.451,0.336,2.919
		s0.672,0.702,1.345,0.702c0.735,0,1.235-0.264,1.5-0.793c0.264-0.529,0.396-1.559,0.396-3.092V73.28h-2.04v-5.004h11.833v17.676
		h-6.35l-0.935-2.359c-0.688,1.017-1.558,1.78-2.606,2.288c-1.049,0.509-2.286,0.763-3.711,0.763c-1.698,0-3.287-0.349-4.769-1.047
		s-2.605-1.563-3.375-2.593c-0.769-1.031-1.249-2.112-1.44-3.245c-0.192-1.132-0.288-2.831-0.288-5.095v-9.784
		c0-3.146,0.199-5.431,0.6-6.854c0.399-1.424,1.548-2.729,3.444-3.916c1.896-1.186,4.349-1.78,7.356-1.78
		c2.96,0,5.417,0.516,7.369,1.546c1.952,1.031,3.224,2.255,3.816,3.672c0.592,1.417,0.888,3.475,0.888,6.173V65.144z"/>
	<path fill="#F49848" d="M910.917,53.021l5.779,32.932H906.37l-0.543-5.919h-3.614l-0.607,5.919h-10.447l5.155-32.932H910.917z
		 M905.562,74.196c-0.511-3.73-1.024-8.34-1.539-13.832c-1.029,6.306-1.676,10.917-1.939,13.832H905.562z"/>
	<path fill="#F49848" d="M928.517,53.021v26.341h6.145v6.59h-16.249V53.021H928.517z"/>
	<path fill="#F49848" d="M947.214,53.021v26.341h6.145v6.59H937.11V53.021H947.214z"/>
	<path fill="#F49848" d="M974.144,53.021l-7.368,21.012v11.92h-9.361v-11.92l-7.104-21.012h9.283
		c1.45,6.428,2.269,10.754,2.454,12.978c0.56-3.514,1.498-7.84,2.814-12.978H974.144z"/>
	<path fill="#F49848" d="M997.282,62.988h-9.385v-2.441c0-1.139-0.12-1.864-0.359-2.176c-0.24-0.312-0.641-0.468-1.2-0.468
		c-0.608,0-1.068,0.21-1.381,0.631c-0.312,0.421-0.468,1.059-0.468,1.914c0,1.099,0.175,1.927,0.526,2.483
		c0.335,0.557,1.287,1.228,2.855,2.014c4.498,2.263,7.331,4.119,8.499,5.57s1.753,3.79,1.753,7.018c0,2.346-0.324,4.075-0.973,5.187
		c-0.647,1.112-1.9,2.044-3.756,2.797c-1.856,0.753-4.017,1.129-6.48,1.129c-2.705,0-5.013-0.434-6.925-1.302
		s-3.165-1.973-3.757-3.315s-0.888-3.248-0.888-5.716v-2.156h9.385v4.007c0,1.234,0.132,2.027,0.396,2.38
		c0.265,0.353,0.732,0.529,1.404,0.529s1.172-0.224,1.5-0.671c0.328-0.447,0.492-1.112,0.492-1.993c0-1.939-0.312-3.207-0.936-3.804
		c-0.641-0.597-2.217-1.593-4.729-2.99c-2.513-1.41-4.177-2.434-4.992-3.071c-0.816-0.637-1.493-1.519-2.028-2.645
		c-0.536-1.125-0.805-2.563-0.805-4.312c0-2.522,0.38-4.366,1.141-5.533c0.76-1.166,1.988-2.078,3.685-2.736
		c1.695-0.658,3.744-0.987,6.145-0.987c2.624,0,4.86,0.36,6.708,1.078c1.849,0.719,3.072,1.624,3.673,2.716
		c0.6,1.091,0.899,2.946,0.899,5.563V62.988z"/>
	<path fill="#F49848" d="M1016.64,54.846c1.32-1.791,3.349-2.688,6.088-2.688c2.924,0,5.143,1.026,6.653,3.072
		c1.321,1.794,1.982,3.906,1.982,6.336h-3.256c0-1.536-0.379-2.814-1.133-3.84c-0.85-1.152-2.173-1.728-3.964-1.728
		c-1.982,0-3.352,0.513-4.105,1.536c-0.662,0.897-0.991,1.92-0.991,3.072c0,1.152,0.188,1.986,0.566,2.496
		c0.471,0.642,1.32,1.281,2.548,1.92c2.17,1.281,4.623,2.754,7.362,4.416c0.754,0.384,1.462,1.026,2.123,1.92
		c1.037,1.41,1.558,3.072,1.558,4.992c0,2.562-0.662,4.738-1.982,6.529c-1.416,1.92-3.729,2.88-6.937,2.88
		c-3.115,0-5.521-1.152-7.221-3.457c-1.228-1.662-1.84-4.095-1.84-7.296h3.256c0,2.304,0.376,3.969,1.133,4.992
		c1.037,1.41,2.641,2.112,4.813,2.112c1.981,0,3.443-0.639,4.389-1.92c0.754-1.023,1.132-2.046,1.132-3.072
		c0-1.152-0.283-2.112-0.849-2.88c-0.474-0.639-1.229-1.278-2.266-1.92c-0.944-0.639-2.172-1.407-3.681-2.304
		c-1.699-1.023-3.068-1.854-4.105-2.496c-0.757-0.384-1.416-0.96-1.982-1.728c-0.85-1.152-1.274-2.688-1.274-4.608
		C1014.658,58.752,1015.317,56.64,1016.64,54.846z"/>
	<path fill="#F49848" d="M1036.036,52.542h11.325c2.075,0,3.773,0.897,5.097,2.688c1.32,1.794,1.982,4.29,1.982,7.489
		c0,3.201-0.615,5.634-1.841,7.296c-1.228,1.665-2.973,2.496-5.238,2.496h-8.069v12.865h-3.256V52.542z M1039.292,56.19v12.673
		h7.361c1.321,0,2.358-0.51,3.115-1.536c0.849-1.152,1.273-2.688,1.273-4.608c0-2.175-0.378-3.774-1.132-4.801
		c-0.85-1.152-1.936-1.728-3.257-1.728H1039.292z"/>
	<path fill="#F49848" d="M1059.111,52.35h11.893c1.887,0,3.444,0.834,4.672,2.496c1.226,1.665,1.84,3.969,1.84,6.913
		c0,2.946-0.614,5.25-1.84,6.913c-0.661,0.897-1.606,1.473-2.832,1.729l5.521,14.785h-3.539l-5.097-14.209h-7.361v14.209h-3.257
		V52.35z M1062.368,55.998v11.329h8.353c0.942,0,1.745-0.447,2.406-1.344c0.659-0.894,0.991-2.304,0.991-4.225
		c0-1.791-0.378-3.198-1.133-4.224c-0.756-1.023-1.652-1.536-2.689-1.536H1062.368z"/>
	<path fill="#F49848" d="M1081.621,52.542h3.257v29.187h13.024v3.648h-16.281V52.542z"/>
</g>
<g>
	<path fill="#496978" d="M29.125,131.156v-26.435h6.103c1.935,0,3.417,0.56,4.448,1.679c1.03,1.119,1.546,2.745,1.546,4.876
		c0,1.679-0.356,3.174-1.069,4.483s-1.715,2.316-3.004,3.019l6.729,12.378h-3.513l-5.745-11.182h-2.662v11.182H29.125z
		 M31.958,117.17h0.929c1.766,0,3.107-0.471,4.027-1.411c0.919-0.94,1.379-2.315,1.379-4.126c0-2.738-1.511-4.108-4.533-4.108
		h-1.802V117.17z"/>
	<path fill="#496978" d="M56.098,131.156v-3.644c-1.426,2.727-3.156,4.09-5.19,4.09c-1.289,0-2.315-0.532-3.078-1.599
		c-0.764-1.065-1.145-2.503-1.145-4.313v-13.932h2.684v12.789c0,1.452,0.161,2.485,0.483,3.099s0.86,0.92,1.614,0.92
		c1.635,0,3.179-1.411,4.632-4.233v-12.574h2.684v19.397H56.098z"/>
	<path fill="#496978" d="M75.006,130.531c-1.798,0.714-3.337,1.071-4.618,1.071c-2.188,0-3.969-0.948-5.34-2.846
		s-2.058-4.357-2.058-7.38c0-2.938,0.606-5.348,1.819-7.228c1.212-1.879,2.763-2.819,4.652-2.819c1.789,0,3.172,0.837,4.147,2.51
		c0.977,1.673,1.465,4.046,1.465,7.117l-0.014,1.072h-9.332c0.391,4.597,2.112,6.895,5.163,6.895c1.117,0,2.489-0.399,4.114-1.197
		V130.531z M65.852,119.385h6.525c0-3.608-1.026-5.412-3.079-5.412C67.237,113.973,66.088,115.777,65.852,119.385z"/>
	<path fill="#496978" d="M103.602,129.798c-1.989,1.346-4.16,2.019-6.512,2.019c-3.134,0-5.554-1.203-7.262-3.608
		c-1.707-2.405-2.561-5.822-2.561-10.252c0-4.418,0.869-7.838,2.608-10.262c1.739-2.423,4.193-3.635,7.363-3.635
		c1.799,0,3.91,0.387,6.335,1.161v3.519c-2.761-1.25-4.891-1.875-6.39-1.875c-2.188,0-3.882,0.971-5.081,2.911
		s-1.798,4.68-1.798,8.216c0,3.382,0.64,6.044,1.921,7.984c1.28,1.941,3.033,2.911,5.258,2.911c1.898,0,3.938-0.768,6.117-2.304
		V129.798z"/>
	<path fill="#496978" d="M115.467,128.691c-1.607,1.941-3.156,2.911-4.646,2.911c-1.226,0-2.243-0.503-3.052-1.509
		c-0.808-1.006-1.212-2.277-1.212-3.813c0-2.119,0.679-3.748,2.036-4.885c1.358-1.138,3.309-1.706,5.852-1.706h0.627v-2.34
		c0-2.251-0.896-3.376-2.685-3.376c-1.389,0-2.906,0.571-4.55,1.715v-2.911c1.808-0.965,3.51-1.447,5.108-1.447
		c1.645,0,2.856,0.491,3.638,1.474s1.172,2.498,1.172,4.546v8.788c0,2.012,0.472,3.019,1.417,3.019c0.117,0,0.29-0.024,0.518-0.072
		l0.19,1.947c-0.608,0.381-1.28,0.571-2.017,0.571C116.612,131.602,115.812,130.632,115.467,128.691z M115.073,126.78v-5.02
		l-0.858-0.035c-1.49,0-2.69,0.363-3.604,1.09c-0.913,0.726-1.369,1.69-1.369,2.894c0,0.845,0.227,1.56,0.681,2.143
		c0.454,0.584,1.009,0.876,1.662,0.876C112.702,128.727,113.865,128.078,115.073,126.78z"/>
	<path fill="#496978" d="M123.246,131.156v-28.203h2.684v12.449c1.417-2.715,3.151-4.072,5.204-4.072
		c1.29,0,2.313,0.533,3.072,1.599c0.758,1.065,1.138,2.498,1.138,4.296v13.932h-2.684v-12.789c0-1.44-0.162-2.468-0.484-3.081
		s-0.855-0.92-1.601-0.92c-1.644,0-3.192,1.411-4.646,4.233v12.557H123.246z"/>
	<path fill="#496978" d="M146.446,131.602c-2.171,0-3.89-0.911-5.157-2.732c-1.267-1.822-1.9-4.293-1.9-7.412
		c0-3.12,0.634-5.588,1.9-7.404c1.268-1.815,2.986-2.724,5.157-2.724c2.17,0,3.889,0.908,5.156,2.724
		c1.267,1.816,1.9,4.284,1.9,7.404c0,3.119-0.634,5.59-1.9,7.412C150.334,130.691,148.616,131.602,146.446,131.602z
		 M146.439,128.958c1.332,0,2.366-0.654,3.101-1.965c0.734-1.31,1.102-3.155,1.102-5.536c0-2.382-0.367-4.225-1.102-5.528
		s-1.769-1.956-3.101-1.956c-1.333,0-2.365,0.652-3.095,1.956s-1.095,3.146-1.095,5.528c0,2.381,0.365,4.227,1.095,5.536
		C144.074,128.304,145.106,128.958,146.439,128.958z"/>
	<path fill="#496978" d="M157.698,131.156v-19.397h2.684v3.644c1.062-2.715,2.606-4.072,4.632-4.072c0.272,0,0.559,0.03,0.858,0.09
		v3.304c-0.463-0.202-0.872-0.304-1.226-0.304c-1.699,0-3.12,1.32-4.265,3.961v12.775H157.698z"/>
	<path fill="#496978" d="M178.623,131.156v-3.644c-1.091,2.727-2.737,4.09-4.938,4.09c-1.782,0-3.186-0.851-4.208-2.554
		c-1.023-1.703-1.535-4.03-1.535-6.984c0-3.227,0.58-5.822,1.739-7.787c1.16-1.965,2.686-2.947,4.577-2.947
		c1.755,0,3.21,0.882,4.364,2.644v-11.021h2.684v28.203H178.623z M178.623,116.384c-1.392-1.607-2.711-2.411-3.957-2.411
		c-1.229,0-2.18,0.673-2.853,2.019s-1.01,3.251-1.01,5.716c0,4.536,1.146,6.805,3.438,6.805c1.492,0,2.952-1.065,4.381-3.197
		V116.384z"/>
	<path fill="#496978" d="M194.303,128.691c-1.607,1.941-3.156,2.911-4.646,2.911c-1.226,0-2.243-0.503-3.052-1.509
		c-0.808-1.006-1.212-2.277-1.212-3.813c0-2.119,0.679-3.748,2.036-4.885c1.358-1.138,3.309-1.706,5.852-1.706h0.627v-2.34
		c0-2.251-0.896-3.376-2.685-3.376c-1.389,0-2.906,0.571-4.55,1.715v-2.911c1.808-0.965,3.51-1.447,5.108-1.447
		c1.645,0,2.856,0.491,3.638,1.474s1.172,2.498,1.172,4.546v8.788c0,2.012,0.472,3.019,1.417,3.019c0.117,0,0.29-0.024,0.518-0.072
		l0.19,1.947c-0.608,0.381-1.28,0.571-2.017,0.571C195.448,131.602,194.648,130.632,194.303,128.691z M193.909,126.78v-5.02
		l-0.858-0.035c-1.49,0-2.69,0.363-3.604,1.09c-0.913,0.726-1.369,1.69-1.369,2.894c0,0.845,0.227,1.56,0.681,2.143
		c0.454,0.584,1.009,0.876,1.662,0.876C191.538,128.727,192.701,128.078,193.909,126.78z"/>
	<path fill="#496978" d="M202.93,138.211l2.405-7.062l-5.72-19.392h2.907l4.233,14.598l4.516-14.598h2.539l-8.078,26.453H202.93z"/>
	<path fill="#496978" d="M216.699,136.889v-1.321c0.872-0.322,1.308-1.674,1.308-4.055v-0.357h-1.308v-4.412h3.365v3.822
		C220.064,134.484,218.942,136.591,216.699,136.889z"/>
	<path fill="#496978" d="M238.932,131.156v-23.791h-3.201v-2.215l5.885-0.661v26.667H238.932z"/>
	<path fill="#496978" d="M251.289,121.458v-2.18h12.097v2.18H251.289z"/>
	<path fill="#496978" d="M276.845,131.156v-26.435h5.231c2.017,0,3.562,0.5,4.639,1.5s1.614,2.441,1.614,4.322
		c0,1.524-0.358,2.882-1.076,4.072c-0.718,1.191-1.739,2.114-3.064,2.769c3.296,1.322,4.944,3.71,4.944,7.163
		c0,1.548-0.363,2.923-1.09,4.126c-0.554,0.917-1.222,1.56-2.002,1.929c-0.781,0.369-1.866,0.554-3.256,0.554H276.845z
		 M279.679,116.331h0.913c1.534,0,2.72-0.429,3.556-1.286c0.835-0.857,1.253-2.077,1.253-3.661c0-2.572-1.535-3.858-4.604-3.858
		h-1.117V116.331z M279.679,128.351h0.585c2.093,0,3.448-0.172,4.064-0.518c1.178-0.654,1.767-1.869,1.767-3.644
		c0-1.572-0.534-2.879-1.604-3.921s-2.406-1.562-4.011-1.562h-0.802V128.351z"/>
	<path fill="#496978" d="M292.308,121.458v-2.18h12.097v2.18H292.308z"/>
	<path fill="#496978" d="M316.938,131.156v-7.484h-9.072v-2.661l9.072-16.289h2.521v16.075h2.697v2.875h-2.697v7.484H316.938z
		 M310.499,120.796h6.617v-11.76L310.499,120.796z"/>
	<path fill="#496978" d="M328.872,117.47c1.281-2.177,2.893-3.265,4.837-3.265c1.762,0,3.203,0.765,4.325,2.293
		c1.121,1.528,1.683,3.488,1.683,5.879c0,2.748-0.629,5.008-1.887,6.78c-1.259,1.772-2.859,2.659-4.803,2.659
		c-2.216,0-3.95-1.175-5.204-3.525c-1.253-2.351-1.88-5.602-1.88-9.755c0-5.593,1.095-9.698,3.283-12.316
		c1.189-1.44,2.834-2.16,4.932-2.16c1.217,0,2.725,0.334,4.522,1v3.09c-1.897-0.964-3.46-1.446-4.686-1.446
		C330.58,106.704,328.872,110.292,328.872,117.47z M337.032,123.073c0-1.949-0.346-3.492-1.036-4.628
		c-0.691-1.135-1.638-1.703-2.839-1.703c-1.146,0-2.129,0.5-2.947,1.498c-0.819,0.999-1.229,2.2-1.229,3.603
		c0,2.212,0.389,3.987,1.167,5.324c0.777,1.338,1.808,2.007,3.091,2.007c1.164,0,2.088-0.547,2.77-1.641
		C336.691,126.438,337.032,124.952,337.032,123.073z"/>
	<path fill="#496978" d="M345.915,131.156c0.263-2.06,0.638-3.84,1.123-5.341c0.486-1.5,1.347-3.56,2.582-6.18l5.504-11.61h-10.381
		v-3.304h12.941v3.304c-5.167,9.991-8.06,17.701-8.678,23.131H345.915z"/>
	<path fill="#496978" d="M366.662,131.156v-23.791h-3.201v-2.215l5.885-0.661v26.667H366.662z"/>
	<path fill="#496978" d="M387.192,130.656v-3.715c2.271,1.381,4.142,2.071,5.612,2.071c1.117,0,2.019-0.39,2.704-1.17
		c0.687-0.779,1.029-1.795,1.029-3.045c0-1.036-0.225-1.917-0.675-2.644c-0.449-0.727-1.278-1.536-2.486-2.43l-1.39-1.054
		c-1.716-1.286-2.927-2.497-3.63-3.635c-0.704-1.137-1.056-2.456-1.056-3.956c0-2.048,0.562-3.729,1.688-5.046
		c1.126-1.315,2.562-1.974,4.306-1.974c1.553,0,3.191,0.34,4.918,1.019v3.429c-2.126-1.095-3.711-1.643-4.755-1.643
		c-0.99,0-1.808,0.345-2.452,1.035c-0.645,0.691-0.967,1.561-0.967,2.608c0,0.881,0.235,1.661,0.708,2.34
		c0.472,0.679,1.335,1.488,2.588,2.429l1.444,1.072c1.744,1.298,2.961,2.524,3.651,3.679c0.689,1.155,1.035,2.543,1.035,4.162
		c0,2.298-0.645,4.144-1.935,5.537c-1.29,1.393-3.002,2.09-5.136,2.09C391.034,131.817,389.298,131.429,387.192,130.656z"/>
	<path fill="#496978" d="M411.168,128.691c-1.607,1.941-3.156,2.911-4.646,2.911c-1.226,0-2.243-0.503-3.052-1.509
		c-0.808-1.006-1.212-2.277-1.212-3.813c0-2.119,0.679-3.748,2.036-4.885c1.358-1.138,3.309-1.706,5.852-1.706h0.627v-2.34
		c0-2.251-0.896-3.376-2.685-3.376c-1.389,0-2.906,0.571-4.55,1.715v-2.911c1.808-0.965,3.51-1.447,5.108-1.447
		c1.645,0,2.856,0.491,3.638,1.474s1.172,2.498,1.172,4.546v8.788c0,2.012,0.472,3.019,1.417,3.019c0.117,0,0.29-0.024,0.518-0.072
		l0.19,1.947c-0.608,0.381-1.28,0.571-2.017,0.571C412.313,131.602,411.513,130.632,411.168,128.691z M410.774,126.78v-5.02
		l-0.858-0.035c-1.49,0-2.69,0.363-3.604,1.09c-0.913,0.726-1.369,1.69-1.369,2.894c0,0.845,0.227,1.56,0.681,2.143
		c0.454,0.584,1.009,0.876,1.662,0.876C408.403,128.727,409.566,128.078,410.774,126.78z"/>
	<path fill="#496978" d="M418.947,108.24v-3.519h2.684v3.519H418.947z M418.947,131.156v-19.397h2.684v19.397H418.947z"/>
	<path fill="#496978" d="M430.077,131.156l-5.504-19.397h2.689l4.294,15.084l4.544-15.084h2.505l-5.845,19.397H430.077z"/>
	<path fill="#496978" d="M452.295,130.531c-1.798,0.714-3.337,1.071-4.618,1.071c-2.188,0-3.969-0.948-5.34-2.846
		s-2.058-4.357-2.058-7.38c0-2.938,0.606-5.348,1.819-7.228c1.212-1.879,2.763-2.819,4.652-2.819c1.789,0,3.172,0.837,4.147,2.51
		c0.977,1.673,1.465,4.046,1.465,7.117l-0.014,1.072h-9.332c0.391,4.597,2.112,6.895,5.163,6.895c1.117,0,2.489-0.399,4.114-1.197
		V130.531z M443.141,119.385h6.525c0-3.608-1.026-5.412-3.079-5.412C444.526,113.973,443.377,115.777,443.141,119.385z"/>
	<path fill="#F49848" d="M514.678,131.156v-23.631h-7.152v-2.804h17.165v2.804h-7.152v23.631H514.678z"/>
	<path fill="#496978" d="M544.172,131.156v-9.698h-7.397v-1.786h7.397v-9.682h1.362v9.682h7.384v1.786h-7.384v9.698H544.172z"/>
	<path fill="#496978" d="M558.763,130.959v-3.305c1.919,1.013,3.429,1.519,4.529,1.519c1.301,0,2.354-0.489,3.158-1.467
		c0.806-0.979,1.208-2.255,1.208-3.829c0-3.721-1.988-5.582-5.965-5.582h-1.064v-2.357l0.941-0.018c3.731,0,5.598-1.721,5.598-5.162
		c0-2.703-1.237-4.055-3.712-4.055c-1.328,0-2.802,0.5-4.421,1.5v-3.09c1.589-0.702,3.119-1.054,4.591-1.054
		c2.007,0,3.546,0.523,4.618,1.571c1.071,1.047,1.607,2.564,1.607,4.552c0,3.106-1.403,5.32-4.21,6.642
		c3.252,0.988,4.877,3.323,4.877,7.004c0,2.49-0.626,4.444-1.88,5.861c-1.253,1.418-2.975,2.127-5.163,2.127
		C562.232,131.817,560.661,131.531,558.763,130.959z"/>
	<path fill="#496978" d="M575.887,131.156v-3.09c0.779-2.394,2.357-5.001,4.733-7.823l1.537-1.804
		c1.977-2.346,2.966-4.674,2.966-6.984c0-1.477-0.338-2.638-1.014-3.482c-0.676-0.846-1.607-1.269-2.795-1.269
		c-1.388,0-3.029,0.703-4.924,2.107v-3.09c1.789-1.107,3.569-1.661,5.34-1.661c1.889,0,3.403,0.667,4.543,2.001
		c1.14,1.333,1.71,3.102,1.71,5.305c0,1.583-0.288,2.988-0.865,4.215c-0.576,1.227-1.65,2.715-3.222,4.466l-1.035,1.16
		c-2.152,2.394-3.396,4.68-3.732,6.859h8.759v3.09H575.887z"/>
	<path fill="#496978" d="M608.105,134.013v2.43c-1.961-1.751-3.517-4.129-4.665-7.136c-1.149-3.007-1.724-6.213-1.724-9.618
		c0-3.394,0.574-6.594,1.724-9.601c1.148-3.007,2.704-5.385,4.665-7.136v2.43c-1.335,1.905-2.286,3.953-2.854,6.144
		c-0.567,2.191-0.852,4.912-0.852,8.163c0,3.263,0.284,5.989,0.852,8.181C605.819,130.06,606.77,132.108,608.105,134.013z"/>
	<path fill="#496978" d="M617.942,131.817c-2.116,0-3.821-1.271-5.116-3.813c-1.294-2.542-1.94-5.897-1.94-10.065
		c0-4.167,0.646-7.522,1.94-10.064c1.295-2.542,3-3.813,5.116-3.813c2.125,0,3.832,1.269,5.122,3.805
		c1.289,2.536,1.935,5.895,1.935,10.073c0,4.168-0.646,7.523-1.935,10.065C621.774,130.545,620.067,131.817,617.942,131.817z
		 M617.935,129.173c2.802,0,4.202-3.745,4.202-11.235c0-7.489-1.4-11.234-4.202-11.234c-2.793,0-4.189,3.745-4.189,11.234
		C613.746,125.428,615.142,129.173,617.935,129.173z"/>
	<path fill="#496978" d="M627.763,105.382v-2.43c1.962,1.751,3.518,4.129,4.666,7.136c1.149,3.007,1.724,6.207,1.724,9.601
		c0,3.405-0.574,6.611-1.724,9.618c-1.148,3.007-2.704,5.385-4.666,7.136v-2.43c1.34-1.905,2.293-3.953,2.858-6.144
		c0.564-2.191,0.848-4.918,0.848-8.181c0-3.251-0.283-5.975-0.848-8.172C630.056,109.32,629.103,107.275,627.763,105.382z"/>
	<path fill="#496978" d="M655.16,131.156v-7.484h-9.072v-2.661l9.072-16.289h2.521v16.075h2.697v2.875h-2.697v7.484H655.16z
		 M648.72,120.796h6.617v-11.76L648.72,120.796z"/>
	<path fill="#496978" d="M673.96,130.959v-3.305c1.919,1.013,3.429,1.519,4.529,1.519c1.301,0,2.354-0.489,3.158-1.467
		c0.806-0.979,1.208-2.255,1.208-3.829c0-3.721-1.988-5.582-5.965-5.582h-1.064v-2.357l0.941-0.018c3.731,0,5.598-1.721,5.598-5.162
		c0-2.703-1.237-4.055-3.712-4.055c-1.328,0-2.802,0.5-4.421,1.5v-3.09c1.589-0.702,3.119-1.054,4.591-1.054
		c2.007,0,3.546,0.523,4.618,1.571c1.071,1.047,1.607,2.564,1.607,4.552c0,3.106-1.403,5.32-4.21,6.642
		c3.252,0.988,4.877,3.323,4.877,7.004c0,2.49-0.626,4.444-1.88,5.861c-1.253,1.418-2.975,2.127-5.163,2.127
		C677.429,131.817,675.858,131.531,673.96,130.959z"/>
	<path fill="#496978" d="M695.184,116.769c-1.107-1.011-1.877-1.951-2.309-2.82c-0.432-0.868-0.647-1.915-0.647-3.142
		c0-1.999,0.559-3.623,1.676-4.873c1.117-1.249,2.575-1.874,4.373-1.874c1.662,0,3.009,0.529,4.039,1.589
		c1.031,1.06,1.547,2.434,1.547,4.123c0,2.559-1.254,4.891-3.761,6.997c3.043,1.952,4.564,4.469,4.564,7.551
		c0,2.201-0.636,4.001-1.907,5.399s-2.906,2.098-4.904,2.098s-3.61-0.658-4.837-1.973c-1.226-1.314-1.839-3.043-1.839-5.186
		C691.179,121.494,692.514,118.864,695.184,116.769z M696.642,118.197c-1.081,1.095-1.814,2.05-2.2,2.865
		c-0.386,0.814-0.579,1.829-0.579,3.042c0,1.512,0.373,2.734,1.117,3.668c0.745,0.935,1.726,1.401,2.942,1.401
		c1.172,0,2.128-0.398,2.868-1.195c0.74-0.798,1.11-1.833,1.11-3.106c0-1.022-0.229-1.889-0.688-2.597
		c-0.458-0.708-1.347-1.573-2.663-2.597L696.642,118.197z M698.604,115.663c1.88-1.621,2.82-3.428,2.82-5.418
		c0-1.062-0.316-1.917-0.947-2.566s-1.455-0.975-2.473-0.975c-0.99,0-1.794,0.319-2.411,0.957c-0.618,0.638-0.927,1.463-0.927,2.477
		c0,0.989,0.279,1.877,0.838,2.664S697.096,114.542,698.604,115.663z"/>
	<path fill="#496978" d="M710.606,131.156c0.263-2.06,0.638-3.84,1.123-5.341c0.486-1.5,1.347-3.56,2.582-6.18l5.504-11.61h-10.381
		v-3.304h12.941v3.304c-5.167,9.991-8.06,17.701-8.678,23.131H710.606z"/>
	<path fill="#496978" d="M736.272,131.263v-3.144c1.335,0.702,2.606,1.054,3.814,1.054c1.325,0,2.367-0.512,3.126-1.536
		c0.758-1.024,1.138-2.436,1.138-4.233c0-1.929-0.536-3.402-1.607-4.421c-1.072-1.018-2.62-1.526-4.646-1.526
		c-0.473,0-0.968,0.041-1.485,0.125v-12.86h10.204v3.09h-7.847v6.948c2.588,0,4.608,0.78,6.062,2.34s2.18,3.721,2.18,6.483
		c0,2.572-0.66,4.588-1.981,6.046c-1.321,1.459-3.146,2.188-5.47,2.188C738.724,131.817,737.561,131.632,736.272,131.263z"/>
	<path fill="#496978" d="M754.717,131.156c0.263-2.06,0.638-3.84,1.123-5.341c0.486-1.5,1.347-3.56,2.582-6.18l5.504-11.61h-10.381
		v-3.304h12.941v3.304c-5.167,9.991-8.06,17.701-8.678,23.131H754.717z"/>
	<path fill="#496978" d="M780.165,130.995v-3c1.708,0.785,3.161,1.179,4.359,1.179c1.671,0,2.977-0.932,3.917-2.796
		c0.94-1.863,1.41-4.456,1.41-7.778c-1.362,2.203-2.911,3.305-4.646,3.305c-1.698,0-3.138-0.818-4.318-2.456
		c-1.181-1.637-1.771-3.635-1.771-5.992c0-2.703,0.629-4.945,1.887-6.726c1.258-1.779,2.841-2.67,4.748-2.67
		c2.188,0,3.914,1.152,5.177,3.456c1.262,2.305,1.894,5.457,1.894,9.458c0,2.548-0.305,4.944-0.913,7.188
		c-0.608,2.245-1.426,3.992-2.452,5.243c-1.316,1.607-3.047,2.411-5.19,2.411C783.211,131.817,781.845,131.542,780.165,130.995z
		 M781.799,112.857c0,2.01,0.35,3.598,1.049,4.763c0.7,1.165,1.645,1.748,2.834,1.748c1.145,0,2.118-0.506,2.922-1.517
		s1.206-2.229,1.206-3.656c0-2.247-0.389-4.058-1.165-5.431c-0.776-1.374-1.796-2.061-3.059-2.061c-1.181,0-2.106,0.547-2.778,1.641
		C782.135,109.439,781.799,110.943,781.799,112.857z"/>
	<path fill="#496978" d="M801.048,116.769c-1.107-1.011-1.877-1.951-2.309-2.82c-0.432-0.868-0.647-1.915-0.647-3.142
		c0-1.999,0.559-3.623,1.676-4.873c1.117-1.249,2.575-1.874,4.373-1.874c1.662,0,3.009,0.529,4.039,1.589
		c1.031,1.06,1.547,2.434,1.547,4.123c0,2.559-1.254,4.891-3.761,6.997c3.043,1.952,4.564,4.469,4.564,7.551
		c0,2.201-0.636,4.001-1.907,5.399s-2.906,2.098-4.904,2.098s-3.61-0.658-4.837-1.973c-1.226-1.314-1.839-3.043-1.839-5.186
		C797.043,121.494,798.378,118.864,801.048,116.769z M802.506,118.197c-1.081,1.095-1.814,2.05-2.2,2.865
		c-0.386,0.814-0.579,1.829-0.579,3.042c0,1.512,0.373,2.734,1.117,3.668c0.745,0.935,1.726,1.401,2.942,1.401
		c1.172,0,2.128-0.398,2.868-1.195c0.74-0.798,1.11-1.833,1.11-3.106c0-1.022-0.229-1.889-0.688-2.597
		c-0.458-0.708-1.347-1.573-2.663-2.597L802.506,118.197z M804.468,115.663c1.88-1.621,2.82-3.428,2.82-5.418
		c0-1.062-0.316-1.917-0.947-2.566s-1.455-0.975-2.473-0.975c-0.99,0-1.794,0.319-2.411,0.957c-0.618,0.638-0.927,1.463-0.927,2.477
		c0,0.989,0.279,1.877,0.838,2.664S802.96,114.542,804.468,115.663z"/>
	<path fill="#F49848" d="M897.789,130.37c-1.635,0.965-3.237,1.447-4.809,1.447c-2.552,0-4.659-1.033-6.321-3.1
		c-1.662-2.065-2.493-4.682-2.493-7.85c0-4.037,1.108-7.728,3.324-11.074c1.181-1.774,2.613-3.173,4.298-4.197
		s3.391-1.536,5.116-1.536c2.533,0,4.656,1.071,6.368,3.215s2.568,4.805,2.568,7.984c0,2.941-0.686,5.444-2.056,7.511
		c-1.37,2.065-3.031,3.099-4.981,3.099c-1.517,0-2.274-0.685-2.274-2.054c0-0.5,0.096-1.125,0.286-1.876l0.545-2.25h-0.164
		c-1.645,4.12-3.403,6.18-5.276,6.18c-0.791,0-1.427-0.363-1.908-1.09c-0.482-0.726-0.723-1.696-0.723-2.911
		c0-1.679,0.327-3.468,0.981-5.367s1.463-3.396,2.427-4.492c1.108-1.262,2.358-1.894,3.749-1.894c0.281,0,0.641,0.019,1.076,0.054
		c0.445,0.036,0.801,0.054,1.063,0.054h1.867l-1.724,11.36c-0.055,0.381-0.082,0.75-0.082,1.107c0,0.798,0.346,1.196,1.035,1.196
		c1.208,0,2.284-0.845,3.229-2.534c0.944-1.688,1.416-3.616,1.416-5.781c0-2.735-0.722-5.008-2.166-6.815
		c-1.443-1.809-3.265-2.713-5.463-2.713c-2.879,0-5.436,1.484-7.669,4.453c-2.234,2.969-3.352,6.369-3.352,10.2
		c0,2.678,0.701,4.87,2.104,6.577s3.208,2.562,5.415,2.562c1.426,0,2.793-0.429,4.101-1.286L897.789,130.37z M897.523,116.284
		l0.531-3.488c-0.836-0.394-1.563-0.591-2.182-0.591c-0.909,0-1.654,0.334-2.236,1.002c-0.618,0.704-1.148,1.831-1.589,3.381
		c-0.441,1.551-0.661,3.071-0.661,4.562c0,1.693,0.377,2.54,1.132,2.54c0.555,0,1.289-0.677,2.202-2.03
		C895.634,120.306,896.569,118.514,897.523,116.284z"/>
	<path fill="#496978" d="M918.36,108.24v-3.519h2.684v3.519H918.36z M918.36,131.156v-19.397h2.684v19.397H918.36z"/>
	<path fill="#496978" d="M926.424,131.156v-19.397h2.684v3.644c1.417-2.715,3.151-4.072,5.204-4.072c1.29,0,2.313,0.533,3.072,1.599
		c0.758,1.065,1.138,2.498,1.138,4.296v13.932h-2.684v-12.789c0-1.44-0.162-2.468-0.484-3.081s-0.855-0.92-1.601-0.92
		c-1.644,0-3.192,1.411-4.646,4.233v12.557H926.424z"/>
	<path fill="#496978" d="M944.243,131.156v-16.754h-2.098v-2.644h2.098v-2.322c0-4.619,1.607-6.93,4.823-6.93
		c0.898,0,1.921,0.196,3.064,0.589v2.805c-1.211-0.5-2.181-0.75-2.909-0.75c-0.883,0-1.486,0.276-1.81,0.83
		s-0.485,1.581-0.485,3.081v2.697h3.706v2.644h-3.706v16.754H944.243z"/>
	<path fill="#496978" d="M959.882,131.602c-2.171,0-3.89-0.911-5.157-2.732c-1.267-1.822-1.9-4.293-1.9-7.412
		c0-3.12,0.634-5.588,1.9-7.404c1.268-1.815,2.986-2.724,5.157-2.724c2.17,0,3.889,0.908,5.156,2.724
		c1.267,1.816,1.9,4.284,1.9,7.404c0,3.119-0.634,5.59-1.9,7.412C963.771,130.691,962.052,131.602,959.882,131.602z
		 M959.875,128.958c1.332,0,2.366-0.654,3.101-1.965c0.734-1.31,1.102-3.155,1.102-5.536c0-2.382-0.367-4.225-1.102-5.528
		s-1.769-1.956-3.101-1.956c-1.333,0-2.365,0.652-3.095,1.956s-1.095,3.146-1.095,5.528c0,2.381,0.365,4.227,1.095,5.536
		C957.51,128.304,958.542,128.958,959.875,128.958z"/>
	<path fill="#496978" d="M983.34,130.37c-1.635,0.965-3.237,1.447-4.809,1.447c-2.552,0-4.659-1.033-6.321-3.1
		c-1.662-2.065-2.493-4.682-2.493-7.85c0-4.037,1.108-7.728,3.324-11.074c1.181-1.774,2.613-3.173,4.298-4.197
		s3.391-1.536,5.116-1.536c2.533,0,4.656,1.071,6.368,3.215s2.568,4.805,2.568,7.984c0,2.941-0.686,5.444-2.056,7.511
		c-1.37,2.065-3.031,3.099-4.981,3.099c-1.517,0-2.274-0.685-2.274-2.054c0-0.5,0.096-1.125,0.286-1.876l0.545-2.25h-0.164
		c-1.645,4.12-3.403,6.18-5.276,6.18c-0.791,0-1.427-0.363-1.908-1.09c-0.482-0.726-0.723-1.696-0.723-2.911
		c0-1.679,0.327-3.468,0.981-5.367s1.463-3.396,2.427-4.492c1.108-1.262,2.358-1.894,3.749-1.894c0.281,0,0.641,0.019,1.076,0.054
		c0.445,0.036,0.801,0.054,1.063,0.054h1.867l-1.724,11.36c-0.055,0.381-0.082,0.75-0.082,1.107c0,0.798,0.346,1.196,1.035,1.196
		c1.208,0,2.284-0.845,3.229-2.534c0.944-1.688,1.416-3.616,1.416-5.781c0-2.735-0.722-5.008-2.166-6.815
		c-1.443-1.809-3.265-2.713-5.463-2.713c-2.879,0-5.436,1.484-7.669,4.453c-2.234,2.969-3.352,6.369-3.352,10.2
		c0,2.678,0.701,4.87,2.104,6.577s3.208,2.562,5.415,2.562c1.426,0,2.793-0.429,4.101-1.286L983.34,130.37z M983.075,116.284
		l0.531-3.488c-0.836-0.394-1.563-0.591-2.182-0.591c-0.909,0-1.654,0.334-2.236,1.002c-0.618,0.704-1.148,1.831-1.589,3.381
		c-0.441,1.551-0.661,3.071-0.661,4.562c0,1.693,0.377,2.54,1.132,2.54c0.555,0,1.289-0.677,2.202-2.03
		C981.186,120.306,982.121,118.514,983.075,116.284z"/>
	<path fill="#496978" d="M995.138,137.604l0.313-3.037c1.556,0.953,3.093,1.43,4.611,1.43c3.02,0,4.529-2.103,4.529-6.306v-3.054
		c-0.464,1.286-1.125,2.286-1.984,3c-0.859,0.715-1.816,1.072-2.871,1.072c-1.792,0-3.21-0.843-4.256-2.527
		c-1.046-1.686-1.569-3.969-1.569-6.851c0-2.952,0.596-5.358,1.787-7.216s2.732-2.786,4.624-2.786c1.655,0,3.078,0.882,4.27,2.644
		v-2.215h2.684v14.11c0,3.036-0.12,5.284-0.36,6.743c-0.241,1.458-0.693,2.652-1.355,3.581c-1.172,1.631-3.002,2.447-5.49,2.447
		C998.362,138.64,996.718,138.294,995.138,137.604z M1004.592,124.426v-8.045c-1.183-1.605-2.47-2.408-3.862-2.408
		c-1.237,0-2.206,0.648-2.906,1.944c-0.7,1.297-1.051,3.092-1.051,5.387c0,4.21,1.142,6.315,3.426,6.315
		C1001.753,127.62,1003.218,126.555,1004.592,124.426z"/>
	<path fill="#496978" d="M1020.109,128.691c-1.607,1.941-3.156,2.911-4.646,2.911c-1.226,0-2.243-0.503-3.052-1.509
		c-0.808-1.006-1.212-2.277-1.212-3.813c0-2.119,0.679-3.748,2.036-4.885c1.358-1.138,3.309-1.706,5.852-1.706h0.627v-2.34
		c0-2.251-0.896-3.376-2.685-3.376c-1.389,0-2.906,0.571-4.55,1.715v-2.911c1.808-0.965,3.51-1.447,5.108-1.447
		c1.645,0,2.856,0.491,3.638,1.474s1.172,2.498,1.172,4.546v8.788c0,2.012,0.472,3.019,1.417,3.019c0.117,0,0.29-0.024,0.518-0.072
		l0.19,1.947c-0.608,0.381-1.28,0.571-2.017,0.571C1021.253,131.602,1020.454,130.632,1020.109,128.691z M1019.714,126.78v-5.02
		l-0.858-0.035c-1.49,0-2.69,0.363-3.604,1.09c-0.913,0.726-1.369,1.69-1.369,2.894c0,0.845,0.227,1.56,0.681,2.143
		c0.454,0.584,1.009,0.876,1.662,0.876C1017.343,128.727,1018.506,128.078,1019.714,126.78z"/>
	<path fill="#496978" d="M1027.887,131.156v-28.203h2.684v28.203H1027.887z"/>
	<path fill="#496978" d="M1035.952,131.156v-28.203h2.684v28.203H1035.952z"/>
	<path fill="#496978" d="M1044.865,138.211l2.405-7.062l-5.72-19.392h2.907l4.233,14.598l4.516-14.598h2.539l-8.078,26.453H1044.865
		z"/>
	<path fill="#496978" d="M1058.047,130.477v-3.233c1.753,1.144,3.278,1.715,4.577,1.715c0.772,0,1.412-0.273,1.921-0.821
		s0.764-1.232,0.764-2.054c0-1.203-0.714-2.197-2.14-2.983l-1.566-0.875c-2.315-1.262-3.474-3.078-3.474-5.447
		c0-1.691,0.456-3.021,1.369-3.992c0.912-0.971,2.163-1.456,3.753-1.456c0.826,0,1.848,0.149,3.065,0.446l0.559,0.144v2.929
		c-1.499-0.583-2.693-0.875-3.583-0.875c-0.781,0-1.405,0.224-1.873,0.67s-0.702,1.045-0.702,1.795c0,1.06,0.654,1.953,1.962,2.68
		l1.294,0.714c1.463,0.81,2.498,1.664,3.106,2.563s0.913,2.021,0.913,3.366c0,1.703-0.514,3.103-1.54,4.198
		s-2.339,1.643-3.937,1.643C1061.29,131.602,1059.8,131.227,1058.047,130.477z"/>
	<path fill="#496978" d="M1072.856,131.156v-4.412h3.365v4.412H1072.856z"/>
	<path fill="#496978" d="M1081.643,131.37v-28.417h2.684v12.449c1.099-2.715,2.747-4.072,4.945-4.072
		c1.78,0,3.181,0.852,4.203,2.555c1.021,1.702,1.532,4.03,1.532,6.983c0,3.215-0.579,5.808-1.737,7.778
		c-1.157,1.971-2.681,2.956-4.57,2.956c-1.753,0-3.21-0.881-4.373-2.644L1084,131.37H1081.643z M1084.327,126.533
		c1.381,1.617,2.697,2.426,3.951,2.426c1.234,0,2.188-0.675,2.86-2.024s1.009-3.25,1.009-5.7c0-4.542-1.145-6.814-3.434-6.814
		c-1.498,0-2.961,1.064-4.387,3.193V126.533z"/>
	<path fill="#496978" d="M1110.047,130.531c-1.798,0.714-3.337,1.071-4.618,1.071c-2.188,0-3.969-0.948-5.34-2.846
		s-2.058-4.357-2.058-7.38c0-2.938,0.606-5.348,1.819-7.228c1.212-1.879,2.763-2.819,4.652-2.819c1.789,0,3.172,0.837,4.147,2.51
		c0.977,1.673,1.465,4.046,1.465,7.117l-0.014,1.072h-9.332c0.391,4.597,2.112,6.895,5.163,6.895c1.117,0,2.489-0.399,4.114-1.197
		V130.531z M1100.893,119.385h6.525c0-3.608-1.026-5.412-3.079-5.412C1102.278,113.973,1101.129,115.777,1100.893,119.385z"/>
	<path fill="#F49848" d="M51.577,175.156v-23.631h-7.152v-2.804h17.165v2.804h-7.152v23.631H51.577z"/>
	<path fill="#F49848" d="M69.926,175.156l-7.615-26.435h2.854l6.234,21.643l6.032-21.643h2.508l-7.316,26.435H69.926z"/>
	<path fill="#F49848" d="M80.293,175.156l7.997-26.435h2.833l7.874,26.435h-3.086l-2.19-7.306H85.17l-2.225,7.306H80.293z
		 M85.99,165.046h6.896l-3.444-11.415L85.99,165.046z"/>
	<path fill="#496978" d="M116.967,175.817c-2.116,0-3.821-1.271-5.116-3.813c-1.294-2.542-1.94-5.897-1.94-10.065
		c0-4.167,0.646-7.522,1.94-10.064c1.295-2.542,3-3.813,5.116-3.813c2.125,0,3.832,1.269,5.122,3.805
		c1.289,2.536,1.935,5.895,1.935,10.073c0,4.168-0.646,7.523-1.935,10.065C120.799,174.545,119.092,175.817,116.967,175.817z
		 M116.96,173.173c2.802,0,4.202-3.745,4.202-11.235c0-7.489-1.4-11.234-4.202-11.234c-2.793,0-4.189,3.745-4.189,11.234
		C112.771,169.428,114.167,173.173,116.96,173.173z"/>
	<path fill="#496978" d="M132.197,160.769c-1.107-1.011-1.877-1.951-2.309-2.82c-0.432-0.868-0.647-1.915-0.647-3.142
		c0-1.999,0.559-3.623,1.676-4.873c1.117-1.249,2.575-1.874,4.373-1.874c1.662,0,3.009,0.529,4.039,1.589
		c1.031,1.06,1.547,2.434,1.547,4.123c0,2.559-1.254,4.891-3.761,6.997c3.043,1.952,4.564,4.469,4.564,7.551
		c0,2.201-0.636,4.001-1.907,5.399s-2.906,2.098-4.904,2.098s-3.61-0.658-4.837-1.973c-1.226-1.314-1.839-3.043-1.839-5.186
		C128.192,165.494,129.527,162.864,132.197,160.769z M133.655,162.197c-1.081,1.095-1.814,2.05-2.2,2.865
		c-0.386,0.814-0.579,1.829-0.579,3.042c0,1.512,0.373,2.734,1.117,3.668c0.745,0.935,1.726,1.401,2.942,1.401
		c1.172,0,2.128-0.398,2.868-1.195c0.74-0.798,1.11-1.833,1.11-3.106c0-1.022-0.229-1.889-0.688-2.597
		c-0.458-0.708-1.347-1.573-2.663-2.597L133.655,162.197z M135.617,159.663c1.88-1.621,2.82-3.428,2.82-5.418
		c0-1.062-0.316-1.917-0.947-2.566s-1.455-0.975-2.473-0.975c-0.99,0-1.794,0.319-2.411,0.957c-0.618,0.638-0.927,1.463-0.927,2.477
		c0,0.989,0.279,1.877,0.838,2.664S134.109,158.542,135.617,159.663z"/>
	<path fill="#496978" d="M152.25,175.817c-2.116,0-3.821-1.271-5.116-3.813c-1.294-2.542-1.94-5.897-1.94-10.065
		c0-4.167,0.646-7.522,1.94-10.064c1.295-2.542,3-3.813,5.116-3.813c2.125,0,3.832,1.269,5.122,3.805
		c1.289,2.536,1.935,5.895,1.935,10.073c0,4.168-0.646,7.523-1.935,10.065C156.083,174.545,154.375,175.817,152.25,175.817z
		 M152.244,173.173c2.802,0,4.202-3.745,4.202-11.235c0-7.489-1.4-11.234-4.202-11.234c-2.793,0-4.189,3.745-4.189,11.234
		C148.054,169.428,149.451,173.173,152.244,173.173z"/>
	<path fill="#496978" d="M165.26,175.156c0.263-2.06,0.638-3.84,1.123-5.341c0.486-1.5,1.347-3.56,2.582-6.18l5.504-11.61h-10.381
		v-3.304h12.941v3.304c-5.167,9.991-8.06,17.701-8.678,23.131H165.26z"/>
	<path fill="#496978" d="M181.43,175.156v-4.412h3.365v4.412H181.43z"/>
	<path fill="#496978" d="M190.926,175.263v-3.144c1.335,0.702,2.606,1.054,3.814,1.054c1.325,0,2.367-0.512,3.126-1.536
		c0.758-1.024,1.138-2.436,1.138-4.233c0-1.929-0.536-3.402-1.607-4.421c-1.072-1.018-2.62-1.526-4.646-1.526
		c-0.473,0-0.968,0.041-1.485,0.125v-12.86h10.204v3.09h-7.847v6.948c2.588,0,4.608,0.78,6.062,2.34s2.18,3.721,2.18,6.483
		c0,2.572-0.66,4.588-1.981,6.046c-1.321,1.459-3.146,2.188-5.47,2.188C193.378,175.817,192.215,175.632,190.926,175.263z"/>
	<path fill="#496978" d="M208.349,174.995v-3c1.708,0.785,3.161,1.179,4.359,1.179c1.671,0,2.977-0.932,3.917-2.796
		c0.94-1.863,1.41-4.456,1.41-7.778c-1.362,2.203-2.911,3.305-4.646,3.305c-1.698,0-3.138-0.818-4.318-2.456
		c-1.181-1.637-1.771-3.635-1.771-5.992c0-2.703,0.629-4.945,1.887-6.726c1.258-1.779,2.841-2.67,4.748-2.67
		c2.188,0,3.914,1.152,5.177,3.456c1.262,2.305,1.894,5.457,1.894,9.458c0,2.548-0.305,4.944-0.913,7.188
		c-0.608,2.245-1.426,3.992-2.452,5.243c-1.316,1.607-3.047,2.411-5.19,2.411C211.396,175.817,210.03,175.542,208.349,174.995z
		 M209.984,156.857c0,2.01,0.35,3.598,1.049,4.763c0.7,1.165,1.645,1.748,2.834,1.748c1.145,0,2.118-0.506,2.922-1.517
		s1.206-2.229,1.206-3.656c0-2.247-0.389-4.058-1.165-5.431c-0.776-1.374-1.796-2.061-3.059-2.061c-1.181,0-2.106,0.547-2.778,1.641
		C210.32,153.439,209.984,154.943,209.984,156.857z"/>
	<path fill="#496978" d="M227.612,161.47c1.281-2.177,2.893-3.265,4.837-3.265c1.762,0,3.203,0.765,4.325,2.293
		c1.121,1.528,1.683,3.488,1.683,5.879c0,2.748-0.629,5.008-1.887,6.78c-1.259,1.772-2.859,2.659-4.803,2.659
		c-2.216,0-3.95-1.175-5.204-3.525c-1.253-2.351-1.88-5.602-1.88-9.755c0-5.593,1.095-9.698,3.283-12.316
		c1.189-1.44,2.834-2.16,4.932-2.16c1.217,0,2.725,0.334,4.522,1v3.09c-1.897-0.964-3.46-1.446-4.686-1.446
		C229.32,150.704,227.612,154.292,227.612,161.47z M235.772,167.073c0-1.949-0.346-3.492-1.036-4.628
		c-0.691-1.135-1.638-1.703-2.839-1.703c-1.146,0-2.129,0.5-2.947,1.498c-0.819,0.999-1.229,2.2-1.229,3.603
		c0,2.212,0.389,3.987,1.167,5.324c0.777,1.338,1.808,2.007,3.091,2.007c1.164,0,2.088-0.547,2.77-1.641
		C235.431,170.438,235.772,168.952,235.772,167.073z"/>
	<path fill="#496978" d="M243.183,175.156v-4.412h3.365v4.412H243.183z"/>
	<path fill="#496978" d="M255.703,160.769c-1.107-1.011-1.877-1.951-2.309-2.82c-0.432-0.868-0.647-1.915-0.647-3.142
		c0-1.999,0.559-3.623,1.676-4.873c1.117-1.249,2.575-1.874,4.373-1.874c1.662,0,3.009,0.529,4.039,1.589
		c1.031,1.06,1.547,2.434,1.547,4.123c0,2.559-1.254,4.891-3.761,6.997c3.043,1.952,4.564,4.469,4.564,7.551
		c0,2.201-0.636,4.001-1.907,5.399s-2.906,2.098-4.904,2.098s-3.61-0.658-4.837-1.973c-1.226-1.314-1.839-3.043-1.839-5.186
		C251.698,165.494,253.033,162.864,255.703,160.769z M257.161,162.197c-1.081,1.095-1.814,2.05-2.2,2.865
		c-0.386,0.814-0.579,1.829-0.579,3.042c0,1.512,0.373,2.734,1.117,3.668c0.745,0.935,1.726,1.401,2.942,1.401
		c1.172,0,2.128-0.398,2.868-1.195c0.74-0.798,1.11-1.833,1.11-3.106c0-1.022-0.229-1.889-0.688-2.597
		c-0.458-0.708-1.347-1.573-2.663-2.597L257.161,162.197z M259.123,159.663c1.88-1.621,2.82-3.428,2.82-5.418
		c0-1.062-0.316-1.917-0.947-2.566s-1.455-0.975-2.473-0.975c-0.99,0-1.794,0.319-2.411,0.957c-0.618,0.638-0.927,1.463-0.927,2.477
		c0,0.989,0.279,1.877,0.838,2.664S257.615,158.542,259.123,159.663z"/>
	<path fill="#496978" d="M270.321,175.263v-3.144c1.335,0.702,2.606,1.054,3.814,1.054c1.325,0,2.367-0.512,3.126-1.536
		c0.758-1.024,1.138-2.436,1.138-4.233c0-1.929-0.536-3.402-1.607-4.421c-1.072-1.018-2.62-1.526-4.646-1.526
		c-0.473,0-0.968,0.041-1.485,0.125v-12.86h10.204v3.09h-7.847v6.948c2.588,0,4.608,0.78,6.062,2.34s2.18,3.721,2.18,6.483
		c0,2.572-0.66,4.588-1.981,6.046c-1.321,1.459-3.146,2.188-5.47,2.188C272.773,175.817,271.61,175.632,270.321,175.263z"/>
	<path fill="#496978" d="M290.986,160.769c-1.107-1.011-1.877-1.951-2.309-2.82c-0.432-0.868-0.647-1.915-0.647-3.142
		c0-1.999,0.559-3.623,1.676-4.873c1.117-1.249,2.575-1.874,4.373-1.874c1.662,0,3.009,0.529,4.039,1.589
		c1.031,1.06,1.547,2.434,1.547,4.123c0,2.559-1.254,4.891-3.761,6.997c3.043,1.952,4.564,4.469,4.564,7.551
		c0,2.201-0.636,4.001-1.907,5.399s-2.906,2.098-4.904,2.098s-3.61-0.658-4.837-1.973c-1.226-1.314-1.839-3.043-1.839-5.186
		C286.981,165.494,288.316,162.864,290.986,160.769z M292.444,162.197c-1.081,1.095-1.814,2.05-2.2,2.865
		c-0.386,0.814-0.579,1.829-0.579,3.042c0,1.512,0.373,2.734,1.117,3.668c0.745,0.935,1.726,1.401,2.942,1.401
		c1.172,0,2.128-0.398,2.868-1.195c0.74-0.798,1.11-1.833,1.11-3.106c0-1.022-0.229-1.889-0.688-2.597
		c-0.458-0.708-1.347-1.573-2.663-2.597L292.444,162.197z M294.406,159.663c1.88-1.621,2.82-3.428,2.82-5.418
		c0-1.062-0.316-1.917-0.947-2.566s-1.455-0.975-2.473-0.975c-0.99,0-1.794,0.319-2.411,0.957c-0.618,0.638-0.927,1.463-0.927,2.477
		c0,0.989,0.279,1.877,0.838,2.664S292.898,158.542,294.406,159.663z"/>
	<path fill="#496978" d="M357.782,175.156v-26.435h5.231c2.017,0,3.562,0.5,4.639,1.5s1.614,2.441,1.614,4.322
		c0,1.524-0.358,2.882-1.076,4.072c-0.718,1.191-1.739,2.114-3.064,2.769c3.296,1.322,4.944,3.71,4.944,7.163
		c0,1.548-0.363,2.923-1.09,4.126c-0.554,0.917-1.222,1.56-2.002,1.929c-0.781,0.369-1.866,0.554-3.256,0.554H357.782z
		 M360.616,160.331h0.913c1.534,0,2.72-0.429,3.556-1.286c0.835-0.857,1.253-2.077,1.253-3.661c0-2.572-1.535-3.858-4.604-3.858
		h-1.117V160.331z M360.616,172.351h0.585c2.093,0,3.448-0.172,4.064-0.518c1.178-0.654,1.767-1.869,1.767-3.644
		c0-1.572-0.534-2.879-1.604-3.921s-2.406-1.562-4.011-1.562h-0.802V172.351z"/>
	<path fill="#496978" d="M381.541,172.691c-1.607,1.941-3.156,2.911-4.646,2.911c-1.226,0-2.243-0.503-3.052-1.509
		c-0.808-1.006-1.212-2.277-1.212-3.813c0-2.119,0.679-3.748,2.036-4.885c1.358-1.138,3.309-1.706,5.852-1.706h0.627v-2.34
		c0-2.251-0.896-3.376-2.685-3.376c-1.389,0-2.906,0.571-4.55,1.715v-2.911c1.808-0.965,3.51-1.447,5.108-1.447
		c1.645,0,2.856,0.491,3.638,1.474s1.172,2.498,1.172,4.546v8.788c0,2.012,0.472,3.019,1.417,3.019c0.117,0,0.29-0.024,0.518-0.072
		l0.19,1.947c-0.608,0.381-1.28,0.571-2.017,0.571C382.685,175.602,381.885,174.632,381.541,172.691z M381.146,170.78v-5.02
		l-0.858-0.035c-1.49,0-2.69,0.363-3.604,1.09c-0.913,0.726-1.369,1.69-1.369,2.894c0,0.845,0.227,1.56,0.681,2.143
		c0.454,0.584,1.009,0.876,1.662,0.876C378.775,172.727,379.938,172.078,381.146,170.78z"/>
	<path fill="#496978" d="M389.319,175.156v-19.397h2.684v3.644c1.417-2.715,3.151-4.072,5.204-4.072c1.29,0,2.313,0.533,3.072,1.599
		c0.758,1.065,1.138,2.498,1.138,4.296v13.932h-2.684v-12.789c0-1.44-0.162-2.468-0.484-3.081s-0.855-0.92-1.601-0.92
		c-1.644,0-3.192,1.411-4.646,4.233v12.557H389.319z"/>
	<path fill="#496978" d="M416.142,182.211v-10.699c-1.091,2.727-2.737,4.09-4.938,4.09c-1.782,0-3.186-0.851-4.208-2.554
		c-1.023-1.703-1.535-4.03-1.535-6.984c0-3.227,0.58-5.822,1.739-7.787c1.16-1.965,2.686-2.947,4.577-2.947
		c1.755,0,3.21,0.882,4.364,2.644v-2.215h2.684v26.453H416.142z M416.142,160.384c-1.392-1.607-2.711-2.411-3.957-2.411
		c-1.229,0-2.18,0.673-2.853,2.019s-1.01,3.251-1.01,5.716c0,4.536,1.146,6.805,3.438,6.805c1.492,0,2.952-1.065,4.381-3.197
		V160.384z"/>
	<path fill="#496978" d="M433.444,175.156v-3.644c-1.426,2.727-3.156,4.09-5.19,4.09c-1.289,0-2.315-0.532-3.078-1.599
		c-0.764-1.065-1.145-2.503-1.145-4.313v-13.932h2.684v12.789c0,1.452,0.161,2.485,0.483,3.099s0.86,0.92,1.614,0.92
		c1.635,0,3.179-1.411,4.632-4.233v-12.574h2.684v19.397H433.444z"/>
	<path fill="#496978" d="M452.352,174.531c-1.798,0.714-3.337,1.071-4.618,1.071c-2.188,0-3.969-0.948-5.34-2.846
		s-2.058-4.357-2.058-7.38c0-2.938,0.606-5.348,1.819-7.228c1.212-1.879,2.763-2.819,4.652-2.819c1.789,0,3.172,0.837,4.147,2.51
		c0.977,1.673,1.465,4.046,1.465,7.117l-0.014,1.072h-9.332c0.391,4.597,2.112,6.895,5.163,6.895c1.117,0,2.489-0.399,4.114-1.197
		V174.531z M443.198,163.385h6.525c0-3.608-1.026-5.412-3.079-5.412C444.583,157.973,443.434,159.777,443.198,163.385z"/>
	<path fill="#496978" d="M465.785,175.156v-26.435h2.861v26.435H465.785z"/>
	<path fill="#496978" d="M473.835,175.156v-26.435h2.807l10.149,20.413v-20.413h2.452v26.435h-2.793l-10.163-20.408v20.408H473.835z
		"/>
	<path fill="#496978" d="M509.596,174.441c-2.443,0.917-4.573,1.376-6.39,1.376c-3.206,0-5.665-1.194-7.377-3.581
		c-1.712-2.388-2.567-5.82-2.567-10.298c0-4.405,0.869-7.819,2.608-10.243c1.739-2.423,4.185-3.635,7.336-3.635
		c2.025,0,4.146,0.399,6.362,1.196v3.466c-2.779-1.238-4.909-1.857-6.39-1.857c-2.18,0-3.871,0.967-5.074,2.902
		c-1.203,1.935-1.805,4.665-1.805,8.189c0,3.489,0.644,6.204,1.932,8.145c1.288,1.941,3.093,2.911,5.415,2.911
		c0.952,0,1.981-0.22,3.088-0.661v-8.608h2.861V174.441z"/>
	<path fill="#496978" d="M523.901,159.277v-3.519h2.684v3.519H523.901z M523.901,175.156v-3.519h2.684v3.519H523.901z"/>
	<path fill="#496978" d="M541.093,175.156v-26.435h5.231c2.017,0,3.562,0.5,4.639,1.5s1.614,2.441,1.614,4.322
		c0,1.524-0.358,2.882-1.076,4.072c-0.718,1.191-1.739,2.114-3.064,2.769c3.296,1.322,4.944,3.71,4.944,7.163
		c0,1.548-0.363,2.923-1.09,4.126c-0.554,0.917-1.222,1.56-2.002,1.929c-0.781,0.369-1.866,0.554-3.256,0.554H541.093z
		 M543.927,160.331h0.913c1.534,0,2.72-0.429,3.556-1.286c0.835-0.857,1.253-2.077,1.253-3.661c0-2.572-1.535-3.858-4.604-3.858
		h-1.117V160.331z M543.927,172.351h0.585c2.093,0,3.448-0.172,4.064-0.518c1.178-0.654,1.767-1.869,1.767-3.644
		c0-1.572-0.534-2.879-1.604-3.921s-2.406-1.562-4.011-1.562h-0.802V172.351z"/>
	<path fill="#496978" d="M557.141,175.156v-26.435h11.267v2.804h-8.405v8.484h7.043v2.769h-7.043v9.573h8.991v2.805H557.141z"/>
	<path fill="#496978" d="M573.053,175.263v-3.144c1.335,0.702,2.606,1.054,3.814,1.054c1.325,0,2.367-0.512,3.126-1.536
		c0.758-1.024,1.138-2.436,1.138-4.233c0-1.929-0.536-3.402-1.607-4.421c-1.072-1.018-2.62-1.526-4.646-1.526
		c-0.473,0-0.968,0.041-1.485,0.125v-12.86h10.204v3.09h-7.847v6.948c2.588,0,4.608,0.78,6.062,2.34s2.18,3.721,2.18,6.483
		c0,2.572-0.66,4.588-1.981,6.046c-1.321,1.459-3.146,2.188-5.47,2.188C575.505,175.817,574.342,175.632,573.053,175.263z"/>
	<path fill="#496978" d="M590.136,174.959v-3.305c1.919,1.013,3.429,1.519,4.529,1.519c1.301,0,2.354-0.489,3.158-1.467
		c0.806-0.979,1.208-2.255,1.208-3.829c0-3.721-1.988-5.582-5.965-5.582h-1.064v-2.357l0.941-0.018c3.731,0,5.598-1.721,5.598-5.162
		c0-2.703-1.237-4.055-3.712-4.055c-1.328,0-2.802,0.5-4.421,1.5v-3.09c1.589-0.702,3.119-1.054,4.591-1.054
		c2.007,0,3.546,0.523,4.618,1.571c1.071,1.047,1.607,2.564,1.607,4.552c0,3.106-1.403,5.32-4.21,6.642
		c3.252,0.988,4.877,3.323,4.877,7.004c0,2.49-0.626,4.444-1.88,5.861c-1.253,1.418-2.975,2.127-5.163,2.127
		C593.605,175.817,592.034,175.531,590.136,174.959z"/>
	<path fill="#496978" d="M616.606,174.959v-3.305c1.919,1.013,3.429,1.519,4.529,1.519c1.301,0,2.354-0.489,3.158-1.467
		c0.806-0.979,1.208-2.255,1.208-3.829c0-3.721-1.988-5.582-5.965-5.582h-1.064v-2.357l0.941-0.018c3.731,0,5.598-1.721,5.598-5.162
		c0-2.703-1.237-4.055-3.712-4.055c-1.328,0-2.802,0.5-4.421,1.5v-3.09c1.589-0.702,3.119-1.054,4.591-1.054
		c2.007,0,3.546,0.523,4.618,1.571c1.071,1.047,1.607,2.564,1.607,4.552c0,3.106-1.403,5.32-4.21,6.642
		c3.252,0.988,4.877,3.323,4.877,7.004c0,2.49-0.626,4.444-1.88,5.861c-1.253,1.418-2.975,2.127-5.163,2.127
		C620.075,175.817,618.503,175.531,616.606,174.959z"/>
	<path fill="#496978" d="M636.208,161.47c1.281-2.177,2.893-3.265,4.837-3.265c1.762,0,3.203,0.765,4.325,2.293
		c1.121,1.528,1.683,3.488,1.683,5.879c0,2.748-0.629,5.008-1.887,6.78c-1.259,1.772-2.859,2.659-4.803,2.659
		c-2.216,0-3.95-1.175-5.204-3.525c-1.253-2.351-1.88-5.602-1.88-9.755c0-5.593,1.095-9.698,3.283-12.316
		c1.189-1.44,2.834-2.16,4.932-2.16c1.217,0,2.725,0.334,4.522,1v3.09c-1.897-0.964-3.46-1.446-4.686-1.446
		C637.917,150.704,636.208,154.292,636.208,161.47z M644.369,167.073c0-1.949-0.346-3.492-1.036-4.628
		c-0.691-1.135-1.638-1.703-2.839-1.703c-1.146,0-2.129,0.5-2.947,1.498c-0.819,0.999-1.229,2.2-1.229,3.603
		c0,2.212,0.389,3.987,1.167,5.324c0.777,1.338,1.808,2.007,3.091,2.007c1.164,0,2.088-0.547,2.77-1.641
		C644.028,170.438,644.369,168.952,644.369,167.073z"/>
	<path fill="#496978" d="M651.889,174.959v-3.305c1.919,1.013,3.429,1.519,4.529,1.519c1.301,0,2.354-0.489,3.158-1.467
		c0.806-0.979,1.208-2.255,1.208-3.829c0-3.721-1.988-5.582-5.965-5.582h-1.064v-2.357l0.941-0.018c3.731,0,5.598-1.721,5.598-5.162
		c0-2.703-1.237-4.055-3.712-4.055c-1.328,0-2.802,0.5-4.421,1.5v-3.09c1.589-0.702,3.119-1.054,4.591-1.054
		c2.007,0,3.546,0.523,4.618,1.571c1.071,1.047,1.607,2.564,1.607,4.552c0,3.106-1.403,5.32-4.21,6.642
		c3.252,0.988,4.877,3.323,4.877,7.004c0,2.49-0.626,4.444-1.88,5.861c-1.253,1.418-2.975,2.127-5.163,2.127
		C655.358,175.817,653.787,175.531,651.889,174.959z"/>
	<path fill="#496978" d="M675.525,175.817c-2.116,0-3.821-1.271-5.116-3.813c-1.294-2.542-1.94-5.897-1.94-10.065
		c0-4.167,0.646-7.522,1.94-10.064c1.295-2.542,3-3.813,5.116-3.813c2.125,0,3.832,1.269,5.122,3.805
		c1.289,2.536,1.935,5.895,1.935,10.073c0,4.168-0.646,7.523-1.935,10.065C679.357,174.545,677.65,175.817,675.525,175.817z
		 M675.518,173.173c2.802,0,4.202-3.745,4.202-11.235c0-7.489-1.4-11.234-4.202-11.234c-2.793,0-4.189,3.745-4.189,11.234
		C671.329,169.428,672.725,173.173,675.518,173.173z"/>
	<path fill="#496978" d="M703.669,175.156v-7.484h-9.072v-2.661l9.072-16.289h2.521v16.075h2.697v2.875h-2.697v7.484H703.669z
		 M697.23,164.796h6.617v-11.76L697.23,164.796z"/>
	<path fill="#496978" d="M713.642,174.959v-3.305c1.919,1.013,3.429,1.519,4.529,1.519c1.301,0,2.354-0.489,3.158-1.467
		c0.806-0.979,1.208-2.255,1.208-3.829c0-3.721-1.988-5.582-5.965-5.582h-1.064v-2.357l0.941-0.018c3.731,0,5.598-1.721,5.598-5.162
		c0-2.703-1.237-4.055-3.712-4.055c-1.328,0-2.802,0.5-4.421,1.5v-3.09c1.589-0.702,3.119-1.054,4.591-1.054
		c2.007,0,3.546,0.523,4.618,1.571c1.071,1.047,1.607,2.564,1.607,4.552c0,3.106-1.403,5.32-4.21,6.642
		c3.252,0.988,4.877,3.323,4.877,7.004c0,2.49-0.626,4.444-1.88,5.861c-1.253,1.418-2.975,2.127-5.163,2.127
		C717.111,175.817,715.54,175.531,713.642,174.959z"/>
	<path fill="#496978" d="M731.284,174.959v-3.305c1.919,1.013,3.429,1.519,4.529,1.519c1.301,0,2.354-0.489,3.158-1.467
		c0.806-0.979,1.208-2.255,1.208-3.829c0-3.721-1.988-5.582-5.965-5.582h-1.064v-2.357l0.941-0.018c3.731,0,5.598-1.721,5.598-5.162
		c0-2.703-1.237-4.055-3.712-4.055c-1.328,0-2.802,0.5-4.421,1.5v-3.09c1.589-0.702,3.119-1.054,4.591-1.054
		c2.007,0,3.546,0.523,4.618,1.571c1.071,1.047,1.607,2.564,1.607,4.552c0,3.106-1.403,5.32-4.21,6.642
		c3.252,0.988,4.877,3.323,4.877,7.004c0,2.49-0.626,4.444-1.88,5.861c-1.253,1.418-2.975,2.127-5.163,2.127
		C734.752,175.817,733.181,175.531,731.284,174.959z"/>
	<path fill="#496978" d="M752.507,160.769c-1.107-1.011-1.877-1.951-2.309-2.82c-0.432-0.868-0.647-1.915-0.647-3.142
		c0-1.999,0.559-3.623,1.676-4.873c1.117-1.249,2.575-1.874,4.373-1.874c1.662,0,3.009,0.529,4.039,1.589
		c1.031,1.06,1.547,2.434,1.547,4.123c0,2.559-1.254,4.891-3.761,6.997c3.043,1.952,4.564,4.469,4.564,7.551
		c0,2.201-0.636,4.001-1.907,5.399s-2.906,2.098-4.904,2.098s-3.61-0.658-4.837-1.973c-1.226-1.314-1.839-3.043-1.839-5.186
		C748.502,165.494,749.837,162.864,752.507,160.769z M753.965,162.197c-1.081,1.095-1.814,2.05-2.2,2.865
		c-0.386,0.814-0.579,1.829-0.579,3.042c0,1.512,0.373,2.734,1.117,3.668c0.745,0.935,1.726,1.401,2.942,1.401
		c1.172,0,2.128-0.398,2.868-1.195c0.74-0.798,1.11-1.833,1.11-3.106c0-1.022-0.229-1.889-0.688-2.597
		c-0.458-0.708-1.347-1.573-2.663-2.597L753.965,162.197z M755.927,159.663c1.88-1.621,2.82-3.428,2.82-5.418
		c0-1.062-0.316-1.917-0.947-2.566s-1.455-0.975-2.473-0.975c-0.99,0-1.794,0.319-2.411,0.957c-0.618,0.638-0.927,1.463-0.927,2.477
		c0,0.989,0.279,1.877,0.838,2.664S754.419,158.542,755.927,159.663z"/>
	<path fill="#496978" d="M775.735,174.995v-3c1.708,0.785,3.161,1.179,4.359,1.179c1.671,0,2.977-0.932,3.917-2.796
		c0.94-1.863,1.41-4.456,1.41-7.778c-1.362,2.203-2.911,3.305-4.646,3.305c-1.698,0-3.138-0.818-4.318-2.456
		c-1.181-1.637-1.771-3.635-1.771-5.992c0-2.703,0.629-4.945,1.887-6.726c1.258-1.779,2.841-2.67,4.748-2.67
		c2.188,0,3.914,1.152,5.177,3.456c1.262,2.305,1.894,5.457,1.894,9.458c0,2.548-0.305,4.944-0.913,7.188
		c-0.608,2.245-1.426,3.992-2.452,5.243c-1.316,1.607-3.047,2.411-5.19,2.411C778.782,175.817,777.416,175.542,775.735,174.995z
		 M777.37,156.857c0,2.01,0.35,3.598,1.049,4.763c0.7,1.165,1.645,1.748,2.834,1.748c1.145,0,2.118-0.506,2.922-1.517
		s1.206-2.229,1.206-3.656c0-2.247-0.389-4.058-1.165-5.431c-0.776-1.374-1.796-2.061-3.059-2.061c-1.181,0-2.106,0.547-2.778,1.641
		C777.706,153.439,777.37,154.943,777.37,156.857z"/>
	<path fill="#496978" d="M800.706,175.156v-7.484h-9.072v-2.661l9.072-16.289h2.521v16.075h2.697v2.875h-2.697v7.484H800.706z
		 M794.266,164.796h6.617v-11.76L794.266,164.796z"/>
	<path fill="#496978" d="M811.237,175.263v-3.144c1.335,0.702,2.606,1.054,3.814,1.054c1.325,0,2.367-0.512,3.126-1.536
		c0.758-1.024,1.138-2.436,1.138-4.233c0-1.929-0.536-3.402-1.607-4.421c-1.072-1.018-2.62-1.526-4.646-1.526
		c-0.473,0-0.968,0.041-1.485,0.125v-12.86h10.204v3.09h-7.847v6.948c2.588,0,4.608,0.78,6.062,2.34s2.18,3.721,2.18,6.483
		c0,2.572-0.66,4.588-1.981,6.046c-1.321,1.459-3.146,2.188-5.47,2.188C813.689,175.817,812.526,175.632,811.237,175.263z"/>
	<path fill="#496978" d="M828.32,174.959v-3.305c1.919,1.013,3.429,1.519,4.529,1.519c1.301,0,2.354-0.489,3.158-1.467
		c0.806-0.979,1.208-2.255,1.208-3.829c0-3.721-1.988-5.582-5.965-5.582h-1.064v-2.357l0.941-0.018c3.731,0,5.598-1.721,5.598-5.162
		c0-2.703-1.237-4.055-3.712-4.055c-1.328,0-2.802,0.5-4.421,1.5v-3.09c1.589-0.702,3.119-1.054,4.591-1.054
		c2.007,0,3.546,0.523,4.618,1.571c1.071,1.047,1.607,2.564,1.607,4.552c0,3.106-1.403,5.32-4.21,6.642
		c3.252,0.988,4.877,3.323,4.877,7.004c0,2.49-0.626,4.444-1.88,5.861c-1.253,1.418-2.975,2.127-5.163,2.127
		C831.789,175.817,830.217,175.531,828.32,174.959z"/>
	<path fill="#496978" d="M853.972,165.458v-2.18h12.097v2.18H853.972z"/>
	<path fill="#496978" d="M879.529,175.156v-26.435h5.231c2.017,0,3.562,0.5,4.639,1.5s1.614,2.441,1.614,4.322
		c0,1.524-0.358,2.882-1.076,4.072c-0.718,1.191-1.739,2.114-3.064,2.769c3.296,1.322,4.944,3.71,4.944,7.163
		c0,1.548-0.363,2.923-1.09,4.126c-0.554,0.917-1.222,1.56-2.002,1.929c-0.781,0.369-1.866,0.554-3.256,0.554H879.529z
		 M882.363,160.331h0.913c1.534,0,2.72-0.429,3.556-1.286c0.835-0.857,1.253-2.077,1.253-3.661c0-2.572-1.535-3.858-4.604-3.858
		h-1.117V160.331z M882.363,172.351h0.585c2.093,0,3.448-0.172,4.064-0.518c1.178-0.654,1.767-1.869,1.767-3.644
		c0-1.572-0.534-2.879-1.604-3.921s-2.406-1.562-4.011-1.562h-0.802V172.351z"/>
	<path fill="#496978" d="M895.563,175.156v-26.435h2.861v26.435H895.563z"/>
	<path fill="#496978" d="M918.763,173.798c-1.989,1.346-4.16,2.019-6.512,2.019c-3.134,0-5.554-1.203-7.262-3.608
		c-1.707-2.405-2.561-5.822-2.561-10.252c0-4.418,0.869-7.838,2.608-10.262c1.739-2.423,4.193-3.635,7.363-3.635
		c1.799,0,3.91,0.387,6.335,1.161v3.519c-2.761-1.25-4.891-1.875-6.39-1.875c-2.188,0-3.882,0.971-5.081,2.911
		s-1.798,4.68-1.798,8.216c0,3.382,0.64,6.044,1.921,7.984c1.28,1.941,3.033,2.911,5.258,2.911c1.898,0,3.938-0.768,6.117-2.304
		V173.798z"/>
	<path fill="#496978" d="M932.209,159.277v-3.519h2.684v3.519H932.209z M932.209,175.156v-3.519h2.684v3.519H932.209z"/>
	<path fill="#496978" d="M949.402,175.156v-26.435h5.231c2.017,0,3.562,0.5,4.639,1.5s1.614,2.441,1.614,4.322
		c0,1.524-0.358,2.882-1.076,4.072c-0.718,1.191-1.739,2.114-3.064,2.769c3.296,1.322,4.944,3.71,4.944,7.163
		c0,1.548-0.363,2.923-1.09,4.126c-0.554,0.917-1.222,1.56-2.002,1.929c-0.781,0.369-1.866,0.554-3.256,0.554H949.402z
		 M952.236,160.331h0.913c1.534,0,2.72-0.429,3.556-1.286c0.835-0.857,1.253-2.077,1.253-3.661c0-2.572-1.535-3.858-4.604-3.858
		h-1.117V160.331z M952.236,172.351h0.585c2.093,0,3.448-0.172,4.064-0.518c1.178-0.654,1.767-1.869,1.767-3.644
		c0-1.572-0.534-2.879-1.604-3.921s-2.406-1.562-4.011-1.562h-0.802V172.351z"/>
	<path fill="#496978" d="M965.45,175.156v-26.435h5.231c2.017,0,3.562,0.5,4.639,1.5s1.614,2.441,1.614,4.322
		c0,1.524-0.358,2.882-1.076,4.072c-0.718,1.191-1.739,2.114-3.064,2.769c3.296,1.322,4.944,3.71,4.944,7.163
		c0,1.548-0.363,2.923-1.09,4.126c-0.554,0.917-1.222,1.56-2.002,1.929c-0.781,0.369-1.866,0.554-3.256,0.554H965.45z
		 M968.284,160.331h0.913c1.534,0,2.72-0.429,3.556-1.286c0.835-0.857,1.253-2.077,1.253-3.661c0-2.572-1.535-3.858-4.604-3.858
		h-1.117V160.331z M968.284,172.351h0.585c2.093,0,3.448-0.172,4.064-0.518c1.178-0.654,1.767-1.869,1.767-3.644
		c0-1.572-0.534-2.879-1.604-3.921s-2.406-1.562-4.011-1.562h-0.802V172.351z"/>
	<path fill="#496978" d="M981.498,175.156v-26.435h6.104c1.935,0,3.417,0.56,4.448,1.679c1.03,1.119,1.546,2.745,1.546,4.876
		c0,1.679-0.356,3.174-1.069,4.483s-1.715,2.316-3.004,3.019l6.729,12.378h-3.513l-5.745-11.182h-2.662v11.182H981.498z
		 M984.332,161.17h0.929c1.766,0,3.107-0.471,4.027-1.411c0.919-0.94,1.379-2.315,1.379-4.126c0-2.738-1.511-4.108-4.533-4.108
		h-1.802V161.17z"/>
	<path fill="#496978" d="M998.976,148.721h2.861v16.683c0,2.655,0.374,4.587,1.122,5.796c0.748,1.208,1.938,1.812,3.57,1.812
		c1.596,0,2.728-0.568,3.394-1.705c0.667-1.138,1-3.063,1-5.778v-16.808h2.521v16.754c0,2.311-0.173,4.084-0.518,5.322
		c-0.346,1.239-0.968,2.328-1.866,3.269c-1.127,1.167-2.675,1.751-4.646,1.751c-2.553,0-4.43-0.846-5.634-2.536
		c-1.203-1.691-1.805-4.329-1.805-7.913V148.721z"/>
	<path fill="#496978" d="M1018.47,175.156v-26.435h5.231c2.017,0,3.562,0.5,4.639,1.5s1.614,2.441,1.614,4.322
		c0,1.524-0.358,2.882-1.076,4.072c-0.718,1.191-1.739,2.114-3.064,2.769c3.296,1.322,4.944,3.71,4.944,7.163
		c0,1.548-0.363,2.923-1.09,4.126c-0.554,0.917-1.222,1.56-2.002,1.929c-0.781,0.369-1.866,0.554-3.256,0.554H1018.47z
		 M1021.304,160.331h0.913c1.534,0,2.72-0.429,3.556-1.286c0.835-0.857,1.253-2.077,1.253-3.661c0-2.572-1.535-3.858-4.604-3.858
		h-1.117V160.331z M1021.304,172.351h0.585c2.093,0,3.448-0.172,4.064-0.518c1.178-0.654,1.767-1.869,1.767-3.644
		c0-1.572-0.534-2.879-1.604-3.921s-2.406-1.562-4.011-1.562h-0.802V172.351z"/>
	<path fill="#496978" d="M1034.518,175.156v-26.435h11.267v2.804h-8.405v8.484h7.043v2.769h-7.043v9.573h8.991v2.805H1034.518z"/>
	<path fill="#496978" d="M1049.639,175.156v-26.435h5.231c2.017,0,3.562,0.5,4.639,1.5s1.614,2.441,1.614,4.322
		c0,1.524-0.358,2.882-1.076,4.072c-0.718,1.191-1.739,2.114-3.064,2.769c3.296,1.322,4.944,3.71,4.944,7.163
		c0,1.548-0.363,2.923-1.09,4.126c-0.554,0.917-1.222,1.56-2.002,1.929c-0.781,0.369-1.866,0.554-3.256,0.554H1049.639z
		 M1052.473,160.331h0.913c1.534,0,2.72-0.429,3.556-1.286c0.835-0.857,1.253-2.077,1.253-3.661c0-2.572-1.535-3.858-4.604-3.858
		h-1.117V160.331z M1052.473,172.351h0.585c2.093,0,3.448-0.172,4.064-0.518c1.178-0.654,1.767-1.869,1.767-3.644
		c0-1.572-0.534-2.879-1.604-3.921s-2.406-1.562-4.011-1.562h-0.802V172.351z"/>
	<path fill="#496978" d="M1065.687,175.156v-26.435h5.231c2.017,0,3.562,0.5,4.639,1.5s1.614,2.441,1.614,4.322
		c0,1.524-0.358,2.882-1.076,4.072c-0.718,1.191-1.739,2.114-3.064,2.769c3.296,1.322,4.944,3.71,4.944,7.163
		c0,1.548-0.363,2.923-1.09,4.126c-0.554,0.917-1.222,1.56-2.002,1.929c-0.781,0.369-1.866,0.554-3.256,0.554H1065.687z
		 M1068.521,160.331h0.913c1.534,0,2.72-0.429,3.556-1.286c0.835-0.857,1.253-2.077,1.253-3.661c0-2.572-1.535-3.858-4.604-3.858
		h-1.117V160.331z M1068.521,172.351h0.585c2.093,0,3.448-0.172,4.064-0.518c1.178-0.654,1.767-1.869,1.767-3.644
		c0-1.572-0.534-2.879-1.604-3.921s-2.406-1.562-4.011-1.562h-0.802V172.351z"/>
</g>
<polygon fill="#496978" points="317.459,151.191 336.357,162.102 317.459,173.012 "/>
<polygon fill="#496978" points="830.459,106.191 849.357,117.102 830.459,128.012 "/>
</svg>
