<?xml version="1.0" encoding="utf-8"?>
<!-- Generator: Adobe Illustrator 16.0.0, SVG Export Plug-In . SVG Version: 6.00 Build 0)  -->
<!DOCTYPE svg PUBLIC "-//W3C//DTD SVG 1.1//EN" "http://www.w3.org/Graphics/SVG/1.1/DTD/svg11.dtd">
<svg version="1.1" id="Layer_1" xmlns="http://www.w3.org/2000/svg" xmlns:xlink="http://www.w3.org/1999/xlink" x="0px" y="0px"
	 width="412.96px" height="62.094px" viewBox="0 0 412.96 62.094" enable-background="new 0 0 412.96 62.094" xml:space="preserve">
<path fill="#F49848" d="M305.688,20.092c0-2.097-0.875-3.32-3.146-3.32c-2.621,0-3.494,1.922-3.494,5.416
	c0,3.495,0.523,5.417,3.145,5.417c0.874,0,1.572-0.35,2.098-1.049v0.875h1.572V21.84h-3.32v1.573h1.397v1.048
	c0,1.048-0.873,1.572-1.397,1.572c-1.223,0-1.396-1.572-1.396-4.02c0-2.621,0.35-3.668,1.396-3.668c0.873,0,1.224,1.048,1.224,1.748
	"/>
<path fill="#F49848" d="M310.578,18.869L310.578,18.869l1.051,4.716h-2.099 M306.561,27.43h2.097l0.523-2.097h2.795l0.352,2.097
	h2.271l-2.795-10.308h-2.622L306.561,27.43z"/>
<polyline fill="#F49848" points="321.062,27.43 321.062,25.682 317.393,25.682 317.393,17.122 315.296,17.122 315.296,27.43 "/>
<polyline fill="#F49848" points="327.875,27.43 327.875,25.682 324.207,25.682 324.207,17.122 322.109,17.122 322.109,27.43 "/>
<polyline fill="#F49848" points="326.828,17.122 329.447,23.412 329.447,27.43 331.544,27.43 331.544,23.412 334.339,17.122 
	332.069,17.122 330.496,21.14 329.099,17.122 "/>
<path fill="#F49848" d="M334.339,24.285v0.35c0,1.921,0.873,2.97,3.32,2.97c2.271,0,3.668-0.875,3.668-3.145
	c0-1.224-0.522-2.098-2.096-2.795l-1.572-0.699c-0.875-0.35-1.05-0.698-1.05-1.398c0-0.522,0.175-1.223,1.224-1.223
	c0.698,0,1.049,0.7,1.049,1.572h2.097v-0.351c0-1.922-1.397-2.795-3.319-2.795s-3.145,1.048-3.145,3.146
	c0,1.748,0.873,2.445,2.795,3.145c1.223,0.523,1.748,0.873,1.748,1.748c0,0.873-0.525,1.224-1.225,1.224
	c-1.049,0-1.396-0.524-1.396-1.572v-0.175"/>
<path fill="#F49848" d="M351.46,19.742c0-1.923-0.873-2.796-2.969-2.796c-1.746,0-2.797,1.049-2.797,2.621
	c0,3.846,5.067,2.098,5.067,5.242c0,1.398-0.874,2.096-2.271,2.096c-1.397,0-2.097-0.872-2.097-2.271v-0.35h-0.875v0.175
	c0,2.096,1.05,3.145,2.972,3.145s3.145-1.049,3.145-2.97c0-3.669-5.065-1.922-5.065-5.067c0-1.048,0.698-1.922,2.097-1.922
	c1.223,0,1.746,0.875,1.746,2.098"/>
<path fill="#F49848" d="M352.858,27.43h1.05v-4.543h1.397c2.444,0,3.317-1.223,3.317-2.97s-0.873-2.795-2.97-2.795h-2.796
	 M353.908,17.819h1.572c1.396,0,2.096,0.7,2.096,2.098c0,1.748-0.873,2.271-2.096,2.271h-1.572V17.819z"/>
<path fill="#F49848" d="M360.896,17.819h1.572c1.746,0,2.271,0.875,2.271,2.098c0,1.397-0.872,1.922-2.271,1.922h-1.572
	 M359.849,27.43h1.048v-4.718h1.747c1.572,0,1.921,0.524,1.921,2.446l0.175,0.873c0,0.523,0,1.049,0.176,1.398h1.047
	c-0.35-0.35-0.35-0.875-0.35-1.573v-1.048c0-1.572-0.523-2.447-1.746-2.447c1.397-0.35,1.746-1.396,1.746-2.62
	c0-1.747-0.873-2.62-2.619-2.62h-3.145V27.43L359.849,27.43z"/>
<polyline fill="#F49848" points="367.185,27.43 372.427,27.43 372.427,26.73 368.06,26.73 368.06,17.122 367.185,17.122 "/>
<polyline fill="#496978" points="178.146,40.883 178.146,33.545 184.437,37.213 "/>
<polyline fill="#F49848" points="190.552,41.406 191.25,41.406 191.25,33.718 193.347,33.718 193.347,33.195 188.455,33.195 
	188.455,33.718 190.552,33.718 "/>
<polyline fill="#496978" points="289.264,40.883 289.264,33.545 295.554,37.213 "/>
<path fill="#F49848" d="M306.21,35.641L306.21,35.641c-0.349-0.698-0.697-0.873-1.397-0.873c-1.571,0-2.795,1.747-2.795,3.318
	c0,1.05,0.698,1.747,1.571,1.747c0.701,0,1.049-0.175,1.574-0.697h0.174c-0.174,0.522,0.351,0.697,0.697,0.697
	c1.225,0,2.797-1.572,2.797-3.318c0-2.097-1.746-3.495-4.02-3.495c-2.62,0-4.542,1.922-4.542,4.193c0,2.445,1.922,4.368,4.542,4.368
	c1.572,0,2.971-0.873,3.845-2.099h-0.698c-0.699,0.875-1.924,1.573-3.146,1.573c-2.271,0-4.018-1.746-4.018-3.844
	c0-1.922,1.571-3.668,4.018-3.668c1.748,0,3.495,1.223,3.495,2.97c0,1.223-1.048,2.796-2.097,2.796c-0.177,0-0.35-0.175-0.35-0.35
	c0-0.176,0-0.351,0.173-0.525l1.226-3.493h-0.699 M302.716,38.086c0-1.048,0.873-2.795,2.097-2.795c0.7,0,1.05,0.35,1.05,1.224
	c0,1.048-0.874,2.796-2.098,2.796C303.066,39.311,302.716,38.785,302.716,38.086z"/>
<path fill="#496978" d="M312.675,34.243h0.699v-1.049h-0.699 M312.675,41.406h0.699V35.29h-0.699V41.406z"/>
<path fill="#496978" d="M314.771,41.406h0.699v-4.192c0-0.873,0.523-1.572,1.396-1.572c0.698,0,1.049,0.524,1.049,1.397v4.367h0.699
	v-4.718c0-1.048-0.699-1.573-1.572-1.573c-0.699,0-1.224,0.351-1.572,1.05v-0.875h-0.699"/>
<path fill="#496978" d="M320.188,41.406h0.698v-5.591h1.048V35.29h-1.048v-0.698c0-0.875,0.35-1.048,0.699-1.048
	c0.174,0,0.349,0,0.349,0.173V33.02c0,0-0.175,0-0.349,0c-1.224,0-1.397,0.698-1.397,1.573v0.698h-0.875v0.524h0.875"/>
<path fill="#496978" d="M323.158,38.261c0-1.921,0.698-2.62,1.398-2.62c0.872,0,1.396,0.699,1.396,2.62
	c0,2.098-0.524,2.796-1.396,2.796C323.856,41.057,323.158,40.358,323.158,38.261 M322.458,38.261c0,2.272,0.699,3.32,2.099,3.32
	c1.397,0,2.096-1.048,2.096-3.32c0-2.096-0.698-3.145-2.096-3.145C323.158,35.116,322.458,36.165,322.458,38.261z"/>
<path fill="#496978" d="M333.466,35.641L333.466,35.641c-0.35-0.698-0.875-0.873-1.396-0.873c-1.572,0-2.796,1.747-2.796,3.318
	c0,1.05,0.522,1.747,1.571,1.747c0.523,0,1.05-0.175,1.572-0.697c0,0.522,0.351,0.697,0.875,0.697c1.223,0,2.795-1.572,2.795-3.318
	c0-2.097-1.922-3.495-4.192-3.495c-2.446,0-4.543,1.922-4.543,4.193c0,2.445,2.097,4.368,4.543,4.368
	c1.572,0,3.144-0.873,4.019-2.099h-0.699c-0.698,0.875-2.096,1.573-3.318,1.573c-2.098,0-3.845-1.746-3.845-3.844
	c0-1.922,1.571-3.668,3.845-3.668c1.92,0,3.493,1.223,3.493,2.97c0,1.223-1.048,2.796-2.097,2.796c-0.174,0-0.174-0.175-0.174-0.35
	c0-0.176,0-0.351,0-0.525l1.223-3.493h-0.698 M329.796,38.086c0-1.048,1.049-2.795,2.272-2.795c0.698,0,1.048,0.35,1.048,1.224
	c0,1.048-1.048,2.796-2.271,2.796C330.146,39.311,329.796,38.785,329.796,38.086z"/>
<path fill="#496978" d="M337.484,38.261c0-1.921,0.525-2.62,1.396-2.62c0.873,0,1.225,0.699,1.225,2.62
	c0,1.923-0.352,2.622-1.225,2.622C338.01,40.883,337.484,40.184,337.484,38.261 M340.28,36.165L340.28,36.165
	c-0.351-0.699-0.875-1.049-1.573-1.049c-1.223,0-1.922,1.049-1.922,3.145c0,2.622,0.875,3.146,1.922,3.146
	c0.698,0,1.224-0.35,1.398-1.048v0.873c0,1.224-0.352,1.747-1.225,1.747c-0.698,0-1.223-0.35-1.223-0.873h-0.699
	c0,0.873,0.699,1.397,1.922,1.397c1.398,0,1.924-0.874,1.924-2.446v-5.766h-0.524V36.165L340.28,36.165z"/>
<path fill="#496978" d="M344.998,39.311c0,1.048-0.524,1.746-1.397,1.746c-0.524,0-1.05-0.522-1.05-1.224
	c0-0.872,0.525-1.223,1.224-1.397l0.524-0.175c0.175,0,0.699-0.175,0.699-0.348 M342.726,37.038c0-0.873,0.35-1.397,1.223-1.397
	c0.699,0,1.049,0.35,1.049,1.048c0,0.875,0,0.875-0.523,1.049l-1.396,0.349c-0.873,0.35-1.224,0.875-1.224,1.747
	c0,1.05,0.524,1.748,1.572,1.748c0.698,0,1.397-0.176,1.571-1.048v0.175c0,0.697,0.35,0.873,1.049,0.873l0.176-0.176v-0.522h-0.176
	c-0.176,0-0.351-0.175-0.351-0.524v-3.67c0-0.873-0.35-1.572-1.747-1.572c-1.223,0-1.921,0.699-1.921,1.922H342.726z"/>
<rect x="347.269" y="33.195" fill="#496978" width="0.699" height="8.211"/>
<rect x="349.365" y="33.195" fill="#496978" width="0.698" height="8.211"/>
<path fill="#496978" d="M352.684,41.406l-0.175,0.699c-0.174,0.698-0.523,0.873-0.873,0.873c-0.176,0-0.35-0.175-0.523-0.175v0.699
	c0.174,0,0.35,0,0.523,0c0.873,0,1.223-0.351,1.572-1.572l1.748-6.64h-0.701l-1.223,5.243l-1.396-5.243h-0.698"/>
<path fill="#496978" d="M357.751,38.785c0.523,0.176,0.873,0.524,0.873,1.048c0,0.7-0.523,1.224-1.224,1.224
	c-0.873,0-1.223-0.522-1.223-1.397v-0.176h-0.698v0.176c0,1.397,0.523,1.923,1.921,1.923c1.224,0,1.922-0.873,1.922-1.923
	c0-0.522-0.35-1.224-1.223-1.572l-1.05-0.349c-0.697-0.175-0.872-0.524-0.872-1.049c0-0.522,0.35-1.048,1.223-1.048
	c0.699,0,1.048,0.351,1.048,1.223v0.176h0.699v-0.176c0-1.223-0.523-1.747-1.747-1.747c-1.048,0-1.921,0.524-1.921,1.747
	c0,0.7,0.35,1.224,1.223,1.572"/>
<rect x="360.546" y="40.184" fill="#496978" width="0.873" height="1.223"/>
<path fill="#496978" d="M363.691,38.261c0-2.271,0.698-2.62,1.396-2.62c0.699,0,1.397,0.351,1.397,2.62
	c0,2.447-0.698,2.796-1.397,2.796C364.39,41.057,363.691,40.708,363.691,38.261 M362.992,41.406h0.699v-1.048
	c0.176,0.698,0.698,1.224,1.572,1.224c1.223,0,1.921-1.048,1.921-3.32c0-2.096-0.698-3.146-1.921-3.146
	c-0.874,0-1.396,0.351-1.572,1.05v-2.971h-0.699V41.406z"/>
<path fill="#496978" d="M368.757,37.738c0-1.572,0.524-2.097,1.397-2.097c0.699,0,1.224,0.524,1.224,2.097 M371.378,39.311
	c-0.174,1.224-0.523,1.746-1.224,1.746c-0.698,0-1.397-0.698-1.397-2.446v-0.175h3.32v-0.35c0-2.097-0.524-2.97-1.923-2.97
	c-1.397,0-2.096,1.049-2.096,3.145c0,2.447,0.698,3.32,2.096,3.32c1.05,0,1.747-0.873,1.923-2.271L371.378,39.311L371.378,39.311z"
	/>
<polyline fill="#F49848" points="46.765,55.384 47.637,55.384 47.637,47.696 49.734,47.696 49.734,47.172 44.667,47.172 
	44.667,47.696 46.765,47.696 "/>
<polyline fill="#F49848" points="52.005,55.384 52.878,55.384 55.15,47.172 54.276,47.172 52.53,54.685 50.607,47.172 
	49.908,47.172 "/>
<path fill="#F49848" d="M54.8,55.384h0.7l0.698-2.447h2.97l0.699,2.447h0.698l-2.445-8.212h-0.875 M56.373,52.414l1.223-4.719
	l1.397,4.719H56.373z"/>
<path fill="#496978" d="M63.886,51.364c0,2.447,0.35,4.193,2.271,4.193c1.922,0,2.272-1.746,2.272-4.193
	c0-2.444-0.35-4.191-2.272-4.191C64.235,47.172,63.886,48.919,63.886,51.364 M64.584,51.364c0-2.619,0.524-3.668,1.572-3.668
	c1.049,0,1.573,1.049,1.573,3.668c0,2.622-0.523,3.671-1.573,3.671C65.108,55.034,64.584,53.986,64.584,51.364z"/>
<path fill="#496978" d="M70.35,49.269c0-0.874,0.524-1.572,1.397-1.572c0.875,0,1.397,0.698,1.397,1.572
	c0,0.873-0.523,1.397-1.397,1.397C70.874,50.666,70.35,50.142,70.35,49.269 M69.477,53.111c0,1.573,0.873,2.446,2.271,2.446
	s2.272-0.873,2.272-2.446c0-1.048-0.35-1.922-1.397-2.096c0.698-0.175,1.223-1.049,1.223-1.747c0-1.396-0.873-2.097-2.097-2.097
	c-1.223,0-2.096,0.699-2.096,2.097c0,0.698,0.523,1.572,1.223,1.747C69.826,51.189,69.477,52.063,69.477,53.111z M70.174,53.111
	c0-1.048,0.525-1.747,1.573-1.747c1.049,0,1.572,0.699,1.572,1.747c0,1.049-0.523,1.924-1.572,1.924
	C70.699,55.034,70.174,54.159,70.174,53.111z"/>
<path fill="#496978" d="M75.067,51.364c0,2.447,0.35,4.193,2.272,4.193c1.921,0,2.271-1.746,2.271-4.193
	c0-2.444-0.35-4.191-2.271-4.191C75.417,47.172,75.067,48.919,75.067,51.364 M75.767,51.364c0-2.619,0.523-3.668,1.572-3.668
	c1.048,0,1.571,1.049,1.571,3.668c0,2.622-0.523,3.671-1.571,3.671C76.29,55.034,75.767,53.986,75.767,51.364z"/>
<path fill="#496978" d="M80.658,47.871h3.844c-1.572,2.096-2.795,5.239-2.97,7.513h0.698c0.175-2.272,1.223-5.242,2.97-7.513v-0.524
	h-4.542"/>
<rect x="86.772" y="54.159" fill="#496978" width="0.7" height="1.225"/>
<path fill="#496978" d="M89.568,47.347l-0.35,4.192h0.7c0.175-0.698,0.698-1.048,1.397-1.048c1.048,0,1.572,1.048,1.572,2.096
	c0,1.572-0.699,2.447-1.572,2.447c-1.048,0-1.573-0.875-1.573-1.748h-0.698c0,1.397,0.873,2.271,2.096,2.271
	c1.747,0,2.445-1.224,2.445-2.796c0-1.921-0.873-2.795-2.096-2.795c-0.7,0-1.397,0.175-1.572,0.874l0.35-2.97h2.97v-0.524"/>
<path fill="#496978" d="M95.333,49.792c0-1.048,0.35-2.097,1.572-2.097c1.048,0,1.398,1.049,1.398,2.097
	c0,1.049-0.35,2.097-1.398,2.097C95.683,51.889,95.333,50.841,95.333,49.792 M94.81,53.637c0,1.048,0.698,1.921,1.921,1.921
	c1.922,0,2.447-1.746,2.447-4.368c0-2.62-0.525-4.018-2.272-4.018c-1.572,0-2.271,1.223-2.271,2.795s0.698,2.62,2.096,2.62
	c0.875,0,1.398-0.523,1.748-1.397c0,2.797-0.525,3.846-1.748,3.846c-0.698,0-1.223-0.7-1.223-1.397L94.81,53.637L94.81,53.637z"/>
<path fill="#496978" d="M101.099,52.762c0-1.048,0.35-2.096,1.398-2.096c1.223,0,1.572,1.048,1.572,2.096
	c0,1.225-0.35,2.272-1.572,2.272C101.449,55.034,101.099,53.986,101.099,52.762 M104.594,49.094c0-1.048-0.7-1.922-1.922-1.922
	c-1.922,0-2.621,1.747-2.621,4.367s0.698,4.019,2.446,4.019c1.572,0,2.272-1.224,2.272-2.796s-0.7-2.62-2.097-2.62
	c-0.873,0-1.573,0.524-1.748,1.397c0-2.795,0.525-3.844,1.748-3.844c0.7,0,1.223,0.522,1.223,1.397L104.594,49.094L104.594,49.094z"
	/>
<rect x="106.341" y="54.159" fill="#496978" width="0.698" height="1.225"/>
<path fill="#496978" d="M109.485,49.269c0-0.874,0.524-1.572,1.399-1.572c0.873,0,1.397,0.698,1.397,1.572
	c0,0.873-0.524,1.397-1.397,1.397C110.009,50.666,109.485,50.142,109.485,49.269 M108.612,53.111c0,1.573,0.873,2.446,2.272,2.446
	c1.397,0,2.271-0.873,2.271-2.446c0-1.048-0.524-1.922-1.397-2.096c0.698-0.175,1.223-1.049,1.223-1.747
	c0-1.396-0.873-2.097-2.096-2.097c-1.224,0-2.097,0.699-2.097,2.097c0,0.698,0.524,1.572,1.223,1.747
	C108.961,51.189,108.612,52.063,108.612,53.111z M109.311,53.111c0-1.048,0.523-1.747,1.573-1.747c1.048,0,1.571,0.699,1.571,1.747
	c0,1.049-0.523,1.924-1.571,1.924C109.834,55.034,109.311,54.159,109.311,53.111z"/>
<path fill="#496978" d="M114.727,47.347l-0.35,4.192h0.7c0.175-0.698,0.698-1.048,1.397-1.048c1.048,0,1.573,1.048,1.573,2.096
	c0,1.572-0.7,2.447-1.573,2.447c-1.049,0-1.572-0.875-1.572-1.748h-0.7c0,1.397,0.875,2.271,2.097,2.271
	c1.573,0,2.446-1.224,2.446-2.796c0-1.921-0.873-2.795-2.096-2.795c-0.7,0-1.398,0.175-1.573,0.874h-0.175l0.523-2.97h2.97v-0.524"
	/>
<path fill="#496978" d="M120.667,49.269c0-0.874,0.523-1.572,1.398-1.572c0.873,0,1.397,0.698,1.397,1.572
	c0,0.873-0.524,1.397-1.397,1.397C121.19,50.666,120.667,50.142,120.667,49.269 M119.793,53.111c0,1.573,0.874,2.446,2.272,2.446
	c1.397,0,2.271-0.873,2.271-2.446c0-1.048-0.523-1.922-1.397-2.096c0.699-0.175,1.223-1.049,1.223-1.747
	c0-1.396-0.873-2.097-2.096-2.097s-2.097,0.699-2.097,2.097c0,0.698,0.524,1.572,1.223,1.747
	C120.143,51.189,119.793,52.063,119.793,53.111z M120.492,53.111c0-1.048,0.525-1.747,1.573-1.747s1.572,0.699,1.572,1.747
	c0,1.049-0.524,1.924-1.572,1.924S120.492,54.159,120.492,53.111z"/>
<polyline fill="#496978" points="130.101,54.859 130.101,47.521 136.391,51.189 "/>
<path fill="#496978" d="M141.458,55.384h2.271c1.572,0,2.621-0.874,2.621-2.272c0-1.048-0.523-1.922-1.573-2.096
	c0.7-0.175,1.223-1.049,1.223-1.922c0-1.223-0.698-1.922-2.271-1.922h-2.271 M142.156,51.364h1.398c1.397,0,1.922,0.524,1.922,1.747
	c0,1.049-0.525,1.573-1.922,1.573h-1.398V51.364z M142.156,47.696h1.398c1.048,0,1.747,0.351,1.747,1.572
	c0,0.873-0.699,1.397-1.922,1.397h-1.223V47.696L142.156,47.696z"/>
<path fill="#496978" d="M150.194,53.286c0,1.048-0.699,1.748-1.399,1.748c-0.698,0-1.048-0.524-1.048-1.224
	c0-0.875,0.35-1.225,1.048-1.396l0.524-0.177c0.35,0,0.7-0.175,0.875-0.35 M147.922,51.016c0-0.874,0.35-1.396,1.223-1.396
	c0.525,0,1.049,0.349,1.049,1.048c0,0.873-0.175,0.873-0.699,1.048l-1.223,0.35c-0.874,0.175-1.223,0.873-1.223,1.748
	c0,1.048,0.349,1.746,1.573,1.746c0.698,0,1.223-0.174,1.572-1.048v0.175c0,0.699,0.349,0.699,0.873,0.699c0.175,0,0.175,0,0.35,0
	v-0.524h-0.175c-0.35,0-0.35-0.175-0.35-0.524v-3.668c0-0.874-0.525-1.572-1.748-1.572c-1.397,0-1.921,0.698-1.921,1.922h0.699
	V51.016z"/>
<path fill="#496978" d="M152.29,55.384h0.7V51.19c0-0.873,0.523-1.57,1.397-1.57c0.698,0,1.048,0.522,1.048,1.396v4.368h0.698
	v-4.718c0-1.048-0.698-1.572-1.571-1.572c-0.699,0-1.224,0.35-1.572,1.048v-0.873h-0.7"/>
<path fill="#496978" d="M157.88,52.238c0-2.097,0.699-2.619,1.397-2.619c0.35,0,0.7,0.174,1.049,0.522
	c0.173,0.524,0.349,1.048,0.349,2.097c0,2.271-0.698,2.797-1.398,2.797C158.58,55.034,157.88,54.51,157.88,52.238 M160.676,57.479
	h0.699v-8.211h-0.699v0.873c-0.175-0.522-0.698-1.048-1.573-1.048c-1.397,0-1.921,1.048-1.921,3.145
	c0,2.271,0.698,3.319,1.921,3.319c0.875,0,1.397-0.522,1.573-1.048V57.479z"/>
<path fill="#496978" d="M162.598,53.812c0,1.224,0.7,1.746,1.573,1.746c0.698,0,1.223-0.349,1.572-1.048v0.874h0.698v-6.115h-0.698
	v4.019c0,1.048-0.524,1.748-1.397,1.748c-0.7,0-1.048-0.524-1.048-1.397V49.27h-0.7"/>
<path fill="#496978" d="M168.363,51.714c0-1.572,0.35-2.096,1.223-2.096c0.875,0,1.223,0.522,1.397,2.096 M170.983,53.286
	c-0.175,1.224-0.698,1.748-1.397,1.748c-0.698,0-1.223-0.7-1.223-2.447v-0.173h3.32v-0.352c0-2.097-0.7-2.97-2.097-2.97
	c-1.223,0-2.096,1.048-2.096,3.145c0,2.446,0.873,3.319,2.096,3.319s1.922-0.873,2.097-2.271H170.983z"/>
<rect x="175.526" y="47.172" fill="#496978" width="0.875" height="8.212"/>
<polyline fill="#496978" points="177.624,55.384 178.497,55.384 178.497,48.219 181.642,55.384 182.689,55.384 182.689,47.172 
	181.816,47.172 181.816,54.334 178.671,47.172 177.624,47.172 "/>
<path fill="#496978" d="M188.28,51.714v0.175c0,2.098-0.698,2.971-1.746,2.971c-1.225,0-1.922-0.873-1.922-3.67
	c0-2.62,0.698-3.668,1.922-3.668c1.048,0,1.571,0.873,1.571,1.922h0.875c-0.175-1.396-0.875-2.446-2.445-2.446
	c-1.748,0-2.622,1.223-2.622,4.192c0,2.971,0.875,4.368,2.622,4.368c0.873,0,1.571-0.698,1.746-1.571v1.397h0.7V51.19h-2.621v0.524"
	/>
<path fill="#496978" d="M193.347,55.384h0.698v-1.225h-0.698 M193.347,50.841h0.698v-1.223h-0.698V50.841z"/>
<path fill="#496978" d="M198.065,55.384h2.271c1.573,0,2.621-0.874,2.621-2.272c0-1.048-0.523-1.922-1.573-2.096
	c0.875-0.175,1.224-1.049,1.224-1.922c0-1.223-0.524-1.922-2.272-1.922h-2.271 M198.938,51.364h1.397
	c1.223,0,1.922,0.524,1.922,1.747c0,1.049-0.7,1.573-1.922,1.573h-1.397V51.364z M198.938,47.696h1.223
	c1.223,0,1.748,0.351,1.748,1.572c0,0.873-0.525,1.397-1.922,1.397h-1.048L198.938,47.696L198.938,47.696z"/>
<polyline fill="#496978" points="204.005,55.384 208.198,55.384 208.198,54.685 204.703,54.685 204.703,51.364 207.848,51.364 
	207.848,50.666 204.703,50.666 204.703,47.696 208.023,47.696 208.023,47.172 204.005,47.172 "/>
<path fill="#496978" d="M209.596,47.347l-0.524,4.192h0.699c0.35-0.698,0.873-1.048,1.398-1.048c1.223,0,1.746,1.048,1.746,2.096
	c0,1.572-0.699,2.447-1.746,2.447c-0.875,0-1.398-0.875-1.398-1.748h-0.875c0,1.397,0.875,2.271,2.271,2.271
	c1.572,0,2.445-1.224,2.445-2.796c0-1.921-0.873-2.795-2.271-2.795c-0.524,0-1.223,0.175-1.572,0.874l0.35-2.97h3.145v-0.524"/>
<path fill="#496978" d="M216.234,51.364h0.523c1.049,0,1.748,0.699,1.748,1.747c0,1.398-0.875,1.924-1.748,1.924
	c-1.047,0-1.571-0.875-1.571-1.924h-0.7c0,1.573,0.875,2.446,2.271,2.446c1.574,0,2.445-1.048,2.445-2.446
	c0-1.048-0.697-1.922-1.572-2.096c0.875-0.175,1.224-0.874,1.224-1.747c0-1.396-0.698-2.097-2.097-2.097
	c-1.397,0-2.096,0.874-2.096,2.271h0.699c0-1.225,0.698-1.747,1.396-1.747c0.873,0,1.397,0.698,1.397,1.572
	c0,1.048-0.524,1.572-1.571,1.572h-0.351"/>
<path fill="#496978" d="M224.621,51.364h0.523c1.048,0,1.748,0.699,1.748,1.747c0,1.398-0.875,1.924-1.748,1.924
	c-1.048,0-1.572-0.875-1.572-1.924h-0.697c0,1.573,0.873,2.446,2.271,2.446c1.573,0,2.446-1.048,2.446-2.446
	c0-1.048-0.698-1.922-1.573-2.096c0.875-0.175,1.224-0.874,1.224-1.747c0-1.396-0.699-2.097-2.097-2.097s-2.097,0.874-2.097,2.271
	h0.699c0-1.225,0.699-1.747,1.397-1.747c0.873,0,1.397,0.698,1.397,1.572c0,1.048-0.524,1.572-1.572,1.572h-0.35"/>
<path fill="#496978" d="M229.337,52.762c0-1.048,0.35-2.096,1.572-2.096c1.049,0,1.572,1.048,1.572,2.096
	c0,1.225-0.523,2.272-1.572,2.272C229.688,55.034,229.337,53.986,229.337,52.762 M233.007,49.094c0-1.048-0.7-1.922-2.098-1.922
	c-1.922,0-2.445,1.747-2.445,4.367s0.522,4.019,2.445,4.019c1.572,0,2.272-1.224,2.272-2.796s-0.7-2.62-2.097-2.62
	c-0.873,0-1.573,0.524-1.922,1.397c0.174-2.795,0.699-3.844,1.748-3.844c0.873,0,1.396,0.522,1.396,1.397L233.007,49.094
	L233.007,49.094z"/>
<path fill="#496978" d="M235.803,51.364h0.522c1.049,0,1.748,0.699,1.748,1.747c0,1.398-0.873,1.924-1.748,1.924
	c-1.048,0-1.572-0.875-1.572-1.924h-0.697c0,1.573,0.873,2.446,2.271,2.446c1.572,0,2.446-1.048,2.446-2.446
	c0-1.048-0.698-1.922-1.571-2.096c0.873-0.175,1.223-0.874,1.223-1.747c0-1.396-0.699-2.097-2.098-2.097
	c-1.396,0-2.096,0.874-2.096,2.271h0.698c0-1.225,0.698-1.747,1.397-1.747c0.875,0,1.397,0.698,1.397,1.572
	c0,1.048-0.522,1.572-1.573,1.572h-0.348"/>
<path fill="#496978" d="M239.646,51.364c0,2.447,0.525,4.193,2.445,4.193c1.748,0,2.272-1.746,2.272-4.193
	c0-2.444-0.524-4.191-2.272-4.191C240.169,47.172,239.646,48.919,239.646,51.364 M240.519,51.364c0-2.619,0.35-3.668,1.572-3.668
	c1.05,0,1.572,1.049,1.572,3.668c0,2.622-0.522,3.671-1.572,3.671C240.869,55.034,240.519,53.986,240.519,51.364z"/>
<path fill="#496978" d="M248.556,52.587l2.621-4.192v4.192 M251.177,55.384h0.699v-2.098h0.873v-0.699h-0.873v-5.415h-0.699
	l-3.146,5.415v0.699h3.146V55.384z"/>
<path fill="#496978" d="M255.371,51.364h0.523c1.048,0,1.748,0.699,1.748,1.747c0,1.398-0.875,1.924-1.748,1.924
	c-1.048,0-1.572-0.875-1.572-1.924h-0.699c0,1.573,0.875,2.446,2.271,2.446c1.572,0,2.445-1.048,2.445-2.446
	c0-1.048-0.697-1.922-1.572-2.096c0.875-0.175,1.223-0.874,1.223-1.747c0-1.396-0.697-2.097-2.096-2.097
	c-1.396,0-2.098,0.874-2.098,2.271h0.701c0-1.225,0.697-1.747,1.396-1.747c0.873,0,1.398,0.698,1.398,1.572
	c0,1.048-0.525,1.572-1.573,1.572h-0.351"/>
<path fill="#496978" d="M260.96,51.364h0.524c1.048,0,1.747,0.699,1.747,1.747c0,1.398-0.875,1.924-1.747,1.924
	c-1.048,0-1.573-0.875-1.573-1.924h-0.697c0,1.573,0.873,2.446,2.271,2.446c1.572,0,2.445-1.048,2.445-2.446
	c0-1.048-0.698-1.922-1.573-2.096c0.875-0.175,1.225-0.874,1.225-1.747c0-1.396-0.699-2.097-2.097-2.097s-2.096,0.874-2.096,2.271
	h0.698c0-1.225,0.699-1.747,1.397-1.747c0.873,0,1.397,0.698,1.397,1.572c0,1.048-0.525,1.572-1.573,1.572h-0.351"/>
<path fill="#496978" d="M265.853,49.269c0-0.874,0.35-1.572,1.396-1.572c0.875,0,1.224,0.698,1.224,1.572
	c0,0.873-0.349,1.397-1.224,1.397C266.203,50.666,265.853,50.142,265.853,49.269 M264.805,53.111c0,1.573,1.048,2.446,2.444,2.446
	c1.224,0,2.272-0.873,2.272-2.446c0-1.048-0.524-1.922-1.571-2.096c0.872-0.175,1.223-1.049,1.223-1.747
	c0-1.396-0.875-2.097-1.922-2.097c-1.224,0-2.097,0.699-2.097,2.097c0,0.698,0.349,1.572,1.224,1.747
	C265.328,51.189,264.805,52.063,264.805,53.111z M265.678,53.111c0-1.048,0.524-1.747,1.571-1.747c1.049,0,1.573,0.699,1.573,1.747
	c0,1.049-0.524,1.924-1.573,1.924C266.203,55.034,265.678,54.159,265.678,53.111z"/>
<path fill="#496978" d="M273.89,49.792c0-1.048,0.523-2.097,1.57-2.097c1.225,0,1.574,1.049,1.574,2.097
	c0,1.049-0.35,2.097-1.574,2.097C274.414,51.889,273.89,50.841,273.89,49.792 M273.365,53.637c0,1.048,0.698,1.921,2.096,1.921
	c1.922,0,2.447-1.746,2.447-4.368c0-2.62-0.525-4.018-2.447-4.018c-1.57,0-2.271,1.223-2.271,2.795s0.7,2.62,2.097,2.62
	c0.873,0,1.573-0.523,1.922-1.397c0,2.797-0.699,3.846-1.748,3.846c-0.873,0-1.224-0.7-1.397-1.397L273.365,53.637L273.365,53.637z"
	/>
<path fill="#496978" d="M279.306,52.587l2.619-4.192v4.192 M281.925,55.384h0.701v-2.098h0.871v-0.699h-0.871v-5.415h-0.701
	l-3.145,5.415v0.699h3.145V55.384z"/>
<path fill="#496978" d="M285.071,47.347l-0.524,4.192h0.699c0.351-0.698,0.873-1.048,1.397-1.048c1.224,0,1.747,1.048,1.747,2.096
	c0,1.572-0.699,2.447-1.747,2.447c-0.874,0-1.397-0.875-1.397-1.748h-0.875c0,1.397,0.875,2.271,2.272,2.271
	c1.571,0,2.444-1.224,2.444-2.796c0-1.921-0.873-2.795-2.271-2.795c-0.524,0-1.223,0.175-1.571,0.874l0.35-2.97h3.145v-0.524"/>
<path fill="#496978" d="M291.71,51.364h0.523c1.048,0,1.572,0.699,1.572,1.747c0,1.398-0.699,1.924-1.572,1.924
	c-1.048,0-1.572-0.875-1.572-1.924h-0.697c0,1.573,0.873,2.446,2.271,2.446c1.572,0,2.445-1.048,2.445-2.446
	c0-1.048-0.698-1.922-1.572-2.096c0.874-0.175,1.224-0.874,1.224-1.747c0-1.396-0.699-2.097-2.097-2.097s-2.098,0.874-2.098,2.271
	h0.7c0-1.225,0.697-1.747,1.396-1.747c0.873,0,1.396,0.698,1.396,1.572c0,1.048-0.523,1.572-1.571,1.572h-0.351"/>
<rect x="298.524" y="51.714" fill="#496978" width="2.62" height="0.7"/>
<path fill="#496978" d="M305.164,55.384h2.271c1.571,0,2.62-0.874,2.62-2.272c0-1.048-0.524-1.922-1.572-2.096
	c0.873-0.175,1.223-1.049,1.223-1.922c0-1.223-0.523-1.922-2.097-1.922h-2.444 M306.035,51.364h1.399
	c1.223,0,1.921,0.524,1.921,1.747c0,1.049-0.698,1.573-1.921,1.573h-1.399V51.364z M306.035,47.696h1.226
	c1.223,0,1.745,0.351,1.745,1.572c0,0.873-0.522,1.397-1.92,1.397h-1.051V47.696L306.035,47.696z"/>
<rect x="311.103" y="47.172" fill="#496978" width="0.7" height="8.212"/>
<path fill="#496978" d="M317.566,52.587c-0.174,1.398-0.697,2.271-1.746,2.271c-1.223,0-1.922-0.873-1.922-3.67
	c0-2.62,0.699-3.668,1.922-3.668c1.049,0,1.572,0.873,1.572,1.922h0.697c0-1.225-0.697-2.446-2.271-2.446
	c-1.747,0-2.621,1.223-2.621,4.192c0,2.971,0.874,4.368,2.621,4.368c1.397,0,2.271-1.048,2.445-2.971"/>
<path fill="#496978" d="M322.458,55.384h0.699v-1.225h-0.699 M322.458,50.841h0.699v-1.223h-0.699V50.841z"/>
<path fill="#496978" d="M327.177,55.384h2.271c1.572,0,2.622-0.874,2.622-2.272c0-1.048-0.525-1.922-1.572-2.096
	c0.873-0.175,1.223-1.049,1.223-1.922c0-1.223-0.699-1.922-2.271-1.922h-2.271 M327.875,51.364h1.398
	c1.396,0,1.921,0.524,1.921,1.747c0,1.049-0.524,1.573-1.921,1.573h-1.398V51.364z M327.875,47.696h1.398
	c1.223,0,1.746,0.351,1.746,1.572c0,0.873-0.698,1.397-1.921,1.397h-1.224V47.696L327.875,47.696z"/>
<path fill="#496978" d="M332.942,55.384h2.445c1.571,0,2.446-0.874,2.446-2.272c0-1.048-0.524-1.922-1.572-2.096
	c0.873-0.175,1.223-1.049,1.223-1.922c0-1.223-0.523-1.922-2.097-1.922h-2.445 M333.814,51.364h1.398
	c1.224,0,1.922,0.524,1.922,1.747c0,1.049-0.698,1.573-1.922,1.573h-1.398V51.364z M333.814,47.696h1.225
	c1.224,0,1.746,0.351,1.746,1.572c0,0.873-0.522,1.397-1.921,1.397h-1.05V47.696L333.814,47.696z"/>
<path fill="#496978" d="M339.58,47.696h1.398c1.398,0,1.747,0.698,1.747,1.572c0,1.223-0.698,1.747-1.921,1.747h-1.225
	 M338.882,55.384h0.697v-3.845h1.398c1.398,0,1.572,0.523,1.747,1.923v0.697c0,0.524,0,0.875,0.175,1.225h0.873
	c-0.35-0.35-0.35-0.699-0.35-1.225v-0.873c0-1.224-0.35-1.923-1.396-1.923c1.049-0.349,1.396-1.223,1.396-2.271
	c0-1.223-0.698-1.922-2.096-1.922h-2.447v8.213H338.882z"/>
<path fill="#496978" d="M344.647,53.111c0,1.748,0.873,2.446,2.271,2.446c1.574,0,2.447-0.698,2.447-2.446v-5.938h-0.699v5.938
	c0,1.224-0.524,1.748-1.748,1.748c-1.047,0-1.571-0.524-1.571-1.748v-5.938h-0.698"/>
<path fill="#496978" d="M350.587,55.384h2.271c1.573,0,2.447-0.874,2.447-2.272c0-1.048-0.523-1.922-1.572-2.096
	c0.873-0.175,1.396-1.049,1.396-1.922c0-1.223-0.698-1.922-2.271-1.922h-2.271 M351.287,51.364h1.396
	c1.225,0,1.923,0.524,1.923,1.747c0,1.049-0.698,1.573-1.923,1.573h-1.396V51.364z M351.287,47.696h1.396
	c1.05,0,1.748,0.351,1.748,1.572c0,0.873-0.698,1.397-1.924,1.397h-1.223v-2.97H351.287z"/>
<polyline fill="#496978" points="356.354,55.384 360.546,55.384 360.546,54.685 357.052,54.685 357.052,51.364 360.371,51.364 
	360.371,50.666 357.052,50.666 357.052,47.696 360.546,47.696 360.546,47.172 356.354,47.172 "/>
<path fill="#496978" d="M361.595,55.384h2.271c1.571,0,2.444-0.874,2.444-2.272c0-1.048-0.524-1.922-1.572-2.096
	c0.873-0.175,1.397-1.049,1.397-1.922c0-1.223-0.698-1.922-2.271-1.922h-2.271 M362.294,51.364h1.396
	c1.223,0,1.921,0.524,1.921,1.747c0,1.049-0.698,1.573-1.921,1.573h-1.396V51.364z M362.294,47.696h1.396
	c1.048,0,1.572,0.351,1.572,1.572c0,0.873-0.524,1.397-1.747,1.397h-1.224v-2.97H362.294z"/>
<path fill="#496978" d="M367.359,55.384h2.271c1.572,0,2.621-0.874,2.621-2.272c0-1.048-0.524-1.922-1.572-2.096
	c0.873-0.175,1.223-1.049,1.223-1.922c0-1.223-0.697-1.922-2.271-1.922h-2.271 M368.06,51.364h1.396
	c1.397,0,1.922,0.524,1.922,1.747c0,1.049-0.523,1.573-1.922,1.573h-1.396V51.364z M368.06,47.696h1.396
	c1.224,0,1.748,0.351,1.748,1.572c0,0.873-0.699,1.397-1.922,1.397h-1.224L368.06,47.696L368.06,47.696z"/>
<polyline fill="#F49848" points="409.99,15.898 409.99,25.333 400.729,20.615 "/>
<g>
	<g>
		<defs>
			<rect id="SVGID_1_" x="383.958" y="0" width="29.002" height="41.581"/>
		</defs>
		<clipPath id="SVGID_2_">
			<use xlink:href="#SVGID_1_"  overflow="visible"/>
		</clipPath>
		<polyline clip-path="url(#SVGID_2_)" fill="#496978" points="383.958,20.615 424.666,41.231 424.666,36.165 393.916,20.615 
			424.666,5.066 424.666,0 		"/>
	</g>
</g>
<g>
	<g>
		<path fill="#496978" d="M48.604,41.73v-8.306h2.514c0.785,0,1.373,0.34,1.764,1.021c0.214,0.369,0.32,0.756,0.32,1.162
			c0,0.489-0.105,0.938-0.315,1.343c-0.229,0.445-0.604,0.73-1.124,0.855l1.41,3.925h-0.798l-1.36-3.794h-1.681v3.794H48.604z
			 M49.334,37.256h1.853c0.345,0,0.639-0.12,0.882-0.361c0.27-0.267,0.404-0.684,0.404-1.25c0-0.753-0.365-1.235-1.094-1.447
			c-0.217-0.062-0.454-0.094-0.71-0.094h-1.335V37.256z"/>
		<path fill="#496978" d="M53.962,40.255v-4.309h0.65v4.309c0,0.274,0.088,0.496,0.264,0.666c0.175,0.17,0.365,0.255,0.569,0.255
			c0.486,0,0.99-0.316,1.513-0.948v-4.281h0.651v5.783h-0.651v-0.954c-0.467,0.508-0.866,0.818-1.198,0.932
			c-0.161,0.056-0.328,0.083-0.502,0.083c-0.378,0-0.688-0.128-0.932-0.384C54.083,41.151,53.962,40.767,53.962,40.255z"/>
		<path fill="#496978" d="M59.013,40.918c-0.162-0.267-0.283-0.564-0.368-0.894c-0.083-0.329-0.125-0.674-0.125-1.036
			c0-0.361,0.023-0.691,0.069-0.989c0.046-0.298,0.107-0.551,0.183-0.76c0.076-0.208,0.167-0.394,0.276-0.556
			c0.108-0.163,0.22-0.294,0.335-0.393c0.115-0.099,0.24-0.179,0.375-0.241c0.233-0.109,0.455-0.164,0.665-0.164
			s0.389,0.021,0.537,0.062s0.307,0.128,0.476,0.258s0.315,0.301,0.437,0.513c0.282,0.497,0.424,1.229,0.424,2.198H59.17
			c0,0.976,0.222,1.641,0.666,1.995c0.22,0.176,0.465,0.264,0.734,0.264c0.506,0,0.937-0.349,1.291-1.047l0.449,0.345
			c-0.128,0.264-0.296,0.501-0.502,0.713c-0.395,0.402-0.784,0.604-1.168,0.604c-0.385,0-0.711-0.079-0.98-0.236
			S59.174,41.185,59.013,40.918z M59.2,38.303h2.445c0-0.544-0.114-0.995-0.341-1.354c-0.19-0.3-0.461-0.449-0.813-0.449
			c-0.575,0-0.959,0.296-1.153,0.888C59.246,37.665,59.2,37.971,59.2,38.303z"/>
		<path fill="#496978" d="M65.804,39.293c-0.062-0.283-0.107-0.567-0.135-0.853s-0.042-0.606-0.042-0.962
			c0-0.356,0.029-0.731,0.086-1.124s0.153-0.775,0.288-1.146c0.135-0.371,0.303-0.693,0.502-0.968
			c0.201-0.274,0.453-0.494,0.757-0.661c0.304-0.166,0.613-0.249,0.929-0.249c0.315,0,0.583,0.045,0.806,0.135
			c0.222,0.089,0.408,0.205,0.559,0.348c0.151,0.143,0.289,0.301,0.414,0.475c0.125,0.173,0.223,0.348,0.295,0.523
			c0.151,0.361,0.245,0.636,0.281,0.822l0.029,0.131v0.006l-0.749,0.225c-0.053-0.416-0.119-0.721-0.2-0.912
			c-0.081-0.192-0.161-0.35-0.241-0.472c-0.081-0.123-0.17-0.226-0.269-0.31c-0.233-0.194-0.513-0.291-0.838-0.291
			c-1.281,0-1.922,1.186-1.922,3.558c0,1.017,0.134,1.846,0.404,2.489c0.306,0.72,0.812,1.08,1.518,1.08
			c0.579,0,1.028-0.253,1.351-0.757c0.223-0.354,0.334-0.751,0.334-1.189l0.72,0.126c-0.013,0.04-0.043,0.139-0.091,0.296
			c-0.048,0.157-0.088,0.285-0.121,0.384c-0.033,0.099-0.086,0.233-0.161,0.403c-0.074,0.17-0.148,0.312-0.222,0.425
			s-0.172,0.238-0.296,0.375c-0.123,0.138-0.253,0.246-0.391,0.326c-0.333,0.194-0.672,0.291-1.021,0.291s-0.642-0.044-0.879-0.132
			c-0.239-0.088-0.446-0.207-0.624-0.359c-0.177-0.151-0.337-0.334-0.48-0.548s-0.262-0.444-0.357-0.69
			C65.946,39.841,65.867,39.576,65.804,39.293z"/>
		<path fill="#496978" d="M71.374,40.318c0-0.261,0.029-0.489,0.088-0.685s0.152-0.369,0.278-0.521
			c0.126-0.151,0.271-0.285,0.431-0.402c0.161-0.117,0.361-0.223,0.601-0.318c0.438-0.172,0.971-0.327,1.602-0.466
			c0-0.577-0.1-0.963-0.301-1.156c-0.177-0.172-0.436-0.258-0.773-0.258c-0.414,0-0.771,0.175-1.069,0.526
			c-0.128,0.143-0.217,0.271-0.267,0.384l-0.468-0.346c0.368-0.786,0.994-1.179,1.878-1.179c0.792,0,1.297,0.338,1.518,1.015
			c0.088,0.273,0.133,0.606,0.133,0.997v3.01c0,0.106,0.018,0.25,0.054,0.434c0.036,0.183,0.069,0.309,0.099,0.378h-0.655
			c-0.099-0.055-0.148-0.362-0.148-0.921c-0.463,0.661-0.974,0.992-1.532,0.992c-0.618,0-1.047-0.241-1.287-0.724
			C71.434,40.832,71.374,40.579,71.374,40.318z M72.147,39.691c-0.082,0.168-0.123,0.387-0.123,0.657s0.085,0.479,0.256,0.622
			c0.171,0.145,0.36,0.217,0.569,0.217c0.208,0,0.392-0.034,0.552-0.104c0.159-0.069,0.305-0.158,0.436-0.269
			c0.24-0.2,0.419-0.38,0.537-0.537v-1.737c-0.624,0.179-0.994,0.288-1.109,0.329C72.687,39.076,72.314,39.351,72.147,39.691z"/>
		<path fill="#496978" d="M76.228,41.73v-8.306h0.651v3.471c0.486-0.516,0.885-0.826,1.197-0.932
			c0.161-0.052,0.328-0.077,0.502-0.077c0.378,0,0.688,0.128,0.931,0.384c0.244,0.256,0.365,0.64,0.365,1.151v4.309h-0.65v-4.309
			c0-0.274-0.088-0.496-0.264-0.666c-0.176-0.17-0.366-0.255-0.569-0.255c-0.486,0-0.991,0.315-1.513,0.948v4.281H76.228z"/>
		<path fill="#496978" d="M80.786,38.799c0-0.882,0.178-1.588,0.535-2.118c0.356-0.53,0.855-0.795,1.496-0.795
			s1.138,0.267,1.491,0.8c0.353,0.534,0.53,1.247,0.53,2.139s-0.178,1.609-0.535,2.154c-0.356,0.544-0.852,0.816-1.486,0.816
			c-0.647,0-1.15-0.281-1.508-0.844C80.96,40.4,80.786,39.682,80.786,38.799z M81.437,38.835c0,1.158,0.271,1.894,0.813,2.204
			c0.165,0.095,0.353,0.143,0.567,0.143c0.213,0,0.403-0.048,0.569-0.143c0.166-0.096,0.298-0.218,0.396-0.367
			c0.099-0.15,0.179-0.331,0.242-0.543c0.108-0.369,0.163-0.799,0.163-1.288c0-1.561-0.458-2.341-1.375-2.341
			C81.895,36.5,81.437,37.279,81.437,38.835z"/>
		<path fill="#496978" d="M85.798,41.73v-5.783h0.65v1.557c0.154-0.38,0.272-0.642,0.354-0.784c0.322-0.556,0.739-0.833,1.252-0.833
			c0.04,0,0.099,0.004,0.177,0.011v0.614c-0.223,0.033-0.409,0.079-0.557,0.14c-0.148,0.061-0.292,0.156-0.434,0.288
			c-0.246,0.227-0.511,0.678-0.793,1.354v3.438H85.798z"/>
		<path fill="#496978" d="M92.012,40.82c-0.335,0.646-0.801,0.971-1.399,0.971c-0.299,0-0.572-0.083-0.818-0.25
			c-0.246-0.166-0.445-0.387-0.596-0.66c-0.315-0.574-0.473-1.223-0.473-1.946c0-0.537,0.078-1.036,0.234-1.496
			c0.156-0.461,0.385-0.835,0.687-1.121c0.302-0.287,0.625-0.431,0.968-0.431c0.344,0,0.646,0.099,0.91,0.296
			c0.263,0.197,0.425,0.371,0.488,0.521v-3.278h0.651v7.505c0,0.11,0.014,0.253,0.042,0.431s0.057,0.301,0.086,0.37h-0.656
			C92.053,41.686,92.012,41.382,92.012,40.82z M89.375,38.934c0,0.646,0.104,1.177,0.311,1.59c0.217,0.435,0.561,0.652,1.03,0.652
			c0.312,0,0.569-0.099,0.769-0.296c0.161-0.157,0.336-0.382,0.527-0.675v-2.878c-0.348-0.552-0.737-0.827-1.168-0.827
			C89.865,36.5,89.375,37.311,89.375,38.934z"/>
		<path fill="#496978" d="M93.56,40.318c0-0.261,0.029-0.489,0.089-0.685c0.059-0.195,0.151-0.369,0.278-0.521
			c0.126-0.151,0.27-0.285,0.431-0.402s0.361-0.223,0.601-0.318c0.437-0.172,0.971-0.327,1.602-0.466
			c0-0.577-0.101-0.963-0.301-1.156c-0.177-0.172-0.436-0.258-0.773-0.258c-0.414,0-0.771,0.175-1.07,0.526
			c-0.128,0.143-0.217,0.271-0.266,0.384l-0.468-0.346c0.368-0.786,0.994-1.179,1.878-1.179c0.792,0,1.297,0.338,1.518,1.015
			c0.089,0.273,0.133,0.606,0.133,0.997v3.01c0,0.106,0.018,0.25,0.054,0.434c0.036,0.183,0.069,0.309,0.099,0.378h-0.656
			c-0.099-0.055-0.147-0.362-0.147-0.921c-0.464,0.661-0.975,0.992-1.533,0.992c-0.618,0-1.046-0.241-1.286-0.724
			C93.621,40.832,93.56,40.579,93.56,40.318z M94.333,39.691c-0.082,0.168-0.123,0.387-0.123,0.657s0.085,0.479,0.256,0.622
			c0.171,0.145,0.361,0.217,0.569,0.217s0.393-0.034,0.552-0.104c0.16-0.069,0.305-0.158,0.437-0.269
			c0.24-0.2,0.419-0.38,0.537-0.537v-1.737c-0.625,0.179-0.994,0.288-1.109,0.329C94.874,39.076,94.501,39.351,94.333,39.691z"/>
		<path fill="#496978" d="M99.129,43.799c-0.201,0.057-0.404,0.085-0.611,0.085s-0.409-0.015-0.606-0.044l0.049-0.663
			c0.118,0.062,0.276,0.093,0.473,0.093c0.197,0,0.359-0.028,0.488-0.085c0.128-0.057,0.233-0.13,0.315-0.219
			c0.082-0.09,0.157-0.188,0.224-0.296c0.067-0.108,0.121-0.217,0.16-0.326c0.069-0.205,0.119-0.404,0.148-0.598l-1.868-5.8h0.7
			l1.474,4.709l1.38-4.709h0.66l-1.813,6.134c-0.188,0.625-0.375,1.049-0.562,1.271C99.533,43.594,99.329,43.742,99.129,43.799z"/>
		<path fill="#496978" d="M102.583,43.1l0.429-1.37h-0.32v-0.822h0.739v0.822c-0.089,0.208-0.214,0.486-0.375,0.833
			c-0.161,0.348-0.247,0.526-0.256,0.537H102.583z"/>
		<path fill="#496978" d="M106.93,34.055l1.611-0.631h0.522v7.527h1.084v0.778h-3.016v-0.778h1.202v-6.634l-1.168,0.379
			L106.93,34.055z"/>
		<path fill="#496978" d="M113.302,38.863v-0.614h2.523v0.614H113.302z"/>
		<path fill="#496978" d="M119.014,41.73v-8.306h2.331c0.602,0,1.098,0.191,1.489,0.573c0.391,0.382,0.586,0.854,0.586,1.417
			c0,0.932-0.292,1.527-0.877,1.787c-0.102,0.048-0.228,0.095-0.379,0.143c0.539,0.153,0.943,0.514,1.212,1.08
			c0.145,0.311,0.217,0.663,0.217,1.058c0,0.684-0.192,1.229-0.577,1.637c-0.384,0.407-0.941,0.611-1.671,0.611H119.014z
			 M119.743,37.054h1.602c0.46,0,0.808-0.13,1.045-0.39c0.099-0.105,0.185-0.267,0.259-0.482s0.111-0.472,0.111-0.768
			c0-0.428-0.121-0.753-0.362-0.976c-0.241-0.223-0.592-0.335-1.052-0.335h-1.602V37.054z M119.743,41.05h1.602
			c0.536,0,0.927-0.124,1.173-0.373c0.105-0.105,0.195-0.261,0.271-0.466c0.075-0.205,0.113-0.447,0.113-0.729
			c0-0.519-0.143-0.938-0.429-1.255c-0.285-0.318-0.662-0.477-1.128-0.477h-1.602V41.05z"/>
		<path fill="#496978" d="M123.927,38.863v-0.614h2.523v0.614H123.927z"/>
		<path fill="#496978" d="M127.082,39.592v-0.658l3.233-5.51h0.877v5.488h1.138v0.68h-1.138v2.138h-0.729v-2.138H127.082z
			 M127.826,38.912h2.636v-4.528L127.826,38.912z"/>
		<path fill="#496978" d="M137.884,39.11c0,0.519-0.12,1.007-0.36,1.463c-0.266,0.501-0.63,0.852-1.094,1.053
			c-0.25,0.109-0.522,0.165-0.817,0.165c-0.736,0-1.315-0.332-1.737-0.995c-0.422-0.663-0.633-1.591-0.633-2.782
			c0-1.454,0.259-2.582,0.778-3.383c0.519-0.8,1.235-1.2,2.149-1.2c0.23,0,0.48,0.059,0.749,0.176
			c0.27,0.116,0.454,0.243,0.552,0.378l-0.286,0.587c-0.388-0.308-0.757-0.461-1.109-0.461c-0.601,0-1.102,0.309-1.503,0.927
			c-0.4,0.617-0.623,1.489-0.665,2.614c0.003-0.003,0.024-0.036,0.062-0.099c0.038-0.062,0.071-0.113,0.099-0.153
			c0.028-0.04,0.072-0.097,0.133-0.17c0.061-0.073,0.121-0.136,0.18-0.188c0.059-0.054,0.134-0.111,0.225-0.173
			c0.09-0.062,0.183-0.113,0.278-0.153c0.229-0.092,0.475-0.138,0.734-0.138c0.667,0,1.211,0.231,1.634,0.693
			C137.673,37.733,137.884,38.346,137.884,39.11z M137.154,39.104c0-0.57-0.139-1.021-0.419-1.352
			c-0.279-0.33-0.652-0.496-1.119-0.496c-0.509,0-0.917,0.21-1.222,0.631c-0.181,0.248-0.315,0.588-0.404,1.02
			c0.073,1.118,0.434,1.816,1.084,2.094c0.171,0.073,0.338,0.11,0.503,0.11c0.164,0,0.315-0.022,0.454-0.066
			c0.138-0.044,0.275-0.117,0.411-0.219c0.136-0.103,0.257-0.227,0.362-0.373C137.038,40.123,137.154,39.674,137.154,39.104z"/>
		<path fill="#496978" d="M138.869,34.187v-0.763h4.303v0.773l-2.922,7.532h-0.808l2.991-7.543H138.869z"/>
		<path fill="#496978" d="M143.818,34.055l1.611-0.631h0.523v7.527h1.084v0.778h-3.016v-0.778h1.203v-6.634l-1.168,0.379
			L143.818,34.055z"/>
		<path fill="#496978" d="M150.387,39.712l0.675-0.263c0.004,0,0.011,0.031,0.022,0.093c0.011,0.062,0.033,0.143,0.064,0.241
			c0.032,0.099,0.073,0.208,0.125,0.329c0.053,0.12,0.127,0.241,0.225,0.361c0.097,0.121,0.209,0.23,0.337,0.329
			c0.283,0.223,0.656,0.335,1.119,0.335c0.463,0,0.808-0.141,1.035-0.423c0.227-0.281,0.34-0.627,0.34-1.038
			s-0.071-0.735-0.214-0.971c-0.143-0.235-0.394-0.436-0.752-0.601c-0.105-0.047-0.243-0.104-0.414-0.17l-0.468-0.181
			c-0.812-0.3-1.357-0.684-1.636-1.151c-0.194-0.325-0.291-0.705-0.291-1.14c0-0.516,0.184-0.996,0.552-1.442
			c0.174-0.204,0.396-0.371,0.665-0.499s0.553-0.191,0.85-0.191s0.56,0.045,0.789,0.135c0.229,0.089,0.412,0.199,0.552,0.331
			c0.14,0.132,0.266,0.283,0.377,0.455c0.112,0.172,0.192,0.325,0.242,0.461l0.143,0.405c0.042,0.128,0.069,0.203,0.079,0.225
			l-0.641,0.274c-0.006-0.019-0.022-0.076-0.046-0.173c-0.025-0.097-0.046-0.177-0.064-0.238c-0.018-0.062-0.049-0.148-0.094-0.258
			s-0.09-0.202-0.138-0.276c-0.047-0.075-0.11-0.157-0.187-0.247s-0.16-0.162-0.249-0.217c-0.217-0.132-0.462-0.197-0.735-0.197
			c-0.404,0-0.732,0.133-0.985,0.397s-0.379,0.617-0.379,1.056c0,0.479,0.111,0.814,0.335,1.009
			c0.122,0.105,0.224,0.183,0.308,0.229c0.083,0.048,0.182,0.095,0.295,0.14c0.114,0.046,0.197,0.081,0.249,0.104
			c0.053,0.023,0.156,0.062,0.311,0.112l0.414,0.143c0.762,0.26,1.286,0.646,1.572,1.157c0.193,0.347,0.291,0.767,0.291,1.261
			c0,0.357-0.102,0.732-0.305,1.123c-0.253,0.497-0.638,0.826-1.154,0.987c-0.193,0.059-0.419,0.088-0.677,0.088
			c-0.258,0-0.512-0.039-0.762-0.115c-0.25-0.077-0.459-0.178-0.628-0.302c-0.169-0.124-0.322-0.262-0.459-0.411
			c-0.136-0.149-0.245-0.3-0.327-0.449c-0.151-0.274-0.258-0.512-0.32-0.713L150.387,39.712z"/>
		<path fill="#496978" d="M155.635,40.318c0-0.261,0.029-0.489,0.089-0.685c0.059-0.195,0.151-0.369,0.278-0.521
			c0.126-0.151,0.27-0.285,0.431-0.402s0.361-0.223,0.601-0.318c0.437-0.172,0.971-0.327,1.602-0.466
			c0-0.577-0.101-0.963-0.301-1.156c-0.177-0.172-0.435-0.258-0.773-0.258c-0.414,0-0.771,0.175-1.07,0.526
			c-0.128,0.143-0.217,0.271-0.266,0.384l-0.468-0.346c0.368-0.786,0.994-1.179,1.878-1.179c0.792,0,1.297,0.338,1.518,1.015
			c0.089,0.273,0.133,0.606,0.133,0.997v3.01c0,0.106,0.018,0.25,0.054,0.434c0.036,0.183,0.069,0.309,0.099,0.378h-0.656
			c-0.099-0.055-0.147-0.362-0.147-0.921c-0.464,0.661-0.975,0.992-1.533,0.992c-0.618,0-1.046-0.241-1.286-0.724
			C155.696,40.832,155.635,40.579,155.635,40.318z M156.409,39.691c-0.082,0.168-0.123,0.387-0.123,0.657s0.085,0.479,0.256,0.622
			c0.171,0.145,0.361,0.217,0.569,0.217s0.393-0.034,0.552-0.104c0.16-0.069,0.305-0.158,0.437-0.269
			c0.24-0.2,0.419-0.38,0.537-0.537v-1.737c-0.625,0.179-0.994,0.288-1.109,0.329C156.949,39.076,156.577,39.351,156.409,39.691z"/>
		<path fill="#496978" d="M160.445,35.217v-0.822h0.739v0.822H160.445z M160.49,41.73v-5.783h0.65v5.783H160.49z"/>
		<path fill="#496978" d="M162.032,35.947h0.68l1.37,4.982h0.094l1.37-4.982h0.68l-1.597,5.783h-1L162.032,35.947z"/>
		<path fill="#496978" d="M167.212,40.918c-0.161-0.267-0.283-0.564-0.367-0.894c-0.083-0.329-0.126-0.674-0.126-1.036
			c0-0.361,0.023-0.691,0.069-0.989c0.046-0.298,0.107-0.551,0.182-0.76c0.076-0.208,0.167-0.394,0.276-0.556
			c0.109-0.163,0.22-0.294,0.335-0.393s0.24-0.179,0.375-0.241c0.233-0.109,0.455-0.164,0.665-0.164c0.21,0,0.389,0.021,0.537,0.062
			c0.148,0.042,0.307,0.128,0.476,0.258c0.169,0.13,0.315,0.301,0.437,0.513c0.282,0.497,0.424,1.229,0.424,2.198h-3.125
			c0,0.976,0.222,1.641,0.665,1.995c0.22,0.176,0.465,0.264,0.734,0.264c0.506,0,0.937-0.349,1.291-1.047l0.449,0.345
			c-0.128,0.264-0.295,0.501-0.502,0.713c-0.395,0.402-0.784,0.604-1.168,0.604c-0.385,0-0.711-0.079-0.981-0.236
			S167.373,41.185,167.212,40.918z M167.399,38.303h2.445c0-0.544-0.114-0.995-0.34-1.354c-0.19-0.3-0.461-0.449-0.813-0.449
			c-0.574,0-0.959,0.296-1.153,0.888C167.445,37.665,167.399,37.971,167.399,38.303z"/>
	</g>
</g>
<g>
	<g>
		<path fill="#496978" d="M202.041,38.362v-0.673h1.376v-1.602h0.579v1.602h1.371v0.673h-1.371v1.602h-0.579v-1.602H202.041z"/>
		<path fill="#496978" d="M206.002,40.591l0.442-0.444c0.146,0.256,0.385,0.504,0.715,0.745c0.31,0.221,0.648,0.332,1.019,0.332
			c0.369,0,0.7-0.136,0.992-0.406s0.438-0.645,0.438-1.122s-0.126-0.866-0.377-1.165c-0.251-0.3-0.584-0.449-0.999-0.449h-0.934
			v-0.638h0.934c0.383,0,0.672-0.139,0.868-0.415c0.195-0.277,0.293-0.624,0.293-1.038c0-0.415-0.12-0.743-0.361-0.984
			c-0.241-0.242-0.548-0.362-0.922-0.362c-0.468,0-0.905,0.212-1.311,0.638c-0.082,0.081-0.147,0.158-0.197,0.229l-0.421-0.475
			c0.213-0.286,0.487-0.528,0.824-0.727c0.336-0.199,0.695-0.299,1.08-0.299c0.384,0,0.72,0.087,1.006,0.26
			c0.286,0.174,0.516,0.409,0.689,0.707s0.262,0.618,0.262,0.961c0,0.541-0.146,1.011-0.435,1.408
			c-0.129,0.177-0.258,0.314-0.39,0.413c0.359,0.252,0.622,0.534,0.788,0.847c0.167,0.31,0.25,0.665,0.25,1.066
			c0,0.707-0.195,1.248-0.587,1.622s-0.911,0.561-1.56,0.561C207.275,41.856,206.572,41.434,206.002,40.591z"/>
		<path fill="#496978" d="M211.222,41.8c0-0.459,0.019-0.754,0.057-0.883s0.08-0.262,0.127-0.397c0.047-0.137,0.104-0.26,0.173-0.37
			c0.069-0.11,0.155-0.241,0.259-0.393s0.225-0.3,0.362-0.446c0.336-0.364,0.62-0.646,0.854-0.847l0.806-0.684
			c0.211-0.174,0.356-0.31,0.436-0.408c0.081-0.099,0.153-0.195,0.217-0.291c0.065-0.095,0.113-0.188,0.146-0.28
			c0.082-0.225,0.123-0.455,0.123-0.693c0-0.438-0.107-0.793-0.32-1.062s-0.54-0.402-0.978-0.402c-0.547,0-0.952,0.257-1.218,0.77
			c-0.138,0.272-0.206,0.552-0.206,0.837h-0.648c0-0.425,0.101-0.811,0.304-1.158c0.204-0.347,0.469-0.613,0.796-0.801
			c0.327-0.187,0.668-0.28,1.021-0.28c0.353,0,0.673,0.092,0.96,0.275c0.285,0.184,0.513,0.438,0.684,0.76
			c0.169,0.323,0.254,0.677,0.254,1.062c0,0.384-0.073,0.714-0.22,0.989c-0.16,0.306-0.321,0.541-0.481,0.704
			c-0.161,0.163-0.287,0.287-0.377,0.372l-0.364,0.321c-1.37,1.187-2.056,2.047-2.056,2.581h3.406V41.8H211.222z"/>
		<path fill="#496978" d="M218.645,38.244c0-0.36,0.026-0.73,0.079-1.111s0.121-0.728,0.206-1.038
			c0.085-0.312,0.178-0.612,0.28-0.903c0.103-0.29,0.203-0.543,0.303-0.757c0.207-0.439,0.369-0.752,0.486-0.938l0.079-0.128
			l0.508,0.397c-0.128,0.215-0.274,0.505-0.438,0.87c-0.163,0.365-0.301,0.714-0.411,1.046c-0.111,0.331-0.213,0.735-0.305,1.211
			c-0.093,0.477-0.139,0.936-0.139,1.377c0,0.442,0.044,0.903,0.132,1.383s0.193,0.902,0.315,1.27
			c0.26,0.769,0.49,1.337,0.692,1.704l0.132,0.245l-0.509,0.397c-0.286-0.476-0.571-1.129-0.854-1.959
			C218.831,40.226,218.645,39.203,218.645,38.244z"/>
		<path fill="#496978" d="M221.273,40.147c-0.106-0.34-0.182-0.683-0.224-1.03c-0.043-0.347-0.064-0.713-0.064-1.099
			s0.021-0.759,0.062-1.117c0.041-0.358,0.114-0.716,0.219-1.071c0.105-0.355,0.237-0.662,0.396-0.921
			c0.159-0.258,0.368-0.468,0.627-0.63c0.258-0.161,0.548-0.242,0.869-0.242s0.605,0.08,0.851,0.24
			c0.245,0.159,0.445,0.368,0.599,0.627s0.281,0.564,0.383,0.918c0.179,0.636,0.269,1.372,0.269,2.209
			c0,1.894-0.414,3.093-1.241,3.596c-0.248,0.153-0.532,0.229-0.853,0.229c-0.319,0-0.607-0.076-0.862-0.229
			c-0.256-0.153-0.465-0.353-0.628-0.6C221.514,40.781,221.378,40.488,221.273,40.147z M221.634,38.031
			c0,1.193,0.154,2.049,0.465,2.565c0.245,0.418,0.603,0.628,1.073,0.628c0.518,0,0.884-0.231,1.101-0.694
			c0.137-0.292,0.224-0.604,0.258-0.934c0.053-0.492,0.079-0.953,0.079-1.382s-0.008-0.771-0.021-1.025
			c-0.015-0.255-0.04-0.515-0.077-0.78c-0.036-0.266-0.091-0.498-0.162-0.699c-0.071-0.2-0.159-0.381-0.261-0.54
			c-0.21-0.333-0.516-0.5-0.916-0.5C222.147,34.669,221.634,35.789,221.634,38.031z"/>
		<path fill="#496978" d="M226.012,33.766l0.508-0.397c0.302,0.449,0.591,1.056,0.868,1.821c0.377,1.03,0.565,2.056,0.565,3.075
			c0,0.477-0.049,0.975-0.145,1.495c-0.097,0.52-0.213,0.979-0.351,1.377c-0.286,0.819-0.544,1.441-0.771,1.866l-0.145,0.266
			l-0.509-0.397c0.117-0.204,0.257-0.496,0.419-0.875s0.299-0.74,0.409-1.084c0.111-0.344,0.213-0.759,0.306-1.247
			c0.092-0.488,0.138-0.953,0.138-1.396c0-0.441-0.046-0.9-0.138-1.377c-0.093-0.476-0.194-0.88-0.306-1.211
			c-0.11-0.332-0.238-0.662-0.385-0.992C226.296,34.288,226.14,33.981,226.012,33.766z"/>
		<path fill="#496978" d="M230.806,39.811v-0.612l2.876-5.126h0.779v5.105h1.013v0.633h-1.013V41.8h-0.648v-1.989H230.806z
			 M231.468,39.178h2.345v-4.213L231.468,39.178z"/>
		<path fill="#496978" d="M238.375,40.591l0.442-0.444c0.146,0.256,0.384,0.504,0.714,0.745c0.31,0.221,0.649,0.332,1.019,0.332
			c0.37,0,0.701-0.136,0.993-0.406c0.293-0.271,0.438-0.645,0.438-1.122s-0.125-0.866-0.376-1.165
			c-0.251-0.3-0.584-0.449-0.999-0.449h-0.934v-0.638h0.934c0.383,0,0.672-0.139,0.868-0.415c0.195-0.277,0.293-0.624,0.293-1.038
			c0-0.415-0.121-0.743-0.361-0.984c-0.241-0.242-0.549-0.362-0.923-0.362c-0.467,0-0.904,0.212-1.311,0.638
			c-0.081,0.081-0.146,0.158-0.197,0.229l-0.421-0.475c0.214-0.286,0.488-0.528,0.824-0.727c0.337-0.199,0.696-0.299,1.08-0.299
			c0.385,0,0.72,0.087,1.006,0.26c0.286,0.174,0.517,0.409,0.69,0.707s0.261,0.618,0.261,0.961c0,0.541-0.145,1.011-0.435,1.408
			c-0.128,0.177-0.258,0.314-0.389,0.413c0.358,0.252,0.622,0.534,0.789,0.847c0.166,0.31,0.249,0.665,0.249,1.066
			c0,0.707-0.196,1.248-0.587,1.622c-0.392,0.374-0.912,0.561-1.561,0.561C239.648,41.856,238.945,41.434,238.375,40.591z"/>
		<path fill="#496978" d="M243.648,39.76c0-0.605,0.239-1.128,0.718-1.566c0.234-0.214,0.485-0.381,0.754-0.5
			c-0.354-0.143-0.643-0.363-0.867-0.663c-0.225-0.299-0.338-0.646-0.338-1.043s0.092-0.744,0.273-1.043
			c0.183-0.3,0.423-0.528,0.72-0.687s0.618-0.236,0.966-0.236c0.529,0,0.98,0.182,1.354,0.545c0.373,0.364,0.561,0.813,0.561,1.347
			c0,0.585-0.279,1.092-0.837,1.521c-0.149,0.112-0.309,0.212-0.478,0.301l0.298,0.158c0.532,0.285,0.887,0.619,1.064,1
			c0.129,0.265,0.193,0.553,0.193,0.864s-0.06,0.599-0.178,0.862c-0.118,0.263-0.275,0.483-0.471,0.66
			c-0.421,0.384-0.905,0.576-1.455,0.576c-0.392,0-0.759-0.081-1.103-0.244c-0.343-0.164-0.625-0.408-0.846-0.732
			C243.758,40.554,243.648,40.181,243.648,39.76z M244.741,38.678c-0.297,0.326-0.444,0.666-0.444,1.018
			c0,0.353,0.079,0.642,0.236,0.87c0.304,0.438,0.764,0.658,1.381,0.658c0.242,0,0.459-0.053,0.65-0.158s0.341-0.213,0.449-0.321
			c0.246-0.252,0.368-0.585,0.368-1c0-0.401-0.13-0.733-0.391-0.995c-0.219-0.218-0.51-0.413-0.872-0.586l-0.332-0.158
			C245.386,38.127,245.038,38.352,244.741,38.678z M245.076,36.959c0.158,0.126,0.312,0.229,0.461,0.312
			c0.148,0.081,0.229,0.126,0.24,0.132c0.45-0.214,0.751-0.381,0.903-0.499c0.307-0.242,0.46-0.56,0.46-0.954
			s-0.131-0.709-0.39-0.943c-0.26-0.235-0.562-0.353-0.907-0.353s-0.645,0.124-0.898,0.372c-0.254,0.249-0.382,0.565-0.382,0.952
			C244.563,36.364,244.734,36.691,245.076,36.959z"/>
		<path fill="#496978" d="M248.844,34.781v-0.709h3.825v0.719l-2.599,7.009h-0.718l2.659-7.019H248.844z"/>
		<path fill="#496978" d="M255.405,40.392l0.43-0.383c0.053,0.19,0.165,0.392,0.338,0.603c0.332,0.408,0.682,0.612,1.047,0.612
			c0.182,0,0.354-0.05,0.518-0.148c0.163-0.099,0.296-0.202,0.398-0.312c0.102-0.108,0.192-0.234,0.271-0.377
			c0.176-0.326,0.263-0.76,0.263-1.301c0-0.823-0.22-1.377-0.661-1.663c-0.213-0.139-0.448-0.209-0.705-0.209
			c-0.258,0-0.498,0.109-0.724,0.326c-0.226,0.218-0.348,0.41-0.368,0.577h-0.596v-4.045h3.339v0.632h-2.69v2.347
			c0.178-0.197,0.41-0.337,0.697-0.418c0.122-0.034,0.246-0.051,0.372-0.051c0.575,0,1.05,0.23,1.424,0.693
			c0.374,0.462,0.562,1.084,0.562,1.864s-0.193,1.428-0.578,1.943c-0.387,0.515-0.886,0.772-1.5,0.772
			c-0.549,0-1.029-0.25-1.441-0.75C255.589,40.855,255.458,40.616,255.405,40.392z"/>
		<path fill="#496978" d="M259.985,34.781v-0.709h3.825v0.719l-2.599,7.009h-0.718l2.66-7.019H259.985z"/>
		<path fill="#496978" d="M266.624,36.572c0-0.482,0.107-0.937,0.32-1.361c0.236-0.466,0.561-0.793,0.973-0.979
			c0.222-0.103,0.464-0.153,0.728-0.153c0.654,0,1.169,0.309,1.545,0.926s0.562,1.48,0.562,2.589c0,1.354-0.23,2.402-0.691,3.146
			c-0.462,0.745-1.099,1.117-1.911,1.117c-0.204,0-0.427-0.055-0.666-0.163s-0.403-0.226-0.491-0.352l0.254-0.546
			c0.346,0.285,0.674,0.429,0.986,0.429c0.535,0,0.98-0.288,1.337-0.862c0.356-0.575,0.554-1.386,0.591-2.434
			c-0.002,0.004-0.021,0.034-0.054,0.092c-0.034,0.059-0.063,0.105-0.088,0.144c-0.024,0.037-0.064,0.09-0.118,0.158
			c-0.055,0.067-0.108,0.126-0.16,0.176c-0.053,0.049-0.119,0.103-0.199,0.16c-0.081,0.059-0.163,0.105-0.248,0.144
			c-0.204,0.085-0.422,0.127-0.652,0.127c-0.594,0-1.078-0.215-1.453-0.646C266.811,37.853,266.624,37.282,266.624,36.572z
			 M267.272,36.576c0,0.531,0.124,0.95,0.372,1.258c0.249,0.308,0.581,0.461,0.996,0.461c0.452,0,0.814-0.195,1.086-0.586
			c0.161-0.231,0.281-0.548,0.36-0.949c-0.065-1.04-0.387-1.689-0.965-1.948c-0.151-0.067-0.301-0.102-0.446-0.102
			c-0.146,0-0.281,0.021-0.403,0.061c-0.123,0.041-0.245,0.109-0.366,0.204c-0.122,0.096-0.229,0.211-0.322,0.347
			C267.375,35.628,267.272,36.046,267.272,36.576z"/>
		<path fill="#496978" d="M271.708,39.76c0-0.605,0.239-1.128,0.718-1.566c0.233-0.214,0.485-0.381,0.754-0.5
			c-0.354-0.143-0.643-0.363-0.868-0.663c-0.224-0.299-0.337-0.646-0.337-1.043s0.092-0.744,0.273-1.043
			c0.183-0.3,0.423-0.528,0.72-0.687c0.296-0.158,0.618-0.236,0.966-0.236c0.529,0,0.98,0.182,1.354,0.545
			c0.373,0.364,0.561,0.813,0.561,1.347c0,0.585-0.279,1.092-0.837,1.521c-0.149,0.112-0.309,0.212-0.478,0.301l0.298,0.158
			c0.532,0.285,0.887,0.619,1.064,1c0.129,0.265,0.193,0.553,0.193,0.864s-0.06,0.599-0.178,0.862
			c-0.118,0.263-0.275,0.483-0.471,0.66c-0.421,0.384-0.905,0.576-1.456,0.576c-0.391,0-0.758-0.081-1.102-0.244
			c-0.343-0.164-0.625-0.408-0.846-0.732C271.819,40.554,271.708,40.181,271.708,39.76z M272.801,38.678
			c-0.297,0.326-0.444,0.666-0.444,1.018c0,0.353,0.079,0.642,0.236,0.87c0.304,0.438,0.764,0.658,1.38,0.658
			c0.243,0,0.46-0.053,0.651-0.158s0.341-0.213,0.449-0.321c0.245-0.252,0.368-0.585,0.368-1c0-0.401-0.13-0.733-0.391-0.995
			c-0.219-0.218-0.51-0.413-0.872-0.586l-0.332-0.158C273.447,38.127,273.098,38.352,272.801,38.678z M273.136,36.959
			c0.158,0.126,0.312,0.229,0.461,0.312c0.148,0.081,0.229,0.126,0.24,0.132c0.45-0.214,0.751-0.381,0.903-0.499
			c0.307-0.242,0.46-0.56,0.46-0.954s-0.131-0.709-0.39-0.943c-0.261-0.235-0.562-0.353-0.907-0.353s-0.645,0.124-0.898,0.372
			c-0.254,0.249-0.382,0.565-0.382,0.952C272.624,36.364,272.794,36.691,273.136,36.959z"/>
	</g>
</g>
</svg>
