<?xml version="1.0" encoding="utf-8"?>
<!-- Generator: Adobe Illustrator 16.0.0, SVG Export Plug-In . SVG Version: 6.00 Build 0)  -->
<!DOCTYPE svg PUBLIC "-//W3C//DTD SVG 1.1//EN" "http://www.w3.org/Graphics/SVG/1.1/DTD/svg11.dtd">
<svg version="1.1" id="Layer_1" xmlns="http://www.w3.org/2000/svg" xmlns:xlink="http://www.w3.org/1999/xlink" x="0px" y="0px"
	 width="179.441px" height="36.6px" viewBox="0 0 179.441 36.6" enable-background="new 0 0 179.441 36.6" xml:space="preserve">
<path fill="#496978" d="M60.24,18.24h4.68v9.48c-2.64,2.88-6.36,4.319-11.28,4.319c-4.08,0-7.44-1.319-10.2-4.079
	c-2.76-2.64-4.2-6-4.2-10.2c0-4.08,1.44-7.56,4.2-10.32c2.88-2.64,6.24-4.08,10.2-4.08s7.32,1.2,9.96,3.48l-2.52,3.6
	c-1.08-0.96-2.16-1.56-3.24-1.92c-1.08-0.36-2.4-0.6-3.84-0.6c-2.76,0-5.16,0.96-7.08,2.76c-1.8,1.8-2.76,4.2-2.76,7.08
	c0,3,0.84,5.4,2.76,7.2c1.8,1.68,4.08,2.64,6.72,2.64c2.64,0,4.8-0.6,6.6-1.68"/>
<polyline fill="#496978" points="94.561,31.8 94.561,4.08 99.24,4.08 99.24,27.359 111.84,27.359 111.84,31.8 "/>
<polyline fill="#496978" points="114.24,31.8 114.24,4.08 118.92,4.08 118.92,27.359 131.52,27.359 131.52,31.8 "/>
<polyline fill="#496978" points="142.08,31.8 137.4,31.8 137.4,20.76 127.08,4.08 132.24,4.08 139.8,16.68 147.359,4.08 152.4,4.08 
	142.08,20.76 "/>
<path fill="#496978" d="M161.16,7.68c-1.32,0-2.4,0.24-3.24,0.84c-0.96,0.6-1.32,1.44-1.32,2.52c0,1.08,0.36,2.04,1.32,2.52
	c0.84,0.6,2.641,1.32,5.52,1.92c2.881,0.72,4.92,1.68,6.36,3c1.44,1.2,2.16,3,2.16,5.4c0,2.399-0.84,4.44-2.64,5.88
	c-1.92,1.561-4.32,2.279-7.2,2.279c-4.32,0-8.16-1.439-11.521-4.439l2.881-3.6c2.879,2.52,5.76,3.72,8.76,3.72
	c1.439,0,2.64-0.36,3.6-0.96c0.84-0.721,1.32-1.561,1.32-2.641s-0.48-1.92-1.32-2.52c-0.84-0.48-2.279-1.08-4.199-1.561
	c-2.041-0.479-3.601-0.959-4.681-1.319c-1.08-0.48-2.04-0.96-2.88-1.68c-1.561-1.2-2.4-3.12-2.4-5.64c0-2.64,0.961-4.56,2.76-6
	c1.92-1.32,4.201-2.04,6.961-2.04c1.8,0,3.479,0.36,5.279,0.84c1.68,0.6,3.24,1.44,4.44,2.52l-2.399,3.48
	c-0.841-0.72-1.921-1.32-3.361-1.8C163.92,7.92,162.6,7.68,161.16,7.68"/>
<polyline fill="#F49848" points="83.279,29.16 74.28,29.16 78.84,20.279 "/>
<polyline fill="#496978" points="78.84,4.2 64.92,31.8 69.72,31.8 78.84,13.8 87.84,31.8 92.641,31.8 "/>
<polyline fill="#F49848" points="2.64,22.68 2.64,13.68 11.52,18.24 "/>
<g>
	<defs>
		<rect id="SVGID_1_" width="27.84" height="36.6"/>
	</defs>
	<clipPath id="SVGID_2_">
		<use xlink:href="#SVGID_1_"  overflow="visible"/>
	</clipPath>
	<polyline clip-path="url(#SVGID_2_)" fill="#496978" points="27.6,18.24 -8.4,0 -8.4,4.92 18,18.24 -8.4,31.56 -8.4,36.359 	"/>
</g>
</svg>
