<?xml version="1.0" encoding="utf-8"?>
<!-- Generator: Adobe Illustrator 16.0.0, SVG Export Plug-In . SVG Version: 6.00 Build 0)  -->
<!DOCTYPE svg PUBLIC "-//W3C//DTD SVG 1.1//EN" "http://www.w3.org/Graphics/SVG/1.1/DTD/svg11.dtd">
<svg version="1.1" id="Calque_1" xmlns="http://www.w3.org/2000/svg" xmlns:xlink="http://www.w3.org/1999/xlink" x="0px" y="0px"
	 width="667.295px" height="920.083px" viewBox="0 0 667.295 920.083" enable-background="new 0 0 667.295 920.083"
	 xml:space="preserve">
<g opacity="0.1">
	<polygon fill="#496978" points="211.911,290.032 523.756,920.083 667.295,920.083 211.911,0 0,428.128 0,718.192 	"/>
	<polygon fill="#496978" points="354.527,829.925 211.911,541.766 69.297,829.906 	"/>
</g>
<g opacity="0.1">
	<polygon fill="#496978" points="89.605,517.824 269.642,881.574 352.513,881.574 96.354,336.743 0,531.412 0,698.869 	"/>
	<polygon fill="#496978" points="171.941,829.523 89.605,663.16 7.269,829.511 	"/>
</g>
<g>
	<path fill="#496978" d="M106.63,819.662h-4.79v-1.417c0-0.894-0.045-1.452-0.136-1.678c-0.091-0.225-0.307-0.337-0.648-0.337
		c-0.296,0-0.497,0.096-0.603,0.289c-0.106,0.192-0.159,0.688-0.159,1.484v7.491c0,0.7,0.053,1.161,0.159,1.383
		c0.106,0.222,0.318,0.333,0.637,0.333c0.349,0,0.585-0.126,0.711-0.376c0.125-0.251,0.188-0.739,0.188-1.466v-1.851h-0.967v-2.372
		h5.608v8.378h-3.01l-0.443-1.118c-0.327,0.481-0.738,0.844-1.235,1.084c-0.497,0.241-1.083,0.362-1.759,0.362
		c-0.805,0-1.558-0.166-2.26-0.497c-0.702-0.331-1.235-0.74-1.6-1.229c-0.364-0.489-0.592-1.001-0.683-1.538
		c-0.091-0.536-0.137-1.342-0.137-2.415v-4.637c0-1.491,0.095-2.574,0.285-3.249c0.189-0.675,0.734-1.294,1.632-1.855
		c0.899-0.562,2.061-0.844,3.487-0.844c1.403,0,2.567,0.244,3.492,0.732s1.528,1.068,1.809,1.74c0.28,0.672,0.421,1.646,0.421,2.926
		V819.662z"/>
	<path fill="#496978" d="M116.763,813.916l2.739,15.608h-4.895l-0.257-2.806h-1.713l-0.288,2.806h-4.951l2.443-15.608H116.763z
		 M114.225,823.952c-0.243-1.768-0.486-3.953-0.729-6.556c-0.488,2.989-0.794,5.174-0.919,6.556H114.225z"/>
	<path fill="#496978" d="M125.104,813.916V826.4h2.913v3.124h-7.702v-15.608H125.104z"/>
	<path fill="#496978" d="M133.966,813.916V826.4h2.913v3.124h-7.702v-15.608H133.966z"/>
	<path fill="#496978" d="M146.729,813.916l-3.492,9.959v5.649h-4.437v-5.649l-3.368-9.959h4.4c0.688,3.047,1.075,5.098,1.163,6.151
		c0.266-1.666,0.71-3.716,1.334-6.151H146.729z"/>
	<path fill="#496978" d="M157.696,818.64h-4.448v-1.157c0-0.54-0.057-0.884-0.17-1.031c-0.114-0.148-0.304-0.222-0.569-0.222
		c-0.289,0-0.506,0.1-0.654,0.299s-0.222,0.502-0.222,0.907c0,0.521,0.083,0.913,0.25,1.177c0.159,0.264,0.61,0.582,1.353,0.954
		c2.132,1.072,3.475,1.952,4.028,2.64c0.554,0.688,0.831,1.797,0.831,3.326c0,1.112-0.154,1.932-0.461,2.458
		c-0.307,0.527-0.9,0.969-1.78,1.326c-0.88,0.356-1.903,0.535-3.071,0.535c-1.282,0-2.376-0.206-3.282-0.617
		c-0.907-0.411-1.5-0.936-1.781-1.571c-0.28-0.637-0.421-1.539-0.421-2.709v-1.022h4.448v1.899c0,0.585,0.062,0.961,0.188,1.128
		c0.125,0.167,0.347,0.251,0.666,0.251c0.319,0,0.556-0.106,0.711-0.318s0.233-0.527,0.233-0.944c0-0.92-0.148-1.521-0.444-1.804
		c-0.303-0.282-1.05-0.755-2.241-1.417c-1.191-0.668-1.979-1.153-2.366-1.455c-0.387-0.303-0.708-0.72-0.961-1.254
		c-0.254-0.533-0.381-1.215-0.381-2.044c0-1.195,0.18-2.069,0.54-2.622s0.942-0.984,1.746-1.296
		c0.804-0.312,1.775-0.468,2.913-0.468c1.244,0,2.303,0.17,3.179,0.511s1.456,0.77,1.741,1.287c0.284,0.518,0.427,1.396,0.427,2.637
		V818.64z"/>
	<path fill="#496978" d="M162.52,826.342v3.182h-3.47v-3.182H162.52z"/>
	<path fill="#496978" d="M163.896,813.916h4.778c1.509,0,2.652,0.1,3.43,0.299s1.405,0.603,1.883,1.209
		c0.478,0.607,0.717,1.585,0.717,2.934c0,0.912-0.169,1.548-0.506,1.908c-0.337,0.359-1.003,0.636-1.997,0.828
		c1.107,0.212,1.858,0.564,2.252,1.057c0.395,0.491,0.592,1.246,0.592,2.262v1.447c0,1.055-0.142,1.836-0.427,2.344
		c-0.284,0.508-0.738,0.855-1.359,1.042c-0.622,0.187-1.896,0.279-3.822,0.279h-5.54V813.916z M168.685,816.586v3.471
		c0.205-0.007,0.364-0.01,0.478-0.01c0.47,0,0.77-0.098,0.898-0.294s0.193-0.757,0.193-1.683c0-0.488-0.053-0.83-0.159-1.026
		c-0.106-0.196-0.245-0.32-0.415-0.371C169.51,816.622,169.178,816.593,168.685,816.586z M168.685,822.486v4.367
		c0.675-0.019,1.105-0.108,1.292-0.27c0.186-0.16,0.278-0.556,0.278-1.186v-1.456c0-0.668-0.083-1.073-0.25-1.215
		C169.838,822.586,169.398,822.505,168.685,822.486z"/>
	<path fill="#496978" d="M176.762,813.916h7.986v3.124h-3.197V820h2.992v2.969h-2.992v3.432h3.515v3.124h-8.304V813.916z"/>
</g>
</svg>
