<?xml version="1.0" encoding="utf-8"?>
<!-- Generator: Adobe Illustrator 16.0.0, SVG Export Plug-In . SVG Version: 6.00 Build 0)  -->
<!DOCTYPE svg PUBLIC "-//W3C//DTD SVG 1.1//EN" "http://www.w3.org/Graphics/SVG/1.1/DTD/svg11.dtd">
<svg version="1.1" id="Calque_1" xmlns="http://www.w3.org/2000/svg" xmlns:xlink="http://www.w3.org/1999/xlink" x="0px" y="0px"
	 width="333.647px" height="460.042px" viewBox="0 0 333.647 460.042" enable-background="new 0 0 333.647 460.042"
	 xml:space="preserve">
<g opacity="0.1">
	<polygon fill="#496978" points="105.956,145.016 261.877,460.042 333.647,460.042 105.956,0 0,214.063 0,359.096 	"/>
	<polygon fill="#496978" points="177.264,414.962 105.956,270.883 34.649,414.952 	"/>
</g>
<g opacity="0.1">
	<polygon fill="#496978" points="44.802,258.911 134.821,440.786 176.256,440.786 48.177,168.371 0,265.706 0,349.435 	"/>
	<polygon fill="#496978" points="85.971,414.761 44.802,331.579 3.634,414.755 	"/>
</g>
<g>
	<path fill="#496978" d="M53.315,409.831H50.92v-0.709c0-0.447-0.023-0.727-0.068-0.839c-0.046-0.112-0.153-0.169-0.324-0.169
		c-0.148,0-0.249,0.049-0.302,0.145c-0.053,0.097-0.079,0.344-0.079,0.742v3.746c0,0.35,0.026,0.58,0.079,0.691
		c0.053,0.111,0.159,0.166,0.319,0.166c0.174,0,0.292-0.062,0.355-0.188c0.062-0.125,0.094-0.369,0.094-0.732v-0.926h-0.483v-1.186
		h2.804v4.188H51.81l-0.222-0.56c-0.163,0.241-0.369,0.422-0.617,0.543c-0.249,0.12-0.542,0.181-0.88,0.181
		c-0.402,0-0.779-0.083-1.13-0.249c-0.351-0.165-0.617-0.369-0.8-0.613c-0.182-0.245-0.296-0.501-0.341-0.77
		c-0.045-0.268-0.068-0.671-0.068-1.207v-2.318c0-0.746,0.047-1.287,0.142-1.625s0.367-0.646,0.816-0.928s1.03-0.422,1.743-0.422
		c0.702,0,1.284,0.122,1.746,0.366c0.463,0.244,0.765,0.534,0.905,0.87s0.21,0.823,0.21,1.463V409.831z"/>
	<path fill="#496978" d="M58.381,406.958l1.369,7.804h-2.447l-0.128-1.403h-0.857l-0.144,1.403h-2.476l1.222-7.804H58.381z
		 M57.112,411.976c-0.122-0.884-0.243-1.977-0.365-3.277c-0.244,1.494-0.397,2.586-0.46,3.277H57.112z"/>
	<path fill="#496978" d="M62.552,406.958v6.242h1.456v1.562h-3.851v-7.804H62.552z"/>
	<path fill="#496978" d="M66.983,406.958v6.242h1.456v1.562h-3.851v-7.804H66.983z"/>
	<path fill="#496978" d="M73.365,406.958l-1.746,4.979v2.825H69.4v-2.825l-1.684-4.979h2.2c0.344,1.523,0.538,2.549,0.582,3.075
		c0.133-0.833,0.355-1.858,0.667-3.075H73.365z"/>
	<path fill="#496978" d="M78.848,409.319h-2.224v-0.578c0-0.27-0.028-0.441-0.085-0.516c-0.057-0.074-0.151-0.111-0.284-0.111
		c-0.145,0-0.253,0.051-0.327,0.15s-0.111,0.25-0.111,0.453c0,0.26,0.042,0.457,0.125,0.588c0.08,0.133,0.305,0.291,0.677,0.478
		c1.066,0.536,1.737,0.976,2.014,1.319c0.277,0.345,0.416,0.898,0.416,1.664c0,0.556-0.077,0.965-0.23,1.229
		c-0.154,0.264-0.45,0.484-0.891,0.663c-0.439,0.179-0.951,0.268-1.535,0.268c-0.641,0-1.188-0.103-1.641-0.309
		c-0.454-0.206-0.75-0.468-0.89-0.786c-0.141-0.318-0.211-0.77-0.211-1.354v-0.512h2.225v0.949c0,0.293,0.031,0.48,0.094,0.564
		s0.173,0.125,0.333,0.125c0.16,0,0.278-0.053,0.355-0.158c0.078-0.106,0.117-0.264,0.117-0.473c0-0.46-0.074-0.76-0.222-0.902
		c-0.152-0.141-0.525-0.377-1.121-0.708c-0.595-0.334-0.99-0.577-1.183-0.728c-0.193-0.151-0.354-0.359-0.48-0.627
		c-0.127-0.267-0.19-0.607-0.19-1.021c0-0.598,0.09-1.035,0.27-1.312c0.181-0.276,0.472-0.492,0.873-0.647
		c0.402-0.156,0.888-0.234,1.457-0.234c0.622,0,1.152,0.085,1.589,0.256c0.438,0.17,0.729,0.385,0.871,0.643
		c0.142,0.26,0.213,0.699,0.213,1.318V409.319z"/>
	<path fill="#496978" d="M81.26,413.171v1.591h-1.735v-1.591H81.26z"/>
	<path fill="#496978" d="M81.948,406.958h2.389c0.754,0,1.326,0.049,1.715,0.148s0.703,0.302,0.941,0.605
		c0.239,0.303,0.358,0.792,0.358,1.467c0,0.455-0.084,0.773-0.253,0.953c-0.168,0.18-0.501,0.318-0.998,0.414
		c0.554,0.106,0.929,0.283,1.126,0.529c0.197,0.245,0.296,0.623,0.296,1.131v0.723c0,0.527-0.071,0.918-0.213,1.172
		c-0.143,0.254-0.369,0.428-0.68,0.521c-0.312,0.094-0.948,0.14-1.911,0.14h-2.771V406.958z M84.342,408.293v1.735
		c0.103-0.004,0.183-0.005,0.239-0.005c0.235,0,0.385-0.049,0.449-0.147c0.064-0.098,0.097-0.378,0.097-0.841
		c0-0.244-0.026-0.415-0.08-0.513c-0.053-0.099-0.123-0.16-0.208-0.186C84.755,408.311,84.589,408.296,84.342,408.293z
		 M84.342,411.243v2.184c0.338-0.01,0.553-0.055,0.646-0.135c0.093-0.08,0.139-0.278,0.139-0.594v-0.728
		c0-0.334-0.042-0.536-0.125-0.607C84.919,411.293,84.699,411.253,84.342,411.243z"/>
	<path fill="#496978" d="M88.381,406.958h3.993v1.562h-1.598v1.479h1.496v1.484h-1.496v1.717h1.757v1.562h-4.152V406.958z"/>
</g>
</svg>
