<?xml version="1.0" encoding="utf-8"?>
<!-- Generator: Adobe Illustrator 16.0.0, SVG Export Plug-In . SVG Version: 6.00 Build 0)  -->
<!DOCTYPE svg PUBLIC "-//W3C//DTD SVG 1.1//EN" "http://www.w3.org/Graphics/SVG/1.1/DTD/svg11.dtd">
<svg version="1.1" id="Calque_1" xmlns="http://www.w3.org/2000/svg" xmlns:xlink="http://www.w3.org/1999/xlink" x="0px" y="0px"
	 width="241.905px" height="39.284px" viewBox="0 0 241.905 39.284" enable-background="new 0 0 241.905 39.284"
	 xml:space="preserve">
<g>
	<path fill="#496978" d="M90.289,20.259v16.369c-4.757,2.065-9.477,3.099-14.159,3.099c-6.397,0-11.509-1.867-15.334-5.601
		c-3.826-3.733-5.737-8.338-5.737-13.812c0-5.771,1.981-10.574,5.945-14.408c3.963-3.835,8.932-5.752,14.905-5.752
		c2.175,0,4.24,0.236,6.194,0.706c1.954,0.47,4.424,1.332,7.41,2.585v5.642c-4.608-2.673-9.18-4.01-13.716-4.01
		c-4.222,0-7.78,1.438-10.674,4.314c-2.894,2.876-4.341,6.406-4.341,10.591c0,4.387,1.447,7.973,4.341,10.757
		s6.618,4.175,11.172,4.175c2.211,0,4.857-0.507,7.936-1.521l0.525-0.164v-12.97H90.289z"/>
	<path fill="#496978" d="M136.137,0.652h5.531v33.599h17.394v5.032h-22.925V0.652z"/>
	<path fill="#496978" d="M163.901,0.652h5.531v33.599h17.394v5.032h-22.925V0.652z"/>
	<path fill="#496978" d="M208.678,0.652h6.713l-14.269,22.449v16.182h-5.669V23.102L181.185,0.652h6.677l10.337,17.572
		L208.678,0.652z"/>
	<path fill="#496978" d="M230.953,23.097l-5.251-2.553c-3.293-1.61-5.637-3.194-7.031-4.752c-1.395-1.558-2.09-3.351-2.09-5.379
		c0-3.042,1.318-5.512,3.956-7.411c2.639-1.898,6.062-2.849,10.278-2.849c4.032,0,7.729,0.906,11.091,2.717v6.277
		c-3.478-2.678-7.22-4.017-11.229-4.017c-2.256,0-4.112,0.418-5.561,1.254c-1.451,0.835-2.178,1.904-2.178,3.208
		c0,1.157,0.536,2.241,1.604,3.25c1.069,1.01,2.789,2.071,5.156,3.182l5.277,2.5c5.888,2.815,8.832,6.397,8.832,10.747
		c0,3.098-1.296,5.614-3.886,7.55c-2.592,1.936-5.961,2.904-10.106,2.904c-4.768,0-9.111-1.173-13.025-3.52v-7.024
		c3.731,3.785,8.049,5.676,12.955,5.676c2.166,0,3.968-0.481,5.406-1.446c1.44-0.964,2.162-2.172,2.162-3.623
		C237.312,27.437,235.191,25.208,230.953,23.097z"/>
</g>
<polygon fill="#496978" points="112.142,12.523 125.605,39.727 131.805,39.727 112.142,0 92.478,39.727 98.677,39.727 "/>
<polygon fill="#F49848" points="118.299,35.833 112.142,23.392 105.983,35.833 "/>
<polygon fill="#496978" points="27.204,19.864 0,33.329 0,39.527 39.728,19.864 0.001,0.201 0.001,6.4 "/>
<polygon fill="#F49848" points="3.893,26.021 16.335,19.864 3.894,13.706 "/>
</svg>
