<?xml version="1.0" encoding="utf-8"?>
<!-- Generator: Adobe Illustrator 16.0.0, SVG Export Plug-In . SVG Version: 6.00 Build 0)  -->
<!DOCTYPE svg PUBLIC "-//W3C//DTD SVG 1.1//EN" "http://www.w3.org/Graphics/SVG/1.1/DTD/svg11.dtd">
<svg version="1.1" id="Layer_1" xmlns="http://www.w3.org/2000/svg" xmlns:xlink="http://www.w3.org/1999/xlink" x="0px" y="0px"
	 width="219.5px" height="228.5px" viewBox="64.5 55.5 219.5 228.5" enable-background="new 64.5 55.5 219.5 228.5"
	 xml:space="preserve">
<g id="layer1">
	<path d="M161,251.34c-12.467-2.37-21.723-6.195-32.584-13.309c-6.271-4.13-8.414-6.195-5.354-5.277
		c2.448,0.765,11.167,4.359,15.451,6.425c5.813,2.754,16.139,6.119,20.499,6.808c1.988,0.229,4.054,0.842,4.513,1.224
		c0.612,0.459,5.048,0.688,11.091,0.459c9.408-0.306,10.861-0.612,19.352-3.519c13.462-4.513,18.815-7.266,25.012-12.544
		c11.474-9.79,18.128-17.669,20.805-24.782c0.612-1.606,1.988-5.354,3.136-8.261c3.442-9.025,4.437-15.221,4.36-26.465
		c0-6.73-0.383-11.779-1.147-14.533c-0.688-2.294-1.071-4.359-0.918-4.513c0.383-0.382,8.031,4.513,8.107,5.201
		c0,0.229,0.307,3.365,0.612,6.961c1.377,13.844-1.529,28.836-8.337,42.451c-10.479,21.188-29.065,36.255-51.937,42.222
		C184.559,252.258,169.337,252.947,161,251.34z"/>
	<path d="M100.269,237.572c-3.442-1.224-7.113-6.119-12.544-16.521c-3.901-7.419-8.873-20.651-8.873-23.405
		c0-0.842,0.765-1.07,3.136-0.918l3.136,0.229l1.683,5.354c3.595,11.091,10.479,23.711,17.822,32.354l3.442,3.978l-2.601-0.076
		C104.093,238.567,101.722,238.107,100.269,237.572z"/>
	<path d="M173.927,217.227c0-2.753,0.153-3.824,0.306-2.447c0.153,1.3,0.153,3.595,0,4.972
		C174.08,221.051,173.927,219.979,173.927,217.227z"/>
	<path d="M80.229,193.744l-6.731-0.305v-2.448c0.077-1.377,1.836-13.614,4.054-27.307l3.978-24.858l4.207-0.536
		c6.807-0.765,20.27-0.688,24.4,0.23c5.354,1.147,8.566,3.519,10.708,7.878c1.53,3.06,1.836,4.819,1.836,10.326
		c-0.153,16.598-5.89,29.906-14.839,34.496c-3.442,1.759-11.091,3.136-16.751,2.906C88.795,194.051,83.9,193.821,80.229,193.744z
		 M102.334,183.572c3.824-1.684,5.736-4.514,7.878-11.397c1.912-6.042,2.754-17.21,1.606-20.116c-1.53-3.9-4.819-5.201-13.615-5.201
		c-4.359,0-7.878,0.153-7.878,0.229c0,0.765-5.431,34.802-5.737,36.332c-0.382,1.683-0.306,1.683,7.037,1.683
		C97.362,185.102,99.886,184.719,102.334,183.572z"/>
	<path d="M134.382,193.516c-4.895-0.918-7.419-3.366-7.878-7.803c-0.458-3.747,3.366-30.289,4.589-31.742
		c1.071-1.377,8.108-1.3,8.644,0.076c0.229,0.612-0.459,6.578-1.53,13.233c-2.295,13.997-2.372,15.756-0.842,17.057
		c0.612,0.458,3.825,1.071,7.113,1.3l6.043,0.459l0.841-4.513c0.383-2.524,1.53-9.638,2.524-15.986
		c0.918-6.271,2.065-11.702,2.524-12.009c1.453-0.994,8.107-0.688,8.566,0.383c0.306,0.842-4.207,31.36-5.431,36.943
		c-0.229,1.225-1.147,1.76-3.213,2.065C150.598,193.897,138.054,194.204,134.382,193.516z"/>
	<path d="M178.287,192.979c-1.071-0.153-3.136-0.611-4.666-0.994c-3.595-0.994-5.278-4.283-5.278-10.479
		c0-5.277,2.372-17.363,4.131-20.652c1.606-3.136,5.277-6.119,8.72-7.113c3.136-0.841,12.391-0.994,16.139-0.306
		c3.748,0.765,6.654,3.978,7.267,7.955c0.612,4.206-0.765,14.608-2.065,15.45c-0.459,0.306-6.195,0.612-12.544,0.612h-11.702v2.983
		c0,1.682,0.458,3.364,1.146,3.9c0.766,0.611,4.59,1.147,10.402,1.376l9.179,0.383l-0.535,3.137c-0.229,1.759-0.842,3.365-1.3,3.671
		C196.262,193.439,181.805,193.516,178.287,192.979z M195.114,166.821c0-4.207-1.53-5.431-6.502-5.431
		c-4.896,0-7.725,1.988-8.489,5.966l-0.46,2.447h7.726h7.726V166.821z"/>
	<path d="M204.828,192.979c-0.229-0.229-0.229-1.452,0-2.83c0.306-1.605,4.13-6.425,12.161-15.374l11.703-13.003l-9.179-0.229
		l-9.178-0.229l0.534-3.595c0.307-1.988,0.918-3.824,1.378-4.131c0.458-0.306,7.648-0.611,15.985-0.611
		c16.216,0,16.369,0,15.222,3.978c-0.383,1.605-13.845,17.516-22.259,26.465l-1.683,1.683h10.097h10.097l-0.536,3.519
		c-0.229,1.912-0.611,3.824-0.841,4.13C237.871,193.516,205.517,193.744,204.828,192.979z"/>
	<path d="M272.674,135.767c-2.143-3.824-5.125-9.179-6.732-12.009c-9.407-17.133-26.234-32.813-44.362-41.15
		c-26.083-12.085-57.137-12.085-82.837,0c-20.499,9.561-38.856,27.995-47.805,47.882c-2.524,5.583-2.524,5.66-5.431,5.66
		c-2.677,0-2.907-0.153-2.448-1.683c1.071-3.518,6.731-14.15,10.938-20.499c5.201-7.878,18.204-21.111,26.235-26.542
		c11.244-7.725,25.088-13.615,38.932-16.674c9.026-1.989,25.7-2.371,35.262-0.765c31.131,5.125,57.672,23.252,73.353,50.1
		c3.518,6.042,9.331,19.734,9.025,21.34C276.65,142.039,274.815,139.515,272.674,135.767z"/>
	<path d="M165.513,135.002c-2.829-1.224-3.748-3.595-2.906-7.802c0.612-3.212,2.218-5.966,4.054-6.807
		c0.688-0.306,4.207-0.765,7.802-0.994l6.502-0.459l0.229-2.601c0.152-1.377-0.076-2.907-0.612-3.442
		c-0.458-0.459-3.441-0.918-6.73-0.994c-5.431-0.153-5.89-0.306-6.119-1.836c-0.383-2.447,0.994-2.983,8.107-2.983
		c7.344,0,10.556,1.224,11.397,4.436c0.382,1.683-2.295,22.105-3.06,22.871c-0.153,0.076-2.065,0.535-4.36,0.994
		C174.232,136.455,168.42,136.302,165.513,135.002z M179.052,130.259c0-0.382,0.306-1.912,0.688-3.442l0.688-2.906h-4.818
		c-3.365,0-5.201,0.382-6.042,1.224c-1.453,1.453-1.606,4.589-0.23,5.125C170.867,130.872,179.052,130.872,179.052,130.259z"/>
	<path d="M213.854,135.613c-0.841-0.229-2.295-1.07-3.213-1.988c-1.452-1.3-1.759-2.371-1.759-6.578c0-5.89,1.53-12.926,3.366-15.68
		c2.218-3.442,5.124-4.36,12.926-4.13c6.961,0.229,7.037,0.229,6.808,2.065c-0.077,1.071-0.306,1.989-0.459,2.142
		c-0.152,0.153-2.982,0.383-6.425,0.535c-3.442,0.077-6.73,0.612-7.344,1.147c-1.146,0.918-2.37,5.354-3.212,11.626
		c-0.688,5.125,0.535,6.042,8.184,6.042c5.278,0,6.043,0.153,6.043,1.376c0,2.831-1.224,3.442-7.419,3.672
		C218.061,135.996,214.694,135.843,213.854,135.613z"/>
	<path d="M113.578,134.084c0.229-0.765,2.142-8.261,4.283-16.674c2.142-8.414,4.284-16.598,4.666-18.204l0.765-2.907l3.977,0.229
		l3.978,0.229l1.683,6.884c0.917,3.824,2.371,9.943,3.136,13.691l1.377,6.807l7.496-13.92l7.496-13.845h4.131
		c3.441,0,4.13,0.229,4.13,1.377c0,0.688-0.535,8.337-1.147,16.98c-0.611,8.643-1.147,16.827-1.147,18.204
		c0,2.448,0,2.448-3.9,2.448h-3.978l0.535-6.272c0.306-3.518,0.688-9.102,0.918-12.467l0.383-6.119l-5.967,10.785
		c-3.289,5.966-6.425,11.396-7.037,12.085c-1.224,1.453-6.042,1.683-6.578,0.306c-0.229-0.535-1.53-5.966-2.983-12.085
		s-2.83-10.555-3.06-9.943s-1.3,4.972-2.371,9.561c-3.671,15.527-2.906,14.15-7.343,14.15
		C113.73,135.384,113.195,135.231,113.578,134.084z"/>
	<path d="M190.066,133.701c0.229-0.994,1.147-6.348,1.988-11.932c0.918-5.661,1.988-10.861,2.447-11.626
		c1.377-2.142,4.054-3.06,8.873-3.06c5.201,0,6.654,0.765,5.89,2.983c-0.383,1.301-1.071,1.606-3.442,1.606
		c-5.812,0-6.501,0.688-7.572,7.802c-0.459,3.442-1.3,8.49-1.76,11.167l-0.765,4.743h-2.982
		C189.989,135.384,189.76,135.231,190.066,133.701z"/>
</g>
<g id="layer2">
	<path fill="#E50055" d="M159.624,268.78c-17.593-3.213-35.032-12.086-47.806-24.477c-9.255-8.949-4.895-7.114,11.55,4.895
		c10.096,7.42,24.629,13.31,38.015,15.527c2.754,0.459,9.332,0.842,14.609,0.842c43.369-0.077,80.083-30.52,88.42-73.275
		c1.606-8.262,1.76-24.323,0.383-32.432c-3.06-17.21-11.091-33.578-22.641-45.816c-2.83-2.983-5.048-5.66-4.818-5.813
		c0.229-0.229,2.371-0.153,4.895,0.077c5.278,0.688,6.426,1.682,13.845,12.773c16.521,24.707,20.499,55.225,10.938,84.061
		c-9.255,27.765-32.583,51.018-60.426,60.272C193.202,269.851,173.544,271.304,159.624,268.78z"/>
</g>
<g id="layer3">
	<path fill="#F7E800" d="M158.936,261.131c-11.397-2.065-24.4-7.419-34.497-14.303c-10.479-7.113-21.723-19.888-27.766-31.514
		c-2.753-5.431-7.113-16.292-7.113-17.898c0-0.306,1.147-0.383,2.524-0.229c2.295,0.229,2.677,0.688,3.978,4.207
		c6.961,19.964,22.793,37.556,42.222,46.811c24.247,11.627,54.689,10.25,77.636-3.518c3.442-2.065,6.349-3.672,6.425-3.52
		c0.306,0.307-1.683,7.803-2.295,8.797c-0.688,1.146-11.167,6.042-17.439,8.107C190.219,262.278,172.168,263.502,158.936,261.131z"
		/>
	<path fill="#F7E800" d="M96.444,135.155c0-1.147,8.796-14.686,10.02-15.451c1.606-1.071,1.453,0.229-0.459,3.519
		c-0.994,1.835-2.448,5.125-3.136,7.19c-0.688,2.141-1.606,4.283-2.065,4.818C99.81,136.455,96.444,136.455,96.444,135.155z"/>
</g>
<g id="layer4">
	<path fill="#706F6F" d="M165.131,247.286c0.918-0.153,2.294-0.153,3.06,0c0.688,0.229-0.076,0.383-1.76,0.307
		C164.748,247.593,164.137,247.439,165.131,247.286z"/>
	<path fill="#706F6F" d="M178.134,247.286c0.918-0.153,2.294-0.153,3.06,0c0.688,0.229-0.076,0.383-1.76,0.307
		C177.751,247.593,177.14,247.439,178.134,247.286z"/>
	<path fill="#706F6F" d="M122.909,230.153c-1.912-1.453-1.989-1.912-1.989-8.261c0-6.043,0.153-6.885,1.759-8.337
		c2.448-2.295,8.261-2.372,10.326-0.077c1.454,1.453,2.754,7.267,1.989,8.49c-0.229,0.306-3.212,0.612-6.578,0.612h-6.195
		l0.459,2.83c0.612,3.824,1.377,4.283,6.425,4.437c6.042,0.229,6.425,1.912,0.382,1.912
		C126.045,231.76,124.439,231.377,122.909,230.153z M133.464,218.221c-0.688-3.9-1.3-4.436-5.277-4.436s-4.896,0.688-5.507,4.436
		l-0.459,2.83h5.89H134L133.464,218.221z"/>
	<path fill="#706F6F" d="M143.179,230.688c-0.536-0.612-1.76-4.283-2.83-8.261c-0.995-3.9-2.065-7.725-2.295-8.414
		c-0.229-0.765-0.077-1.376,0.382-1.376c0.382,0,1.301,1.988,1.989,4.436c2.601,8.873,3.901,12.468,4.59,12.545
		c0.459,0,1.912-3.748,3.365-8.338c1.453-4.513,2.753-8.413,2.906-8.566c1.606-2.064-0.535,8.031-3.289,15.833
		C146.773,231.912,144.861,232.754,143.179,230.688z"/>
	<path fill="#706F6F" d="M159.394,230.994c-2.142-0.918-2.982-2.523-3.595-7.495c-0.611-4.818,0.535-9.79,2.601-10.861
		s7.878-0.918,9.484,0.229c1.377,0.994,3.137,7.726,2.295,9.025c-0.229,0.382-3.289,0.688-6.808,0.688h-6.425l0.383,2.523
		c0.688,3.596,2.83,5.125,7.267,5.125c2.064,0,3.747,0.383,3.747,0.765C168.343,231.912,161.688,231.912,159.394,230.994z
		 M168.343,218.757c0-4.514-5.124-6.885-9.025-4.131c-1.147,0.842-1.683,1.912-1.683,3.824v2.601h5.354h5.354V218.757z"/>
	<path fill="#706F6F" d="M174.462,221.816v-9.944h5.278c8.184,0,8.796,0.842,9.102,11.397c0.229,5.736,0,8.49-0.535,8.49
		s-0.842-2.754-0.842-7.879c0-9.638-0.535-10.479-7.113-10.479h-4.359v9.179c0,5.583-0.307,9.179-0.765,9.179
		C174.769,231.76,174.462,227.935,174.462,221.816z"/>
	<path fill="#706F6F" d="M195.879,230.994c-0.918-0.611-1.071-2.294-0.918-8.796c0.153-6.884,0-8.107-1.07-8.566
		c-1.147-0.383-1.147-0.536,0.076-1.224c0.994-0.536,1.147-1.301,0.765-3.289c-0.382-2.065-0.229-2.601,0.688-2.601
		c0.842,0,1.147,0.765,0.994,2.83c-0.152,2.6,0.076,2.906,2.142,3.365l2.295,0.459l-2.295,0.306l-2.294,0.307v8.031l0.076,8.031
		l2.447,0.229c1.377,0.153,2.295,0.612,2.065,0.994C200.239,231.988,197.332,231.912,195.879,230.994z"/>
	<path fill="#706F6F" d="M203.527,230.994c0-0.382,1.836-0.765,4.131-0.765c5.507,0,6.578-0.458,6.578-3.06
		c0-2.523-0.688-3.136-5.584-4.896c-5.583-2.064-7.419-5.812-4.359-8.872c1.224-1.224,2.523-1.53,6.119-1.53
		c2.523,0,4.589,0.307,4.589,0.766c0,0.458-1.605,0.765-3.519,0.765c-4.437,0-6.425,1.071-6.425,3.518
		c0,1.607,0.765,2.219,4.972,4.131c3.671,1.684,5.048,2.678,5.431,4.131c0.688,2.83,0.076,4.513-1.988,5.584
		C211.177,231.912,203.527,232.065,203.527,230.994z"/>
	<path fill="#706F6F" d="M176.222,192.979c0.688-0.153,1.912-0.153,2.677,0c0.688,0.229,0.077,0.383-1.377,0.383
		C176.068,193.362,175.456,193.209,176.222,192.979z"/>
</g>
<g id="layer5">
	<path fill="#E4E4E4" d="M166.201,247.286c-1.836-0.153-3.212-0.535-3.059-0.841c0.152-0.307,1.223-2.371,2.37-4.513l2.065-4.054
		h-11.473c-6.272,0-11.474-0.229-11.474-0.536c0.076-0.382,1.683-3.671,3.671-7.495c3.06-5.891,3.901-6.885,5.737-7.113
		c1.912-0.229,2.065-0.077,2.065,2.37c0,4.36,2.064,6.119,7.572,6.502c3.136,0.229,4.665,0.077,4.665-0.536
		c0-0.534-1.453-0.841-3.747-0.841c-4.437,0-6.578-1.529-7.267-5.125l-0.383-2.523h8.72h8.796v2.294c0,1.301-1.07,4.36-2.294,6.885
		l-2.295,4.589h10.555h10.633l1.835-3.978c1.071-2.371,1.912-3.441,2.065-2.677c0.307,1.529,3.442,2.447,5.278,1.606
		c1.07-0.459,0.765-0.688-1.301-0.995c-2.295-0.382-2.677-0.765-2.753-2.523c-0.153-4.207,1.452-5.201,7.954-5.201
		c7.037,0,9.638,1.071,9.943,4.131c0.383,2.829-0.765,3.518-6.119,3.518c-2.447,0-4.437,0.383-4.437,0.765
		c0,1.071,7.649,0.918,9.944-0.229c2.141-1.071,2.906-4.131,1.529-6.655c-0.765-1.453-0.611-1.529,3.06-1.529h3.824l3.442-6.884
		l3.441-6.885h-11.396h-11.396l-3.366,6.502c-4.436,8.796-7.037,9.637-6.577,2.219c0.229-3.442,0.382-3.748,2.523-4.207l2.295-0.459
		l-2.295-0.306c-1.836-0.23-2.294-0.689-2.294-2.219c0-1.836,0.152-1.912,4.818-1.912c3.671,0,4.742-0.229,4.742-1.147
		c0.076-0.611,1.53-3.9,3.289-7.267l3.213-6.119l12.467-0.229l12.468-0.229l-3.747,7.342l-3.749,7.267h4.514h4.436l-1.453,2.906
		c-1.529,2.983-7.343,10.786-8.796,11.78c-0.459,0.305-2.064,0.611-3.595,0.611c-2.524,0-2.83,0.229-4.972,4.666
		c-1.683,3.672-3.06,5.277-6.043,7.266c-3.824,2.602-3.824,2.602-13.003,2.602h-9.255l-1.989,4.13
		c-1.683,3.442-2.447,4.13-4.589,4.513C181.193,247.21,169.873,247.669,166.201,247.286z"/>
	<path fill="#E4E4E4" d="M134.841,219.062c-0.077-1.912-0.688-4.207-1.3-5.201c-1.071-1.606-1.071-1.913,0.229-3.519
		c1.377-1.683,1.912-1.759,13.003-1.836c8.796-0.076,11.626,0.153,11.626,0.842c0,1.683-5.66,12.62-6.73,13.003
		c-1.76,0.688-1.836-0.307-0.612-4.59c1.453-4.895,1.453-5.124,0.535-5.124c-0.306,0-1.224,2.218-1.988,4.972l-1.301,4.972h-3.288
		h-3.213l-0.994-4.131c-1.071-4.437-1.989-6.425-2.601-5.736c-0.306,0.229,0.076,2.142,0.688,4.206
		c1.606,5.278,1.53,5.661-1.3,5.661C135.147,222.581,135.071,222.505,134.841,219.062z"/>
	<path fill="#E4E4E4" d="M175.992,221.434c0-0.611,0.765-2.677,1.683-4.59c1.53-3.135,1.912-3.441,4.437-3.441
		c3.671,0,5.354,1.912,5.354,5.966v3.213h-5.736C177.216,222.581,175.992,222.352,175.992,221.434z"/>
	<path fill="#E4E4E4" d="M188.842,218.604c-0.459-4.59-2.447-6.731-6.119-6.731c-1.912,0-2.218-0.229-1.912-1.529
		c0.383-1.454,0-1.53-10.632-1.53c-9.331,0-11.015-0.152-11.015-1.146c0-1.454,5.125-11.78,6.731-13.615
		c1.071-1.225,2.219-1.301,11.933-0.918c5.966,0.307,11.243,0.611,11.778,0.841c1.071,0.307-5.277,13.692-6.73,14.228
		c-0.383,0.076,2.065,0.229,5.507,0.229c5.66,0,6.349,0.153,6.578,1.453c0.153,0.842-0.229,1.912-0.918,2.447
		c-1.147,0.765-1.147,0.918-0.076,1.378c0.841,0.305,1.147,1.529,1.147,4.665v4.207h-2.983h-2.906L188.842,218.604z"/>
	<path fill="#E4E4E4" d="M128.799,220.516c0.229-0.383,0.918-1.988,1.606-3.596c1.453-3.441,2.295-3.059,3.06,1.301l0.536,2.83
		h-2.754C129.717,221.051,128.646,220.822,128.799,220.516z"/>
</g>
</svg>
