<?xml version="1.0" encoding="utf-8"?>
<!-- Generator: Adobe Illustrator 16.0.0, SVG Export Plug-In . SVG Version: 6.00 Build 0)  -->
<!DOCTYPE svg PUBLIC "-//W3C//DTD SVG 1.1//EN" "http://www.w3.org/Graphics/SVG/1.1/DTD/svg11.dtd">
<svg version="1.1" id="Calque_1" xmlns="http://www.w3.org/2000/svg" xmlns:xlink="http://www.w3.org/1999/xlink" x="0px" y="0px"
	 width="295.03px" height="291.012px" viewBox="0 0 295.03 291.012" enable-background="new 0 0 295.03 291.012"
	 xml:space="preserve">
<g>
	<g>
		<path fill-rule="evenodd" clip-rule="evenodd" d="M8.558,173.758c1.474-8.038,3.067-16.056,4.398-24.117
			c2.498-15.144,4.843-30.313,7.313-45.854c12.989,0,25.801-0.805,38.459,0.247c10.666,0.886,16.389,7.92,16.993,18.629
			c0.694,12.258-0.88,24.307-5.467,35.797c-5.426,13.585-15.777,20.58-30.811,20.544c-10.296-0.022-20.593-0.529-30.887-0.821
			C8.558,176.708,8.558,175.233,8.558,173.758z M22.99,167.624c6.186,0,12.033-0.009,17.884,0.002
			c8.799,0.015,14.731-4.54,17.103-12.574c2.426-8.214,4.319-16.745,5.048-25.258c0.891-10.411-3.984-15.202-14.371-15.806
			c-4.992-0.289-10.021-0.256-15.012,0.014c-1.025,0.055-2.655,1.698-2.833,2.799C28.096,133.671,25.577,150.572,22.99,167.624z"/>
		<path fill-rule="evenodd" clip-rule="evenodd" d="M128.026,45.44c-1.023,17.605-2.046,35.211-3.082,53.07
			c-3.281,0-5.991,0-9.191,0c0.891-11.852,1.777-23.643,2.663-35.434c-0.203-0.098-0.406-0.194-0.609-0.291
			c-3.672,6.598-7.353,13.191-11.01,19.797c-2.115,3.821-4.429,7.556-6.222,11.523c-1.818,4.023-5.209,2.794-7.993,2.53
			c-1.005-0.094-2.201-2.599-2.58-4.18c-2.314-9.651-4.416-19.354-6.616-29.032c-0.048-0.212-0.433-0.348-1.225-0.946
			c-0.972,4.105-1.875,7.949-2.796,11.789c-1.773,7.39-3.488,14.795-5.426,22.143c-0.248,0.943-1.598,2.089-2.58,2.246
			c-2.13,0.342-4.354,0.106-7.046,0.106c4.496-18.067,8.883-35.695,13.271-53.322c3.244,0,6.489,0,9.735,0
			c0.593,1.939,1.305,3.854,1.763,5.825c2.535,10.925,5.01,21.864,7.683,33.577c7.449-13.636,14.488-26.519,21.526-39.402
			C121.536,45.44,124.781,45.44,128.026,45.44z"/>
		<path fill-rule="evenodd" clip-rule="evenodd" d="M243.069,128.626c-4.931,5.962-9.747,12.023-14.821,17.862
			c-6.164,7.091-12.544,13.993-19.411,21.622c9.759,0,18.851,0,27.741,0c0.283,0.816,0.468,1.094,0.459,1.362
			c-0.277,8.598-0.445,8.738-8.885,8.756c-11.202,0.022-22.405,0.08-33.606,0.121c-1.438,0.006-4.277,0.187-4.224-1.654
			c0.056-1.841,1.215-5.491,3.23-7.824c9.878-11.438,20.054-22.619,30.354-34.149c-7.351,0-14.331-0.224-21.285,0.09
			c-3.766,0.169-4.835-0.947-3.84-4.497c0.54-1.927,0.756-3.943,1.153-6.113c14.561,0,28.847,0,43.134,0
			C243.069,125.676,243.069,127.15,243.069,128.626z"/>
		<path fill-rule="evenodd" clip-rule="evenodd" d="M153.03,156.012c-2.349,8.846,0.26,12.41,8.772,12.44
			c6.038,0.022,12.077,0.082,18.114,0.151c0.256,0.002,0.507,0.271,1.01,0.557c-0.263,2.021-0.254,4.249-0.929,6.243
			c-0.378,1.115-1.875,2.599-2.9,2.625c-8.636,0.221-17.334,0.751-25.905-0.026c-7.874-0.715-10.735-4.84-10.922-12.802
			c-0.231-9.78,1.255-19.279,4.535-28.518c2.825-7.958,8.405-12.155,16.779-12.454c5.262-0.188,10.544-0.202,15.804,0.017
			c6.454,0.268,11.232,4.222,11.496,10.482c0.251,5.96-0.714,11.979-1.268,17.96c-0.256,2.761-2.066,3.408-4.685,3.375
			C172.939,155.936,162.943,156.012,153.03,156.012z M176.412,147.03c1-10.011-0.076-12.535-6.343-12.972
			c-10.12-0.707-14.156,1.581-15.882,12.972C161.519,147.03,168.825,147.03,176.412,147.03z"/>
		<path fill-rule="evenodd" clip-rule="evenodd" d="M100.152,124.201c-1.233,7.61-2.406,14.649-3.505,21.699
			c-0.767,4.918-1.636,9.832-2.082,14.78c-0.507,5.633,1.646,7.732,7.347,7.761c4.54,0.025,9.081,0.007,13.811,0.007
			c2.365-14.879,4.678-29.434,6.992-43.99c4.184,0,7.945,0,12.123,0c-1.837,11.532-3.63,22.749-5.41,33.97
			c-0.778,4.909-1.75,9.803-2.208,14.742c-0.271,2.916-1.359,4.331-4.252,4.389c-10.385,0.205-20.784,0.828-31.151,0.48
			c-6.222-0.21-9.962-4.659-9.627-10.976c0.418-7.883,1.658-15.728,2.697-23.567c0.671-5.065,1.841-10.073,2.354-15.15
			c0.315-3.104,1.297-4.523,4.581-4.193C94.29,124.399,96.801,124.201,100.152,124.201z"/>
		<path fill-rule="evenodd" clip-rule="evenodd" d="M157.115,77.299c0.393-1.896,0.777-3.321,0.967-4.772
			c0.473-3.613-1.175-5.71-4.803-5.824c-4.693-0.149-9.396-0.036-14.256-0.036c-0.647-3.432,0.264-5.608,3.625-5.655
			c5.401-0.076,10.88-0.294,16.189,0.481c5.17,0.755,6.944,3.488,6.326,8.802c-0.967,8.299-2.288,16.562-3.72,24.796
			c-0.183,1.06-1.872,2.573-2.949,2.646c-6.99,0.479-14.016,0.978-21.004,0.732c-4.141-0.146-5.871-3.465-5.84-7.504
			c0.073-8.927,4.75-13.612,13.633-13.663C149.104,77.28,152.925,77.299,157.115,77.299z M156.376,82.619
			c-4.298,0-8.094-0.047-11.889,0.015c-3.338,0.054-5.15,2.194-5.568,5.148c-0.204,1.453,0.761,4.372,1.418,4.438
			c4.575,0.463,9.209,0.396,13.824,0.35c0.415-0.004,1.088-1.005,1.187-1.617C155.762,88.378,156.004,85.777,156.376,82.619z"/>
		<path fill-rule="evenodd" clip-rule="evenodd" d="M221.583,93.217c0.852,3.935-0.228,5.656-3.871,5.55
			c-4.82-0.143-9.692,0.336-14.456-0.21c-5.447-0.623-8.28-3.518-7.722-8.825c0.79-7.51,2.319-15.02,4.369-22.295
			c1.384-4.913,6.228-6.397,10.879-6.814c4.087-0.368,8.24-0.181,12.353,0.018c1.691,0.083,4.189-0.349,3.986,2.753
			c-0.18,2.691-1.754,3.282-4.219,3.166c-3.521-0.167-7.062,0.07-10.591,0.028c-3.768-0.043-6.289,1.913-7.159,5.291
			c-1.237,4.805-2.169,9.732-2.689,14.663c-0.472,4.456,1.596,6.466,6.213,6.642C212.916,93.344,217.167,93.217,221.583,93.217z"/>
		<path fill-rule="evenodd" clip-rule="evenodd" d="M170.115,98.183c1.352-9.247,2.746-18.193,3.944-27.167
			c0.724-5.408,4.81-10.854,9.984-10.936c6.877-0.108,7.058-0.652,10.185,1.331c0.685,0.434,1.203,2.085,0.92,2.841
			c-0.354,0.943-1.55,2.054-2.507,2.188c-2.313,0.322-4.7,0.179-7.055,0.115c-2.735-0.074-4.021,1.403-4.42,3.898
			c-1.203,7.523-2.563,15.027-3.526,22.582C176.845,99.282,176.81,99.485,170.115,98.183z"/>
	</g>
	<g>
		<path fill-rule="evenodd" clip-rule="evenodd" d="M256.35,131.298c0.872,5.602,1.325,11.343,1.325,17.189
			c0,61.251-49.653,110.904-110.9,110.904c-26.436,0-50.71-9.25-69.765-24.687l17.006,5.798
			c15.071,8.462,32.458,13.285,50.972,13.285c57.587,0,104.273-46.686,104.273-104.274c0-8.521-1.022-16.802-2.95-24.729
			L256.35,131.298z"/>
		<g>
			<path fill="none" d="M222.546,219.203h-10.893l-9.62,17.602C209.615,231.84,216.509,225.917,222.546,219.203z"/>
			<polygon fill="none" points="147.726,219.203 158.361,199.745 126.427,199.745 115.792,219.203 			"/>
			<polygon fill="#E3E3E3" points="147.726,219.203 179.687,219.203 190.322,199.745 158.389,199.745 169.024,180.287 
				137.062,180.287 126.427,199.745 158.361,199.745 			"/>
			<path fill="#E3E3E3" d="M126.427,258.119h3.664c-1.126-0.17-2.251-0.345-3.364-0.549L126.427,258.119z"/>
			<path fill="#E3E3E3" d="M161.467,252.487l7.557-13.827h-31.933l10.635-19.457h-31.934l10.635-19.458H94.465l-10.635,19.458
				h31.933l-10.634,19.457h31.933l-7.63,13.963c5.075,0.759,10.268,1.165,15.556,1.165
				C150.595,253.788,156.099,253.34,161.467,252.487z"/>
			<path fill="#E3E3E3" d="M211.654,219.203h-31.962l-10.635,19.457h30.05c0.987-0.6,1.961-1.222,2.927-1.855L211.654,219.203z"/>
			<path fill="#E3E3E3" d="M200.99,180.287l-10.634,19.458h31.932l-10.634,19.458h10.893c5.317-5.914,9.968-12.439,13.833-19.458
				h-14.062l10.636-19.458H200.99z"/>
			<path d="M155.822,12.431c54.116,0,100.867,31.541,122.871,77.242l9.652,16.864C269.644,49.699,217.612,7.566,154.513,7.566
				c-60.665,0-112.473,37.932-132.995,91.373l7.312,0.197C48.664,48.383,98.043,12.431,155.822,12.431z"/>
			<path d="M24.296,184.593l-8.072-0.434c4.946,20.083,14.154,38.49,26.607,54.206l12.214,2.121
				C40.73,224.774,30.041,205.703,24.296,184.593z"/>
			<path fill="#E50055" d="M234.82,62.458c24.314,22.832,39.502,55.271,39.502,91.257c0,69.124-56.037,125.16-125.161,125.16
				c-31.812,0-60.851-11.868-82.932-31.417l-14.018-7.462c24.175,27.094,59.358,44.154,98.526,44.154
				c72.9,0,131.998-59.098,131.998-131.998c0-34.228-13.027-65.412-34.396-88.866L234.82,62.458z"/>
			<path fill="#F7E800" d="M31.63,184.692c13.529,51.394,60.318,89.293,115.957,89.293c23.199,0,44.859-6.589,63.211-17.997
				l1.886-11.019c-18.651,13.275-41.465,21.083-66.103,21.083c-51.585,0-95.176-34.228-109.302-81.211L31.63,184.692z"/>
			<path fill="#F7E800" d="M53.684,79.52c-4.837,6.085-9.096,12.649-12.692,19.61l4.589-0.363c1.054-1.999,2.165-3.962,3.333-5.888
				L53.684,79.52z"/>
		</g>
	</g>
	<g>
		<path d="M116.481,205.156c-0.284-0.08-0.571,0.083-0.65,0.362c-0.05,0.175-4.982,17.542-6.046,21.163
			c-0.422,1.438-1.349,2.307-2.477,2.327c-0.014,0-0.027,0-0.041,0c-1.158,0-2.174-0.895-2.658-2.346
			c-1.165-3.497-6.123-20.968-6.172-21.145c-0.079-0.278-0.37-0.441-0.65-0.362c-0.279,0.08-0.441,0.371-0.362,0.65
			c0.051,0.176,5.014,17.67,6.187,21.189c0.623,1.868,2.054,3.064,3.657,3.064c0.02,0,0.039,0,0.059,0
			c1.588-0.028,2.917-1.21,3.467-3.083c1.065-3.625,6-20.996,6.05-21.171C116.922,205.527,116.759,205.236,116.481,205.156z"/>
		<path d="M83.797,205.137c-6.236,0-9.269,2.257-9.269,6.902v11.767c0,4.504,3.932,6.902,6.771,6.902h8.94
			c0.291,0,0.525-0.235,0.525-0.525c0-0.291-0.234-0.526-0.525-0.526h-8.94c-2.397,0-5.719-2.032-5.719-5.851v-5.357h17.026
			c0.29,0,0.525-0.235,0.525-0.525v-5.556C93.132,209.667,91.919,205.137,83.797,205.137z M92.081,217.396h-16.5v-5.357
			c0-2.511,0.852-5.851,8.217-5.851c5.419,0,8.283,2.137,8.283,6.179V217.396z"/>
		<path d="M131.851,205.137c-6.237,0-9.27,2.257-9.27,6.902v11.767c0,4.504,3.932,6.902,6.771,6.902h8.94
			c0.291,0,0.526-0.235,0.526-0.525c0-0.291-0.235-0.526-0.526-0.526h-8.94c-2.396,0-5.719-2.032-5.719-5.851v-5.357h17.025
			c0.291,0,0.526-0.235,0.526-0.525v-5.556C141.185,209.667,139.972,205.137,131.851,205.137z M140.133,217.396h-16.5v-5.357
			c0-2.511,0.852-5.851,8.218-5.851c5.419,0,8.282,2.137,8.282,6.179V217.396z"/>
		<path d="M160.445,205.137h-12.16c-0.291,0-0.526,0.234-0.526,0.525v24.521c0,0.29,0.235,0.525,0.526,0.525
			c0.29,0,0.525-0.235,0.525-0.525v-23.994h11.635c2.801,0,5.391,0.685,5.391,5.653v18.341c0,0.29,0.235,0.525,0.526,0.525
			s0.525-0.235,0.525-0.525v-18.341C166.887,205.832,163.21,205.137,160.445,205.137z"/>
		<path d="M183.255,229.656h-4.272c-1.325,0-1.841-0.497-1.841-1.775v-21.692h5.72c0.29,0,0.525-0.235,0.525-0.526
			s-0.235-0.525-0.525-0.525h-5.72v-6.705c0-0.291-0.234-0.526-0.525-0.526s-0.526,0.235-0.526,0.526v6.705h-2.761
			c-0.29,0-0.525,0.234-0.525,0.525s0.235,0.526,0.525,0.526h2.761v21.692c0,1.289,0.503,2.827,2.893,2.827h4.272
			c0.291,0,0.526-0.235,0.526-0.525C183.782,229.892,183.546,229.656,183.255,229.656z"/>
		<path d="M197.781,218.494l-1.071-0.546c-0.53-0.273-1.05-0.534-1.557-0.787c-3.854-1.928-6.638-3.32-6.638-6.371
			c0-3.312,1.197-4.602,4.272-4.602h9.991c0.291,0,0.526-0.235,0.526-0.526s-0.235-0.525-0.526-0.525h-9.991
			c-3.683,0-5.325,1.743-5.325,5.653c0,3.7,3.346,5.373,7.22,7.312c0.503,0.252,1.02,0.511,1.546,0.781l1.075,0.55
			c3.871,1.969,6.002,3.053,6.002,5.754c0,2.757-1.359,4.47-3.55,4.47h-11.767c-0.29,0-0.526,0.235-0.526,0.526
			c0,0.29,0.236,0.525,0.526,0.525h11.767c2.795,0,4.602-2.167,4.602-5.521C204.357,221.841,201.741,220.51,197.781,218.494z"/>
	</g>
</g>
</svg>
