<?xml version="1.0" encoding="utf-8"?>
<!-- Generator: Adobe Illustrator 16.0.0, SVG Export Plug-In . SVG Version: 6.00 Build 0)  -->
<!DOCTYPE svg PUBLIC "-//W3C//DTD SVG 1.1//EN" "http://www.w3.org/Graphics/SVG/1.1/DTD/svg11.dtd">
<svg version="1.1" id="Layer_1" xmlns="http://www.w3.org/2000/svg" xmlns:xlink="http://www.w3.org/1999/xlink" x="0px" y="0px"
	 width="214.888px" height="193.518px" viewBox="0 0 214.888 193.518" enable-background="new 0 0 214.888 193.518"
	 xml:space="preserve">
<path fill-rule="evenodd" clip-rule="evenodd" fill="#C5C5C6" d="M62.927,3.85c8.636-0.086,16.237,0.929,22.7,3.054
	c0.796,0.261,1.491,0.323,2.234,0.638c1.184,0.502,2.458,1.017,3.601,1.504c0.947,0.404,1.827,0.726,2.644,1.231
	c0.472,0.292,0.982,0.398,1.458,0.684c1.631,0.977,3.276,1.986,4.786,3.1c1.089,0.803,2.024,1.831,3.1,2.644
	c0.22,0.166,0.364,0.433,0.547,0.638c0.748,0.84,1.551,1.59,2.233,2.507c0.351,0.471,0.885,0.846,1.231,1.322
	c1.368,1.881,2.922,3.63,4.285,5.515c0.542,0.75,0.987,1.503,1.504,2.279c0.476,0.714,1.091,1.407,1.55,2.143
	c0.045,0.121,0.091,0.243,0.137,0.364c0.2,0.32,0.521,0.645,0.729,0.958c0.106,0.159,0.11,0.358,0.228,0.501
	c0.337,0.409,1.016,0.132,1.55,0.319c0.285,0.1,0.714,0.169,1.003,0.319c0.424,0.22,1.378,0.991,1.641,1.368
	c0.982,1.408,1.551,3.049,2.279,4.74c0.498,1.156,1.1,2.435,1.595,3.601c0.432,1.016,0.751,2.031,1.231,2.963
	c0.092,0.178,0.063,0.351,0.137,0.547c0.088,0.236,0.273,0.464,0.365,0.684c0.045,0.198,0.091,0.396,0.137,0.593
	c1.4,3.297,2.791,6.77,4.194,10.074c0.258,0.608,0.351,1.108,0.592,1.732c0.054,0.139,0.216,0.281,0.273,0.41
	c0.107,0.241,0.077,0.481,0.183,0.729c0.059,0.138,0.214,0.272,0.273,0.41c0.045,0.198,0.091,0.395,0.137,0.593
	c0.213,0.509,0.58,1.128,0.775,1.641c0.482,1.271,0.856,2.404,1.368,3.646c0.262,0.636,0.688,1.324,0.866,2.005
	c0.178,0.682,0.091,1.966-0.183,2.416c-0.204,0.336-0.625,0.648-0.729,1.048c-0.118,0.457,0.262,0.966,0.365,1.276
	c0.03,0.228,0.061,0.456,0.091,0.684c0.247,0.849,0.577,1.912,0.82,2.781c0.046,0.334,0.091,0.668,0.137,1.003
	c0.062,0.228,0.205,0.47,0.273,0.684c0.046,0.319,0.091,0.638,0.137,0.958c0.477,1.583,0.777,3.504,1.186,5.15
	c0.03,0.319,0.061,0.639,0.091,0.958c0.134,0.569,0.232,1.156,0.365,1.732c0.045,0.486,0.091,0.972,0.137,1.458
	c0.21,0.906,0.195,2.03,0.41,3.008c0.015,0.471,0.031,0.942,0.046,1.414c0.084,0.396,0.207,1.136,0.091,1.641
	c-0.107,0.464-0.134,1.109-0.319,1.55c-1.545,3.68-4.581,6.182-7.612,8.388c-0.578,0.42-0.734,1.13-1.14,1.732
	c-0.776,1.15-1.842,2.155-3.054,2.872c-0.811,0.48-1.861,0.574-2.917,0.82c-0.456,0-0.912,0-1.368,0
	c-0.558,0.121-1.283,0.091-1.96,0.091c-0.258,0-0.517,0-0.775,0c-0.683,0.148-1.649,0.045-2.416,0.046
	c-1.258,0-2.639,0.045-3.965,0.045c-4.898,0-10.004-0.009-14.86-0.045c-1.018-0.008-2.104-0.041-3.054-0.046
	c-0.784-0.003-1.672,0.052-2.325-0.091c-0.334,0-0.669,0-1.003,0c-0.778,0-1.76,0.017-2.461-0.137
	c-0.973-0.015-1.945-0.03-2.917-0.045c-0.312-0.068-0.816,0.035-1.185-0.045c-0.312-0.068-0.816,0.035-1.185-0.045
	c-0.371-0.081-0.941,0.048-1.368-0.046c-0.756-0.166-1.772-0.066-2.507-0.228c-0.866-0.03-1.732-0.061-2.598-0.091
	c-0.552-0.121-1.212,0.042-1.823-0.091c-1.329-0.292-2.79-0.078-4.103-0.365c-0.851-0.03-1.702-0.061-2.552-0.091
	c-2.238-0.494-4.983-0.226-7.202-0.729c-0.623-0.03-1.247-0.061-1.869-0.091c-0.994-0.222-2.078-0.196-3.054-0.411
	c-0.593-0.03-1.186-0.061-1.778-0.09c-1.94-0.445-4.221-0.384-6.154-0.821c-0.35-0.016-0.699-0.031-1.049-0.046
	c-0.735-0.171-1.662-0.229-2.461-0.41c-0.258-0.015-0.517-0.03-0.775-0.045c-0.477-0.114-1.05-0.207-1.55-0.319
	c-0.547-0.124-0.99-0.008-1.504-0.136c-1.971-0.492-4.273-0.626-6.2-1.14c-0.501-0.062-1.003-0.122-1.504-0.183
	c-1.449-0.411-3.175-0.666-4.558-1.094c-0.228-0.031-0.456-0.061-0.684-0.091c-0.519-0.146-1.082-0.284-1.596-0.501
	c-2.06-0.872-3.825-2.26-5.014-4.011c-0.287-0.422-0.616-1.089-0.82-1.55c-0.076-0.258-0.152-0.517-0.228-0.775
	c-0.262-0.41-0.729-0.689-1.048-1.049c-0.422-0.475-0.763-0.979-1.14-1.504c-3.288-4.584-5.716-9.779-8.068-15.316
	c-0.251-0.591-0.314-1.123-0.547-1.732c-0.069-0.182-0.248-0.401-0.319-0.592c-0.812-2.183-1.458-4.475-2.188-6.701
	c-0.061-0.319-0.122-0.638-0.183-0.958c-0.442-1.349-0.748-2.972-1.14-4.376c-0.045-0.41-0.091-0.82-0.137-1.23
	c-1.089-4.267-1.435-10.959-0.365-15.499c0.016-0.243,0.031-0.486,0.046-0.729c0.083-0.337,0.236-0.686,0.319-1.003
	c0.115-0.438,0.049-0.823,0.183-1.23c0.07-0.213,0.209-0.456,0.273-0.684c0.045-0.288,0.091-0.577,0.137-0.866
	c0.106-0.243,0.213-0.486,0.319-0.729c0.072-0.246,0.016-0.412,0.091-0.638c0.336-1.002,0.786-2.111,1.185-3.054
	c0.101-0.239,0.066-0.499,0.183-0.729c0.641-1.271,1.181-2.69,1.915-3.875c0.288-0.465,0.396-0.995,0.684-1.458
	c1.382-2.232,2.861-4.348,4.331-6.473c0.121-0.106,0.243-0.213,0.364-0.319c0.668-0.896,1.428-1.667,2.097-2.553
	c0.197-0.182,0.395-0.364,0.592-0.546c0.882-1.167,2.333-2.542,3.51-3.419c0.182-0.197,0.365-0.395,0.547-0.593
	c0.619-0.468,1.162-1.054,1.778-1.504c2.217-1.622,4.46-3.215,6.792-4.741c0.171-0.112,0.375-0.116,0.547-0.228
	c0.748-0.484,1.503-0.84,2.325-1.276c0.926-0.491,1.895-1.103,2.872-1.55c2.076-0.95,4.238-1.731,6.382-2.598
	c0.714-0.289,1.392-0.343,2.142-0.593c0.681-0.227,1.58-0.563,2.28-0.775c0.243-0.03,0.486-0.061,0.729-0.091
	c0.785-0.223,1.835-0.488,2.644-0.729c0.44-0.061,0.881-0.122,1.321-0.183c1.136-0.291,2.619-0.453,3.784-0.729
	c0.365-0.016,0.729-0.031,1.094-0.045c1.148-0.255,2.455-0.15,3.646-0.41c0.623-0.016,1.246-0.031,1.869-0.046
	C62.348,3.896,62.768,3.95,62.927,3.85"/>
<path fill-rule="evenodd" clip-rule="evenodd" fill="#181716" d="M62.836,6.22c-0.27,0.159-1.32,0.068-1.732,0.091
	c-0.745,0.076-1.489,0.152-2.233,0.228c-0.228,0-0.457,0-0.684,0c-0.471,0.104-1.018,0.018-1.504,0.137
	c-0.496,0.121-1.131,0.201-1.641,0.319c-0.319,0.015-0.638,0.03-0.958,0.045c-0.997,0.234-2.264,0.456-3.236,0.729
	c-0.38,0.061-0.76,0.122-1.14,0.182c-1.731,0.493-3.608,0.898-5.196,1.55c-0.334,0.076-0.668,0.152-1.003,0.228
	c-2.598,1.086-5.222,2.078-7.612,3.328c-0.183,0.061-0.365,0.122-0.547,0.183c-0.818,0.485-1.707,0.962-2.507,1.458
	c-0.204,0.125-0.439,0.141-0.638,0.273c-1.542,1.026-3.148,1.975-4.649,3.054c-0.735,0.528-1.456,1.135-2.188,1.687
	c-0.253,0.19-0.474,0.494-0.729,0.684c-1.851,1.377-3.574,3.04-5.06,4.786c-0.106,0.125-0.311,0.183-0.411,0.319
	c-0.138,0.189-0.247,0.533-0.456,0.638c-0.267,0.134-0.39-0.013-0.501,0.274c-0.064,0.098,0.012,0.274-0.046,0.41
	c-0.055,0.129-0.319,0.252-0.228,0.411c0.306,0.819,1.463,0.381,2.371,0.592c0.211,0.049,0.6-0.017,0.866,0.046
	c0.485,0.112,1.192-0.081,1.732,0.045c0.557,0.13,1.241,0.098,1.778,0.228c0.501,0.015,1.003,0.031,1.504,0.046
	c0.19,0.049,0.327,0.178,0.501,0.228c0.456,0.046,0.912,0.091,1.368,0.137c0.665,0.16,1.506-0.061,2.143,0.091
	c0.684,0,1.367,0,2.051,0c0.861,0.199,2.266,0.046,3.236,0.046c2.379,0,5.127-0.042,7.156-0.046
	c1.673-0.002,3.361-0.006,4.923-0.091c0.694-0.038,2.25,0.085,2.735-0.137c0.074-0.033,0.199-0.197,0.273-0.228
	c0.562-0.015,1.125-0.031,1.687-0.046c0.9-0.209,2.051-0.14,3.009-0.228c0.555-0.051,1.39,0.026,1.732-0.045
	c0.912,0,1.823,0,2.735,0c0.692-0.16,1.611,0.073,2.325-0.091c0.557-0.128,1.224,0.011,1.824-0.137
	c0.057-0.014,0.294-0.048,0.364-0.091c0.046-0.076,0.091-0.152,0.137-0.228c0.136-0.066,0.536-0.021,0.638-0.046
	c0.347-0.083,1.397,0.04,1.504,0.091c0.124,0.06,0.226,0.289,0.365,0.365c0.263,0.146,0.617,0.111,0.729,0.41
	c0.209,0.326,0.09,1.794-0.046,2.143c-0.066,0.17-0.301,0.27-0.364,0.456c-0.016,0.152-0.031,0.304-0.046,0.456
	c-0.089,0.145-0.301,0.226-0.365,0.411c-0.076,0.222,0.025,0.392-0.091,0.547c-0.107,0.061-0.213,0.122-0.319,0.182
	c-0.122,0.136-0.036,0.431-0.137,0.593c-0.122,0.106-0.244,0.213-0.365,0.319c-0.045,0.198-0.091,0.395-0.137,0.593
	c-0.078,0.109-0.29,0.153-0.365,0.273c-0.046,0.212-0.091,0.425-0.137,0.638c-0.122,0.106-0.243,0.212-0.365,0.319
	c-0.03,0.167-0.061,0.334-0.091,0.502c-0.061,0.104-0.264,0.151-0.319,0.273c-0.015,0.183-0.03,0.365-0.045,0.547
	c-0.066,0.179-0.317,0.26-0.411,0.411c-0.03,0.152-0.061,0.304-0.091,0.456c-0.095,0.145-0.343,0.18-0.41,0.364
	c-0.016,0.198-0.03,0.396-0.046,0.593c-0.058,0.125-0.25,0.209-0.319,0.319c-0.031,0.152-0.061,0.304-0.091,0.456
	c-0.086,0.146-0.344,0.182-0.41,0.365c0,0.152,0,0.304,0,0.456c-0.072,0.249-0.296,0.32-0.41,0.501
	c-0.031,0.167-0.061,0.334-0.091,0.501c-0.052,0.095-0.323,0.284-0.41,0.365c-0.015,0.26-0.028,0.501,0.137,0.592
	C62,41.851,63.2,41.67,63.383,41.593c0.045-0.106,0.091-0.213,0.137-0.319c0.594-0.067,1.143-0.234,1.732-0.364
	c0.197,0,0.395,0,0.593,0c0.38-0.083,0.957-0.046,1.413-0.046c0.896,0,1.793,0,2.689,0c0.987,0,1.975,0,2.962,0
	c0.499,0,1.128,0.046,1.55-0.045c0.532,0,1.064,0,1.596,0c0.744-0.015,1.489-0.03,2.234-0.046c0.76,0,1.597,0.048,2.233-0.091
	c0.577,0,1.155,0,1.732,0c0.686-0.063,1.483,0.007,2.143-0.137c0.471-0.103,1.09,0.044,1.504-0.045c0.562,0,1.124,0,1.686,0
	c0.371-0.081,0.941,0.047,1.368-0.046c0.298-0.065,0.785,0.032,1.14-0.045c1.413-0.106,2.826-0.213,4.239-0.319
	c0.973-0.03,1.945-0.061,2.917-0.091c2.243-0.494,5.008-0.227,7.203-0.729c0.911-0.076,1.823-0.152,2.735-0.228
	c1.951-0.452,4.178-0.494,6.017-1.048c0.88-0.266,1.835-0.191,2.416-0.729c-0.098-0.445-0.464-0.761-0.684-1.094
	c-0.112-0.171-0.115-0.375-0.228-0.547c-0.341-0.521-0.751-1.075-1.094-1.596c-0.826-1.253-1.551-2.489-2.371-3.738
	c-0.866-1.32-1.954-2.556-2.872-3.829c-0.779-1.08-1.59-2.076-2.37-3.145c-0.447-0.612-1.097-1.125-1.55-1.732
	c-1.466-1.968-3.223-3.687-5.197-5.151c-0.237-0.176-0.443-0.463-0.684-0.638C89.783,9.419,77.979,6.254,62.836,6.22"/>
<path fill-rule="evenodd" clip-rule="evenodd" fill="#E2000B" d="M21.492,36.032c0,0.045,0,0.091,0,0.137c0.03,0,0.061,0,0.091,0
	c0.343,0.294,0.966,0.11,1.504,0.228c0.914,0.2,2.083,0.137,3.1,0.137c0.38,0,0.76,0,1.14,0c1.104,0.241,2.488-0.109,3.601,0.137
	c0.334,0,0.669,0,1.003,0c0.278,0.062,0.749,0.07,1.048,0.137c0.258,0,0.517,0,0.775,0c0.186,0.042,0.51,0.214,0.593,0.228
	c0.245,0.038,0.526-0.234,0.912-0.137c0.247,0.062,0.438,0.251,0.684,0.319c0.48,0.133,1.156,0.071,1.596,0.137
	c1.23,0.015,2.461,0.03,3.692,0.045c0.428,0,0.97-0.032,1.322,0.046c0.422,0.093,0.935-0.071,1.23,0.137
	c0.424,0.132,0.249,0.412,0.501,0.593c0.154,0.11,0.415,0.097,0.547,0.228c0.51,0.504,0.312,2.478,0.046,3.191
	c-0.054,0.144-0.266,0.221-0.319,0.365c-0.015,0.167-0.03,0.334-0.045,0.501c-0.07,0.157-0.289,0.229-0.365,0.365
	c-0.031,0.167-0.061,0.334-0.091,0.501c-0.083,0.159-0.32,0.22-0.41,0.365c-0.015,0.152-0.031,0.304-0.045,0.456
	c-0.071,0.206-0.318,0.29-0.41,0.456c-0.031,0.167-0.061,0.334-0.091,0.501c-0.077,0.12-0.272,0.126-0.365,0.228
	c-0.133,0.146-0.046,0.493-0.137,0.684c-0.049,0.104-0.188,0.217-0.228,0.319c-0.085,0.211-0.026,0.412-0.137,0.593
	c-0.089,0.146-0.343,0.181-0.411,0.365c0,0.136,0,0.273,0,0.41c-0.05,0.138-0.258,0.235-0.319,0.364
	c-0.03,0.183-0.061,0.365-0.091,0.547c-0.069,0.124-0.286,0.165-0.364,0.274c-0.108,0.15-0.021,0.347-0.091,0.547
	c-0.048,0.135-0.223,0.24-0.273,0.365c-0.015,0.167-0.03,0.334-0.046,0.501c-0.059,0.16-0.29,0.229-0.364,0.365
	c-0.015,0.167-0.03,0.334-0.046,0.501c-0.053,0.149-0.267,0.266-0.319,0.41c0,0.122,0,0.244,0,0.365
	c-0.087,0.255-0.403,0.336-0.501,0.547c-0.015,0.152-0.03,0.304-0.045,0.456c-0.063,0.161-0.262,0.262-0.319,0.456
	c0,0.137,0,0.273,0,0.41c-0.059,0.16-0.282,0.232-0.364,0.365c-0.071,0.113,0.007,0.259-0.046,0.41
	c-0.057,0.161-0.259,0.262-0.319,0.41c-0.016,0.198-0.031,0.396-0.046,0.593c-0.036,0.107-0.187,0.218-0.228,0.319
	c-0.083,0.203-0.041,0.359-0.137,0.547c-0.137,0.107-0.273,0.213-0.41,0.319c-0.083,0.131,0.008,0.323-0.045,0.501
	c-0.038,0.124-0.18,0.222-0.228,0.319c-0.016,0.167-0.031,0.334-0.046,0.501c-0.072,0.208-0.339,0.303-0.411,0.501
	c0,0.122,0,0.243,0,0.365c-0.047,0.154-0.224,0.274-0.273,0.41c-0.015,0.152-0.03,0.304-0.045,0.456
	c-0.085,0.221-0.365,0.317-0.456,0.501c-0.016,0.137-0.031,0.274-0.046,0.411c-0.061,0.147-0.265,0.248-0.319,0.41
	c-0.015,0.197-0.03,0.395-0.045,0.592c-0.056,0.113-0.227,0.234-0.273,0.365c-0.066,0.188,0.02,0.371-0.091,0.501
	c-0.078,0.092-0.217,0.102-0.273,0.228c-0.015,0.183-0.03,0.365-0.045,0.547c-0.06,0.166-0.305,0.29-0.365,0.456
	c0,0.136,0,0.273,0,0.41c-0.061,0.165-0.303,0.246-0.365,0.41c-0.015,0.152-0.03,0.304-0.045,0.456
	c-0.053,0.123-0.229,0.24-0.273,0.365c-0.016,0.197-0.03,0.395-0.045,0.592c-0.056,0.125-0.251,0.209-0.319,0.319
	c-0.046,0.183-0.091,0.365-0.137,0.547c-0.062,0.097-0.229,0.153-0.273,0.273c-0.015,0.182-0.031,0.365-0.045,0.547
	c-0.036,0.099-0.193,0.233-0.228,0.319c-0.09,0.218,0.011,0.411-0.091,0.592c-0.106,0.092-0.213,0.183-0.319,0.273
	c-0.015,0.152-0.03,0.304-0.045,0.456c-0.052,0.168-0.223,0.324-0.273,0.501c0,0.137,0,0.273,0,0.41
	c-0.084,0.235-0.417,0.312-0.501,0.547c0,0.121,0,0.243,0,0.364c-0.035,0.1-0.192,0.213-0.228,0.319
	c-0.015,0.198-0.03,0.395-0.045,0.592c-0.051,0.133-0.227,0.24-0.273,0.365c-0.073,0.196,0.006,0.352-0.091,0.501
	c-0.082,0.127-0.305,0.171-0.364,0.319c-0.016,0.183-0.031,0.365-0.046,0.547c-0.028,0.097-0.155,0.235-0.183,0.319
	c0,0.152,0,0.304,0,0.456c-0.063,0.192-0.282,0.306-0.364,0.456c-0.016,0.137-0.03,0.274-0.046,0.411
	c-0.052,0.138-0.259,0.234-0.319,0.364c-0.015,0.198-0.03,0.395-0.046,0.593c-0.033,0.102-0.189,0.233-0.228,0.319
	c-0.1,0.222-0.019,0.496-0.137,0.684c-0.076,0.121-0.224,0.196-0.274,0.364c-0.401,1.368-0.338,2.666,0.137,3.875
	c0.264,0.105,0.569,0.195,0.775,0.365c0.128,0.106,0.076,0.316,0.229,0.41c0.361,0.307,1.159,0.19,1.641,0.365
	c0.148,0.054,0.441,0.131,0.592,0.228c0.125,0.08,0.204,0.264,0.365,0.319c0.881,0.076,1.763,0.152,2.644,0.228
	c0.365,0,0.729,0,1.094,0c0.731,0.16,1.508,0.292,2.279,0.319c0.015,0.076,0.03,0.152,0.045,0.228
	c0.309,0.074,0.733,0.14,1.094,0.228c0.647,0.158,1.371-0.053,1.96,0.091c0.148,0.037,0.628-0.063,0.912,0
	c0.322,0.072,0.733,0.005,1.094,0.091c0.313,0.075,0.661,0.174,1.048,0.183c0.1,0.216,0.168,0.281,0.501,0.273
	c0.291,0.177,0.703,0.049,1.094,0.137c0.945,0.209,2.146,0.011,3.146,0.228c0.38,0.015,0.76,0.03,1.14,0.045
	c0.302,0.071,0.707,0.156,1.002,0.228c0.122,0,0.243,0,0.365,0c0.133,0.046,0.232,0.222,0.364,0.273
	c0.36,0.14,1.101,0.14,1.368,0.182c1.23,0.045,2.461,0.091,3.692,0.137c0.305,0.068,1.164,0.083,1.413,0.228
	c0.015,0.045,0.03,0.091,0.045,0.137c0.109,0.123,0.367,0.186,0.547,0.228c0.304,0,0.608,0,0.912,0
	c0.613,0.135,1.385,0.191,2.051,0.228c0.547,0,1.095,0,1.641,0c0.335,0.073,0.773,0.009,1.14,0.091
	c0.489,0.11,1.047,0.201,1.595,0.228c0.017,0.095,0.011,0.088,0.046,0.137c0.306,0.294,0.708,0.11,1.231,0.228
	c0.777,0.176,1.806,0.072,2.644,0.182c0.196,0.026,0.804-0.076,1.139,0c0.546,0.124,1.167,0.003,1.732,0.137
	c0.229,0.054,0.539,0.123,0.775,0.182c0.152,0,0.304,0,0.456,0c0.082,0.034,0.184,0.188,0.273,0.228
	c0.304,0.061,0.608,0.121,0.912,0.182c0.866,0.03,1.732,0.061,2.598,0.091c0.671,0.151,1.454-0.054,2.188,0.091
	c0.102,0.02,0.625-0.019,0.912,0.045c0.714,0.091,1.428,0.182,2.142,0.273c0,0.045,0,0.091,0,0.137
	c0.104,0.056,0.103,0.075,0.274,0.091c0.288,0.178,0.761,0.049,1.14,0.136c0.65,0.151,1.32,0.088,2.143,0.091
	c0.538,0.002,1.306,0.004,1.823,0.091c0.619,0.105,1.643-0.014,2.279,0.137c0.487,0.116,1.017,0.033,1.458,0.137
	c0.183,0,0.365,0,0.547,0c0.504,0.144,0.992,0.306,1.595,0.456c0.441,0,0.881,0,1.322,0c0.419,0.014,1.145-0.003,1.55,0.091
	c0.54,0.126,1.247-0.067,1.732,0.046c0.289,0,0.578,0,0.866,0c0.912,0.03,1.823,0.061,2.735,0.091
	c0.447,0.103,1.05,0.077,1.505,0.183c0.303,0.015,0.607,0.031,0.911,0.046c0.072,0.024,0.169,0.153,0.228,0.182
	c0.189,0.093,0.525,0.088,0.729,0.137c0.641,0.15,1.363-0.048,1.96,0.091c0.273,0,0.547,0,0.82,0c0.648,0,1.973-0.076,2.689,0.091
	c1.125,0,2.249,0,3.373,0c0.904,0.205,2.566,0.046,3.601,0.046c0.334,0,0.669,0,1.003,0c0.406,0.092,1.021,0.045,1.504,0.045
	c1.002,0,2.006,0,3.008,0c3.335,0,6.822-0.076,9.892-0.182c0.726-1.136-0.243-4.188-0.547-5.379
	c-0.016-0.441-0.03-0.881-0.045-1.322c-0.047-0.156-0.214-0.239-0.273-0.364c-0.119-0.248-0.005-0.4-0.274-0.501
	c-0.208-0.147-0.765-0.193-1.14-0.137c-0.575,0.086-1.212,0.091-1.869,0.091c-0.304,0-0.608,0-0.912,0
	c-0.829,0.18-1.876-0.014-2.735,0.183c-2.112,0.483-5.013,0.364-7.612,0.365c-2.822,0-5.783,0.112-8.159-0.41
	c-0.258,0-0.517,0-0.775,0c-0.751-0.163-1.718,0.023-2.461-0.137c-1.337-0.015-2.675-0.03-4.011-0.045
	c-0.436-0.095-1.083-0.045-1.596-0.045c-0.623-0.015-1.246-0.03-1.869-0.046c-0.365,0-0.73,0-1.094,0
	c-1.006-0.219-2.155-0.066-3.1-0.273c-0.334-0.015-0.668-0.03-1.003-0.045c-0.127-0.043-0.275-0.224-0.41-0.273
	c-0.17-0.063-0.48-0.057-0.638-0.091c-0.82-0.03-1.641-0.061-2.461-0.091c-0.458-0.1-1.127,0.066-1.641-0.045
	c-0.603-0.131-1.438,0.098-2.097-0.045c-0.878-0.191-1.911-0.148-2.735-0.319c-0.013-0.106-0.021-0.113-0.045-0.183
	c-0.686-0.083-1.573-0.12-2.279-0.273c-0.725-0.158-1.517,0.054-2.188-0.091c-0.471,0-0.942,0-1.413,0
	c-0.942-0.091-1.884-0.183-2.826-0.273c-0.231-0.061-0.24-0.24-0.41-0.319c-0.41-0.061-0.821-0.122-1.231-0.182
	c-1.368-0.045-2.735-0.091-4.103-0.137c-0.479-0.107-1.055-0.161-1.504-0.273c-0.106,0-0.213,0-0.319,0
	c-0.016-0.046-0.031-0.091-0.046-0.137c-0.089-0.076-0.294-0.149-0.41-0.182c-0.458-0.13-1.051-0.092-1.458-0.183
	c-0.334,0-0.668,0-1.003,0c-0.851-0.046-1.702-0.091-2.553-0.137c-0.249-0.057-1.2-0.127-1.367-0.228
	c-0.052-0.031-0.083-0.196-0.137-0.228c-0.122-0.074-0.426-0.108-0.547-0.137c-0.273,0-0.547,0-0.82,0
	c-0.204-0.032-0.529-0.092-0.729-0.137c-0.334,0-0.668,0-1.003,0c-0.409-0.089-0.905,0.012-1.367-0.091
	c-0.578-0.091-1.155-0.182-1.732-0.273c-0.016-0.076-0.031-0.152-0.046-0.228c-0.031,0-0.061,0-0.091,0
	c-0.368-0.271-1.01-0.123-1.55-0.229c-0.348-0.068-1.236-0.016-1.732-0.136c-0.259,0-0.517,0-0.775,0
	c-0.461-0.105-0.896-0.263-1.413-0.273c0-0.046,0-0.092,0-0.137c-0.045-0.03-0.091-0.061-0.137-0.091
	c-0.442-0.329-1.229-0.134-1.869-0.273c-0.495-0.107-1.114,0.026-1.641-0.091c-0.541-0.12-1.09-0.274-1.641-0.319
	c0-0.061,0-0.122,0-0.182c-0.482-0.215-1.106-0.227-1.732-0.365c-0.38,0-0.759,0-1.14,0c-0.288-0.067-0.824-0.104-1.048-0.273
	c-0.174-0.132-0.174-0.336-0.456-0.456c-0.383-0.163-0.962-0.098-1.14-0.456c-0.016-0.122-0.031-0.243-0.046-0.365
	c-0.152-0.122-0.304-0.243-0.456-0.365c0-0.106,0-0.212,0-0.319c-0.075-0.209-0.344-0.325-0.41-0.547
	c-0.197-0.66-0.161-1.817,0-2.461c0.015-0.228,0.03-0.456,0.045-0.684c0.037-0.103,0.185-0.192,0.228-0.273
	c0.03-0.197,0.061-0.395,0.091-0.593c0.034-0.068,0.191-0.155,0.228-0.228c0.016-0.183,0.03-0.365,0.046-0.547
	c0.046-0.137,0.227-0.273,0.273-0.41c0.078-0.23-0.021-0.458,0.091-0.638c0.091-0.076,0.183-0.152,0.273-0.228
	c0.016-0.167,0.031-0.334,0.046-0.502c0.044-0.098,0.232-0.203,0.273-0.319c0.015-0.198,0.03-0.395,0.046-0.593
	c0.054-0.148,0.266-0.266,0.319-0.41c0.015-0.152,0.03-0.304,0.045-0.456c0.092-0.162,0.339-0.202,0.41-0.41
	c0-0.122,0-0.244,0-0.365c0.052-0.177,0.221-0.324,0.274-0.501c0.015-0.152,0.03-0.304,0.045-0.456
	c0.076-0.17,0.339-0.257,0.41-0.41c0-0.122,0-0.243,0-0.365c0.056-0.181,0.26-0.298,0.319-0.456
	c0.016-0.167,0.031-0.334,0.045-0.501c0.062-0.159,0.29-0.229,0.365-0.365c0.015-0.152,0.03-0.304,0.045-0.456
	c0.051-0.137,0.263-0.234,0.319-0.364c0.015-0.167,0.03-0.335,0.045-0.502c0.075-0.204,0.324-0.319,0.41-0.501
	c0.015-0.137,0.03-0.274,0.045-0.41c0.106-0.091,0.213-0.183,0.319-0.274c0.03-0.212,0.061-0.425,0.091-0.638
	c0.074-0.145,0.284-0.234,0.365-0.365c0.03-0.167,0.061-0.334,0.091-0.501c0.092-0.14,0.301-0.175,0.365-0.365
	c0-0.152,0-0.304,0-0.456c0.067-0.188,0.312-0.264,0.41-0.41c0.098-0.145,0.005-0.321,0.091-0.501
	c0.059-0.123,0.266-0.209,0.319-0.364c0.079-0.232-0.02-0.421,0.091-0.593c0.085-0.133,0.304-0.205,0.365-0.365
	c0.015-0.137,0.03-0.273,0.045-0.41c0.068-0.108,0.298-0.153,0.365-0.273c0.031-0.228,0.061-0.456,0.091-0.684
	c0.06-0.106,0.225-0.202,0.273-0.319c0.079-0.191,0.032-0.349,0.137-0.501c0.122-0.091,0.243-0.182,0.365-0.273
	c0.015-0.183,0.03-0.365,0.045-0.547c0.062-0.173,0.3-0.291,0.365-0.456c0.067-0.172-0.005-0.326,0.091-0.456
	c0.088-0.12,0.334-0.139,0.41-0.274c0.015-0.182,0.03-0.365,0.046-0.547c0.043-0.13,0.22-0.252,0.273-0.365
	c0.031-0.152,0.061-0.304,0.091-0.456c0.08-0.178,0.25-0.189,0.365-0.319c0.143-0.161,0.062-0.551,0.183-0.729
	c0.136-0.106,0.273-0.212,0.41-0.319c0.03-0.152,0.061-0.304,0.091-0.456c0.084-0.12,0.292-0.173,0.365-0.319
	c0.03-0.213,0.061-0.425,0.091-0.638c0.122-0.091,0.244-0.182,0.365-0.273c0.072-0.113-0.01-0.262,0.045-0.41
	c0.06-0.159,0.295-0.259,0.365-0.41c0.03-0.213,0.061-0.425,0.091-0.638c0.122-0.106,0.243-0.213,0.364-0.319
	c0.031-0.167,0.061-0.334,0.091-0.501c0.122-0.106,0.243-0.212,0.365-0.319c0.015-0.167,0.03-0.334,0.045-0.502
	c0.152-0.136,0.304-0.273,0.456-0.41c0.015-0.152,0.03-0.304,0.045-0.456c0.063-0.17,0.301-0.271,0.365-0.456
	c0.072-0.208-0.014-0.353,0.091-0.501c0.137-0.091,0.273-0.183,0.41-0.274c0.03-0.182,0.061-0.364,0.091-0.547
	c0.122-0.106,0.243-0.212,0.365-0.319c0.015-0.167,0.03-0.334,0.045-0.501c0.137-0.122,0.273-0.243,0.41-0.365
	c0.015-0.152,0.03-0.304,0.046-0.456c0.069-0.196,0.31-0.257,0.41-0.41c0.095-0.146,0.003-0.324,0.091-0.501
	c0.152-0.122,0.304-0.244,0.456-0.365c0.082-0.132-0.013-0.326,0.046-0.501c0.062-0.185,0.271-0.268,0.365-0.411
	c0.097-0.146,0.002-0.314,0.091-0.501c0.152-0.121,0.304-0.243,0.456-0.364c0.03-0.183,0.061-0.365,0.091-0.547
	c0.152-0.091,0.304-0.182,0.456-0.273c0.11-0.146,0.035-0.428,0.136-0.592c0.079-0.128,0.303-0.218,0.365-0.365
	c0.101-0.237,0.008-0.375,0.137-0.547c0.081-0.107,0.281-0.128,0.365-0.228c0.03-0.197,0.061-0.395,0.091-0.593
	c0.126-0.279,0.51-1.019,0.319-1.595c-0.099-0.297-0.484-0.463-0.593-0.638c-0.164-0.263,0.029-0.361-0.41-0.41
	c-0.394-0.25-2.271-0.091-2.917-0.091c-1.196,0-2.941-0.08-4.103,0.182c-0.304,0.015-0.608,0.031-0.912,0.046
	c-0.243,0.065-0.323,0.253-0.593,0.319c-0.517,0.015-1.033,0.031-1.55,0.046c-0.625,0.138-1.463-0.011-2.142,0.137
	c-0.675,0.147-1.593-0.113-2.325,0.045c-0.968,0.21-2.685,0.045-3.784,0.045c-0.957,0-1.914,0-2.872,0
	c-0.469,0-1.066,0.042-1.458-0.045c-0.821,0-1.641,0-2.462,0c-1.307-0.076-2.613-0.152-3.92-0.228
	c-0.169-0.047-0.278-0.225-0.41-0.273c-0.547-0.016-1.094-0.031-1.641-0.046c-0.597-0.135-1.434-0.08-2.097-0.228
	c-0.44,0-0.881,0-1.322,0c-0.75-0.165-1.683,0.035-2.416-0.136c-0.313-0.074-1.034-0.089-1.322-0.229
	c-0.106-0.051-0.234-0.227-0.365-0.273c-0.546-0.195-1.277-0.13-1.777,0c-0.126,0.617-0.41,0.384-0.638,0.729
	c-0.031,0.167-0.061,0.334-0.091,0.501c-0.119,0.208-0.426,0.229-0.547,0.41c-0.104,0.157-0.037,0.444-0.137,0.593
	c-0.183,0.136-0.365,0.273-0.547,0.41c-0.015,0.122-0.03,0.243-0.045,0.365c-0.054,0.119-0.257,0.197-0.319,0.319
	c-0.09,0.177-0.041,0.392-0.137,0.547c-0.111,0.18-0.404,0.245-0.501,0.411c-0.016,0.136-0.031,0.273-0.046,0.41
	c-0.169,0.479-0.489,0.431-0.501,1.276c0.088,0.053,0.17,0.146,0.273,0.183c0.076,0,0.152,0,0.228,0
	c0.138,0.079,0.073,0.233,0.411,0.319c0.91,0.231,1.967,0.023,2.917,0.228c0.653,0,1.307,0,1.96,0
	c0.395,0.086,0.893-0.004,1.322,0.091C20.316,35.917,20.946,35.966,21.492,36.032"/>
<path fill-rule="evenodd" clip-rule="evenodd" fill="#181716" d="M116.533,35.622c-0.1,0.095-0.168,0.078-0.228,0.228
	c-0.04,0.059-0.041,0.112-0.046,0.228c0.304,0.309,1.056,1.433,0.958,1.96c-0.538,0.319-1.412,0.548-2.052,0.729
	c-0.319,0.045-0.638,0.091-0.957,0.137c-1.732,0.529-3.828,0.656-5.698,1.094c-0.562,0.046-1.125,0.091-1.687,0.137
	c-2.064,0.473-4.587,0.305-6.701,0.775c-0.258,0-0.517,0-0.775,0c-0.894,0.197-2.003,0.034-2.872,0.228c-0.198,0-0.395,0-0.593,0
	c-0.662,0.147-1.77,0.123-2.325,0.228c-0.319,0-0.638,0-0.958,0c-0.469,0.002-1.289,0.04-1.595,0.091c-0.456,0-0.912,0-1.368,0
	c-1.491,0.326-3.381-0.013-4.877,0.319c-0.532,0-1.064,0-1.596,0c-0.383,0.083-0.809-0.091-1.23,0
	c-0.403,0.087-1.12,0.193-1.596,0.091c-0.117-0.025-0.404-0.087-0.593-0.045c-0.701,0.153-1.567,0.092-2.37,0.091
	c-0.576,0-1.071-0.071-1.595,0.045c-0.623-0.015-1.246-0.031-1.869-0.045c-0.471,0.096-1.511-0.159-2.233,0
	c-1.005,0.221-2.457,0.094-3.601,0.091c-0.653-0.002-1.534-0.205-2.233-0.045c-0.563,0.128-1.299,0.176-1.869,0.365
	c-0.175,0.058-0.387,0.212-0.547,0.273c-0.26,0.099-0.491,0.062-0.729,0.183c-2.446,1.237-4.346,3.152-5.196,5.971
	c-0.133,0.441-0.099,1.024-0.183,1.458c-0.046,0.242,0.041,0.821,0.091,1.048c0.016,0.304,0.03,0.608,0.045,0.912
	c0.172,0.697,0.463,1.439,0.729,2.051c0.658,1.513,1.423,2.724,2.325,3.966c0.347,0.478,0.878,0.856,1.231,1.322
	c0.256,0.338,0.621,0.752,0.957,1.003c0.909,0.679,1.847,1.249,2.781,1.915c3.732,2.663,8.345,4.575,12.991,6.291
	c0.258,0.046,0.517,0.091,0.775,0.137c2.179,0.79,4.64,1.345,6.974,2.006c0.425,0.061,0.851,0.121,1.276,0.182
	c1.929,0.544,4.211,0.702,6.245,1.185c0.334,0.015,0.669,0.03,1.003,0.045c1.169,0.265,2.551,0.227,3.784,0.501
	c0.212,0,0.425,0,0.638,0c0.518,0.114,1.171,0.112,1.687,0.228c0.658,0.148,1.429-0.001,2.051,0.137c0.426,0,0.852,0,1.277,0
	c1.104,0.24,2.488-0.064,3.601,0.182c0.228,0,0.456,0,0.684,0c0.889,0.192,2.122,0.045,3.1,0.045c0.684,0,1.368,0,2.051,0
	c0.977-0.214,2.205,0.077,3.236-0.136c0.565-0.117,1.687,0.016,2.371-0.137c0.35,0,0.699,0,1.048,0
	c0.405-0.09,0.935,0.008,1.368-0.091c1.842-0.422,4.112-0.267,5.88-0.684c0.905-0.214,1.96-0.034,2.735-0.365
	c0.246-0.105,0.305-0.367,0.501-0.501c0.316-0.217,0.701-0.28,1.003-0.501c0.118-0.086,0.173-0.259,0.274-0.365
	c0.081-1.146-0.625-2.076-1.003-2.963c-0.103-0.242-0.079-0.488-0.183-0.729c-0.654-1.514-1.341-3.185-2.006-4.695
	c-0.045-0.213-0.091-0.425-0.136-0.638c-0.054-0.139-0.216-0.281-0.274-0.41c-0.104-0.233-0.083-0.45-0.182-0.684
	c-0.207-0.484-0.528-1.07-0.729-1.55c-0.257-0.612-0.331-1.127-0.593-1.731c-2.026-4.691-3.931-9.577-5.926-14.268
	c-0.85-1.999-1.507-4.121-2.598-5.88C117.976,36.348,117.635,35.626,116.533,35.622"/>
<path fill-rule="evenodd" clip-rule="evenodd" fill="#181716" d="M26.688,84.167c-0.015-0.076-0.03-0.152-0.045-0.228
	c-0.521-0.223-1.256-0.176-1.915-0.319c-0.543-0.118-1.094,0.074-1.55-0.091c-0.434-0.157-0.297-0.414-0.501-0.593
	c-0.235-0.205-0.653-0.131-0.775-0.456c-0.064-0.1,0.002-0.263-0.045-0.41c-0.059-0.18-0.263-0.346-0.319-0.547
	c-0.149-0.533-0.116-1.709,0-2.234c0-0.212,0-0.425,0-0.638c0.084-0.333,0.186-0.95,0.273-1.276c0-0.182,0-0.365,0-0.547
	c0.042-0.146,0.185-0.31,0.228-0.456c0.063-0.209-0.007-0.387,0.091-0.547c0.061-0.045,0.122-0.091,0.182-0.137
	c0.016-0.182,0.03-0.365,0.046-0.547c0.039-0.134,0.184-0.252,0.228-0.364c0.015-0.198,0.031-0.395,0.046-0.593
	c0.041-0.142,0.187-0.274,0.228-0.41c0.016-0.167,0.031-0.334,0.045-0.501c0.062-0.117,0.228-0.212,0.274-0.365
	c0-0.136,0-0.273,0-0.41c0.036-0.107,0.188-0.218,0.228-0.319c0.016-0.213,0.031-0.426,0.046-0.638
	c0.025-0.076,0.154-0.198,0.182-0.273c0.031-0.213,0.061-0.426,0.091-0.639c0.054-0.106,0.231-0.202,0.273-0.319
	c0.016-0.152,0.03-0.304,0.046-0.456c0.037-0.075,0.191-0.158,0.228-0.228c0.031-0.243,0.061-0.486,0.091-0.729
	c0.041-0.094,0.186-0.188,0.228-0.273c0.03-0.183,0.061-0.365,0.091-0.547c0.08-0.142,0.302-0.182,0.364-0.365
	c0-0.152,0-0.304,0-0.456c0.041-0.136,0.188-0.269,0.228-0.41c0.015-0.198,0.03-0.395,0.045-0.592
	c0.05-0.099,0.225-0.184,0.274-0.274c0.03-0.182,0.061-0.365,0.091-0.546c0.055-0.087,0.223-0.131,0.273-0.229
	c0.015-0.182,0.03-0.364,0.045-0.547c0.028-0.097,0.154-0.234,0.182-0.319c0.016-0.152,0.031-0.304,0.045-0.456
	c0.091-0.215,0.369-0.319,0.456-0.501c0.015-0.167,0.031-0.334,0.045-0.501c0.039-0.101,0.19-0.212,0.228-0.319
	c0.015-0.198,0.031-0.395,0.046-0.593c0.062-0.173,0.301-0.291,0.364-0.456c0.052-0.136-0.019-0.261,0.045-0.365
	c0.072-0.115,0.269-0.178,0.32-0.319c0-0.167,0-0.335,0-0.502c0.057-0.203,0.172-0.633,0.273-0.866
	c0.083-0.194,0.342-0.282,0.41-0.456c0.016-0.152,0.031-0.304,0.046-0.456c0.063-0.142,0.267-0.26,0.319-0.41
	c0-0.152,0-0.304,0-0.456c0.057-0.169,0.227-0.201,0.319-0.319c0.116-0.149,0.038-0.412,0.137-0.592
	c0.069-0.125,0.266-0.206,0.319-0.365c0-0.167,0-0.334,0-0.501c0.044-0.131,0.218-0.252,0.273-0.364
	c0.031-0.167,0.061-0.334,0.091-0.501c0.122-0.091,0.243-0.183,0.365-0.273c0.015-0.183,0.031-0.365,0.045-0.547
	c0.045-0.133,0.218-0.258,0.274-0.364c0.015-0.167,0.03-0.334,0.045-0.501c0.068-0.186,0.342-0.271,0.41-0.456
	c0-0.122,0-0.243,0-0.365c0.055-0.161,0.265-0.302,0.319-0.456c0-0.137,0-0.274,0-0.411c0.075-0.226,0.301-0.292,0.41-0.456
	c0.094-0.141,0.009-0.332,0.091-0.501c0.042-0.088,0.226-0.178,0.273-0.273c0.015-0.198,0.03-0.395,0.045-0.593
	c0.078-0.23,0.375-0.291,0.456-0.501c0.015-0.137,0.03-0.273,0.045-0.41c0.053-0.101,0.231-0.2,0.273-0.319
	c0.015-0.197,0.03-0.395,0.046-0.592c0.071-0.15,0.339-0.257,0.41-0.41c0.016-0.137,0.031-0.274,0.046-0.41
	c0.092-0.147,0.29-0.152,0.365-0.411c0.015-0.182,0.03-0.364,0.046-0.547c0.06-0.11,0.258-0.199,0.319-0.319
	c0.015-0.137,0.03-0.274,0.045-0.41c0.082-0.167,0.379-0.214,0.456-0.411c0.015-0.182,0.03-0.365,0.045-0.547
	c0.06-0.166,0.3-0.284,0.365-0.456c0.015-0.152,0.03-0.304,0.045-0.456c0.027-0.073,0.154-0.155,0.183-0.228
	c0.038-0.1,0.013-1.231-0.046-1.413c-0.039-0.12-0.189-0.275-0.228-0.41c-0.015-0.152-0.03-0.304-0.045-0.456
	c-0.104-0.168-0.352-0.276-0.456-0.456c-0.096-0.166-0.03-0.396-0.182-0.501c-0.223-0.154-0.537-0.166-0.775-0.365
	c-0.122-0.103-0.094-0.309-0.228-0.41c-0.386-0.292-1.265-0.228-1.915-0.228c-0.966,0-2.113,0.026-2.963-0.183
	c-0.197,0-0.395,0-0.592,0c-0.198-0.045-0.792-0.005-1.003-0.091c-0.193-0.079-0.376-0.251-0.638-0.319c-0.289,0-0.578,0-0.866,0
	c-0.532-0.122-1.513-0.083-1.96-0.183c-0.289,0-0.577,0-0.866,0c-0.591-0.006-1.713,0.004-2.142-0.091c-0.426,0-0.851,0-1.277,0
	c-0.912-0.001-2.324,0.007-3.145-0.182c-0.189-0.044-1.098-0.07-1.23-0.137c-0.121-0.061-0.253-0.223-0.41-0.273
	c-0.492-0.159-2.671-0.284-3.146-0.091c-0.121,0.222-0.25,0.522-0.41,0.729c-0.062,0.08-0.225,0.136-0.274,0.228
	c-0.015,0.152-0.03,0.304-0.045,0.456c-0.088,0.228-0.263,0.488-0.365,0.684c-0.117,0.226-0.084,0.431-0.182,0.684
	c-0.08,0.207-0.279,0.433-0.365,0.638c-0.104,0.248-0.039,0.504-0.137,0.775c-0.052,0.143-0.215,0.315-0.273,0.456
	c-0.045,0.243-0.091,0.486-0.137,0.729c-0.058,0.155-0.217,0.354-0.273,0.501c-0.045,0.273-0.091,0.547-0.137,0.82
	c-0.266,0.872-0.57,1.999-0.821,2.917c-0.03,0.304-0.061,0.608-0.091,0.912c-0.328,1.223-0.373,2.839-0.684,4.148
	c0,0.319,0,0.639,0,0.958c-0.143,0.651-0.148,1.948,0,2.598c0.161,0.708-0.065,1.399,0.091,2.051
	c0.188,0.784,0.08,1.774,0.273,2.599c0.281,1.191,0.409,2.608,0.729,3.738c0.061,0.425,0.121,0.851,0.183,1.276
	c0.379,1.32,0.717,2.824,1.139,4.103c0.045,0.273,0.091,0.547,0.137,0.82c0.498,1.512,1.001,3.174,1.596,4.604
	c0.045,0.228,0.091,0.456,0.137,0.684c0.071,0.191,0.249,0.411,0.319,0.593c0.061,0.258,0.122,0.517,0.182,0.775
	c0.595,1.347,1.094,2.757,1.687,4.148c0.225,0.527,0.597,1.122,0.82,1.641c0.621,1.446,1.216,2.87,2.006,4.148
	c0.061,0.167,0.122,0.334,0.182,0.501c0.2,0.399,0.498,0.812,0.729,1.185c0.108,0.175,0.116,0.375,0.228,0.547
	c0.793,1.223,1.551,2.479,2.371,3.646c0.405,0.576,1.01,1.562,1.55,1.96c0.784,0.578,2.644,0.955,3.692,1.276
	c0.319,0.061,0.638,0.122,0.958,0.183c0.689,0.253,1.604,0.478,2.324,0.684c0.258,0.031,0.517,0.061,0.775,0.091
	c1.383,0.38,3.019,0.667,4.421,1.094c0.42,0.127,0.793,0.069,1.231,0.182c0.299,0.078,0.675,0.193,0.957,0.274
	c0.508,0.146,1.02,0.084,1.55,0.228c2.505,0.681,5.42,0.826,7.978,1.504c0.212,0.015,0.425,0.03,0.638,0.046
	c0.853,0.209,1.82,0.247,2.644,0.456c0.5,0.126,0.978,0.014,1.504,0.137c0.408,0.096,0.878,0.177,1.277,0.273
	c0.395,0.03,0.79,0.061,1.185,0.091c0.857,0.198,1.761,0.216,2.598,0.411c0.608,0.045,1.216,0.091,1.824,0.137
	c1.793,0.418,3.978,0.31,5.789,0.729c0.79,0.045,1.58,0.091,2.37,0.137c1.03,0.234,2.228,0.124,3.282,0.365
	c0.493,0.113,1.024-0.009,1.459,0.091c0.513,0.118,1.039,0.029,1.504,0.136c0.54,0.125,1.145,0.024,1.641,0.137
	c1.064,0.046,2.127,0.091,3.191,0.137c1.025,0.23,2.238,0.035,3.282,0.273c0.325,0.074,0.78-0.016,1.049,0.046
	c0.354,0.081,0.842-0.022,1.139,0.045c0.749,0.171,1.777-0.076,2.507,0.091c0.38,0,0.76,0,1.14,0
	c0.686,0.038,1.716,0.032,2.37,0.183c0.304,0,0.608,0,0.912,0c0.771,0,2.177-0.068,2.872,0.091c3.403,0.015,6.807,0.031,10.21,0.046
	c1.489,0,2.978,0,4.467,0c0.721,0,1.644,0.1,2.28-0.046c0.243,0,0.486,0,0.729,0c0.762,0,1.739,0.109,2.416-0.045
	c0.38,0,0.76,0,1.14,0c1.037,0,2.271,0.074,3.191-0.137c0.486,0,0.973,0,1.458,0c0.97-0.218,2.181,0.059,3.236-0.183
	c0.41,0,0.82,0,1.23,0c0.356-0.08,0.911,0.047,1.322-0.045c1.067-0.241,2.336,0.012,3.373-0.228c0.587-0.136,1.312,0.06,1.778-0.183
	c0.31-0.161,0.542-0.528,0.82-0.729c0.789-0.572,1.509-1.146,2.188-1.823c0.456-0.41,0.912-0.821,1.368-1.231
	c0.401-0.532,0.906-1.007,1.276-1.549c0.225-0.331,0.334-0.649,0.547-1.003c0.493-0.82,0.922-1.84,0.638-2.963
	c-0.086-0.34,0.157-0.562,0.091-0.729c-0.078-0.454-0.427-0.678-0.82-0.821c-0.17,0.363-0.962,0.219-1.414,0.319
	c-0.327,0.072-0.847-0.039-1.23,0.046c-0.744,0.164-1.727,0.091-2.598,0.091c-2.193,0-4.956,0.119-7.202,0.045
	c-1.139-0.037-2.698,0.143-3.601-0.045c-1.702,0-3.404,0-5.105,0c-0.434-0.097-1.083-0.045-1.595-0.045
	c-0.547-0.015-1.094-0.031-1.641-0.045c-0.319,0-0.638,0-0.958,0c-0.778-0.175-1.75-0.04-2.552-0.229c-0.213,0-0.426,0-0.638,0
	c-0.173-0.067-0.34-0.259-0.547-0.319c-0.607-0.045-1.215-0.091-1.823-0.137c-0.258,0-0.516,0-0.774,0
	c-0.718,0-1.62,0.064-2.279-0.091c-0.456,0-0.912,0-1.368,0c-1.155-0.045-2.31-0.091-3.464-0.136
	c-0.565-0.128-1.297-0.093-1.869-0.229c-0.182,0-0.365,0-0.546,0c-0.147-0.051-0.275-0.221-0.456-0.273
	c-0.853-0.247-1.893-0.02-2.78-0.228c-0.727-0.171-1.762,0.073-2.462-0.091c-0.517,0-1.033,0-1.55,0
	c-0.52-0.117-1.187-0.103-1.687-0.228c-0.122,0-0.243,0-0.365,0c-0.028-0.016-0.114-0.197-0.182-0.228
	c-0.402-0.179-1.03-0.126-1.459-0.229c-1.808-0.061-3.616-0.121-5.424-0.182c-0.313-0.071-0.708-0.111-1.003-0.182
	c-0.243-0.015-0.486-0.031-0.729-0.046c-0.083-0.057-0.082-0.24-0.319-0.319c-0.197,0-0.395,0-0.592,0
	c-0.337-0.081-1.086-0.124-1.368-0.182c-0.364,0-0.729,0-1.094,0c-1.17-0.061-2.34-0.122-3.51-0.183
	c-0.378-0.087-0.823-0.056-1.231-0.182c-0.23-0.072-0.403-0.288-0.684-0.365c-0.411-0.112-0.893-0.046-1.276-0.136
	c-1.382-0.045-2.766-0.091-4.148-0.137c-1.065-0.241-1.892-0.433-2.917-0.684c-0.82-0.046-1.641-0.091-2.461-0.137
	c-0.319,0-0.638,0-0.957,0c-0.269-0.06-0.724,0.027-1.049-0.045c-0.592-0.091-1.185-0.182-1.778-0.273
	c-0.029-0.135-0.026-0.168-0.136-0.228c-0.439-0.32-1.486-0.094-2.143-0.228c-1.151-0.233-2.88-0.023-4.103-0.319
	c-0.052-0.013-0.542-0.062-0.593-0.091c-0.064-0.038,0-0.122-0.045-0.182c-0.072-0.096-0.332-0.149-0.456-0.183
	c-1.025-0.274-2.322,0.02-3.373-0.228c-0.258,0-0.517,0-0.775,0c-0.472-0.107-1.014-0.161-1.458-0.273
	c-0.228-0.015-0.456-0.03-0.684-0.045c-0.061-0.076-0.122-0.152-0.183-0.228c-0.258-0.061-0.517-0.122-0.775-0.182
	c-1.048-0.045-2.097-0.091-3.145-0.137c-0.401-0.09-1.075-0.071-1.459-0.228c-0.156-0.063-0.2-0.302-0.364-0.365
	c-0.228-0.015-0.456-0.03-0.684-0.045c-0.408-0.093-0.96-0.087-1.367-0.183c-0.38,0-0.76,0-1.14,0
	c-0.322-0.072-0.728-0.003-1.094-0.091C27.405,84.316,27.089,84.185,26.688,84.167"/>
<path fill-rule="evenodd" clip-rule="evenodd" fill="#C5C5C6" d="M108.693,42.276c0.163,0.001,0.247,0.021,0.364,0.046
	c0.024,0.069,0.031,0.077,0.046,0.182c-0.187,0.101-0.483,0.148-0.684,0.274c-0.13,0.081-0.252,0.258-0.411,0.319
	c-0.319,0.045-0.638,0.091-0.957,0.136c-0.201,0.062-0.446,0.21-0.638,0.274c-0.334,0.045-0.668,0.091-1.003,0.137
	c-0.393,0.101-0.844,0.223-1.23,0.319c-0.35,0.03-0.699,0.061-1.048,0.091c-0.725,0.169-1.568,0.237-2.325,0.41
	c-0.334,0.016-0.668,0.03-1.002,0.046c-0.602,0.135-1.294,0.181-1.915,0.319c-0.379,0.015-0.759,0.03-1.139,0.046
	c-0.927,0.208-2.028,0.166-2.917,0.364c-0.44,0.016-0.881,0.03-1.322,0.046c-1.132,0.249-2.475,0.079-3.556,0.319
	c-1.191,0.264-2.735-0.032-3.92,0.228c-0.426,0.015-0.851,0.03-1.276,0.045c-1.883,0.418-4.222,0.053-6.062,0.501
	c-0.643,0.157-1.718,0.08-2.052,0.547c-0.192,0.257-0.001,0.641,0.091,0.912c0.312,0.908,0.319,1.958,0.547,3.008
	c0.116,0.538-0.039,1.224-0.137,1.595c-0.472,1.792-1.604,2.468-3.373,2.963c-0.513,0.144-1.053,0.401-1.732,0.273
	c-0.025-0.073-0.037-0.109-0.045-0.228c0.375-0.352,0.782-0.78,1.048-1.231c0.137-0.232,0.121-0.512,0.228-0.775
	c0.665-1.639,1.027-4.094,0.273-5.88c-0.527-1.25-1.623-2.015-2.553-2.872c0.004-0.151,0.022-0.207,0.045-0.319
	c0.25-0.142,0.8-0.288,1.276-0.183c0.186,0.042,0.464,0.147,0.729,0.091c0.74-0.156,1.773-0.046,2.598-0.046
	c1.702,0,3.404,0,5.105,0c0.907,0,2.054,0.133,2.872-0.045c0.528-0.115,1.215,0.057,1.687-0.045c0.188-0.041,0.476,0.02,0.593,0.045
	c0.577,0.125,1.446,0.011,1.914-0.091c0.41,0,0.821,0,1.231,0c0.694,0,1.441,0.042,2.051-0.091c0.485-0.106,1.121,0.048,1.55-0.045
	c0.79,0,1.581,0,2.371,0c0.465-0.103,1.056,0.027,1.595-0.091c0.298-0.065,0.785,0.033,1.14-0.046
	c1.117-0.247,2.455-0.067,3.601-0.319c0.592-0.03,1.186-0.061,1.778-0.091c1.467-0.339,3.263-0.361,4.649-0.729
	C107.458,42.507,108.208,42.629,108.693,42.276"/>
<path fill-rule="evenodd" clip-rule="evenodd" fill="#C5C5C6" d="M118.402,42.458c0.061,0,0.121,0,0.182,0
	c0.067,0.116,0.185,0.225,0.229,0.365c0.015,0.167,0.03,0.334,0.045,0.501c0.049,0.133,0.205,0.253,0.273,0.365
	c0.121,0.197,0.092,0.398,0.182,0.638c0.085,0.225,0.282,0.469,0.365,0.684c0.485,1.25,0.84,2.458,1.368,3.692
	c1.912,4.478,3.547,9.208,5.47,13.721c0.271,0.635,0.342,1.164,0.593,1.823c0.069,0.182,0.243,0.404,0.319,0.593
	c0.046,0.212,0.091,0.425,0.137,0.638c0.215,0.527,0.525,1.237,0.73,1.777c0.253,0.671,0.483,1.576-0.091,1.96
	c-0.985,0.752-3.312,0.034-3.693-0.82c-0.061-0.258-0.121-0.517-0.182-0.775c-0.448-1.357-0.741-3-1.14-4.421
	c-0.061-0.441-0.122-0.881-0.182-1.322c-0.7-2.418-0.915-5.222-1.55-7.703c-0.061-0.517-0.122-1.033-0.182-1.55
	c-0.362-1.281-0.783-2.641-1.186-3.875c-0.508-1.556-0.934-2.958-1.367-4.559C118.589,43.702,118.075,43.114,118.402,42.458"/>
<path fill-rule="evenodd" clip-rule="evenodd" fill="#FFFFFF" d="M64.979,45.467c0.547,0.03,1.094,0.061,1.641,0.091
	c0.216,0.062,0.403,0.24,0.593,0.319c0.228,0.046,0.456,0.091,0.683,0.137c0.143,0.062,0.244,0.25,0.365,0.319
	c0.182,0.061,0.364,0.122,0.547,0.183c0.491,0.329,1.552,1.388,1.823,1.914c0.064,0.125,0.024,0.251,0.091,0.365
	c0.085,0.145,0.255,0.279,0.319,0.456c0.03,0.258,0.061,0.516,0.091,0.775c0.112,0.403,0.467,0.881,0.319,1.504
	c-0.061,0.255-0.205,0.502-0.273,0.729c-0.111,0.369-0.036,0.764-0.182,1.094c-0.686,1.543-2.066,2.721-3.647,3.373
	c-0.331,0.136-1.152,0.192-1.504,0.273c-0.497,0.115-2.182-0.146-2.553-0.273c-1.242-0.428-2.849-1.776-3.418-2.872
	c-0.208-0.399-0.328-0.924-0.456-1.368c-0.195-0.676-0.213-2.244,0.045-2.872c0.597-1.448,1.434-2.525,2.781-3.236
	c0.154-0.082,0.293-0.294,0.456-0.364c0.213-0.031,0.426-0.061,0.638-0.091c0.216-0.076,0.404-0.296,0.639-0.365
	C64.252,45.477,64.746,45.61,64.979,45.467"/>
<path fill-rule="evenodd" clip-rule="evenodd" fill="#181716" d="M65.115,46.516c-0.466,0.303-1.232,0.124-1.778,0.364
	c-0.138,0.061-0.234,0.252-0.365,0.319c-0.152,0.03-0.304,0.061-0.456,0.091c-0.209,0.116-1.297,1.162-1.413,1.367
	c-0.045,0.137-0.091,0.273-0.137,0.41c-0.066,0.099-0.222,0.154-0.273,0.273c-0.046,0.304-0.091,0.608-0.137,0.912
	c-0.243,0.782-0.16,1.41,0.045,2.143c0.015,0.213,0.03,0.426,0.045,0.638c0.069,0.202,0.302,0.374,0.411,0.547
	c0.347,0.558,0.764,1.17,1.322,1.504c0.137,0.045,0.273,0.091,0.41,0.136c0.106,0.07,0.186,0.219,0.319,0.274
	c0.183,0.03,0.365,0.061,0.547,0.091c0.134,0.044,0.252,0.18,0.365,0.228c0.212,0.09,1.215,0.199,1.504,0.137
	c0.212-0.046,0.538-0.022,0.775-0.091c0.247-0.072,0.519-0.247,0.775-0.319c0.152-0.016,0.304-0.031,0.456-0.046
	c0.812-0.351,1.932-1.411,2.279-2.233C71.32,49.684,68.676,46.511,65.115,46.516"/>
<path fill-rule="evenodd" clip-rule="evenodd" fill="#C5C5C6" d="M64.979,47.336c2.051,0.001,3.589,1.063,4.193,2.462
	c0.132,0.305,0.057,0.633,0.137,1.002c0.448,2.064-1.325,3.831-2.735,4.194c-0.568,0.146-1.306,0.16-1.823,0.046
	c-0.243-0.016-0.486-0.031-0.729-0.046c-1.167-0.34-1.956-1.206-2.461-2.233c-0.288-0.585-0.564-1.796-0.229-2.598
	c0.391-0.934,1.097-1.967,2.006-2.371c0.363-0.161,0.735-0.321,1.094-0.41C64.619,47.335,64.848,47.416,64.979,47.336"/>
<path fill-rule="evenodd" clip-rule="evenodd" fill="#181716" d="M65.115,48.841c-0.07,0.112-0.104,0.104-0.137,0.273
	c0.242,0.261,0.305,0.593,0.501,0.912c0.513,0.83,1.004,2.155,1.641,2.826c0.08-0.029,0.044-0.009,0.091-0.046
	c0.667-0.244,0.808-1.902,0.456-2.644C67.299,49.385,66.318,48.822,65.115,48.841"/>
<path fill-rule="evenodd" clip-rule="evenodd" fill="#181716" d="M63.429,49.661c-1.198,1.234-0.68,2.908,0.547,3.692
	c0.204,0.13,1.46,0.503,1.595,0.228c0-0.106,0-0.213,0-0.319c-0.417-0.542-0.594-1.218-0.958-1.823
	c-0.099-0.165-0.281-0.312-0.365-0.501c-0.118-0.267-0.461-1.14-0.684-1.231C63.517,49.672,63.522,49.679,63.429,49.661"/>
<path fill-rule="evenodd" clip-rule="evenodd" fill="#181716" d="M56.226,52.761c-0.141,0.215-0.473,0.286-0.592,0.501
	c-0.016,0.182-0.031,0.364-0.046,0.547c-0.065,0.178-0.331,0.256-0.41,0.41c-0.015,0.152-0.031,0.304-0.046,0.456
	c-0.074,0.155-0.304,0.251-0.365,0.456c0,0.152,0,0.304,0,0.456c-0.073,0.174-0.339,0.277-0.41,0.456
	c-0.015,0.122-0.031,0.243-0.046,0.365c-0.069,0.125-0.265,0.206-0.319,0.365c-0.096,0.283,0.003,0.479-0.137,0.684
	c-0.109,0.159-0.334,0.202-0.411,0.41c0,0.091,0,0.183,0,0.273c-0.071,0.144-0.338,0.203-0.41,0.365
	c-0.015,0.198-0.03,0.395-0.046,0.593c-0.06,0.142-0.304,0.237-0.364,0.365c-0.064,0.136,0.022,0.3-0.046,0.41
	c-0.121,0.106-0.243,0.212-0.364,0.319c-0.016,0.183-0.03,0.365-0.046,0.547c-0.057,0.195-0.241,0.268-0.319,0.41
	c-0.015,0.137-0.03,0.273-0.046,0.41c-0.085,0.22-0.419,0.276-0.501,0.501c0,0.137,0,0.273,0,0.41
	c-0.047,0.157-0.214,0.274-0.273,0.41c-0.031,0.167-0.061,0.334-0.091,0.501c-0.137,0.106-0.274,0.213-0.41,0.319
	c-0.016,0.182-0.03,0.365-0.046,0.547c-0.062,0.183-0.285,0.265-0.365,0.41c-0.03,0.167-0.061,0.334-0.091,0.501
	c-0.107,0.091-0.213,0.183-0.319,0.274c-0.015,0.182-0.03,0.364-0.046,0.546c-0.054,0.144-0.253,0.245-0.319,0.365
	c-0.03,0.183-0.061,0.365-0.091,0.547c-0.122,0.091-0.243,0.183-0.365,0.274c-0.03,0.213-0.061,0.425-0.091,0.638
	c-0.054,0.107-0.226,0.203-0.273,0.319c-0.097,0.237-0.044,0.457-0.182,0.639c-0.077,0.099-0.259,0.104-0.319,0.228
	c-0.015,0.167-0.03,0.334-0.046,0.501c-0.039,0.116-0.189,0.238-0.228,0.365c0,0.121,0,0.243,0,0.364
	c-0.084,0.255-0.322,0.279-0.456,0.456c-0.125,0.164-0.001,0.364-0.091,0.593c-0.04,0.102-0.193,0.276-0.228,0.41
	c0.015,0.395,0.03,0.79,0.046,1.185c0.083,0.292,0.303,0.246,0.41,0.411c0.046,0.182,0.091,0.364,0.137,0.546
	c0.139,0.213,0.52,0.314,0.639,0.547c0.073,0.143-0.011,0.266,0.091,0.364c0.205,0.199,0.602,0.126,0.866,0.274
	c0.075,0.042,0.363,0.198,0.41,0.273c0.108,0.175,0.037,0.237,0.228,0.319c0.467,0.2,1.041,0.059,1.595,0.183
	c0.529,0.118,1.083,0.214,1.595,0.319c0.019,0.144,0.045,0.173,0.091,0.273c0.209,0.023,0.446,0.093,0.639,0.137
	c0.634,0.143,1.358,0.005,1.959,0.136c0.748,0.164,1.512-0.069,2.188,0.091c0.267,0.063,0.675,0.067,0.957,0.183
	c0.148,0.06,0.25,0.257,0.41,0.319c0.308,0.118,0.744,0.114,1.049,0.183c0.349,0,0.699,0,1.048,0
	c0.897,0.045,1.793,0.091,2.689,0.136c0.517,0.116,1.14,0.081,1.687,0.229c0.515,0.139,1.055,0.367,1.641,0.501
	c0.699,0.016,1.398,0.03,2.097,0.046c0.341,0.074,0.878-0.042,1.276,0.045c0.77,0.169,1.573,0.168,2.325,0.319
	c0.047,0.282,0.269,0.248,0.592,0.228c0.231,0.15,0.587,0.104,0.82,0.137c0.704,0.097,1.71,0.016,2.416,0.182
	c0.562,0,1.125,0,1.687,0c0.698,0.157,1.483,0.115,2.143,0.274c0.319,0.015,0.638,0.03,0.957,0.045
	c0.046,0.061,0.091,0.122,0.137,0.183c0.15,0.094,0.418,0.139,0.593,0.182c0.53,0.131,1.125,0.016,1.641,0.137
	c0.456,0,0.912,0,1.368,0c1.2,0.045,2.4,0.091,3.601,0.137c0.578,0.061,1.155,0.122,1.732,0.182c0.205,0.054,0.276,0.211,0.41,0.274
	c0.136,0.063,0.595,0.059,0.729,0.091c0.518,0.124,1.091,0.018,1.595,0.136c0.425,0,0.852,0,1.276,0
	c0.935,0.084,2.384-0.024,3.145,0.137c0.501,0,1.003,0,1.505,0c1.027,0.229,2.289-0.006,3.282,0.228c0.304,0,0.608,0,0.912,0
	c0.116,0.026,0.638,0.035,0.729,0.091c0.015,0.045,0.03,0.091,0.045,0.137c0.167,0.046,0.334,0.091,0.502,0.137
	c0.41,0.015,0.82,0.03,1.23,0.045c0.517,0.115,1.156,0.091,1.777,0.091c0.35,0,0.699,0,1.049,0c0.913,0.202,2.187,0.045,3.191,0.045
	c1.825,0.001,3.801,0.045,5.698,0.046c1.483,0,3.097,0.045,4.649,0.045c0.681,0,1.684,0.05,2.142-0.045
	c0.663-0.139,1.51,0.131,2.097,0.045c1.823-0.265,4.384,0.176,6.245-0.183c0.016-0.045,0.031-0.091,0.045-0.136
	c0.022-0.033,0.149-1.051,0.091-1.186c-0.086-0.199-0.283-0.315-0.364-0.638c-0.016-0.213-0.031-0.426-0.046-0.638
	c-0.383-1.395-0.786-2.967-1.23-4.331c-0.185-0.565-0.141-1.499-0.684-1.687c-0.137-0.082-0.516-0.006-0.729,0.045
	c-0.61,0.148-1.3,0.109-1.915,0.273c-1.337,0.357-3.022,0.244-4.376,0.547c-0.406,0.091-0.864,0.011-1.231,0.091
	c-0.304,0-0.607,0-0.912,0c-0.554,0.121-1.277,0.062-1.823,0.183c-0.456,0.015-0.912,0.03-1.367,0.045
	c-1.633,0.37-3.636,0.081-5.47,0.182c-0.97,0.054-2.81,0.203-3.738,0c-0.334,0-0.669,0-1.003,0c-0.935,0-2.238,0.087-3.054-0.091
	c-0.35,0-0.699,0-1.048,0c-1.068-0.239-2.38-0.082-3.464-0.319c-0.289,0-0.577,0-0.866,0c-0.352-0.078-0.787,0-1.185-0.091
	c-1.529-0.349-3.439-0.337-4.923-0.683c-0.713-0.167-1.361-0.045-2.051-0.229c-0.326-0.086-0.771-0.187-1.14-0.273
	c-0.319-0.03-0.638-0.061-0.957-0.091c-1.618-0.407-3.479-0.72-5.015-1.186c-0.334-0.045-0.668-0.091-1.002-0.137
	c-0.324-0.1-0.701-0.271-1.048-0.364c-0.248-0.067-0.415-0.009-0.639-0.092c-1.7-0.625-3.491-1.047-5.196-1.687
	c-0.188-0.07-0.375-0.246-0.547-0.319c-0.273-0.061-0.547-0.122-0.821-0.182c-0.936-0.417-1.944-0.814-2.917-1.231
	c-0.51-0.218-1.046-0.604-1.549-0.82c-0.453-0.194-0.904-0.292-1.322-0.547c-2.4-1.465-4.839-2.758-7.065-4.376
	c-0.091-0.106-0.182-0.213-0.273-0.319c-1.765-1.289-3.551-3.737-4.604-5.744c-0.11-0.208-0.082-0.418-0.183-0.638
	c-0.053-0.118-0.208-0.213-0.273-0.319c-0.144-0.231-0.272-0.639-0.365-0.866C56.492,53.386,56.624,53.04,56.226,52.761"/>
<path fill-rule="evenodd" clip-rule="evenodd" fill="#181716" d="M22.951,96.521c-0.116,0.132-0.142,0.178-0.137,0.456
	c0.277,0.303,0.452,0.995,0.684,1.367c0.522,0.838,1.375,1.596,2.188,2.143c2.775,1.865,7.267,1.985,10.94,2.963
	c0.605,0.161,1.197,0.072,1.823,0.228c2.148,0.534,4.659,0.628,6.837,1.139c0.441,0.03,0.881,0.061,1.322,0.091
	c0.667,0.15,1.417,0.219,2.051,0.365c0.35,0.015,0.699,0.03,1.048,0.046c0.752,0.167,1.612,0.198,2.325,0.364
	c0.501,0.117,0.971-0.026,1.504,0.091c0.726,0.16,1.532,0.161,2.233,0.319c0.511,0.115,0.967-0.027,1.504,0.091
	c1.073,0.236,2.225,0.179,3.282,0.411c0.805,0.045,1.61,0.091,2.416,0.136c2.359,0.52,5.233,0.212,7.613,0.729
	c1.154,0.045,2.31,0.091,3.464,0.137c1.107,0.241,2.334,0.075,3.464,0.319c0.739,0.16,1.627-0.06,2.325,0.091
	c0.654,0.142,1.363-0.038,1.96,0.091c0.334,0,0.669,0,1.003,0c0.439,0.098,1.206,0.084,1.641,0.183
	c0.881,0.015,1.763,0.03,2.644,0.045c0.443,0.096,1.095-0.062,1.595,0.046c0.487,0.105,1.169,0.014,1.732,0.045
	c0.597,0.033,1.454,0.058,2.051,0.091c0.799,0.045,1.703-0.055,2.37,0.091c0.273,0,0.547,0,0.82,0c0.76,0,1.597-0.046,2.233,0.091
	c0.872,0.188,1.941-0.162,2.689,0c2.066,0.015,4.133,0.03,6.2,0.045c1.474,0,2.948,0,4.421,0c0.77-0.016,1.784-0.085,2.553-0.091
	c0.667-0.005,1.45,0.094,2.097-0.045c0.273,0,0.547,0,0.821,0c0.756,0,1.606,0.045,2.233-0.091c0.684,0,1.368,0,2.051,0
	c0.699-0.152,1.54,0.031,2.233-0.136c1.047-0.253,1.985-0.843,2.553-1.596c0.372-0.493,1.226-1.212,1.231-2.005
	c-0.015,0-0.03,0-0.046,0c0-0.015,0-0.03,0-0.046c-0.384-0.044-0.872,0.003-1.276,0.091c-0.569,0.124-1.192-0.016-1.687,0.091
	c-0.326,0.071-0.779-0.013-1.048,0.046c-0.425,0-0.851,0-1.276,0c-1.417,0.307-3.167-0.074-4.559,0.228c-0.456,0-0.912,0-1.368,0
	c-0.486,0.105-1.188-0.072-1.732,0.045c-0.437,0.095-0.966,0.092-1.504,0.092c-0.395,0-0.79,0-1.185,0
	c-0.888,0.191-2.193-0.149-3.1,0.045c-0.931,0.2-2.216,0.045-3.236,0.045c-2.158,0-4.315,0-6.473,0
	c-2.947-0.03-5.896-0.061-8.843-0.091c-1.625-0.354-3.693,0.083-5.333-0.274c-0.369-0.08-0.873,0.022-1.185-0.045
	c-0.395,0-0.79,0-1.185,0c-1.458-0.076-2.917-0.152-4.376-0.228c-1.067-0.237-2.415-0.035-3.51-0.273c-0.289,0-0.577,0-0.866,0
	c-0.556-0.122-1.195-0.006-1.778-0.137c-2.061-0.461-4.583-0.192-6.609-0.638c-0.593-0.031-1.185-0.061-1.778-0.091
	c-1.032-0.23-2.167-0.185-3.19-0.41c-0.365-0.015-0.729-0.03-1.094-0.045c-0.762-0.174-1.623-0.198-2.37-0.365
	c-0.486-0.031-0.973-0.061-1.458-0.091c-2.564-0.586-5.421-0.594-7.932-1.185c-0.456-0.045-0.912-0.091-1.368-0.137
	c-2.869-0.684-5.998-0.949-8.797-1.641c-0.213-0.015-0.425-0.03-0.638-0.045c-0.522-0.131-1.115-0.276-1.641-0.41
	c-0.273-0.031-0.547-0.061-0.82-0.091c-1.548-0.438-3.311-0.756-4.832-1.185c-0.304-0.046-0.608-0.091-0.912-0.137
	C26.35,97.394,24.62,96.897,22.951,96.521"/>
<text transform="matrix(0.9994 0.0341 -0.0341 0.9994 72.3315 101.0249)" fill="#C5C5C6" font-family="'CenturyGothic'" font-size="9.1618">M</text>
<text transform="matrix(0.9994 0.0341 -0.0341 0.9994 80.0151 101.2871)" fill="#C5C5C6" font-family="'CenturyGothic'" font-size="9.1618">a</text>
<text transform="matrix(0.9994 0.0341 -0.0341 0.9994 85.5396 101.4756)" fill="#C5C5C6" font-family="'CenturyGothic'" font-size="9.1618">r</text>
<text transform="matrix(0.9994 0.0341 -0.0341 0.9994 87.5625 101.5439)" fill="#C5C5C6" font-family="'CenturyGothic'" font-size="9.1618">c </text>
<text transform="matrix(0.9994 0.0341 -0.0341 0.9994 95.29 101.8081)" fill="#C5C5C6" font-family="'CenturyGothic-Bold'" font-size="9.1618">D</text>
<text transform="matrix(0.9994 0.0341 -0.0341 0.9994 100.9614 102.001)" fill="#C5C5C6" font-family="'CenturyGothic-Bold'" font-size="9.1618">U</text>
<text transform="matrix(0.9994 0.0341 -0.0341 0.9994 106.0845 102.1758)" fill="#C5C5C6" font-family="'CenturyGothic-Bold'" font-size="9.1618">E</text>
<text transform="matrix(0.9994 0.0341 -0.0341 0.9994 110.1055 102.3135)" fill="#C5C5C6" font-family="'CenturyGothic-Bold'" font-size="9.1618">Z</text>
<path fill-rule="evenodd" clip-rule="evenodd" fill="#181716" d="M102.937,88.91c0.11,0.019,0.219,0.036,0.329,0.055
	c1.104,0.956,2.196,8.255,1.64,9.402c0.203,0.138,0.326,2.452,0.273,3.007c-0.242,2.545-0.012,5.814-0.273,9.184
	c-0.073,2.459-0.146,4.92-0.218,7.379c-0.166,0.922-0.575,4.616-0.273,5.139c-0.194,0.524-0.23,1.491-0.164,1.968
	c-0.073,1.239-0.146,2.479-0.219,3.717c0.019,0.947,0.036,1.895,0.055,2.843c0.267,1.487-0.236,3.102,0,4.811
	c0.434,3.133,0.293,7.75,2.459,9.457c0.277-0.091,0.254-0.058,0.547,0c0.12-0.294,1.287-1.046,1.585-1.695
	c0.036-0.076,0.141-0.289,0.219-0.164c1-1.89,1.512-4.075,2.679-5.794c0.38-0.559,1.001-3.038,1.421-3.28
	c0.128,0.019,0.255,0.036,0.383,0.055c0.712,0.738,0.781,1.369,1.695,1.913c0.564,0.336,1.471,0.254,1.913,0.547
	c0.338,0.224,4.955-0.604,5.029-0.438c0.365-0.109,0.729-0.219,1.093-0.329c0.583-0.072,1.166-0.145,1.749-0.218
	c1.092-0.29,2.252-0.856,3.39-0.82c0,0,1.036-0.461,1.203-0.328c-0.526,0.616-1.716,0.54-2.679,0.875
	c-2.561,0.891-5.971,1.295-8.8,1.585c-1.708,0.175-4.337-0.536-4.701-2.187c-0.036,0.019-0.073,0.037-0.109,0.055
	c-0.991,2.309-1.967,4.421-2.952,6.669c-0.341,0.777-1.506,2.12-1.531,2.733c-0.072,0.091-0.145,0.182-0.218,0.273
	c-0.367,0.408-1.122,1.034-1.804,0.929c-1.133-0.174-1.209-1.09-1.64-1.913c-1.377-2.633-1.181-6.582-1.53-9.621
	c-0.052-0.444,0.075-3.911,0.164-3.99l-0.109-1.586c0.05-0.346,0.273-1.378,0.219-1.749c-0.276-1.898,0.031-5.305,0.383-7.434
	c0,0,0.002-4.308,0.109-5.029c0.247-1.662,0.407-3.943,0.219-5.303c-0.059-0.421,0.134-0.789,0.164-1.257c0-2.313,0-4.628,0-6.942
	c-0.559-3.023,0.272-10.132-1.476-11.863c-0.037,0.037-0.073,0.073-0.109,0.11c0.231,1.004-0.584,1.894-0.438,2.952
	c0.185,1.326-0.274,4.276-0.656,5.467c-0.018,0.546-0.036,1.093-0.054,1.64c-0.312,0.986-0.375,2.44-0.492,3.116
	c-0.181,1.04-0.211,4.329-0.656,4.646c-0.019,0-0.037,0-0.055,0c0-0.073,0-0.146,0-0.219c0.464-0.486,0.259-3.035,0.328-3.881
	c0.147-1.812,0.334-3.994,0.875-5.904c-0.019-0.291-0.036-0.583-0.055-0.874c0.146-0.736,0.202-2.325,0.438-3.171
	C102.613,92.26,102.167,89.819,102.937,88.91 M105.015,98.312c0.036,0,0.073,0,0.109,0
	C105.087,98.312,105.051,98.312,105.015,98.312z M28.429,103.122c3.255-0.021,5.101,2.398,6.014,4.865
	c0.67,1.812,1.439,3.885,2.077,6.068c0.564,3.152,1.13,6.305,1.695,9.457c0.345,1.479,0.697,6.571,1.257,7.161
	c0-0.037,0-0.073,0-0.11c0.394-0.778,0.498-1.682,1.093-2.241c0.811-0.761,1.958-0.195,2.46,0.437
	c1.251,1.574,1.825,3.557,2.405,5.849c1.064,4.204,1.942,8.8,2.733,13.448c0.302,1.768,0.274,6.653,0.766,7.325
	c0.019-0.019,0.037-0.036,0.055-0.055c-0.031-4.504,0.177-8.316,0.984-11.972c0.396-1.793,0.487-4.011,1.093-4.974
	c0.098-0.156-0.016-0.619,0.109-0.984c0.432-1.256,0.945-2.43,1.64-3.389c0.055,0.018,0.109,0.036,0.164,0.055
	c0.037,0.018,0.074,0.036,0.109,0.054c0.462,6.604-0.045,13.129,1.093,20.772c0.317,2.125,0.632,6.717,1.914,7.49
	c0.223,0.143,0.336,0.164,0.437-0.11c0.642-0.522,1.029-4.125,1.257-5.357c-0.036-0.182-0.073-0.364-0.109-0.546
	c0.632-2.617,0.32-6.51,0.547-9.238c-0.109-0.82-0.218-1.641-0.328-2.46c-0.491-2.51,1.139-6.244,2.241-7.106
	c0.091,0.136,0.025,0.088,0.164,0c0.089-0.42,0.815-0.509,1.202-0.656c-0.105-0.076-0.033-0.005-0.109-0.109
	c2.772,0.233,2.656,3.018,3.225,5.74c0.219,1.676,0.438,3.353,0.656,5.029c0.296,1.063-0.243,1.877-0.055,2.678
	c0.252,1.069,0.132,3.61-0.273,5.303c-0.278,1.163-0.945,2.548-1.093,3.771c0.852,0.694,1.197,1.452,2.405,1.859
	c1.346-1.317,0.807-4.899,0.766-7.052c-0.041-2.125-0.673-5.419-0.492-7.161c0.058-0.554-0.35-2.005-0.055-2.241
	c0.045-0.146-0.399-1.849-0.219-2.46c0.002-0.007-0.165-0.527-0.164-0.766c0.002-1.25-0.392-3.942,0.546-5.302
	c0.146,0.018,0.291,0.037,0.438,0.055c1.186,1.137,1.176,4.827,1.585,6.56c0.778,3.299,0.834,6.501,1.804,9.949
	c0.551,1.958,0.799,7.027,3.28,6.942c0.273-0.437,0.547-0.875,0.82-1.312c0.42-0.995,0.759-2.036,1.039-2.733
	c0.42-1.053,0.22-3.048,0.875-3.936c-0.276-0.639,0.435-2.975,0.546-3.936c-0.364-0.838,0.403-2.078,0.383-2.842
	c-0.048-1.846,0.396-4.982,0.984-6.833c0.282-0.013,0.247-0.04,0.437,0.055c0.031,3.021,0.082,6.825,0.93,9.402
	c0.091,0.601,0.182,1.203,0.273,1.803c0.273,0.748,0.546,1.495,0.82,2.242c0.287,0.447,0.768,1.044,0.82,1.257
	c0.109,0.073,0.219,0.146,0.328,0.219c0.074,0,0.146,0,0.219,0c0.829-1.106,1.204-2.566,1.804-3.936
	c0.037,0.019,0.073,0.037,0.109,0.055c0,0.019,0,0.037,0,0.055c-0.208,0.833-1.1,4.629-2.241,4.319
	c-2.045-0.556-2.247-5.162-2.952-6.724c-0.498-1.102-0.222-6.068-0.601-6.286c0.004,0.504-0.672,5.799-0.93,6.123
	c-0.071,0.088-0.164,2.351-0.164,2.351c-0.357,0.797-0.192,1.837-0.438,2.788c-0.387,1.502-0.521,2.516-0.984,3.936
	c-0.438,1.346-1.106,4.771-2.843,4.319c-1.717-0.447-2.067-3.698-2.624-5.302c-0.458-1.321-0.468-3.155-0.929-4.538
	c-0.091-0.801-0.183-1.604-0.274-2.405c-0.37-1.204-0.804-3.15-0.71-4.21c0,0-0.461-2.415-0.438-2.459
	c-0.059-0.144-0.037-0.018-0.055-0.219c-0.014-0.161,0.024-0.1,0.055-0.218c0.06-0.228-0.998-3.376-1.039-3.936
	c-0.073,0.037-0.146,0.073-0.219,0.109c-0.385,1.712-0.312,3.594-0.109,4.974c0.042,0.291,0.056,1.304-0.109,1.531
	c0.402,0.693,0.478,3.919,0.601,5.029c0.25,2.248,0.017,4.622,0.438,7.161c0.207,1.249-0.106,5.543-1.039,5.958
	c-1.012,0.451-2.604-1.364-2.897-1.804c-0.055,0.037-0.109,0.073-0.165,0.109c-0.139,0.569-0.728,1.492-1.366,1.366
	c-1.192,0.109-1.453-1.742-1.75-2.788c-0.771-2.71-0.685-7.937-1.859-9.348c-0.018,0-0.036,0-0.054,0
	c-0.073,3.556,0.028,7.202-0.82,10.496c-0.354,1.377-0.069,2.899-1.421,3.444c-1.659-1.151-2.014-3.848-2.405-6.45
	c-0.461-3.068-0.535-6.978-0.984-10.223c-0.243-1.752,0.167-3.187-0.164-4.92c-0.288-1.5,0.436-5.938-0.055-6.396
	c-0.219,0.474-0.438,0.948-0.656,1.422c-0.507,1.03-0.432,2.131-0.82,2.897c-0.133,0.264-0.056,0.893-0.109,1.203
	c-0.161,0.934-0.532,2.657-0.765,3.389c-0.467,1.468,0.016,3.635-0.656,4.975c-0.114,0.229,0.093,1.004,0.055,1.312
	c-0.278,2.233-0.142,3.634-0.328,5.63c0,0,0.107,1.926,0.109,2.296c0.055,1.749,0.11,3.499,0.164,5.247
	c0.061,0.749,0.302,1.166,0.219,2.078c-0.073,0.055-0.146,0.109-0.219,0.164c-0.109-0.091-0.219-0.182-0.328-0.273
	c-0.201-1.239-0.401-2.478-0.602-3.717c-0.237-1.259,0.083-3.072-0.164-4.592c-0.345-2.131-0.325-4.798-0.711-6.833
	c-0.265-1.397-0.249-3.408-0.656-4.92c-0.742-2.757-0.792-7.126-1.75-8.801c-0.345-0.604-0.177-1.545-0.382-2.077
	c-0.68-1.758-1.527-6.007-3.663-6.068c-0.929,0.616-1.429,1.977-1.694,3.226c-0.231,1.088,0.155,2.839,0.383,4.045
	c0.182,2.095,0.365,4.191,0.546,6.287c1.108,9.678-0.032,19.077,0,29.737c-0.252,0.118-0.257,0.148-0.492,0.055
	c-0.558-3.154-0.659-6.111-1.312-9.347c-0.287-1.423-0.123-4.313-0.492-5.74c0.018-0.383,0.036-0.766,0.055-1.148
	c-0.392-1.149-0.217-2.163-0.328-3.389c-0.019-0.565-0.037-1.13-0.055-1.695c0.223-0.058,0.104,0.06,0.164-0.164
	c-0.302-0.269-0.215-3.545-0.109-3.772c-0.144-0.406,0.117-0.921,0.054-1.366c-0.222-1.596-0.183-5.568,0.328-6.723
	c0.043-0.097,0.044-2.281,0.109-2.625c0.183-1.093,0.365-2.187,0.547-3.279c-0.292-1.804-0.583-3.608-0.875-5.412
	c-0.787-6.161-2.183-17.458-6.068-21.921c-0.62-0.711-1.836-1.341-3.171-1.585c-0.769-0.141-2.083,0.558-2.46,0.382
	c-3.14,1.423-5.766,3.98-7.271,7.106c-0.369,0.768-0.55,1.645-1.038,2.351c-1.429,2.067-2.032,5.149-2.897,8.364
	c-0.503,1.868-0.962,3.843-1.531,5.849c-0.419,1.479-0.351,3.164-0.71,4.865c-0.219,1.035-0.521,2.786-0.438,3.663
	c0.194,2.024-0.719,4.155-0.055,5.958c0.053,0.145-0.138,0.491-0.109,0.765c0.125,1.179,0.176,2.109,0.437,3.116
	c0.386,1.488,0.486,3.742,1.203,5.302c3.12,6.794,6.58,10.979,11.151,16.291c1.613,1.873,7.742,6.866,10.277,6.45
	c0.947,0.091,1.895,0.183,2.843,0.273c1.939-0.383,3.492-0.945,4.919-1.968c0.254-0.183,1.476-1.268,1.257-1.421
	c0.275-0.287,0.636-0.505,0.766-0.875c-0.142-0.113,0.002-0.386,0.164-0.656c0.036,0.019,0.073,0.036,0.11,0.055
	c0.036,0.146,0.073,0.292,0.109,0.438c-0.342,0.411-0.266,0.765-0.656,1.366c-0.588,0.907-1.846,1.93-2.734,2.351
	c-9.26,4.387-16.38-4.68-21.264-10.004c-3.147-3.431-5.253-7.594-7.435-12.08c-0.581-1.195-0.777-2.986-1.147-4.209
	c-0.892-2.948-0.533-7.473-0.383-10.878c0.079-1.774,0.308-5.599,1.039-6.888c0.149-0.263,0.223-2.503,0.382-3.061
	c0.511-1.794,0.938-3.936,1.476-5.302c0.48-1.219,0.457-2.452,0.875-3.444c1.665-3.949,3.513-9.531,6.943-12.135
	c1.208-0.917,2.387-1.562,3.881-2.187C27.227,103.305,27.828,103.214,28.429,103.122z M100.696,107.605
	c0.073,0.164,0.146,0.328,0.218,0.492c-0.055-0.037-0.109-0.073-0.164-0.11C100.732,107.86,100.714,107.732,100.696,107.605z
	 M100.696,108.316c0.073,0.127,0.146,0.255,0.218,0.382c-0.088,0.14-0.067,0.133-0.218,0.219c-0.036-0.164-0.073-0.328-0.109-0.492
	C100.692,108.349,100.62,108.42,100.696,108.316z M100.532,109.026c0.545,0.386-0.076,3.462,0,4.646
	c0.009,0.138-0.084,1.138-0.218,1.312c0.295,0.302-0.161,2.592-0.11,3.389c0.161,2.485-0.385,4.474-0.164,7.489
	c-0.036,0.018-0.073,0.036-0.109,0.055c-0.073-0.019-0.146-0.037-0.218-0.055c0.134-1.408-0.002-3.081,0-4.264
	c0-0.321,0.17-1.262,0.109-1.585c-0.054-0.286,0.143-1.027,0.219-1.203c0.108-0.25,0.083-3.633,0.055-3.772
	c-0.08-0.396,0.271-3.526,0.438-3.498C100.321,110.754,100.548,109.889,100.532,109.026z M157.93,119.741
	c3.749,0.228,3.85,5.324,3.771,9.184c0,0,0.042,3.273,0,3.499c-0.018,1.093-0.037,2.187-0.054,3.279
	c-0.262,1.57-0.324,3.74-0.11,4.702c0.14,0.627-0.502,4.129-0.109,4.482c0.234,0.186,2.772-0.882,3.443-0.984
	c3.681-1.13,7.362-2.26,11.042-3.39c2.445-0.508,5.681-1.186,8.746-2.241c1.92-0.661,4.567-0.551,6.396-1.312
	c0,0,1.303-0.085,1.366,0c0.811-0.8,4.096-0.392,5.412-0.765c0.819-0.232,2.231,0.043,2.843,0.219
	c1.271,0.364,2.325,0.228,3.334,0.765c3.227,1.716,4.991,6.428,3.99,11.097c-0.451,2.106-0.884,4.571-1.913,6.45
	c-1.017,1.858-1.33,3.195-2.514,4.865c-0.495,0.697-0.687,1.886-1.148,2.46c-0.113,0.115-0.097,0.089-0.329,0.11
	c-0.055-0.019-0.109-0.037-0.164-0.055c-0.143-1.05,1.749-3.89,2.296-4.755c0.109-0.347,0.218-0.693,0.328-1.039
	c1.993-2.894,3.965-9.4,2.842-13.557c-1.037-3.838-3.976-6.166-8.747-6.013c-1.13,0.073-2.26,0.146-3.389,0.219
	c-0.922-0.157-1.881,0.398-3.116,0.383c-0.622-0.008-4.907,0.684-5.958,1.257c-0.347,0.19-1.294,0.026-1.914,0.273
	c-0.394,0.158-3.993,1.259-4.81,1.203c-0.583,0.127-1.167,0.255-1.75,0.383c-0.625,0.444-4.917,1.616-5.74,1.695
	c-0.255-0.156-1.114,0.672-1.366,0.328c-0.549,0.437-1.458,0.336-2.077,0.656c-0.855,0.441-2.292,0.587-3.39,1.093
	c-0.98,0.453-2.382,0.953-3.772,1.257c-0.008,1.698-0.198,2.764,0.164,4.264c0.218,0.902-0.269,2.066,0.11,2.842
	c0.25,0.515-0.189,1.742,0.164,2.46c0.228,0.465,0.084,2.656,0.328,3.389c0.028,0.084,0.319,3.471,0.273,3.553
	c0.04,0.103,0.654,3.668,0.546,3.772c0.504,0.798,0.706,3.505,0.984,4.537c0.707,2.616,1.013,5.714,2.077,7.38
	c0.522,0.817,0.527,1.99,1.695,2.022c0.154-0.095,0.14-0.119,0.382-0.164c0,0.018,0,0.036,0,0.054c-0.036,0-0.072,0-0.109,0
	c-0.175,0.19-0.256,0.213-0.547,0.164c0.073,0.164,0.146,0.328,0.219,0.492c-0.057,0.133-0.064,0.186-0.164,0.273
	c-0.109,0.018-0.219,0.036-0.328,0.054c-0.438-0.528-0.875-1.057-1.312-1.585c-0.077-0.136-0.138-0.581-0.328-0.766
	c-1.698-1.646-3.858-2.607-6.013-3.499c-1.021-0.364-2.041-0.729-3.061-1.093c-0.052-0.021-0.469-0.17-0.273-0.164
	c-0.073,0.037-0.146,0.073-0.219,0.11c-0.764-0.098-1.695-0.438-2.405-0.766c-0.383-0.036-0.766-0.073-1.148-0.109
	c-1.076-0.292-1.915-0.31-3.28-0.656c-0.916-0.232-7.818-1.261-8.746-0.929c-1.462-0.379-3.988-0.55-4.975-0.383
	c-1.933,0.327-3.687-0.341-5.466-0.109c-0.618,0.081-3.677-0.391-4.155-0.273c-0.204,0.05-5.196,0.375-5.521,0.055
	c-0.552,0.441-1.927-0.061-2.788,0.109c-2.616,0.518-6.945-0.014-9.949,0.438c-3.482,0.523-8.045-0.11-10.386,0.656
	c-0.598,0.196-1.952-0.05-2.515,0.219c-0.364-0.019-0.729-0.036-1.093-0.055c-1.177,0.122-2.369,0.181-3.061,0.382
	c-0.383,0-0.766,0-1.148,0c-0.495,0.218-4.049,0.631-4.537,0.493c-1.768,0.421-3.969,0.397-6.068,0.874
	c-0.528,0.019-1.057,0.037-1.585,0.055c-2.35,0.587-4.312,0.927-6.669,1.967c-1.633,0.721-3.975,0.947-4.811,1.531
	c-0.656,0.183-1.312,0.365-1.968,0.547c-1.517,0.598-3.495,1.009-5.083,1.531c-6.309,2.068-12.598,3.568-18.422,5.029
	c-1.728,0.433-4.081,0.603-5.412,0.382c-0.54-0.089-2.238-0.279-1.858-1.147c0.322-0.675,1.33-0.878,2.022-1.203
	c1.662-0.779,3.725-1.329,6.45-2.187c7.779-2.447,14.759-2.957,22.959-4.756c3.735-0.619,7.472-1.239,11.207-1.858
	c0.481-0.306,1.278-0.363,2.186-0.71c2.382-0.911,4.439-1.214,6.561-2.077c7.122-2.897,15.44-4.769,22.958-7.599
	c1.307-0.492,2.686-0.603,4.045-1.093c4.907-1.769,9.929-3.301,15.143-5.029c2.544-0.843,5.242-1.999,7.653-2.569
	c0.819-0.193,2.049-0.587,2.788-1.093c0.15-0.103,0.674-0.099,0.875-0.164c0.974-0.317,2.135-0.848,3.006-1.203
	c0.533-0.217,1.202-0.166,1.914-0.492c3.748-1.718,7.979-2.558,11.807-4.045c1.652-0.642,4.665-1.956,6.396-2.186
	c0.055-2.606,0.109-5.212,0.164-7.817c-0.136-0.848,0.308-1.702,0.055-2.351c0.348-1.473,0.313-2.824,0.164-4.482
	c-0.045-0.509,0.103-2.19,0-2.897c-0.389-2.688,0.007-6.361-2.241-7.434c-2.231-1.066-6.276,2.284-7.872,2.678
	c0.055-0.109,0.109-0.219,0.164-0.328c0.091,0.019,0.182,0.036,0.273,0.055c0.074-0.56,1.323-0.812,1.75-1.094
	c0.945-0.624,2.321-1.235,3.334-1.585C157.137,119.744,157.516,119.948,157.93,119.741z M150.769,122.856
	c0.054,0.037,0.109,0.073,0.164,0.109c-0.019,0.037-0.037,0.072-0.055,0.109c-0.31,0.104-0.2,0.113-0.273,0.328
	c-0.27-0.045-0.163,0.036-0.273-0.164C150.478,123.111,150.623,122.984,150.769,122.856z M150.058,123.294
	c0.115,0.096,0.051,0.063,0.11,0.273c-0.073,0-0.146,0-0.219,0c0-0.055,0-0.11,0-0.164c0.036,0,0.073,0,0.109,0
	C150.058,123.367,150.058,123.33,150.058,123.294z M149.675,123.567c0.166,0.105,0.088,0.011,0.164,0.219
	c-0.036,0.036-0.073,0.072-0.109,0.109c-0.036-0.018-0.072-0.037-0.109-0.055C149.639,123.749,149.658,123.658,149.675,123.567z
	 M149.128,123.95c0.11,0.018,0.219,0.037,0.329,0.055c-0.037,0.018-0.073,0.037-0.109,0.055c-0.219,0.127-0.438,0.255-0.656,0.383
	c0.037-0.091,0.073-0.182,0.109-0.274C148.91,124.096,149.02,124.022,149.128,123.95z M148.637,124.497
	c0.018,0.054,0.037,0.109,0.054,0.164c-0.037-0.018-0.073-0.036-0.109-0.055C148.6,124.569,148.619,124.533,148.637,124.497z
	 M148.09,124.715c0.036,0.037,0.073,0.073,0.109,0.109c-0.073,0.037-0.145,0.073-0.218,0.109
	C148.018,124.861,148.054,124.788,148.09,124.715z M188.651,125.207c0.259-0.003,0.364,0.007,0.492,0.109c0,0.018,0,0.036,0,0.055
	c-0.172,0.099-0.141,0.078-0.219,0.273c-0.39,0.032-0.491,0.03-0.765-0.109c-0.085-0.435,0.092-0.525,0.492-0.601
	C188.651,125.025,188.651,125.116,188.651,125.207z M147.38,125.152c0.113,0.107,0.056,0.021,0.109,0.219c-0.054,0-0.109,0-0.164,0
	C147.344,125.298,147.361,125.225,147.38,125.152z M146.615,125.699c0.054,0,0.109,0,0.164,0c-0.037,0.072-0.073,0.146-0.109,0.219
	c-0.037-0.037-0.073-0.073-0.109-0.11C146.578,125.771,146.596,125.735,146.615,125.699z M99.876,125.973
	c0.29,0.45,0.175,4.4-0.055,4.919c-0.036-0.018-0.073-0.037-0.109-0.055c-0.009-0.961,0.055-1.619,0.164-2.296
	c-0.208-0.022-0.067,0.062-0.218-0.055C99.856,127.703,99.535,126.722,99.876,125.973z M145.849,126.246c0.073,0,0.146,0,0.218,0
	c-0.054,0.091-0.109,0.182-0.164,0.273c-0.037-0.036-0.073-0.073-0.109-0.109C145.812,126.355,145.831,126.3,145.849,126.246z
	 M145.576,126.519c0.018,0.036,0.037,0.073,0.055,0.109C145.612,126.592,145.594,126.555,145.576,126.519z M145.357,126.574
	c0.055,0,0.11,0,0.165,0c-0.038,0.037-0.073,0.072-0.109,0.109C145.394,126.646,145.375,126.61,145.357,126.574z M145.138,126.738
	c0.019,0.037,0.036,0.073,0.055,0.109C145.174,126.811,145.157,126.774,145.138,126.738z M144.482,127.175
	c0.117,0.128,0.024-0.006,0.055,0.164c-0.037-0.018-0.073-0.036-0.109-0.055C144.446,127.248,144.464,127.212,144.482,127.175z
	 M136.282,132.313c-0.012,0.08,0.023,0.055-0.054,0.164C136.246,132.423,136.265,132.368,136.282,132.313z M135.244,132.75
	c0.054,0,0.109,0,0.164,0c-0.084,0.23,0.01,0.134-0.218,0.219C135.208,132.896,135.226,132.823,135.244,132.75z M134.752,133.024
	c0.055,0.036,0.109,0.073,0.164,0.109c-0.073,0.037-0.146,0.074-0.219,0.11C134.716,133.17,134.734,133.097,134.752,133.024z
	 M134.369,133.243c0.055,0,0.109,0,0.165,0c0,0.036,0,0.073,0,0.109c-0.091,0.018-0.183,0.037-0.274,0.055
	C134.296,133.352,134.333,133.297,134.369,133.243z M133.878,133.461c0.054,0,0.109,0,0.164,0c0,0.018,0,0.037,0,0.055
	c-0.055,0.018-0.109,0.037-0.164,0.054C133.878,133.534,133.878,133.498,133.878,133.461z M133.495,133.57c0.109,0,0.219,0,0.328,0
	c-0.08,0.224-0.072,0.146-0.219,0.273c-0.338-0.017-0.54,0.292-0.82,0.055C133.106,133.785,133.241,133.845,133.495,133.57z
	 M132.347,134.063c0.242,0.04,0.199-0.012,0.328,0.109c-0.055,0.036-0.109,0.073-0.164,0.11c-0.109,0.018-0.218,0.036-0.328,0.054
	C132.245,134.137,132.245,134.187,132.347,134.063z M131.8,134.282c0.22,0.021,0.214,0.017,0.328,0.109
	c-0.037,0.036-0.073,0.073-0.11,0.109c-0.409,0.077-1.996,1.007-2.569,0.711C129.856,135.135,131.528,134.582,131.8,134.282z
	 M39.144,134.718c-1.06,10.808-1.084,22.737,0.929,33.291c0.055-0.037,0.109-0.073,0.164-0.109
	c-0.199-1.696-0.162-3.288,0.109-5.193c0.271-1.901-0.151-4.302,0.219-6.067c-0.018-0.729-0.037-1.458-0.055-2.187
	c-0.078-0.656-0.042-1.847,0.109-2.242c-0.273-1.136-0.192-3.305-0.164-4.318c-0.364-4.354-0.729-8.71-1.093-13.064
	C39.29,134.792,39.217,134.755,39.144,134.718z M61.775,137.179c-0.628,0.325-1.157,0.5-1.64,0.82c0,0-1.458,2.582-1.258,3.006
	c-0.176,0.469-0.698,1.884-0.383,2.515c0.019-0.055,0.037-0.109,0.055-0.164c0.073-0.128,0.146-0.255,0.219-0.383
	c0.127,0,0.255,0,0.382,0c0,0.037,0,0.073,0,0.109c0.194,0.372,0.438,2.144,0.274,2.625c0.375,1.77-0.024,3.302,0.273,5.193
	c0.168,1.07,0.762,2.46,1.257,3.499c0.312,0.654,0.486,1.394,1.039,1.804c-0.018,0.018-0.036,0.036-0.054,0.054
	c-0.165,0.006-0.052,0.086,0,0.165c0.407,0.612,0.94,2.112,1.639,2.295c0.128-0.808,0.572-2.028,0.875-2.624
	c-0.037-0.109-0.073-0.219-0.109-0.328c0.109-0.327,0.219-0.656,0.328-0.983c0.019-0.529,0.037-1.057,0.055-1.586
	c0.122-0.465-0.001-1.095,0.055-1.749c0.268-3.148,0.118-5.979-0.602-8.528C63.603,140.871,63.983,137.665,61.775,137.179z
	 M50.295,137.233c0.037,0,0.073,0,0.109,0C50.31,137.286,50.393,137.284,50.295,137.233z M68.225,137.288c0.037,0,0.073,0,0.109,0
	c-0.036,0.055-0.073,0.109-0.109,0.164C68.225,137.397,68.225,137.343,68.225,137.288z M86.046,137.452
	c2.778-0.077,2.596,6.93,1.203,8.855c-0.204,0.282-0.578,0.357-0.875,0.547c1.124,2.123,1.407,2.958,3.826,2.241
	c0.128-0.504,1.018-1.423,1.422-1.694c0.036,0.036,0.073,0.073,0.109,0.109c-2.502,5.039-5.7,1.091-6.888-2.405
	c-0.169-0.5,0.142-1.628,0.219-2.078C85.399,141.048,84.541,138.618,86.046,137.452z M86.319,137.834
	c-0.172,0.19-0.507,0.457-0.492,0.656c-0.23,0.748-0.331,1.823-0.273,2.569c0.162,0.002,0.111-0.011,0.273,0.055
	c-0.258,0.645-0.468,4.661,0.492,5.302C87.83,145.687,88.712,138.414,86.319,137.834z M158.914,145.651c0.037,0,0.073,0,0.11,0
	C158.987,145.651,158.95,145.651,158.914,145.651z M160.718,145.651c-1.361,0.834-3.302,1.053-5.029,1.64
	c-3.79,1.288-8.846,2.731-12.518,4.428c-1.184,0.547-4.717,1.187-5.248,1.859c-0.154-0.097-0.093-0.08-0.218-0.109
	c-0.428,0.636-3.679,1.174-4.374,1.476c-2.876,1.249-5.29,1.748-8.637,2.897c-4.883,1.676-9.714,3.014-14.432,4.92
	c-0.969,0.391-1.924,0.481-2.733,0.765c-0.109-0.019-0.219-0.036-0.328-0.055c-1.032,0.952-4.34,1.373-5.958,2.132
	c-0.481,0.226-3.616,1.088-3.718,1.039c-1.632,0.675-2.605,0.996-4.209,1.53c-0.59,0.197-1.55,0.306-1.913,0.547
	c-0.181,0.12-1.101,0.434-1.312,0.328c-1.182,0.517-2.548,0.864-3.608,1.366c-0.773,0.366-2.255,0.389-2.897,0.984
	c-0.129,0.121-1.834,0.34-2.241,0.656c-0.691,0.538-2.559,0.435-2.842,0.82c-0.112,0.074-0.088,0.061-0.164,0.164
	c0.072,0.018,0.145,0.036,0.218,0.054c0.49-0.165,5.357-0.823,5.576-0.656c0.686-0.362,3.703-0.631,4.646-0.546
	c0.676,0.061,3.103-0.523,3.28-0.273c0.742-0.568,3.486-0.281,4.319-0.438c0.708-0.133,5.756-0.612,6.122-0.383
	c1.171-0.496,3.892-0.327,5.248-0.328c1.477-0.091,2.952-0.182,4.429-0.273c1.429-0.264,2.501,0.176,3.935-0.109
	c1.2-0.239,2.744,0.42,3.718-0.054c0.203-0.1,1.108,0.057,1.257,0.109c0.247,0.087,3.719-0.144,3.936-0.219
	c0.164,0.055,0.328,0.11,0.492,0.164c1.363-0.398,3.169,0.189,4.209-0.054c0.871-0.204,2.055,0.181,2.788,0.219
	c0.064,0.056,2.634-0.097,3.116,0c0.454,0.091,3.523,0.491,4.318,0.218c0.786,0.152,1.54,0.364,2.241,0.273
	c1.59-0.206,2.906,0.7,4.374,0.547c0.445-0.046,5.867,0.627,6.505,1.148c0,0,0.417,0.098,0.437,0.109c0,0,0.318-0.08,0.438-0.055
	c0.091,0.055,0.182,0.109,0.273,0.165c0,0,2.092,0.737,2.405,0.546c0.671,0.351,1.838,0.598,2.624,0.875
	c2.033,0.716,4.322,1.88,5.795,3.171c0.153-0.097,0.092-0.08,0.218-0.109c-1.361-3.794-2.275-8.234-3.007-12.463
	c-0.273-2.132-0.546-4.264-0.819-6.396c-0.183-3.134-0.365-6.268-0.547-9.402c-0.167-1.285,0.271-2.443-0.109-3.225
	C160.754,145.651,160.736,145.651,160.718,145.651z M84.679,145.815c0.037,0,0.073,0,0.109,0c-0.037,0.055-0.072,0.11-0.109,0.164
	C84.679,145.925,84.679,145.87,84.679,145.815z M84.734,146.144c0.037,0,0.073,0,0.109,0c-0.036,0.055-0.073,0.109-0.109,0.164
	C84.734,146.252,84.734,146.198,84.734,146.144z M84.516,147.018c0,0.146,0,0.292,0,0.438c-0.019,0-0.037,0-0.055,0
	C84.479,147.31,84.497,147.164,84.516,147.018z M91.786,147.127c0.166,0.105,0.088,0.011,0.165,0.219c-0.073,0-0.146,0-0.219,0
	C91.75,147.273,91.768,147.201,91.786,147.127z M84.297,147.51c0.054,0,0.109,0,0.164,0c0,0.073,0,0.146,0,0.219
	c-0.037,0.018-0.073,0.036-0.109,0.054c-0.019-0.018-0.037-0.036-0.054-0.054C84.297,147.656,84.297,147.583,84.297,147.51z
	 M84.187,148.221c0.118,0.121,0.108,0.106,0.055,0.273c-0.019,0-0.036,0-0.055,0C84.187,148.403,84.187,148.312,84.187,148.221z
	 M84.187,148.603c0.087,0.13,0.1,0.198,0.11,0.438c-0.11-0.019-0.219-0.037-0.329-0.055
	C84.068,148.813,84.036,148.765,84.187,148.603z M60.08,154.125c-0.025,1.603,0.743,5.946,1.914,6.724
	c0.146-0.018,0.292-0.036,0.438-0.055c0.201-0.435,0.556-0.913,0.82-1.366c-0.35-1.057-1.773-2.67-2.296-3.718
	C60.724,155.249,60.571,154.309,60.08,154.125z M63.306,155.163c0.037,0,0.073,0,0.109,0
	C63.378,155.163,63.342,155.163,63.306,155.163z M63.032,155.382c0.036,0,0.073,0,0.11,0c-0.019,0.091-0.037,0.182-0.055,0.273
	c-0.019,0-0.037,0-0.055,0C63.032,155.564,63.032,155.473,63.032,155.382z M62.978,155.655c0.105,0.128,0.137,0.254,0.055,0.437
	C63.015,155.947,62.996,155.801,62.978,155.655z M58.987,156.147c0.181,0.088,0.237,0.149,0.328,0.328
	c-0.073-0.037-0.146-0.073-0.219-0.109C58.927,156.237,58.962,156.352,58.987,156.147z M62.485,156.147c0.164,0,0.328,0,0.492,0
	c0,0.018,0,0.036,0,0.055c-0.054,0.018-0.109,0.036-0.164,0.054C62.58,156.19,62.528,156.18,62.485,156.147z M65.601,157.624
	c0.196,0.097,0.065-0.03,0.164,0.164c-0.018,0-0.036,0-0.054,0C65.675,157.732,65.638,157.677,65.601,157.624z M66.421,157.951
	c0.019,0.055,0.036,0.109,0.055,0.164c-0.055-0.036-0.109-0.073-0.164-0.109C66.349,157.987,66.385,157.969,66.421,157.951z
	 M49.858,158.771c0.036,0,0.073,0,0.109,0c-0.036,0.073-0.073,0.146-0.109,0.218c-0.019,0-0.037,0-0.055,0
	C49.822,158.917,49.84,158.844,49.858,158.771z M38.378,165.932c0.055,0.036,0.109,0.073,0.164,0.109c0,0.018,0,0.036,0,0.055
	C38.324,166.019,38.444,166.074,38.378,165.932z M45.649,168.938c0.055,0.055,0.109,0.11,0.164,0.164
	c-0.037,0.073-0.073,0.146-0.109,0.218c-0.018,0-0.036,0-0.055,0C45.649,169.194,45.649,169.066,45.649,168.938z M155.36,173.476
	c0.037,0,0.073,0,0.11,0C155.434,173.476,155.397,173.476,155.36,173.476z M70.794,174.569c-0.517,0.351-0.971,0.093-1.64,0.274
	c-1.766,0.477-4.077,0.464-6.067,1.038c-0.413,0.119-3.359,0.766-3.608,0.601c-1.266,0.63-2.891,0.522-4.374,0.875
	c-3.872,0.921-7.771,1.223-11.315,2.514c-3.188,1.162-5.966,1.146-8.474,2.678c-0.702,0.43-1.46,0.442-1.968,1.039
	c0.073,0.11,0.146,0.219,0.219,0.329c0.358-0.111,0.654,0.218,1.039,0.328c0.774,0.22,1.788-0.271,2.187-0.492
	c0.019,0.109,0.037,0.218,0.055,0.328c4.423-0.898,8.635-1.312,12.135-2.625c1.217-0.456,3.836-0.63,4.428-1.312
	c0.3,0.285,1.251-0.302,1.694-0.383c0.201-0.073,0.401-0.146,0.602-0.218c-0.045-0.015,0.844-0.062,1.093-0.164
	c0.82-0.337,2.51-0.875,3.335-1.203c3.475-1.379,6.401-1.415,8.527-2.679c0.648-0.385,2.221-0.267,2.515-0.929
	C71.05,174.569,70.922,174.569,70.794,174.569z M161.538,175.772c0.019,0.055,0.036,0.109,0.055,0.164c-0.019,0-0.036,0-0.055,0
	c-0.018-0.018-0.036-0.037-0.054-0.055C161.501,175.844,161.52,175.808,161.538,175.772z M164.326,177.302c0.036,0,0.073,0,0.109,0
	C164.398,177.302,164.362,177.302,164.326,177.302z M53.576,177.849c0.036,0,0.072,0,0.109,0
	C53.648,177.849,53.612,177.849,53.576,177.849z"/>
</svg>
